<?xml version="1.0" encoding="UTF-8"?>
<svg width="100px" height="35px" viewBox="0 0 100 35" version="1.1" xmlns="http://www.w3.org/2000/svg" xmlns:xlink="http://www.w3.org/1999/xlink">
    <!-- Generator: Sketch 48 (47235) - http://www.bohemiancoding.com/sketch -->
    <title>arrivae logo</title>
    <desc>Created with Sketch.</desc>
    <defs></defs>
    <g id="Page-1" stroke="none" stroke-width="1" fill="none" fill-rule="evenodd">
        <g id="arrivae-logo">
            <polygon id="Shape" fill="#2B2A29" points="64.3878263 13.9991237 70.4124328 0.51045318 72.6987448 0.512643966 64.367902 19.0620305 56.2064156 0.51045318 58.4902371 0.512643966"></polygon>
            <polygon id="Shape" fill="#922230" points="100 25.2904357 0.144451086 25.2904357 0.144451086 23.4764647 100 23.4764647"></polygon>
            <polygon id="Shape" fill="#2B2A29" points="90.4512851 2.33756885 90.4512851 8.24830996 99.2852162 8.26364547 99.2852162 9.99655734 90.4512851 9.98122183 90.4512851 16.8843891 99.7086073 16.8975338 99.7086073 18.5384326 88.3816497 18.5384326 88.3816497 0.565222834 99.8181909 0.565222834 99.8181909 2.35290436"></polygon>
            <polygon id="Shape" fill="#2B2A29" points="51.728432 18.5493866 51.728432 0.552078117 53.7831241 0.552078117 53.7831241 18.5493866"></polygon>
            <path d="M8.16148635,0 L0,18.5515774 L2.31868898,18.5471958 L4.94620442,12.5028167 L11.5037856,12.5028167 L14.2060171,18.5515774 L16.4923291,18.5471958 L8.16148635,0 Z M5.72574218,10.7151352 L8.18141064,5.06509765 L10.7068141,10.7151352 L5.72574218,10.7151352 Z" id="Shape" fill="#2B2A29"></path>
            <polygon id="Shape" fill="#2B2A29" fill-rule="nonzero" points="31.1441522 30.0751127 32.1727436 30.0751127 33.8488743 32.3644842 35.5225144 30.0751127 36.5535963 30.0751127 36.5535963 34.9167501 35.5872684 34.9167501 35.5872684 31.444354 33.8488743 33.7271532 33.8164973 33.7271532 32.095537 31.4574987 32.095537 34.9167501 31.1441522 34.9167501"></polygon>
            <path d="M41.1810122,30.0400601 L42.0776051,30.0400601 L44.4984061,34.9167501 L43.4772863,34.9167501 L42.9194063,33.7468703 L40.3167962,33.7468703 L39.7514445,34.9167501 L38.7602112,34.9167501 L41.1810122,30.0400601 Z M42.5657501,32.9932399 L41.6143654,31.0565849 L40.6704523,32.9932399 L42.5657501,32.9932399 Z" id="Shape" fill="#2B2A29" fill-rule="nonzero"></path>
            <path d="M46.7050209,30.0751127 L48.7572226,30.0751127 C50.488145,30.0751127 51.6811118,31.1201177 51.6811118,32.4827867 L51.6811118,32.4959314 C51.6811118,33.8586004 50.488145,34.9167501 48.7572226,34.9167501 L46.7050209,34.9167501 L46.7050209,30.0751127 Z M48.7572226,34.1412118 C49.9128312,34.1412118 50.6674636,33.4576865 50.6674636,32.5090761 L50.6674636,32.4959314 C50.6674636,31.547321 49.9128312,30.850651 48.7572226,30.850651 L47.6713489,30.850651 L47.6713489,34.1412118 L48.7572226,34.1412118 Z" id="Shape" fill="#2B2A29" fill-rule="nonzero"></path>
            <polygon id="Shape" fill="#2B2A29" fill-rule="nonzero" points="54.1143654 30.0751127 58.1963539 30.0751127 58.1963539 30.8353155 55.0831839 30.8353155 55.0831839 32.0950175 57.8426977 32.0950175 57.8426977 32.8552203 55.0831839 32.8552203 55.0831839 34.1565473 58.2362024 34.1565473 58.2362024 34.9167501 54.1143654 34.9167501"></polygon>
            <path d="M65.269476,30.0751127 L67.3291492,30.0751127 C68.4075513,30.0751127 69.0351664,30.5176515 69.0351664,31.2033676 C69.0351664,31.8934652 68.4399283,32.336004 67.6603905,32.4762143 C68.2033274,32.6208062 68.6341901,32.9318978 68.6341901,33.4774036 C68.6341901,34.3142839 67.7699741,34.9167501 66.3229727,34.9167501 L63.7925882,34.9167501 L65.269476,30.0751127 Z M66.3951982,34.426014 C67.383941,34.426014 68.006575,34.0601527 68.006575,33.4576865 C68.006575,32.9669504 67.4785814,32.7172008 66.7413827,32.7172008 L65.0727237,32.7172008 L64.5546922,34.426014 L66.3951982,34.426014 Z M66.7862124,32.2330371 C67.7699741,32.2330371 68.4000797,31.8518403 68.4000797,31.2712819 C68.4000797,30.8155984 67.9916318,30.5658488 67.2743574,30.5658488 L65.7252441,30.5658488 L65.2221558,32.2330371 L66.7862124,32.2330371 Z" id="Shape" fill="#2B2A29" fill-rule="nonzero"></path>
            <polygon id="Shape" fill="#2B2A29" fill-rule="nonzero" points="72.5069735 32.9669504 71.1471409 30.0751127 71.8395099 30.0751127 72.9403268 32.5156485 75.5354652 30.0751127 76.3274557 30.0751127 73.1047021 33.0567727 72.5393505 34.9167501 71.9092449 34.9167501"></polygon>
            <polygon id="Shape" fill="#2B2A29" fill-rule="nonzero" points="82.6310022 33.0085754 80.4468022 30.0751127 81.5874676 30.0751127 83.1266188 32.2198923 84.6856944 30.0751127 85.7939829 30.0751127 83.6072923 32.9866675 83.6072923 34.9167501 82.6310022 34.9167501"></polygon>
            <path d="M87.188683,32.5090761 L87.188683,32.4959314 C87.188683,31.1332624 88.3841403,29.9918628 90.0752142,29.9918628 C91.7637976,29.9918628 92.9443116,31.1201177 92.9443116,32.4827867 L92.9443116,32.4959314 C92.9443116,33.8586004 91.7488544,35 90.0577804,35 C88.3691971,35 87.188683,33.8717451 87.188683,32.5090761 Z M91.9306635,32.5090761 L91.9306635,32.4959314 C91.9306635,31.5560841 91.1511257,30.7739735 90.0577804,30.7739735 C88.9669257,30.7739735 88.2023311,31.5407486 88.2023311,32.4827867 L88.2023311,32.4959314 C88.2023311,33.4357787 88.9818689,34.2178893 90.0752142,34.2178893 C91.1660689,34.2178893 91.9306635,33.4511142 91.9306635,32.5090761 Z" id="Shape" fill="#2B2A29" fill-rule="nonzero"></path>
            <path d="M95.2903965,32.8617927 L95.2903965,30.0751127 L96.2567244,30.0751127 L96.2567244,32.8267401 C96.2567244,33.7271532 96.7847181,34.211317 97.6489341,34.211317 C98.5056784,34.211317 99.033672,33.7534427 99.033672,32.8617927 L99.033672,30.0751127 L100,30.0751127 L100,32.8201678 C100,34.2660866 99.0735206,34.9934276 97.6339908,34.9934276 C96.2044232,34.9934276 95.2903965,34.2660866 95.2903965,32.8617927 Z" id="Shape" fill="#2B2A29" fill-rule="nonzero"></path>
            <path d="M49.3898187,18.5318603 L43.9753935,10.6231222 C46.2841203,9.92426139 47.9477984,8.00075113 47.9477984,5.73109664 C47.9477984,2.86992989 45.3128113,0.552078117 42.0601713,0.552078117 L35.3880255,0.552078117 L35.3880255,18.5340511 L37.5448296,18.5318603 L37.5448296,10.9101152 L41.6691572,10.9101152 L46.8743774,18.5318603 L49.3898187,18.5318603 Z M37.5423391,2.27403605 L41.7787408,2.27403605 C43.9853556,2.27403605 45.7735605,3.84482974 45.7735605,5.7858663 C45.7735605,7.72471207 43.9853556,9.29769654 41.7787408,9.29769654 L37.5448296,9.29769654 L37.5423391,2.27403605 Z" id="Shape" fill="#2B2A29"></path>
            <path d="M33.0294879,18.5318603 L27.6125722,10.6231222 C29.9237896,9.92426139 31.5849771,8.00075113 31.5849771,5.73109664 C31.5849771,2.86992989 28.94999,0.552078117 25.6998406,0.552078117 L19.0276948,0.552078117 L19.0276948,18.5340511 L21.1820084,18.5318603 L21.1820084,10.9101152 L25.3063359,10.9101152 L30.5115561,18.5318603 L33.0294879,18.5318603 Z M21.1795178,2.27403605 L25.41841,2.27403605 C27.6225344,2.27403605 29.4107392,3.84482974 29.4107392,5.7858663 C29.4107392,7.72471207 27.6225344,9.29769654 25.41841,9.29769654 L21.1820084,9.29769654 L21.1795178,2.27403605 Z" id="Shape" fill="#2B2A29"></path>
            <polygon id="Shape" fill="#922230" points="80.5663479 16.669692 73.0648536 16.669692 77.6823072 5.09357787 83.6919705 18.5515774 85.9782825 18.5471958 77.6474397 0 69.4859534 18.5493866 81.4056585 18.5493866"></polygon>
        </g>
    </g>
</svg>