<?xml version="1.0" encoding="UTF-8"?>
<svg width="37px" height="37px" viewBox="0 0 37 37" version="1.1" xmlns="http://www.w3.org/2000/svg" xmlns:xlink="http://www.w3.org/1999/xlink">
    <!-- Generator: Sketch 48 (47235) - http://www.bohemiancoding.com/sketch -->
    <title>budget</title>
    <desc>Created with Sketch.</desc>
    <defs>
        <linearGradient x1="105.333166%" y1="-31.6203535%" x2="-2.98201005%" y2="127.824242%" id="linearGradient-1">
            <stop stop-color="#FBFBFB" offset="0%"></stop>
            <stop stop-color="#FBFBFB" offset="14.1176%"></stop>
            <stop stop-color="#FBFBFB" offset="30.9804%"></stop>
            <stop stop-color="#8E9393" offset="100%"></stop>
            <stop stop-color="#727271" offset="100%"></stop>
        </linearGradient>
        <linearGradient x1="105.653107%" y1="-31.2411573%" x2="-3.30039548%" y2="127.440449%" id="linearGradient-2">
            <stop stop-color="#8E9393" offset="0%"></stop>
            <stop stop-color="#FBFBFB" offset="67.8431%"></stop>
            <stop stop-color="#FBFBFB" offset="85.098%"></stop>
            <stop stop-color="#FBFBFB" offset="100%"></stop>
        </linearGradient>
    </defs>
    <g id="Page-1" stroke="none" stroke-width="1" fill="none" fill-rule="evenodd">
        <g id="budget">
            <g id="_731898331888">
                <g id="Group-2">
                    <g id="Group" fill-rule="nonzero">
                        <path d="M36.5600014,18.2800007 C36.5600014,28.4355566 28.2926644,36.5600014 18.1881414,36.5600014 C8.26733699,36.5600014 0,28.4355566 0,18.2800007 C0,8.12444475 8.26733699,0 18.1881414,0 C28.2926644,0 36.5600014,8.12444475 36.5600014,18.2800007 Z" id="Shape" fill="url(#linearGradient-1)"></path>
                        <path d="M18.1881414,34.7135367 C9.18592999,34.7135367 2.0209046,27.3276778 2.0209046,18.2800007 C2.0209046,9.23232358 9.18592999,1.84646472 18.1881414,1.84646472 C27.1903528,1.84646472 34.5390968,9.23232358 34.5390968,18.2800007 C34.5390968,27.3276778 27.1903528,34.7135367 18.1881414,34.7135367 Z" id="Shape" fill="url(#linearGradient-2)"></path>
                    </g>
                    <g id="Group" transform="translate(8.818493, 7.939798)" fill="#616063">
                        <path d="M7.34874399,8.67838416 C7.16502539,8.67838416 6.98130679,8.86303064 6.7975882,9.04767711 C6.7975882,9.04767711 6.6138696,9.23232358 6.6138696,9.41697005 C6.6138696,9.60161652 6.7975882,9.78626299 6.7975882,9.97090947 C6.98130679,10.1555559 7.16502539,10.1555559 7.34874399,10.1555559 L9.73708579,10.1555559 L10.2882416,8.86303064 C10.2882416,8.67838416 10.104523,8.67838416 10.104523,8.67838416 L7.34874399,8.67838416 Z M8.08361839,1.66181824 L8.08361839,2.40040413 L7.34874399,2.40040413 C6.98130679,2.40040413 6.7975882,2.5850506 6.6138696,2.5850506 C6.6138696,2.76969707 6.430151,2.95434355 6.430151,3.13899002 C6.430151,3.32363649 6.6138696,3.50828296 6.6138696,3.69292943 C6.7975882,3.8775759 6.98130679,3.8775759 7.34874399,3.8775759 L8.08361839,3.8775759 L8.08361839,4.61616179 C8.08361839,4.98545473 8.08361839,5.1701012 8.26733699,5.35474768 C8.45105559,5.35474768 8.63477419,5.53939415 8.81849279,5.53939415 C9.00221139,5.53939415 9.18592999,5.35474768 9.36964859,5.35474768 C9.36964859,5.1701012 9.55336719,4.98545473 9.55336719,4.61616179 L9.55336719,3.8775759 L10.2882416,3.8775759 C10.4719602,3.8775759 10.6556788,3.8775759 10.8393974,3.69292943 C11.023116,3.50828296 11.023116,3.32363649 11.023116,3.13899002 C11.023116,2.95434355 11.023116,2.76969707 10.8393974,2.5850506 C10.6556788,2.5850506 10.4719602,2.40040413 10.2882416,2.40040413 L9.55336719,2.40040413 L9.55336719,1.66181824 C9.55336719,1.47717177 9.36964859,1.2925253 9.36964859,1.10787883 C9.18592999,0.923232358 9.00221139,0.923232358 8.81849279,0.923232358 C8.63477419,0.923232358 8.45105559,0.923232358 8.26733699,1.10787883 C8.08361839,1.2925253 8.08361839,1.47717177 8.08361839,1.66181824 Z M0.5511558,18.8339401 L0.3674372,19.0185866 C0.3674372,19.0185866 0.1837186,19.203233 0.1837186,19.203233 C0.1837186,19.3878795 0.1837186,19.572526 0.1837186,19.7571725 C0.1837186,19.9418189 0.1837186,20.1264654 0.3674372,20.3111119 C0.5511558,20.4957583 0.734874399,20.4957583 1.1023116,20.4957583 L4.4092464,20.4957583 C4.7766836,20.4957583 4.9604022,20.4957583 5.1441208,20.3111119 C5.3278394,20.1264654 5.3278394,19.9418189 5.3278394,19.7571725 C5.3278394,19.3878795 5.3278394,19.203233 5.1441208,19.0185866 C4.9604022,19.0185866 4.7766836,18.8339401 4.4092464,18.8339401 L2.9394976,18.8339401 L4.9604022,16.2488895 L5.1441208,16.2488895 C5.1441208,16.2488895 5.1441208,16.064243 5.3278394,15.8795966 C5.3278394,15.8795966 5.3278394,15.6949501 5.3278394,15.5103036 C5.3278394,15.1410107 5.3278394,14.9563642 5.1441208,14.9563642 C4.9604022,14.7717177 4.7766836,14.5870713 4.4092464,14.5870713 L1.1023116,14.5870713 C0.918592999,14.5870713 0.5511558,14.7717177 0.3674372,14.9563642 C0.3674372,14.9563642 0.1837186,15.1410107 0.1837186,15.5103036 C0.1837186,15.6949501 0.3674372,15.8795966 0.3674372,16.064243 C0.5511558,16.2488895 0.918592999,16.2488895 1.1023116,16.2488895 L2.755779,16.2488895 L2.755779,16.433536 L0.5511558,18.8339401 Z M2.755779,9.41697005 L1.6534674,7.75515181 L1.4697488,7.75515181 C1.4697488,7.57050533 1.4697488,7.57050533 1.2860302,7.38585886 C1.1023116,7.38585886 1.1023116,7.38585886 0.918592999,7.38585886 C0.5511558,7.38585886 0.3674372,7.38585886 0.1837186,7.57050533 C0,7.75515181 0,7.93979828 0,8.12444475 C0,8.49373769 0,8.67838416 0.1837186,9.04767711 L1.837186,11.2634348 L1.837186,12.5559601 C1.837186,12.925253 2.0209046,13.1098995 2.0209046,13.1098995 C2.2046232,13.294546 2.5720604,13.4791924 2.755779,13.4791924 C3.1232162,13.4791924 3.3069348,13.294546 3.4906534,13.1098995 C3.674372,13.1098995 3.674372,12.925253 3.674372,12.5559601 L3.674372,11.2634348 L5.3278394,9.04767711 L5.3278394,8.86303064 C5.511558,8.67838416 5.511558,8.67838416 5.511558,8.49373769 C5.511558,8.49373769 5.6952766,8.30909122 5.6952766,8.12444475 C5.6952766,7.93979828 5.511558,7.75515181 5.3278394,7.57050533 C5.1441208,7.38585886 4.9604022,7.38585886 4.592965,7.38585886 C4.592965,7.38585886 4.4092464,7.38585886 4.2255278,7.38585886 C4.0418092,7.57050533 4.0418092,7.57050533 4.0418092,7.57050533 C4.0418092,7.75515181 3.8580906,7.75515181 3.8580906,7.75515181 L2.755779,9.41697005 Z M0.3674372,4.61616179 L0.1837186,4.61616179 C0.1837186,4.80080826 0.1837186,4.80080826 0,4.98545473 C0,4.98545473 0,5.1701012 0,5.35474768 C0,5.53939415 0,5.72404062 0.1837186,5.90868709 C0.3674372,6.09333356 0.5511558,6.09333356 0.918592999,6.09333356 C1.1023116,6.09333356 1.1023116,6.09333356 1.2860302,6.09333356 C1.4697488,5.90868709 1.6534674,5.90868709 1.6534674,5.90868709 C1.6534674,5.72404062 1.6534674,5.72404062 1.6534674,5.72404062 L2.755779,4.43151532 L3.8580906,5.72404062 C4.0418092,5.90868709 4.0418092,5.90868709 4.2255278,6.09333356 C4.4092464,6.09333356 4.592965,6.09333356 4.592965,6.09333356 C4.9604022,6.09333356 5.1441208,6.09333356 5.3278394,5.90868709 C5.511558,5.72404062 5.511558,5.53939415 5.511558,5.35474768 C5.511558,4.98545473 5.511558,4.80080826 5.1441208,4.61616179 L3.8580906,2.95434355 L4.9604022,1.66181824 L5.1441208,1.47717177 C5.1441208,1.47717177 5.1441208,1.2925253 5.3278394,1.2925253 C5.3278394,1.10787883 5.3278394,0.923232358 5.3278394,0.923232358 C5.3278394,0.738585886 5.3278394,0.369292943 5.1441208,0.369292943 C4.9604022,0.184646472 4.7766836,0 4.4092464,0 C4.4092464,0 4.2255278,0.184646472 4.0418092,0.184646472 C3.8580906,0.184646472 3.8580906,0.369292943 3.674372,0.369292943 C3.674372,0.369292943 3.674372,0.369292943 3.674372,0.553939415 L2.755779,1.66181824 L1.837186,0.553939415 L1.837186,0.369292943 C1.6534674,0.369292943 1.6534674,0.184646472 1.4697488,0.184646472 C1.2860302,0.184646472 1.2860302,0 1.1023116,0 C0.734874399,0 0.5511558,0.184646472 0.3674372,0.369292943 C0.1837186,0.369292943 0.1837186,0.738585886 0.1837186,0.923232358 C0.1837186,1.10787883 0.3674372,1.47717177 0.5511558,1.66181824 L1.6534674,2.95434355 L0.3674372,4.61616179 Z M7.34874399,10.7094954 C7.16502539,10.7094954 6.98130679,10.7094954 6.7975882,10.8941418 C6.7975882,11.0787883 6.6138696,11.2634348 6.6138696,11.4480812 C6.6138696,11.6327277 6.7975882,11.8173742 6.7975882,11.8173742 C6.98130679,12.0020207 7.16502539,12.1866671 7.34874399,12.1866671 L8.81849279,12.1866671 L9.36964859,10.7094954 L7.34874399,10.7094954 Z" id="Shape"></path>
                        <path d="M19.1067344,4.98545473 C19.290453,4.61616179 19.6578902,4.61616179 19.8416088,4.61616179 C20.209046,4.80080826 20.3927646,5.1701012 20.209046,5.53939415 L16.9021112,12.925253 C16.7183926,13.294546 16.3509554,13.294546 15.9835182,13.294546 C15.616081,13.1098995 15.616081,12.7406065 15.616081,12.3713136 L19.1067344,4.98545473 Z M13.9626136,14.4024248 L13.9626136,14.7717177 C12.4928648,17.7260613 10.6556788,19.7571725 9.36964859,19.9418189 L9.18592999,20.3111119 C9.18592999,20.4957583 8.81849279,20.6804048 8.63477419,20.4957583 C8.26733699,20.3111119 8.26733699,20.1264654 8.26733699,19.9418189 L8.45105559,19.572526 C7.71618119,18.4646472 8.26733699,15.6949501 9.55336719,12.7406065 L9.73708579,12.3713136 L13.9626136,14.4024248 Z M13.778895,3.50828296 C14.1463322,2.76969707 14.697488,2.40040413 15.2486438,2.21575766 L15.616081,1.2925253 C15.9835182,0.923232358 16.534674,0.738585886 16.9021112,0.923232358 L18.1881414,1.47717177 C18.5555786,1.66181824 18.7392972,2.21575766 18.5555786,2.76969707 L18.1881414,3.50828296 C18.37186,4.06222237 18.37186,4.80080826 18.1881414,5.53939415 L14.3300508,13.8484854 L9.92080439,11.8173742 L13.778895,3.50828296 Z" id="Shape"></path>
                    </g>
                </g>
            </g>
        </g>
    </g>
</svg>