<?xml version="1.0" encoding="UTF-8"?>
<svg width="37px" height="37px" viewBox="0 0 37 37" version="1.1" xmlns="http://www.w3.org/2000/svg" xmlns:xlink="http://www.w3.org/1999/xlink">
    <!-- Generator: Sketch 48 (47235) - http://www.bohemiancoding.com/sketch -->
    <title>Comm track and trace</title>
    <desc>Created with Sketch.</desc>
    <defs>
        <linearGradient x1="105.6125%" y1="-31.1231698%" x2="-3.24954545%" y2="127.72%" id="linearGradient-1">
            <stop stop-color="#FBFBFB" offset="0%"></stop>
            <stop stop-color="#FBFBFB" offset="14.1176%"></stop>
            <stop stop-color="#FBFBFB" offset="30.9804%"></stop>
            <stop stop-color="#8E9393" offset="100%"></stop>
            <stop stop-color="#727271" offset="100%"></stop>
        </linearGradient>
        <linearGradient x1="105.652966%" y1="-31.1438945%" x2="-3.30042373%" y2="127.761181%" id="linearGradient-2">
            <stop stop-color="#8E9393" offset="0%"></stop>
            <stop stop-color="#FBFBFB" offset="67.8431%"></stop>
            <stop stop-color="#FBFBFB" offset="85.098%"></stop>
            <stop stop-color="#FBFBFB" offset="100%"></stop>
        </linearGradient>
    </defs>
    <g id="Page-1" stroke="none" stroke-width="1" fill="none" fill-rule="evenodd">
        <g id="Comm-track-and-trace">
            <g id="Group" fill-rule="nonzero">
                <path d="M36.5600014,18.4184855 C36.5600014,28.5278799 28.389395,36.6984862 18.2800007,36.6984862 C8.17060637,36.6984862 0,28.5278799 0,18.4184855 C0,8.30909122 8.17060637,0 18.2800007,0 C28.389395,0 36.5600014,8.30909122 36.5600014,18.4184855 Z" id="Shape" fill="url(#linearGradient-1)"></path>
                <path d="M18.2800007,34.7596983 C9.2784852,34.7596983 1.93878795,27.420001 1.93878795,18.4184855 C1.93878795,9.41697005 9.2784852,1.93878795 18.2800007,1.93878795 C27.2815162,1.93878795 34.6212134,9.41697005 34.6212134,18.4184855 C34.6212134,27.420001 27.2815162,34.7596983 18.2800007,34.7596983 Z" id="Shape" fill="url(#linearGradient-2)"></path>
            </g>
            <g id="Group" transform="translate(6.231818, 6.370303)">
                <path d="M8.86303064,20.2187886 C8.58606093,20.3572735 8.58606093,20.4957583 8.30909122,20.7727281 L7.75515181,21.1881826 C7.33969725,21.6036372 7.75515181,21.3266675 7.33969725,21.4651523 C9.41697005,24.650304 14.2639399,24.7887888 16.4796976,21.8806069 C16.7566673,21.4651523 18.2800007,19.2493947 17.5875764,18.6954552 L15.7872733,18.2800007 C15.3718188,21.742122 12.4636368,22.5730312 10.386364,21.6036372 C9.5554549,21.1881826 9.14000034,20.3572735 8.86303064,20.2187886 Z" id="Shape" fill="#0270A1"></path>
                <g transform="translate(3.877576, 0.000000)" fill="#616063" id="Shape">
                    <path d="M3.8775759,5.53939415 L4.43151532,5.677879 C4.57000017,3.6006062 5.81636385,2.63121222 7.61666695,2.07727281 C9.69393976,1.93878795 11.6327277,3.04666678 11.9096974,5.40090929 C12.0481823,7.61666695 10.6633337,9.41697005 8.30909122,9.5554549 L8.72454578,11.4942429 C10.386364,11.2172731 10.6633337,10.6633337 11.4942429,10.5248489 C11.4942429,10.5248489 11.6327277,10.5248489 12.0481823,10.6633337 C12.1866671,10.9403034 12.325152,11.355758 12.4636368,11.7712126 C12.4636368,11.7712126 12.325152,11.9096974 12.325152,12.0481823 C12.325152,13.1560611 13.294546,13.9869702 14.2639399,13.9869702 C14.2639399,13.9869702 14.4024248,13.9869702 14.4024248,13.9869702 C14.6793945,13.9869702 14.9563642,13.8484854 15.2333339,13.7100005 C15.3718188,13.5715157 15.6487885,13.4330308 15.7872733,13.294546 C15.9257582,13.0175762 16.064243,12.8790914 16.064243,12.7406065 C16.4796976,11.7712126 16.064243,10.9403034 15.3718188,10.5248489 C15.2333339,10.386364 15.0948491,10.386364 14.9563642,10.2478792 C14.9563642,10.2478792 14.9563642,10.2478792 14.8178793,10.2478792 C14.6793945,10.2478792 14.4024248,10.1093943 14.2639399,10.1093943 C14.2639399,10.1093943 14.2639399,10.1093943 14.1254551,10.1093943 C13.7100005,10.1093943 13.294546,9.97090947 13.0175762,9.83242461 L12.8790914,9.14000034 C15.7872733,5.677879 12.6021217,0.138484854 8.72454578,0.138484854 C5.26242444,-0.138484854 2.76969707,2.21575766 2.49272737,5.26242444 L3.8775759,5.53939415 Z"></path>
                    <path d="M12.4636368,18.5569704 L11.9096974,18.2800007 C11.7712126,20.4957583 10.5248489,21.4651523 8.72454578,22.0190917 C6.50878812,22.1575766 4.70848503,20.9112129 4.29303046,18.6954552 C4.29303046,16.4796976 5.677879,14.6793945 8.03212151,14.5409096 L7.61666695,12.6021217 C5.95484871,12.7406065 5.53939415,13.294546 4.84696988,13.5715157 C4.70848503,13.5715157 4.57000017,13.5715157 4.15454561,13.4330308 C4.01606076,13.0175762 4.01606076,12.7406065 3.8775759,12.325152 C3.8775759,12.1866671 3.8775759,12.0481823 3.8775759,11.9096974 C3.8775759,10.9403034 3.04666678,10.1093943 2.07727281,10.1093943 C1.93878795,10.1093943 1.93878795,10.1093943 1.93878795,10.1093943 C1.66181824,10.1093943 1.38484854,10.1093943 1.10787883,10.2478792 C0.969393976,10.386364 0.692424268,10.5248489 0.553939415,10.8018186 C0.415454561,10.9403034 0.276969707,11.0787883 0.276969707,11.2172731 C-0.138484854,12.1866671 0.276969707,13.1560611 0.969393976,13.5715157 C0.969393976,13.5715157 1.10787883,13.7100005 1.24636368,13.7100005 C1.38484854,13.7100005 1.38484854,13.7100005 1.52333339,13.8484854 C1.66181824,13.8484854 1.8003031,13.8484854 2.07727281,13.8484854 C2.07727281,13.8484854 2.07727281,13.8484854 2.07727281,13.8484854 L2.21575766,13.8484854 C2.63121222,13.9869702 3.04666678,14.1254551 3.32363649,14.2639399 L3.46212134,14.8178793 C0.553939415,18.4184855 3.6006062,23.9578797 7.61666695,23.9578797 C10.9403034,24.0963645 13.5715157,21.8806069 13.8484854,18.8339401 L12.4636368,18.5569704 Z"></path>
                </g>
                <g transform="translate(0.000000, 3.739091)" fill="#616063" id="Shape">
                    <path d="M5.53939415,12.6021217 L5.677879,11.9096974 C3.6006062,11.9096974 2.63121222,10.5248489 2.07727281,8.86303064 C1.93878795,6.64727298 3.04666678,4.84696988 5.40090929,4.43151532 C7.61666695,4.43151532 9.41697005,5.81636385 9.5554549,8.17060637 L11.4942429,7.75515181 C11.2172731,6.09333356 10.6633337,5.677879 10.5248489,4.98545473 C10.5248489,4.84696988 10.5248489,4.70848503 10.6633337,4.29303046 C10.9403034,4.15454561 11.355758,4.15454561 11.7712126,4.01606076 C11.9096974,4.01606076 11.9096974,4.01606076 12.0481823,4.01606076 C13.1560611,4.01606076 13.9869702,3.18515163 13.9869702,2.07727281 C13.9869702,2.07727281 13.9869702,2.07727281 13.9869702,1.93878795 C13.9869702,1.8003031 13.8484854,1.52333339 13.7100005,1.24636368 C13.5715157,0.969393976 13.4330308,0.830909122 13.294546,0.692424268 C13.0175762,0.553939415 12.8790914,0.415454561 12.7406065,0.276969707 C11.7712126,-0.138484854 10.9403034,0.415454561 10.5248489,0.969393976 C10.386364,1.10787883 10.386364,1.24636368 10.386364,1.38484854 C10.2478792,1.52333339 10.2478792,1.52333339 10.2478792,1.66181824 C10.2478792,1.8003031 10.1093943,1.93878795 10.1093943,2.07727281 C10.1093943,2.21575766 10.1093943,2.21575766 10.2478792,2.21575766 L10.1093943,2.21575766 C10.1093943,2.76969707 9.97090947,3.04666678 9.83242461,3.46212134 L9.14000034,3.6006062 C5.677879,0.692424268 0.138484854,3.73909105 0.138484854,7.75515181 C1.74860126e-15,11.0787883 2.21575766,13.7100005 5.26242444,13.9869702 L5.53939415,12.6021217 Z"></path>
                    <path d="M18.5569704,4.01606076 L18.4184855,4.57000017 C20.4957583,4.70848503 21.4651523,5.95484871 22.0190917,7.61666695 C22.1575766,9.83242461 20.9112129,11.7712126 18.6954552,12.0481823 C16.4796976,12.1866671 14.6793945,10.8018186 14.5409096,8.44757607 L12.6021217,8.86303064 C12.7406065,10.5248489 13.4330308,10.8018186 13.5715157,11.6327277 C13.5715157,11.6327277 13.5715157,11.7712126 13.4330308,12.1866671 C13.0175762,12.325152 12.7406065,12.4636368 12.325152,12.6021217 C12.1866671,12.4636368 12.0481823,12.4636368 12.0481823,12.4636368 C10.9403034,12.4636368 10.1093943,13.294546 10.1093943,14.4024248 C10.1093943,14.4024248 10.1093943,14.5409096 10.1093943,14.5409096 C10.1093943,14.8178793 10.1093943,15.0948491 10.2478792,15.2333339 C10.386364,15.5103036 10.6633337,15.7872733 10.8018186,15.9257582 C10.9403034,16.064243 11.0787883,16.2027279 11.2172731,16.2027279 C12.1866671,16.6181824 13.1560611,16.2027279 13.5715157,15.5103036 C13.5715157,15.3718188 13.7100005,15.2333339 13.7100005,15.0948491 C13.7100005,15.0948491 13.8484854,14.9563642 13.8484854,14.9563642 C13.8484854,14.8178793 13.8484854,14.5409096 13.8484854,14.4024248 C13.8484854,14.4024248 13.8484854,14.2639399 13.8484854,14.2639399 C13.9869702,13.8484854 14.1254551,13.4330308 14.2639399,13.1560611 L14.8178793,13.0175762 C18.4184855,15.9257582 23.9578797,12.7406065 23.9578797,8.72454578 C24.0963645,5.40090929 21.8806069,2.90818193 18.8339401,2.63121222 L18.5569704,4.01606076 Z"></path>
                </g>
                <circle id="Oval" fill="#616063" cx="12.0481823" cy="12.0481823" r="1"></circle>
            </g>
        </g>
    </g>
</svg>