<?xml version="1.0" encoding="UTF-8"?>
<svg width="37px" height="37px" viewBox="0 0 37 37" version="1.1" xmlns="http://www.w3.org/2000/svg" xmlns:xlink="http://www.w3.org/1999/xlink">
    <!-- Generator: Sketch 48 (47235) - http://www.bohemiancoding.com/sketch -->
    <title>Project Manager</title>
    <desc>Created with Sketch.</desc>
    <defs>
        <linearGradient x1="105.605296%" y1="-31.4280454%" x2="-3.11929382%" y2="127.815889%" id="linearGradient-1">
            <stop stop-color="#FBFBFB" offset="0%"></stop>
            <stop stop-color="#FBFBFB" offset="14.1176%"></stop>
            <stop stop-color="#FBFBFB" offset="30.9804%"></stop>
            <stop stop-color="#8E9393" offset="100%"></stop>
            <stop stop-color="#727271" offset="100%"></stop>
        </linearGradient>
        <linearGradient x1="105.495775%" y1="-31.2997606%" x2="-3.15014085%" y2="127.829577%" id="linearGradient-2">
            <stop stop-color="#8E9393" offset="0%"></stop>
            <stop stop-color="#FBFBFB" offset="67.8431%"></stop>
            <stop stop-color="#FBFBFB" offset="85.098%"></stop>
            <stop stop-color="#FBFBFB" offset="100%"></stop>
        </linearGradient>
    </defs>
    <g id="Page-1" stroke="none" stroke-width="1" fill="none" fill-rule="evenodd">
        <g id="Project-Manager">
            <g id="Group" fill-rule="nonzero">
                <path d="M36.5600014,18.256949 C36.5600014,28.3996984 28.3996984,36.5600014 18.3030524,36.5600014 C8.16030295,36.5600014 0,28.3996984 0,18.256949 C0,8.16030295 8.16030295,0 18.3030524,0 C28.3996984,0 36.5600014,8.16030295 36.5600014,18.256949 Z" id="Shape" fill="url(#linearGradient-1)"></path>
                <path d="M18.3030524,34.6236583 C9.26678471,34.6236583 1.93634307,27.2932167 1.93634307,18.256949 C1.93634307,9.26678471 9.26678471,1.89023967 18.3030524,1.89023967 C27.2932167,1.89023967 34.6697617,9.26678471 34.6697617,18.256949 C34.6697617,27.2932167 27.2932167,34.6236583 18.3030524,34.6236583 Z" id="Shape" fill="url(#linearGradient-2)"></path>
            </g>
            <g id="Group" transform="translate(4.241513, 6.915511)" fill="#616063">
                <path d="M7.56095867,7.0999246 C8.80575065,5.30189175 10.8804039,4.10320318 13.2777811,4.10320318 C14.5225731,4.10320318 15.6751582,4.42592703 16.6894332,4.9791679 L16.78164,5.07137472 L16.3206059,5.57851219 C16.3206059,5.57851219 16.2745025,5.57851219 16.2283991,5.53240878 C15.3524344,5.07137472 14.3381594,4.79475428 13.2777811,4.79475428 C11.0648176,4.79475428 9.1745779,5.90123604 8.06809614,7.60706208 L7.7453723,8.11419955 L7.69926889,8.16030295 C7.69926889,8.16030295 7.69926889,8.16030295 7.69926889,8.16030295 L7.65316548,8.25250977 L6.03954625,7.42264845 L6.54668373,6.59278713 L7.56095867,7.0999246 Z" id="Shape"></path>
                <path d="M12.7706436,17.8420183 C10.6037835,17.7037081 8.4830268,16.5050195 7.23823482,14.4764696 C6.59278713,13.4160913 6.27006329,12.2635061 6.22395988,11.110921 L6.22395988,11.0648176 L6.27006329,10.6959903 C6.27006329,10.4193699 6.63889054,8.85185405 6.63889054,8.85185405 C6.82330417,8.89795746 7.0538212,8.99016427 7.28433823,9.08237109 C7.28433823,9.08237109 6.96161439,10.6037835 6.96161439,10.9726108 C6.91551098,10.9726108 6.96161439,11.2031278 6.96161439,11.2031278 C6.96161439,11.2031278 6.96161439,11.2492312 6.96161439,11.2492312 C7.00771779,12.2174027 7.28433823,13.2316777 7.83757911,14.1537458 C8.99016427,15.9978821 10.9265073,17.0582604 12.9550572,17.1504672 L13.6005049,17.1043638 C13.6005049,17.1043638 13.6005049,17.1043638 13.6005049,17.1043638 L13.7388151,17.1043638 L13.8771254,18.9023967 L12.8628504,18.9023967 L12.7706436,17.8420183 Z" id="Shape"></path>
                <path d="M20.1471887,11.4336448 C19.962775,13.6466083 18.7640865,15.7212616 16.6894332,16.9199502 C16.0900889,17.242674 15.4907446,17.4731911 14.8452969,17.6576047 C14.7991935,17.6576047 14.7069867,17.7037081 14.7069867,17.6576047 L14.6608833,16.9660536 C14.6608833,16.9199502 14.7069867,16.9660536 14.7069867,16.9660536 C15.2602276,16.8277434 15.8134684,16.5972263 16.3206059,16.2745025 C18.2108456,15.2141242 19.3173273,13.2777811 19.4556376,11.2492312 L19.4556376,10.6498869 L19.4556376,10.6037835 C19.4556376,10.6037835 19.4556376,10.6037835 19.4556376,10.6037835 L19.4556376,10.5115767 L21.2536704,10.4193699 L21.2536704,11.3875414 L20.1471887,11.4336448 Z" id="Shape"></path>
                <path d="M18.487466,6.45447691 C19.2251205,7.33044164 19.732258,8.34471658 19.962775,9.45119834 C20.0088784,9.45119834 20.0088784,9.49730174 20.0088784,9.49730174 L19.3173273,9.63561196 C19.3173273,9.68171537 19.3173273,9.63561196 19.3173273,9.63561196 C19.0868103,8.57523361 18.5796728,7.60706208 17.8420183,6.82330417 L17.4270877,6.3622701 L17.3809843,6.3622701 C17.3809843,6.3622701 17.3809843,6.3622701 17.3809843,6.3622701 L17.3348809,6.27006329 L18.487466,4.9330645 L19.2251205,5.6246156 L18.487466,6.45447691 Z" id="Shape"></path>
                <path d="M13.2316777,5.39409856 C16.2745025,5.39409856 18.7640865,7.88368252 18.7640865,10.9265073 C18.7640865,13.9693322 16.2745025,16.4589161 13.2316777,16.4589161 C10.1427494,16.4589161 7.65316548,13.9693322 7.65316548,10.9265073 C7.65316548,7.88368252 10.1427494,5.39409856 13.2316777,5.39409856 Z M13.2316777,6.22395988 C15.8134684,6.22395988 17.8881217,8.34471658 17.8881217,10.9265073 C17.8881217,13.5082981 15.8134684,15.6290548 13.2316777,15.6290548 C10.6037835,15.6290548 8.52913021,13.5082981 8.52913021,10.9265073 C8.52913021,8.34471658 10.6037835,6.22395988 13.2316777,6.22395988 Z" id="Shape"></path>
                <path d="M22.5445658,11.571955 C21.7147045,9.03626768 25.3107702,8.29861317 25.9101145,10.2810597 C26.6938724,12.816747 23.1439101,13.5082981 22.5445658,11.571955 Z M21.5763943,11.3875414 C21.7147045,12.7245402 23.0978067,13.9232288 24.8036327,13.6466083 C26.0945281,13.3699879 27.108803,12.0790925 26.9243894,10.5115767 C26.6938724,9.08237109 25.402977,8.02199274 23.7432544,8.29861317 C22.2679454,8.4830268 21.3919806,9.68171537 21.5763943,11.3875414 Z" id="Shape"></path>
                <path d="M2.07465329,6.08564966 C1.29089538,3.5499623 4.84085768,2.8123078 5.44020197,4.79475428 C6.22395988,7.33044164 2.67399758,8.02199274 2.07465329,6.08564966 Z M1.10648176,5.85513263 C1.24479198,7.23823482 2.62789417,8.43692339 4.33372021,8.11419955 C5.670719,7.88368252 6.68499395,6.59278713 6.45447691,5.02527131 C6.22395988,3.59606571 4.9791679,2.53568736 3.27334186,2.76620439 C1.79803285,2.99672142 0.92206813,4.19540999 1.10648176,5.85513263 Z" id="Shape"></path>
                <path d="M19.3634307,3.82658274 C18.5796728,1.33699879 22.1757385,0.599344285 22.7750828,2.58179077 C23.5127373,5.11747812 20.0088784,5.76292582 19.3634307,3.82658274 Z M18.3952592,3.64216912 C18.5335694,5.02527131 19.9166716,6.22395988 21.6224977,5.90123604 C22.9594964,5.670719 23.9737714,4.37982362 23.7432544,2.8123078 C23.5588407,1.3831022 22.2679454,0.322723846 20.5621193,0.553240878 C19.0868103,0.783757911 18.2108456,1.98244648 18.3952592,3.64216912 Z" id="Shape"></path>
                <path d="M11.571955,22.5445658 C10.7881971,20.0088784 14.3381594,19.3173273 14.9836071,21.2997738 C15.7212616,23.8354612 12.2174027,24.4809089 11.571955,22.5445658 Z M10.6037835,22.3601522 C10.7420937,23.7432544 12.1251959,24.9419429 13.831022,24.6192191 C15.1680207,24.3887021 16.1822957,23.0978067 15.9517787,21.5302908 C15.767365,20.1010852 14.4764696,19.0407069 12.7706436,19.2712239 C11.2953346,19.501741 10.4193699,20.7004295 10.6037835,22.3601522 Z" id="Shape"></path>
                <path d="M13.5544015,11.2953346 C12.9089538,11.110921 12.58623,11.1570244 13.3238845,10.6498869 L13.5544015,11.2953346 Z M14.0154356,11.2031278 L15.306331,11.1570244 C15.8595718,11.0648176 15.5829514,11.0648176 15.767365,10.9726108 C15.5829514,10.8804039 15.8134684,10.8343005 15.1219173,10.7420937 C14.9375037,10.7420937 14.5686765,10.7881971 14.3842628,10.7881971 C13.3699879,10.6959903 14.1998492,10.6959903 13.4160913,10.3732665 C13.4160913,9.68171537 13.5544015,8.71354383 13.2777811,8.25250977 C13.047264,8.52913021 13.1394709,7.83757911 13.047264,8.75964724 C13.0011606,8.94406087 13.047264,9.31288812 13.047264,9.49730174 C13.0011606,10.7881971 12.816747,10.0044392 12.58623,10.6959903 C12.3096095,11.5258516 13.0933675,12.0790925 14.0154356,11.2031278 Z" id="Shape"></path>
                <path d="M11.110921,14.6147799 C11.341438,14.6147799 11.3875414,14.6608833 11.5258516,14.4303662 C11.8946789,13.6927117 11.4336448,13.9693322 11.3875414,13.9232288 C11.1570244,14.2459526 11.110921,14.1076424 11.110921,14.6147799 Z" id="Shape"></path>
                <path d="M15.3985378,14.6147799 C15.3985378,13.8771254 15.306331,14.1076424 14.8452969,13.8771254 C14.9836071,14.5225731 14.9375037,14.5225731 15.3985378,14.6147799 Z" id="Shape"></path>
                <path d="M16.1822957,9.35899152 C16.7355366,9.26678471 16.7355366,9.40509493 16.8738468,8.85185405 C16.4589161,8.85185405 16.2283991,8.85185405 16.1822957,9.35899152 Z" id="Shape"></path>
                <path d="M14.8452969,8.02199274 C15.3524344,7.83757911 15.536848,7.88368252 15.306331,7.33044164 C14.8452969,7.56095867 14.9836071,7.33044164 14.8452969,8.02199274 Z" id="Shape"></path>
                <path d="M9.58950856,13.1855743 C10.2810597,12.9550572 10.0044392,13.3238845 10.2810597,12.58623 C9.58950856,12.7706436 9.72781878,12.58623 9.58950856,13.1855743 Z" id="Shape"></path>
                <path d="M16.1361923,12.58623 C16.3206059,12.6784368 15.9978821,13.0011606 16.8738468,13.1394709 C16.7355366,12.5401266 16.78164,12.7706436 16.1361923,12.58623 Z" id="Shape"></path>
                <path d="M10.2810597,9.35899152 C10.096646,8.94406087 10.1888528,8.94406087 9.58950856,8.75964724 C9.72781878,9.31288812 9.63561196,9.2206813 10.2810597,9.35899152 Z" id="Shape"></path>
                <path d="M11.6180584,8.02199274 C11.4797482,7.42264845 11.5258516,7.51485526 11.0648176,7.33044164 C11.2031278,7.97588933 11.2031278,7.83757911 11.6180584,8.02199274 Z" id="Shape"></path>
                <circle id="Oval" cx="1.15258516" cy="4.01099637" r="1.15258516"></circle>
                <circle id="Oval" cx="23.2361169" cy="1.15258516" r="1.15258516"></circle>
                <circle id="Oval" cx="26.9243894" cy="12.3096095" r="1.15258516"></circle>
                <circle id="Oval" cx="13.5082981" cy="24.8497361" r="1.15258516"></circle>
            </g>
        </g>
    </g>
</svg>