<?xml version="1.0" encoding="UTF-8"?>
<svg width="37px" height="37px" viewBox="0 0 37 37" version="1.1" xmlns="http://www.w3.org/2000/svg" xmlns:xlink="http://www.w3.org/1999/xlink">
    <!-- Generator: Sketch 48 (47235) - http://www.bohemiancoding.com/sketch -->
    <title>Checking delivery</title>
    <desc>Created with Sketch.</desc>
    <defs>
        <linearGradient x1="105.605296%" y1="-31.4280328%" x2="-3.11992434%" y2="127.815889%" id="linearGradient-1">
            <stop stop-color="#FBFBFB" offset="0%"></stop>
            <stop stop-color="#FBFBFB" offset="14.1176%"></stop>
            <stop stop-color="#FBFBFB" offset="30.9804%"></stop>
            <stop stop-color="#8E9393" offset="100%"></stop>
            <stop stop-color="#727271" offset="100%"></stop>
        </linearGradient>
        <linearGradient x1="105.495775%" y1="-31.2997746%" x2="-3.15084507%" y2="127.828169%" id="linearGradient-2">
            <stop stop-color="#8E9393" offset="0%"></stop>
            <stop stop-color="#FBFBFB" offset="67.8431%"></stop>
            <stop stop-color="#FBFBFB" offset="85.098%"></stop>
            <stop stop-color="#FBFBFB" offset="100%"></stop>
        </linearGradient>
    </defs>
    <g id="Page-1" stroke="none" stroke-width="1" fill="none" fill-rule="evenodd">
        <g id="Checking-delivery">
            <g id="Group" fill-rule="nonzero">
                <path d="M36.5600014,18.256949 C36.5600014,28.3996984 28.3996984,36.5600014 18.3030524,36.5600014 C8.16030295,36.5600014 0,28.3996984 0,18.256949 C0,8.16030295 8.16030295,0 18.3030524,0 C28.3996984,0 36.5600014,8.16030295 36.5600014,18.256949 Z" id="Shape" fill="url(#linearGradient-1)"></path>
                <path d="M18.3030524,34.6236583 C9.26678471,34.6236583 1.93634307,27.2932167 1.93634307,18.256949 C1.93634307,9.26678471 9.26678471,1.89023967 18.3030524,1.89023967 C27.2932167,1.89023967 34.6697617,9.26678471 34.6697617,18.256949 C34.6697617,27.2932167 27.2932167,34.6236583 18.3030524,34.6236583 Z" id="Shape" fill="url(#linearGradient-2)"></path>
            </g>
            <g id="Group" transform="translate(7.791476, 9.543405)" fill="#616063">
                <polygon id="Shape" points="0 0.461034065 16.9199502 0.461034065 16.9199502 1.61361923 14.4764696 3.5499623 14.4764696 2.90451461 2.44348055 2.90451461 2.44348055 15.0297105 14.4764696 15.0297105 14.4764696 9.77392218 16.9199502 6.96161439 16.9199502 17.4731911 0 17.4731911"></polygon>
                <path d="M18.3491558,1.47530901 C18.3030524,1.56751582 16.6894332,2.8584112 16.4589161,3.08892824 L11.1570244,7.42264845 C10.4193699,8.02199274 10.8804039,7.97588933 9.35899152,7.23823482 L5.57851219,5.44020197 L4.88696109,6.17785647 C4.84085768,6.22395988 4.70254747,6.3622701 4.70254747,6.45447691 C4.74865087,6.54668373 5.30189175,7.14602801 5.39409856,7.28433823 L10.6037835,13.2777811 C10.6959903,13.2316777 12.4018164,11.1570244 12.58623,10.9726108 L14.5225731,8.62133702 C14.9836071,8.16030295 15.3985378,7.60706208 15.8134684,7.0999246 C16.0439855,6.82330417 16.2283991,6.59278713 16.4589161,6.31616669 L20.3777057,1.65972263 C20.4699125,1.47530901 20.97705,0.968171537 20.97705,0.829861317 C20.7004295,0.553240878 20.4699125,0.276620439 20.1932921,0 C20.0549818,0.0461034065 19.4095341,0.599344285 19.2712239,0.737654504 C19.0868103,0.875964724 18.487466,1.4292056 18.3491558,1.47530901 Z" id="Shape"></path>
            </g>
        </g>
    </g>
</svg>