<?xml version="1.0" encoding="UTF-8"?>
<svg width="37px" height="37px" viewBox="0 0 37 37" version="1.1" xmlns="http://www.w3.org/2000/svg" xmlns:xlink="http://www.w3.org/1999/xlink">
    <!-- Generator: Sketch 48 (47235) - http://www.bohemiancoding.com/sketch -->
    <title>Onsite delivery</title>
    <desc>Created with Sketch.</desc>
    <defs>
        <linearGradient x1="105.612879%" y1="-31.4767045%" x2="-3.2494697%" y2="127.968561%" id="linearGradient-1">
            <stop stop-color="#FBFBFB" offset="0%"></stop>
            <stop stop-color="#FBFBFB" offset="14.1176%"></stop>
            <stop stop-color="#FBFBFB" offset="30.9804%"></stop>
            <stop stop-color="#8E9393" offset="100%"></stop>
            <stop stop-color="#727271" offset="100%"></stop>
        </linearGradient>
        <linearGradient x1="105.65339%" y1="-31.5394322%" x2="-3.30042373%" y2="128.039407%" id="linearGradient-2">
            <stop stop-color="#8E9393" offset="0%"></stop>
            <stop stop-color="#FBFBFB" offset="67.8431%"></stop>
            <stop stop-color="#FBFBFB" offset="85.098%"></stop>
            <stop stop-color="#FBFBFB" offset="100%"></stop>
        </linearGradient>
    </defs>
    <g id="Page-1" stroke="none" stroke-width="1" fill="none" fill-rule="evenodd">
        <g id="Onsite-delivery">
            <g id="Group" fill-rule="nonzero">
                <path d="M36.5600014,18.2800007 C36.5600014,28.389395 28.389395,36.5600014 18.2800007,36.5600014 C8.17060637,36.5600014 0,28.389395 0,18.2800007 C0,8.17060637 8.17060637,0 18.2800007,0 C28.389395,0 36.5600014,8.17060637 36.5600014,18.2800007 Z" id="Shape" fill="url(#linearGradient-1)"></path>
                <path d="M18.2800007,34.6212134 C9.2784852,34.6212134 1.93878795,27.2815162 1.93878795,18.2800007 C1.93878795,9.2784852 9.2784852,1.93878795 18.2800007,1.93878795 C27.2815162,1.93878795 34.6212134,9.2784852 34.6212134,18.2800007 C34.6212134,27.2815162 27.2815162,34.6212134 18.2800007,34.6212134 Z" id="Shape" fill="url(#linearGradient-2)"></path>
            </g>
            <g id="Group" transform="translate(5.539394, 8.863031)" fill="#616063">
                <path d="M0.276969707,4.01606076 C0.415454561,4.29303046 1.38484854,4.29303046 1.66181824,4.29303046 L9.69393976,4.29303046 C10.6633337,4.29303046 11.7712126,4.29303046 12.8790914,4.29303046 C13.0175762,4.15454561 13.0175762,4.15454561 13.0175762,4.15454561 C13.1560611,4.15454561 13.1560611,4.15454561 13.1560611,4.15454561 C13.294546,4.01606076 13.1560611,4.15454561 13.1560611,4.01606076 C13.294546,4.01606076 13.294546,4.01606076 13.294546,3.8775759 C13.4330308,3.8775759 13.294546,3.8775759 13.4330308,3.8775759 C13.4330308,3.73909105 13.4330308,3.46212134 13.4330308,3.32363649 C13.4330308,3.32363649 13.294546,3.18515163 13.294546,3.18515163 C13.294546,3.18515163 13.294546,3.18515163 13.294546,3.18515163 C13.294546,3.04666678 13.294546,3.18515163 13.1560611,3.04666678 C13.1560611,3.04666678 13.1560611,3.04666678 13.1560611,3.04666678 C13.0175762,2.90818193 13.0175762,2.90818193 12.8790914,2.90818193 C10.8018186,2.90818193 8.58606093,2.90818193 6.37030327,2.90818193 L1.52333339,2.90818193 C1.10787883,2.90818193 0.553939415,2.76969707 0.276969707,3.18515163 L0,3.46212134 L0,3.73909105 C0.138484854,3.8775759 0.138484854,3.8775759 0.276969707,4.01606076 Z" id="Shape"></path>
                <path d="M1.38484854,5.53939415 C1.38484854,5.677879 1.24636368,5.677879 1.24636368,5.81636385 C1.24636368,5.95484871 1.24636368,5.95484871 1.24636368,6.09333356 L1.52333339,6.37030327 C1.66181824,6.50878812 1.66181824,6.50878812 1.8003031,6.50878812 C2.07727281,6.50878812 10.9403034,6.50878812 11.9096974,6.50878812 C12.7406065,6.50878812 12.6021217,6.50878812 13.0175762,6.09333356 C13.0175762,5.677879 13.0175762,5.677879 12.8790914,5.40090929 C12.7406065,5.26242444 12.6021217,5.26242444 12.325152,5.12393959 C12.0481823,5.12393959 11.7712126,5.12393959 11.4942429,5.12393959 C10.5248489,5.12393959 2.07727281,5.12393959 1.8003031,5.26242444 C1.66181824,5.26242444 1.66181824,5.26242444 1.52333339,5.26242444 L1.38484854,5.53939415 Z" id="Shape"></path>
                <g transform="translate(1.800303, 0.000000)" id="Shape">
                    <path d="M18.2800007,13.8484854 C19.6648492,13.8484854 20.7727281,14.9563642 20.7727281,16.3412127 C20.7727281,17.7260613 19.6648492,18.8339401 18.2800007,18.8339401 C16.8951521,18.8339401 15.7872733,17.7260613 15.7872733,16.3412127 C15.7872733,14.9563642 16.8951521,13.8484854 18.2800007,13.8484854 Z M18.2800007,15.0948491 C18.972425,15.0948491 19.5263644,15.6487885 19.5263644,16.3412127 C19.5263644,17.033637 18.972425,17.5875764 18.2800007,17.5875764 C17.5875764,17.5875764 17.033637,17.033637 17.033637,16.3412127 C17.033637,15.6487885 17.5875764,15.0948491 18.2800007,15.0948491 Z"></path>
                    <path d="M10.6633337,8.44757607 C10.6633337,8.30909122 10.9403034,7.75515181 10.386364,7.4781821 C10.1093943,7.33969725 6.37030327,7.4781821 5.95484871,7.4781821 L1.52333339,7.4781821 C1.24636368,7.4781821 0.415454561,7.33969725 0.276969707,7.75515181 C0.276969707,7.75515181 0.138484854,7.75515181 0.138484854,7.89363666 C-1.38777878e-17,8.17060637 0.138484854,8.44757607 0.415454561,8.72454578 C0.692424268,8.86303064 1.52333339,8.72454578 1.8003031,8.72454578 L10.1093943,8.72454578 C10.2478792,8.72454578 10.386364,8.72454578 10.386364,8.72454578 C10.6633337,8.72454578 10.6633337,8.72454578 10.6633337,8.44757607 Z"></path>
                    <path d="M17.7260613,5.53939415 L19.5263644,5.53939415 C19.9418189,6.09333356 22.4345463,8.72454578 22.711516,8.86303064 C22.711516,11.0787883 22.711516,13.294546 22.711516,15.5103036 L21.1881826,15.5103036 L21.1881826,15.6487885 L21.3266675,16.4796976 C21.742122,16.4796976 22.1575766,16.4796976 22.5730312,16.4796976 C22.9884857,16.4796976 23.5424251,16.4796976 23.5424251,16.064243 C23.68091,15.9257582 23.5424251,8.72454578 23.5424251,8.72454578 C23.5424251,8.30909122 20.0803038,4.84696988 19.8033341,4.70848503 L17.5875764,4.70848503 L17.5875764,5.53939415 L17.7260613,5.53939415 Z"></path>
                    <path d="M17.7260613,6.23181842 C17.5875764,6.64727298 17.5875764,10.1093943 17.5875764,11.0787883 C17.5875764,11.355758 17.5875764,11.6327277 17.7260613,11.7712126 C17.8645461,12.0481823 18.2800007,11.9096974 18.6954552,11.9096974 C19.1109098,11.9096974 21.742122,12.0481823 22.0190917,11.9096974 L22.1575766,11.7712126 C22.2960614,11.6327277 22.4345463,11.2172731 21.8806069,11.0787883 L18.5569704,11.0787883 C18.4184855,10.6633337 18.5569704,7.33969725 18.5569704,6.50878812 C18.5569704,6.23181842 18.4184855,6.09333356 18.2800007,6.09333356 C18.003031,5.95484871 17.8645461,6.09333356 17.7260613,6.23181842 Z"></path>
                    <path d="M4.29303046,13.4330308 L4.84696988,13.4330308 C8.17060637,13.4330308 11.4942429,13.4330308 14.6793945,13.4330308 L14.8178793,13.4330308 L16.064243,13.4330308 C16.7566673,13.294546 17.033637,12.8790914 17.1721219,12.1866671 C17.1721219,12.1866671 17.1721219,12.0481823 17.1721219,12.0481823 C17.1721219,8.44757607 17.1721219,4.84696988 17.1721219,1.10787883 C17.1721219,0.553939415 17.033637,0.138484854 16.064243,0 L2.35424251,0 C1.52333339,0 0.969393976,0.692424268 1.24636368,1.38484854 C1.24636368,1.66181824 1.52333339,1.93878795 1.8003031,1.93878795 C2.21575766,1.93878795 2.35424251,1.8003031 2.49272737,1.52333339 L2.49272737,1.38484854 C3.04666678,1.24636368 8.44757607,1.38484854 9.14000034,1.38484854 L15.6487885,1.38484854 C15.9257582,1.38484854 15.7872733,1.24636368 15.7872733,1.38484854 L15.7872733,12.0481823 L7.89363666,12.0481823 L7.33969725,12.0481823 L4.15454561,12.0481823 L2.49272737,12.1866671 L2.49272737,12.0481823 L2.49272737,10.2478792 C2.21575766,9.5554549 1.38484854,9.5554549 1.24636368,10.2478792 C1.10787883,10.6633337 1.10787883,11.7712126 1.24636368,12.1866671 C1.24636368,12.8790914 1.8003031,13.4330308 2.35424251,13.4330308 L4.29303046,13.4330308 Z"></path>
                    <polygon points="9.00151549 16.2027279 9.00151549 16.2027279 9.00151549 16.4796976 9.14000034 16.4796976 15.2333339 16.4796976 15.2333339 16.064243 15.3718188 15.5103036 15.3718188 15.5103036 9.00151549 15.5103036"></polygon>
                    <path d="M3.18515163,15.5103036 L2.07727281,15.5103036 L2.07727281,14.2639399 L2.07727281,13.9869702 C2.07727281,13.8484854 1.24636368,13.294546 1.24636368,13.294546 L1.24636368,16.064243 C1.24636368,16.2027279 1.24636368,16.4796976 1.52333339,16.4796976 L3.04666678,16.4796976 L3.18515163,15.5103036 Z"></path>
                    <path d="M6.09333356,13.8484854 C7.4781821,13.8484854 8.58606093,14.9563642 8.58606093,16.3412127 C8.58606093,17.7260613 7.4781821,18.8339401 6.09333356,18.8339401 C4.70848503,18.8339401 3.46212134,17.7260613 3.46212134,16.3412127 C3.46212134,14.9563642 4.70848503,13.8484854 6.09333356,13.8484854 Z M6.09333356,15.0948491 C6.78575783,15.0948491 7.20121239,15.6487885 7.20121239,16.3412127 C7.20121239,17.033637 6.78575783,17.5875764 6.09333356,17.5875764 C5.40090929,17.5875764 4.84696988,17.033637 4.84696988,16.3412127 C4.84696988,15.6487885 5.40090929,15.0948491 6.09333356,15.0948491 Z"></path>
                </g>
            </g>
        </g>
    </g>
</svg>