<?xml version="1.0" encoding="UTF-8"?>
<svg width="37px" height="37px" viewBox="0 0 37 37" version="1.1" xmlns="http://www.w3.org/2000/svg" xmlns:xlink="http://www.w3.org/1999/xlink">
    <!-- Generator: Sketch 48 (47235) - http://www.bohemiancoding.com/sketch -->
    <title>Kitchen and Modular</title>
    <desc>Created with Sketch.</desc>
    <defs>
        <linearGradient x1="105.333166%" y1="-31.6203535%" x2="-2.98201005%" y2="127.824242%" id="linearGradient-1">
            <stop stop-color="#FBFBFB" offset="0%"></stop>
            <stop stop-color="#FBFBFB" offset="14.1176%"></stop>
            <stop stop-color="#FBFBFB" offset="30.9804%"></stop>
            <stop stop-color="#8E9393" offset="100%"></stop>
            <stop stop-color="#727271" offset="100%"></stop>
        </linearGradient>
        <linearGradient x1="105.653107%" y1="-31.2411573%" x2="-3.30039548%" y2="127.440449%" id="linearGradient-2">
            <stop stop-color="#8E9393" offset="0%"></stop>
            <stop stop-color="#FBFBFB" offset="67.8431%"></stop>
            <stop stop-color="#FBFBFB" offset="85.098%"></stop>
            <stop stop-color="#FBFBFB" offset="100%"></stop>
        </linearGradient>
    </defs>
    <g id="Page-1" stroke="none" stroke-width="1" fill="none" fill-rule="evenodd">
        <g id="Kitchen-and-Modular">
            <g id="Group" fill-rule="nonzero">
                <path d="M36.5600014,18.1881414 C36.5600014,28.2926644 28.2926644,36.3762828 18.1881414,36.3762828 C8.26733699,36.3762828 0,28.2926644 0,18.1881414 C0,8.08361839 8.26733699,0 18.1881414,0 C28.2926644,0 36.5600014,8.08361839 36.5600014,18.1881414 Z" id="Shape" fill="url(#linearGradient-1)"></path>
                <path d="M18.1881414,34.5390968 C9.18592999,34.5390968 2.0209046,27.1903528 2.0209046,18.1881414 C2.0209046,9.18592999 9.18592999,1.837186 18.1881414,1.837186 C27.1903528,1.837186 34.5390968,9.18592999 34.5390968,18.1881414 C34.5390968,27.1903528 27.1903528,34.5390968 18.1881414,34.5390968 Z" id="Shape" fill="url(#linearGradient-2)"></path>
            </g>
            <g id="Group" transform="translate(9.002211, 6.981307)" fill="#616063">
                <path d="M4.592965,17.453267 C4.4092464,17.453267 4.4092464,17.453267 4.4092464,17.2695484 L4.4092464,15.616081 C4.4092464,15.4323624 4.4092464,15.2486438 4.4092464,15.2486438 C4.592965,14.8812066 4.4092464,15.0649252 4.592965,15.0649252 C4.7766836,15.0649252 4.7766836,15.0649252 4.7766836,15.616081 L4.7766836,17.2695484 C4.592965,17.6369856 4.7766836,17.453267 4.592965,17.453267 Z M0.3674372,21.4950762 L5.511558,21.4950762 L5.3278394,14.3300508 C4.4092464,14.3300508 0.734874399,14.5137694 0.1837186,14.3300508 L0.1837186,21.4950762 C0.1837186,21.6787948 0.1837186,21.4950762 0.3674372,21.4950762 Z" id="Shape"></path>
                <path d="M7.16502539,6.430151 L7.16502539,5.3278394 L11.3905532,5.3278394 L11.3905532,5.6952766 L11.3905532,6.0627138 L11.3905532,6.2464324 L11.3905532,6.98130679 L7.16502539,6.98130679 L7.16502539,6.430151 Z M11.023116,0 L7.53246259,0 L7.53246259,4.2255278 L5.6952766,4.2255278 L5.6952766,7.71618119 L12.860302,7.71618119 L12.860302,4.2255278 L11.023116,4.2255278 L11.023116,0 Z" id="Shape"></path>
                <path d="M6.6138696,17.6369856 L11.941709,17.6369856 L11.941709,20.3927646 L6.6138696,20.3927646 L6.6138696,17.6369856 Z M8.26733699,17.2695484 C7.16502539,17.2695484 7.34874399,17.2695484 7.34874399,17.0858298 C7.53246259,17.0858298 7.16502539,16.9021112 7.71618119,16.9021112 L10.2882416,16.9021112 C11.3905532,16.9021112 11.023116,16.9021112 11.2068346,17.0858298 C11.023116,17.2695484 11.2068346,17.2695484 10.8393974,17.2695484 L9.18592999,17.2695484 C8.81849279,17.2695484 8.63477419,17.2695484 8.26733699,17.2695484 Z M5.6952766,21.4950762 L12.860302,21.4950762 L12.860302,16.534674 L5.6952766,16.534674 L5.6952766,21.4950762 Z" id="Shape"></path>
                <path d="M10.6556788,15.0649252 C11.023116,14.697488 11.2068346,15.4323624 10.8393974,15.616081 C10.6556788,15.7997996 10.104523,15.2486438 10.6556788,15.0649252 Z M9.18592999,15.0649252 C9.36964859,14.8812066 9.92080439,15.2486438 9.55336719,15.616081 C9.00221139,15.7997996 8.81849279,15.2486438 9.18592999,15.0649252 Z M8.08361839,15.616081 C7.71618119,15.7997996 7.53246259,15.616081 7.53246259,15.2486438 C7.53246259,14.8812066 7.53246259,15.0649252 7.71618119,15.0649252 C8.08361839,14.697488 8.45105559,15.2486438 8.08361839,15.616081 Z M5.6952766,16.3509554 L9.18592999,16.3509554 L12.860302,16.1672368 L12.860302,14.3300508 L5.6952766,14.3300508 L5.6952766,16.3509554 Z" id="Shape"></path>
                <polygon id="Shape" points="0 22.4136692 18.37186 22.4136692 18.37186 21.6787948 0 21.6787948"></polygon>
                <path d="M17.0858298,17.8207042 C16.534674,17.8207042 14.697488,18.0044228 14.5137694,17.8207042 C14.5137694,17.453267 14.3300508,17.6369856 14.697488,17.6369856 C14.697488,17.6369856 15.0649252,17.6369856 15.0649252,17.6369856 C15.2486438,17.6369856 15.616081,17.6369856 15.7997996,17.6369856 C17.2695484,17.6369856 17.0858298,17.453267 17.0858298,17.8207042 Z M18.37186,18.9230158 L18.37186,16.534674 L13.2277392,16.534674 L13.0440206,18.9230158 L18.37186,18.9230158 Z" id="Shape"></path>
                <polygon id="Shape" points="0.1837186 13.9626136 18.37186 13.9626136 18.37186 13.4114578 0.1837186 13.4114578"></polygon>
                <path d="M16.534674,20.5764832 C15.9835182,20.5764832 14.8812066,20.5764832 14.5137694,20.5764832 L14.5137694,20.209046 C14.697488,20.209046 16.9021112,20.209046 17.0858298,20.209046 C17.0858298,20.5764832 17.0858298,20.5764832 16.534674,20.5764832 Z M18.37186,21.6787948 L18.37186,19.6578902 C18.37186,19.1067344 18.37186,19.290453 18.1881414,19.1067344 L13.0440206,19.1067344 L13.0440206,21.4950762 C14.3300508,21.4950762 17.453267,21.3113576 18.37186,21.6787948 Z" id="Shape"></path>
                <path d="M14.5137694,15.2486438 L17.0858298,15.0649252 C17.0858298,15.616081 17.0858298,15.4323624 15.7997996,15.4323624 C15.4323624,15.4323624 15.2486438,15.4323624 14.8812066,15.4323624 C14.5137694,15.4323624 14.5137694,15.616081 14.5137694,15.2486438 Z M18.37186,16.3509554 L18.37186,14.3300508 L13.2277392,14.3300508 L13.0440206,16.3509554 L18.37186,16.3509554 Z" id="Shape"></path>
                <polygon id="Shape" points="7.16502539 6.7975882 11.2068346 6.7975882 11.2068346 5.3278394 7.16502539 5.3278394"></polygon>
            </g>
        </g>
    </g>
</svg>