<?xml version="1.0" encoding="UTF-8"?>
<svg width="37px" height="37px" viewBox="0 0 37 37" version="1.1" xmlns="http://www.w3.org/2000/svg" xmlns:xlink="http://www.w3.org/1999/xlink">
    <!-- Generator: Sketch 48 (47235) - http://www.bohemiancoding.com/sketch -->
    <title>Storage wardrobe modular</title>
    <desc>Created with Sketch.</desc>
    <defs>
        <linearGradient x1="105.598489%" y1="-31.5124747%" x2="-2.98942065%" y2="127.932323%" id="linearGradient-1">
            <stop stop-color="#FBFBFB" offset="0%"></stop>
            <stop stop-color="#FBFBFB" offset="14.1176%"></stop>
            <stop stop-color="#FBFBFB" offset="30.9804%"></stop>
            <stop stop-color="#8E9393" offset="100%"></stop>
            <stop stop-color="#727271" offset="100%"></stop>
        </linearGradient>
        <linearGradient x1="105.637183%" y1="-31.490507%" x2="-3.00929577%" y2="127.63831%" id="linearGradient-2">
            <stop stop-color="#8E9393" offset="0%"></stop>
            <stop stop-color="#FBFBFB" offset="67.8431%"></stop>
            <stop stop-color="#FBFBFB" offset="85.098%"></stop>
            <stop stop-color="#FBFBFB" offset="100%"></stop>
        </linearGradient>
    </defs>
    <g id="Page-1" stroke="none" stroke-width="1" fill="none" fill-rule="evenodd">
        <g id="Storage-wardrobe-modular">
            <g id="Group" fill-rule="nonzero">
                <path d="M36.5600014,18.2339553 C36.5600014,28.3639305 28.3639305,36.4679107 18.326046,36.4679107 C8.19607084,36.4679107 0,28.3639305 0,18.2339553 C0,8.10398015 8.19607084,0 18.326046,0 C28.3639305,0 36.5600014,8.10398015 36.5600014,18.2339553 Z" id="Shape" fill="url(#linearGradient-1)"></path>
                <path d="M18.326046,34.626097 C9.30115904,34.626097 1.93390435,27.2588423 1.93390435,18.2339553 C1.93390435,9.20906836 9.30115904,1.93390435 18.326046,1.93390435 C27.350933,1.93390435 34.626097,9.20906836 34.626097,18.2339553 C34.626097,27.2588423 27.350933,34.626097 18.326046,34.626097 Z" id="Shape" fill="url(#linearGradient-2)"></path>
            </g>
            <path d="M12.0638795,27.9034771 L14.3661466,27.9034771 L14.3661466,26.3379355 L21.4571293,26.3379355 L21.4571293,25.1407566 L14.3661466,25.1407566 L14.3661466,24.3119405 L11.9717889,24.3119405 L12.0638795,27.9034771 Z M10.2220659,21.0887665 C7.45934537,22.6543082 8.65652425,26.0616634 11.2350634,26.3379355 L11.2350634,25.1407566 C10.4983379,24.9565752 9.85370314,24.4961218 9.85370314,23.4831243 C9.85370314,22.5622175 10.5904286,22.2859454 11.2350634,21.9175827 C12.1559702,21.3650386 17.4051392,18.4181367 18.2339553,17.7735019 C18.9706808,17.2209578 18.8785901,16.1158696 19.0627715,15.6554162 C19.2469529,15.1949628 19.3390435,15.1949628 19.799497,14.9186907 C21.54922,14.0898746 22.3780361,11.5113354 20.9045852,9.85370314 C19.9836783,8.74861494 18.2339553,8.10398015 16.576323,9.11697767 C14.9186907,10.0378845 14.7345094,11.6955168 15.2870535,13.3531491 L16.300051,12.8926957 C15.3791442,8.93279631 20.2599504,8.93279631 20.4441318,11.7876075 C20.5362224,12.524333 20.2599504,13.0768771 19.8915876,13.4452398 C19.0627715,14.274056 18.049774,13.9056932 17.6814112,16.2079603 C17.4972299,17.6814112 11.6034261,20.2599504 10.2220659,21.0887665 Z M25.6933007,22.0096734 C26.3379355,22.3780361 26.9825703,22.9305802 26.7062982,24.0356684 C26.4300262,24.9565752 25.6933007,25.1407566 24.5882125,25.1407566 L24.5882125,24.4040311 L22.2859454,24.3119405 L22.2859454,27.9034771 L24.5882125,27.9034771 L24.5882125,26.3379355 C25.7853914,26.3379355 26.4300262,26.2458448 27.074661,25.60121 C28.3639305,24.3119405 28.2718399,22.2859454 26.7062982,21.2729479 C25.6933007,20.5362224 19.7074063,17.3130485 19.5232249,17.3130485 C19.3390435,17.5893206 19.0627715,17.9576833 18.9706808,18.2339553 C20.5362224,19.4311342 23.851487,21.0887665 25.6933007,22.0096734 Z" id="Shape" fill="#616063"></path>
        </g>
    </g>
</svg>