<?xml version="1.0" encoding="UTF-8"?>
<svg width="37px" height="37px" viewBox="0 0 37 37" version="1.1" xmlns="http://www.w3.org/2000/svg" xmlns:xlink="http://www.w3.org/1999/xlink">
    <!-- Generator: Sketch 48 (47235) - http://www.bohemiancoding.com/sketch -->
    <title>Office cabin</title>
    <desc>Created with Sketch.</desc>
    <defs>
        <linearGradient x1="105.597733%" y1="-31.2887909%" x2="-2.98992443%" y2="127.753904%" id="linearGradient-1">
            <stop stop-color="#FBFBFB" offset="0%"></stop>
            <stop stop-color="#FBFBFB" offset="14.1176%"></stop>
            <stop stop-color="#FBFBFB" offset="30.9804%"></stop>
            <stop stop-color="#8E9393" offset="100%"></stop>
            <stop stop-color="#727271" offset="100%"></stop>
        </linearGradient>
        <linearGradient x1="105.636056%" y1="-31.3291549%" x2="-3.01014085%" y2="127.799155%" id="linearGradient-2">
            <stop stop-color="#8E9393" offset="0%"></stop>
            <stop stop-color="#FBFBFB" offset="67.8431%"></stop>
            <stop stop-color="#FBFBFB" offset="85.098%"></stop>
            <stop stop-color="#FBFBFB" offset="100%"></stop>
        </linearGradient>
    </defs>
    <g id="Page-1" stroke="none" stroke-width="1" fill="none" fill-rule="evenodd">
        <g id="Office-cabin">
            <g id="Group" fill-rule="nonzero">
                <path d="M36.5600014,18.326046 C36.5600014,28.3639305 28.3639305,36.5600014 18.326046,36.5600014 C8.19607084,36.5600014 0,28.3639305 0,18.326046 C0,8.19607084 8.19607084,0 18.326046,0 C28.3639305,0 36.5600014,8.19607084 36.5600014,18.326046 Z" id="Shape" fill="url(#linearGradient-1)"></path>
                <path d="M18.326046,34.626097 C9.30115904,34.626097 1.93390435,27.2588423 1.93390435,18.326046 C1.93390435,9.30115904 9.30115904,1.93390435 18.326046,1.93390435 C27.350933,1.93390435 34.626097,9.30115904 34.626097,18.326046 C34.626097,27.2588423 27.350933,34.626097 18.326046,34.626097 Z" id="Shape" fill="url(#linearGradient-2)"></path>
            </g>
            <g id="Group" transform="translate(5.709622, 8.472343)" fill="#616063">
                <path d="M7.36725468,6.35425717 C9.39324972,3.86780871 9.11697767,3.03899256 12.7085143,3.13108324 C15.8395976,3.13108324 15.7475069,3.77571803 17.8655926,6.53843853 C18.5102274,7.36725468 21.4571293,10.8667007 21.6413106,11.4192448 C20.1678597,13.9056932 6.07798511,14.3661466 3.59153666,11.3271541 L7.36725468,6.35425717 Z M3.22317392,13.7215119 C3.40735529,13.9056932 3.40735529,13.3531491 3.40735529,14.0898746 L3.31526461,15.4712348 L3.13108324,15.3791442 C2.57853914,15.1949628 1.93390435,14.8266001 1.56554162,14.9186907 C1.56554162,14.9186907 1.47345094,15.0107814 1.47345094,15.0107814 C1.47345094,15.1949628 1.28926957,15.0107814 1.47345094,15.7475069 C2.21017641,15.8395976 2.02599504,15.2870535 2.76272051,15.9316883 C2.21017641,16.3921417 0.920906836,16.300051 1.56554162,17.3130485 C2.57853914,17.2209578 1.47345094,17.1288671 2.57853914,16.6684137 C3.68362734,16.1158696 3.77571803,16.2079603 4.78871555,16.6684137 C5.80171306,17.0367765 4.97289691,16.9446858 5.6175317,17.3130485 C5.98589443,17.1288671 5.98589443,17.1288671 5.98589443,16.6684137 C5.6175317,16.300051 5.0649876,16.2079603 4.60453418,15.9316883 C5.52544101,15.2870535 5.98589443,15.9316883 5.98589443,15.1949628 C5.98589443,14.550328 4.78871555,15.1949628 4.14408076,15.4712348 L4.05199008,13.8136025 C4.42035281,13.9056932 7.275164,14.8266001 7.45934537,14.9186907 C8.47234289,15.6554162 7.91979879,17.2209578 8.10398015,18.6023181 C8.56443357,19.7074063 14.9186907,20.075769 17.3130485,18.6944088 C17.7735019,14.550328 16.3921417,15.2870535 20.7204038,14.0898746 C20.9045852,13.9977839 20.4441318,13.9056932 20.9966759,13.9977839 L20.9966759,15.4712348 C20.4441318,15.5633255 20.8124945,15.5633255 20.6283131,15.3791442 C20.1678597,15.1949628 19.5232249,14.8266001 19.1548622,14.9186907 C19.1548622,14.9186907 19.0627715,15.0107814 19.0627715,15.0107814 L19.0627715,15.3791442 C18.9706808,15.6554162 19.0627715,15.4712348 19.0627715,15.7475069 C19.799497,15.8395976 19.6153156,15.2870535 20.3520411,15.9316883 C19.7074063,16.3921417 18.5102274,16.300051 19.1548622,17.3130485 C20.1678597,17.2209578 19.0627715,17.1288671 20.1678597,16.6684137 C21.1808572,16.2079603 21.3650386,16.1158696 22.4701268,16.6684137 C23.4831243,17.1288671 22.4701268,17.2209578 23.3910336,17.3130485 C24.1277591,16.300051 22.8384895,16.300051 22.1938547,15.9316883 C22.9305802,15.4712348 23.0226709,15.7475069 23.575215,15.4712348 L23.3910336,14.8266001 L21.7334013,15.4712348 L21.6413106,13.9977839 C21.825492,13.4452398 23.0226709,13.7215119 23.575215,13.0768771 C23.851487,12.7085143 24.8644846,7.36725468 25.0486659,6.63052922 C25.60121,4.51244349 24.1277591,4.51244349 21.825492,4.60453418 C20.2599504,4.60453418 20.2599504,5.6175317 19.9836783,6.81471058 C19.799497,7.36725468 19.799497,7.45934537 19.5232249,7.73561742 C19.5232249,7.09098263 19.9836783,4.97289691 20.7204038,4.51244349 C21.0887665,4.32826213 20.9966759,4.42035281 21.2729479,4.32826213 C21.4571293,4.32826213 21.4571293,4.32826213 21.6413106,4.23617144 L21.825492,4.14408076 C21.9175827,3.31526461 21.825492,3.13108324 21.0887665,3.03899256 C17.1288671,2.30226709 18.326046,4.05199008 17.4972299,4.97289691 C17.4972299,4.97289691 17.1288671,3.22317392 18.8785901,2.67062982 L19.0627715,2.57853914 C19.0627715,2.48644846 19.1548622,2.48644846 19.1548622,2.48644846 C19.1548622,1.6576323 19.0627715,1.6576323 18.2339553,1.47345094 C16.300051,1.1050882 16.0237789,1.28926957 15.6554162,2.94690187 L14.7345094,2.67062982 C14.7345094,2.02599504 14.7345094,1.19717889 14.6424187,0.828816152 C13.9977839,-0.276272051 11.4192448,-0.0920906836 10.4983379,0.828816152 L10.4983379,2.57853914 L9.48534041,2.94690187 C9.30115904,1.93390435 9.30115904,1.28926957 8.01188947,1.38136025 C6.35425717,1.47345094 6.07798511,1.6576323 5.98589443,2.48644846 L6.35425717,2.67062982 C8.10398015,3.22317392 7.73561742,4.88080623 7.64352674,4.97289691 C7.09098263,3.68362734 7.55143605,2.94690187 5.89380375,2.94690187 C5.43335033,2.94690187 4.51244349,2.94690187 4.05199008,3.03899256 C3.31526461,3.22317392 3.31526461,3.49944598 3.31526461,4.32826213 C4.32826213,4.32826213 4.88080623,4.60453418 5.15707828,5.52544101 C5.34125965,6.07798511 5.80171306,7.275164 5.52544101,7.64352674 C4.97289691,6.07798511 5.24916896,4.60453418 3.22317392,4.60453418 C-1.28926957,4.60453418 -1.31492039e-15,5.15707828 1.01299752,10.77461 C1.38136025,12.7085143 1.1050882,13.3531491 3.22317392,13.7215119 Z" id="Shape"></path>
            </g>
        </g>
    </g>
</svg>