<?xml version="1.0" encoding="UTF-8"?>
<svg width="37px" height="37px" viewBox="0 0 37 37" version="1.1" xmlns="http://www.w3.org/2000/svg" xmlns:xlink="http://www.w3.org/1999/xlink">
    <!-- Generator: Sketch 48 (47235) - http://www.bohemiancoding.com/sketch -->
    <title>Lighting decor </title>
    <desc>Created with Sketch.</desc>
    <defs>
        <linearGradient x1="105.333166%" y1="-31.4677273%" x2="-2.98201005%" y2="127.976768%" id="linearGradient-1">
            <stop stop-color="#FBFBFB" offset="0%"></stop>
            <stop stop-color="#FBFBFB" offset="14.1176%"></stop>
            <stop stop-color="#FBFBFB" offset="30.9804%"></stop>
            <stop stop-color="#8E9393" offset="100%"></stop>
            <stop stop-color="#727271" offset="100%"></stop>
        </linearGradient>
        <linearGradient x1="105.653107%" y1="-31.0713989%" x2="-3.30039548%" y2="127.610112%" id="linearGradient-2">
            <stop stop-color="#8E9393" offset="0%"></stop>
            <stop stop-color="#FBFBFB" offset="67.8431%"></stop>
            <stop stop-color="#FBFBFB" offset="85.098%"></stop>
            <stop stop-color="#FBFBFB" offset="100%"></stop>
        </linearGradient>
    </defs>
    <g id="Page-1" stroke="none" stroke-width="1" fill="none" fill-rule="evenodd">
        <g id="Lighting-decor-">
            <g id="Group" fill-rule="nonzero">
                <path d="M36.5600014,18.1881414 C36.5600014,28.2926644 28.2926644,36.3762828 18.1881414,36.3762828 C8.26733699,36.3762828 0,28.2926644 0,18.1881414 C0,8.08361839 8.26733699,0 18.1881414,0 C28.2926644,0 36.5600014,8.08361839 36.5600014,18.1881414 Z" id="Shape" fill="url(#linearGradient-1)"></path>
                <path d="M18.1881414,34.5390968 C9.18592999,34.5390968 2.0209046,27.1903528 2.0209046,18.1881414 C2.0209046,9.18592999 9.18592999,1.837186 18.1881414,1.837186 C27.1903528,1.837186 34.5390968,9.18592999 34.5390968,18.1881414 C34.5390968,27.1903528 27.1903528,34.5390968 18.1881414,34.5390968 Z" id="Shape" fill="url(#linearGradient-2)"></path>
            </g>
            <g id="Group" transform="translate(11.390553, 5.327839)" fill="#616063">
                <path d="M8.08361839,10.4719602 C8.45105559,10.2882416 8.63477419,10.2882416 8.81849279,9.92080439 C9.73708579,9.18592999 9.92080439,9.55336719 10.6556788,10.104523 C11.2068346,10.4719602 12.4928648,10.6556788 13.0440206,10.104523 C13.4114578,9.73708579 13.0440206,9.55336719 13.778895,9.18592999 L12.4928648,7.34874399 C12.1254276,6.7975882 11.5742718,6.0627138 11.2068346,5.3278394 C10.4719602,3.674372 10.104523,2.5720604 9.92080439,0.3674372 L9.55336719,0.3674372 C9.36964859,0.1837186 9.36964859,0.1837186 9.18592999,0.1837186 C8.81849279,4.99600361e-16 8.63477419,0.1837186 8.26733699,0.3674372 C7.53246259,0.5511558 7.34874399,4.99600361e-16 6.6138696,0.1837186 C6.0627138,0.1837186 5.8789952,0.5511558 4.9604022,0.3674372 C4.4092464,0.1837186 4.4092464,4.99600361e-16 3.4906534,0.5511558 C4.0418092,3.4906534 1.2860302,7.71618119 0,9.18592999 C0,9.55336719 0.5511558,10.2882416 0.734874399,10.4719602 C1.837186,11.3905532 3.1232162,9.55336719 4.2255278,9.73708579 C5.511558,10.104523 6.0627138,11.5742718 8.08361839,10.4719602 Z" id="Shape"></path>
                <path d="M8.08361839,19.8416088 C9.55336719,18.37186 5.511558,13.778895 8.45105559,12.3091462 L7.89989979,12.4928648 C7.16502539,12.6765834 5.8789952,12.4928648 5.3278394,12.3091462 C5.511558,12.4928648 6.0627138,12.6765834 6.2464324,13.778895 C6.6138696,14.3300508 6.2464324,15.2486438 6.0627138,15.9835182 C5.8789952,16.534674 5.6952766,17.2695484 5.511558,18.0044228 C5.1441208,20.3927646 7.16502539,21.127639 8.08361839,19.8416088 Z" id="Shape"></path>
                <path d="M3.8580906,24.802011 C4.592965,26.0880412 9.36964859,25.9043226 10.104523,24.9857296 C10.104523,23.883418 8.26733699,23.5159808 7.53246259,22.7811064 L6.430151,22.7811064 C5.6952766,23.5159808 4.0418092,23.883418 3.8580906,24.802011 Z" id="Shape"></path>
                <path d="M5.6952766,22.046232 C6.0627138,22.5973878 6.7975882,22.7811064 7.53246259,22.5973878 C8.63477419,22.2299506 8.63477419,21.3113576 8.08361839,20.7602018 C7.71618119,20.3927646 7.53246259,20.9439204 6.430151,20.7602018 C5.6952766,20.5764832 5.3278394,21.3113576 5.6952766,22.046232 Z" id="Shape"></path>
                <path d="M7.89989979,12.3091462 L8.63477419,11.941709 C7.89989979,11.5742718 7.89989979,11.941709 7.34874399,11.941709 C6.6138696,11.941709 6.2464324,11.941709 5.6952766,11.7579904 L5.1441208,11.941709 C5.6952766,12.4928648 6.98130679,12.1254276 7.89989979,12.3091462 Z" id="Shape"></path>
                <polygon id="Shape" points="6.0627138 11.7579904 7.53246259 11.7579904 7.71618119 11.023116 6.0627138 11.023116"></polygon>
            </g>
        </g>
    </g>
</svg>