<?xml version="1.0" encoding="UTF-8"?>
<svg width="37px" height="37px" viewBox="0 0 37 37" version="1.1" xmlns="http://www.w3.org/2000/svg" xmlns:xlink="http://www.w3.org/1999/xlink">
    <!-- Generator: Sketch 48 (47235) - http://www.bohemiancoding.com/sketch -->
    <title>Soft furnishing</title>
    <desc>Created with Sketch.</desc>
    <defs>
        <linearGradient x1="105.598489%" y1="-31.3884635%" x2="-2.98942065%" y2="127.65466%" id="linearGradient-1">
            <stop stop-color="#FBFBFB" offset="0%"></stop>
            <stop stop-color="#FBFBFB" offset="14.1176%"></stop>
            <stop stop-color="#FBFBFB" offset="30.9804%"></stop>
            <stop stop-color="#8E9393" offset="100%"></stop>
            <stop stop-color="#727271" offset="100%"></stop>
        </linearGradient>
        <linearGradient x1="105.637183%" y1="-31.4406113%" x2="-3.00929577%" y2="127.688169%" id="linearGradient-2">
            <stop stop-color="#8E9393" offset="0%"></stop>
            <stop stop-color="#FBFBFB" offset="67.8431%"></stop>
            <stop stop-color="#FBFBFB" offset="85.098%"></stop>
            <stop stop-color="#FBFBFB" offset="100%"></stop>
        </linearGradient>
    </defs>
    <g id="Page-1" stroke="none" stroke-width="1" fill="none" fill-rule="evenodd">
        <g id="Soft-furnishing">
            <g id="Group" fill-rule="nonzero">
                <path d="M36.5600014,18.2339553 C36.5600014,28.3639305 28.3639305,36.5600014 18.326046,36.5600014 C8.19607084,36.5600014 0,28.3639305 0,18.2339553 C0,8.19607084 8.19607084,0 18.326046,0 C28.3639305,0 36.5600014,8.19607084 36.5600014,18.2339553 Z" id="Shape" fill="url(#linearGradient-1)"></path>
                <path d="M18.326046,34.626097 C9.30115904,34.626097 1.93390435,27.2588423 1.93390435,18.2339553 C1.93390435,9.20906836 9.30115904,1.93390435 18.326046,1.93390435 C27.350933,1.93390435 34.626097,9.20906836 34.626097,18.2339553 C34.626097,27.2588423 27.350933,34.626097 18.326046,34.626097 Z" id="Shape" fill="url(#linearGradient-2)"></path>
            </g>
            <g id="Group" transform="translate(6.998892, 9.945794)" fill="#616063">
                <path d="M0,0.276272051 C0.184181367,0.828816152 0.276272051,1.1050882 0.552544101,1.56554162 C1.01299752,2.85481119 0.644634785,5.15707828 0.644634785,6.44634785 C0.552544101,7.64352674 0.644634785,8.74861494 0.736725468,9.85370314 C0.828816152,10.4983379 0.736725468,10.9587913 0.552544101,11.4192448 C0.368362734,11.6955168 0,12.3401516 0,12.7085143 C0.644634785,12.6164236 1.1050882,12.4322423 1.6576323,12.2480609 C3.59153666,11.5113354 5.24916896,12.1559702 7.275164,12.2480609 C7.45934537,12.2480609 7.55143605,12.2480609 7.73561742,12.2480609 C7.64352674,11.4192448 7.64352674,10.6825193 7.64352674,9.85370314 C7.64352674,8.47234289 8.10398015,6.1700758 7.55143605,4.88080623 C7.36725468,4.42035281 7.18307332,4.14408076 7.09098263,3.68362734 L7.09098263,3.40735529 C7.275164,3.31526461 8.47234289,3.86780871 8.65652425,3.86780871 C10.0378845,4.32826213 12.6164236,3.77571803 14.3661466,3.68362734 C14.274056,3.40735529 14.274056,3.03899256 14.274056,2.57853914 C14.274056,0.920906836 14.9186907,1.1050882 15.0107814,0.276272051 L15.0107814,0.0920906836 L14.7345094,0.0920906836 C14.3661466,0.0920906836 13.5373305,0.460453418 13.1689677,0.552544101 C11.2350634,1.19717889 9.66952177,0.276272051 7.45934537,0.368362734 C5.80171306,0.368362734 3.03899256,0.920906836 1.6576323,0.552544101 C1.38136025,0.552544101 0.276272051,9.02056208e-16 0,0.0920906836 L0,0.276272051 Z" id="Shape"></path>
                <path d="M7.64352674,4.14408076 C7.8277081,4.69662486 7.91979879,4.97289691 8.10398015,5.43335033 C8.65652425,6.63052922 8.28816152,8.93279631 8.19607084,10.3141566 C8.19607084,11.5113354 8.28816152,12.6164236 8.3802522,13.7215119 C8.47234289,14.3661466 8.3802522,14.8266001 8.10398015,15.2870535 C8.01188947,15.5633255 7.64352674,16.2079603 7.64352674,16.4842324 C8.28816152,16.4842324 8.74861494,16.300051 9.30115904,16.1158696 C11.2350634,15.3791442 12.8926957,16.0237789 14.9186907,16.1158696 C16.2079603,16.1158696 17.6814112,16.1158696 18.8785901,15.9316883 C21.4571293,15.4712348 21.3650386,16.4842324 22.2859454,16.3921417 C22.3780361,15.7475069 22.1938547,15.2870535 22.0096734,14.8266001 C21.7334013,14.274056 21.7334013,14.0898746 21.7334013,13.5373305 C21.7334013,13.0768771 21.825492,12.6164236 21.9175827,12.1559702 C22.1938547,9.39324972 22.0096734,9.02488699 21.9175827,6.44634785 C21.9175827,4.78871555 22.4701268,4.97289691 22.5622175,4.14408076 L22.5622175,3.95989939 L22.3780361,3.95989939 C21.9175827,3.95989939 21.1808572,4.32826213 20.7204038,4.42035281 C18.8785901,5.0649876 17.3130485,4.14408076 15.1028721,4.14408076 C13.4452398,4.23617144 10.6825193,4.78871555 9.20906836,4.42035281 C9.02488699,4.32826213 7.91979879,3.86780871 7.64352674,3.95989939 L7.64352674,4.14408076 Z" id="Shape"></path>
            </g>
        </g>
    </g>
</svg>