<?xml version="1.0" encoding="UTF-8"?>
<svg width="37px" height="37px" viewBox="0 0 37 37" version="1.1" xmlns="http://www.w3.org/2000/svg" xmlns:xlink="http://www.w3.org/1999/xlink">
    <!-- Generator: Sketch 48 (47235) - http://www.bohemiancoding.com/sketch -->
    <title>EMI</title>
    <desc>Created with Sketch.</desc>
    <defs>
        <linearGradient x1="105.598489%" y1="-31.2887909%" x2="-2.98942065%" y2="127.754408%" id="linearGradient-1">
            <stop stop-color="#FBFBFB" offset="0%"></stop>
            <stop stop-color="#FBFBFB" offset="14.1176%"></stop>
            <stop stop-color="#FBFBFB" offset="30.9804%"></stop>
            <stop stop-color="#8E9393" offset="100%"></stop>
            <stop stop-color="#727271" offset="100%"></stop>
        </linearGradient>
        <linearGradient x1="105.637183%" y1="-31.3291549%" x2="-3.00929577%" y2="127.799718%" id="linearGradient-2">
            <stop stop-color="#8E9393" offset="0%"></stop>
            <stop stop-color="#FBFBFB" offset="67.8431%"></stop>
            <stop stop-color="#FBFBFB" offset="85.098%"></stop>
            <stop stop-color="#FBFBFB" offset="100%"></stop>
        </linearGradient>
    </defs>
    <g id="Page-1" stroke="none" stroke-width="1" fill="none" fill-rule="evenodd">
        <g id="EMI" fill-rule="nonzero">
            <g id="Group">
                <g>
                    <path d="M36.5600014,18.326046 C36.5600014,28.3639305 28.3639305,36.5600014 18.326046,36.5600014 C8.19607084,36.5600014 0,28.3639305 0,18.326046 C0,8.19607084 8.19607084,0 18.326046,0 C28.3639305,0 36.5600014,8.19607084 36.5600014,18.326046 Z" id="Shape" fill="url(#linearGradient-1)"></path>
                    <path d="M18.326046,34.626097 C9.30115904,34.626097 1.93390435,27.2588423 1.93390435,18.326046 C1.93390435,9.30115904 9.30115904,1.93390435 18.326046,1.93390435 C27.350933,1.93390435 34.626097,9.30115904 34.626097,18.326046 C34.626097,27.2588423 27.350933,34.626097 18.326046,34.626097 Z" id="Shape" fill="url(#linearGradient-2)"></path>
                </g>
                <g transform="translate(6.998892, 7.827708)" fill="#616063">
                    <path d="M8.84070562,2.11808572 C8.74861494,1.74972299 9.11697767,1.38136025 9.48534041,1.38136025 L11.7876075,1.38136025 L11.8796982,0.644634785 C11.8796982,0.184181367 12.2480609,0 12.6164236,0 L18.8785901,1.19717889 C19.2469529,1.19717889 19.5232249,1.56554162 19.4311342,1.93390435 L18.326046,9.48534041 C19.1548622,9.76161246 19.6153156,10.6825193 19.2469529,11.6955168 C20.2599504,11.8796982 20.3520411,13.4452398 19.7074063,14.0898746 C20.4441318,14.6424187 20.2599504,15.9316883 19.3390435,16.4842324 C19.7074063,17.1288671 19.7074063,18.2339553 18.4181367,18.6023181 C18.4181367,18.6023181 14.274056,19.6153156 13.4452398,19.7074063 C11.6955168,19.799497 11.2350634,19.4311342 8.84070562,19.2469529 L7.275164,11.6955168 L8.19607084,10.3141566 C8.56443357,9.66952177 9.02488699,9.57743109 9.66952177,9.39324972 L9.66952177,7.45934537 L8.84070562,2.11808572 Z M17.8655926,3.59153666 C17.3130485,3.31526461 16.8525951,2.76272051 16.7605044,2.11808572 L14.274056,1.6576323 C13.9977839,2.21017641 13.5373305,2.57853914 12.8926957,2.67062982 L12.0638795,10.4062472 C12.0638795,10.4983379 11.9717889,10.5904286 11.9717889,10.6825193 C13.3531491,11.050882 15.0107814,10.77461 16.6684137,10.2220659 C16.8525951,10.1299752 16.9446858,9.76161246 16.9446858,9.57743109 L17.8655926,3.59153666 Z M11.4192448,2.67062982 C11.3271541,3.31526461 10.9587913,3.77571803 10.4062472,4.05199008 L10.9587913,7.275164 L10.9587913,8.56443357 L11.6034261,2.67062982 L11.4192448,2.67062982 Z M14.9186907,5.52544101 C13.9977839,5.43335033 13.2610584,5.98589443 13.2610584,6.81471058 C13.1689677,7.55143605 13.8136025,8.19607084 14.6424187,8.28816152 C15.4712348,8.3802522 16.2079603,7.8277081 16.300051,7.09098263 C16.3921417,6.26216648 15.7475069,5.6175317 14.9186907,5.52544101 Z" id="Shape"></path>
                    <path d="M4.69662486,19.5232249 C4.14408076,19.5232249 3.68362734,19.0627715 3.68362734,18.5102274 C3.68362734,17.9576833 4.05199008,17.5893206 4.60453418,17.5893206 C5.15707828,17.5893206 5.6175317,17.9576833 5.6175317,18.5102274 C5.6175317,19.0627715 5.24916896,19.5232249 4.69662486,19.5232249 Z M6.26216648,11.5113354 L0,12.6164236 L1.84181367,20.9045852 L8.19607084,20.9045852 L6.26216648,11.5113354 Z" id="Shape"></path>
                </g>
            </g>
        </g>
    </g>
</svg>