<?xml version="1.0" encoding="UTF-8"?>
<svg width="37px" height="37px" viewBox="0 0 37 37" version="1.1" xmlns="http://www.w3.org/2000/svg" xmlns:xlink="http://www.w3.org/1999/xlink">
    <!-- Generator: Sketch 48 (47235) - http://www.bohemiancoding.com/sketch -->
    <title>Quality promise</title>
    <desc>Created with Sketch.</desc>
    <defs>
        <linearGradient x1="105.598237%" y1="-31.3973804%" x2="-2.98967254%" y2="127.64534%" id="linearGradient-1">
            <stop stop-color="#FBFBFB" offset="0%"></stop>
            <stop stop-color="#FBFBFB" offset="14.1176%"></stop>
            <stop stop-color="#FBFBFB" offset="30.9804%"></stop>
            <stop stop-color="#8E9393" offset="100%"></stop>
            <stop stop-color="#727271" offset="100%"></stop>
        </linearGradient>
        <linearGradient x1="105.63662%" y1="-31.4505972%" x2="-3.00957746%" y2="127.677746%" id="linearGradient-2">
            <stop stop-color="#8E9393" offset="0%"></stop>
            <stop stop-color="#FBFBFB" offset="67.8431%"></stop>
            <stop stop-color="#FBFBFB" offset="85.098%"></stop>
            <stop stop-color="#FBFBFB" offset="100%"></stop>
        </linearGradient>
    </defs>
    <g id="Page-1" stroke="none" stroke-width="1" fill="none" fill-rule="evenodd">
        <g id="Quality-promise">
            <g id="Group" fill-rule="nonzero">
                <path d="M36.5600014,18.2339553 C36.5600014,28.3639305 28.3639305,36.5600014 18.326046,36.5600014 C8.19607084,36.5600014 0,28.3639305 0,18.2339553 C0,8.19607084 8.19607084,0 18.326046,0 C28.3639305,0 36.5600014,8.19607084 36.5600014,18.2339553 Z" id="Shape" fill="url(#linearGradient-1)"></path>
                <path d="M18.326046,34.626097 C9.30115904,34.626097 1.93390435,27.2588423 1.93390435,18.2339553 C1.93390435,9.20906836 9.30115904,1.93390435 18.326046,1.93390435 C27.350933,1.93390435 34.626097,9.20906836 34.626097,18.2339553 C34.626097,27.2588423 27.350933,34.626097 18.326046,34.626097 Z" id="Shape" fill="url(#linearGradient-2)"></path>
            </g>
            <g id="Group" transform="translate(5.617532, 7.551436)" fill="#616063">
                <path d="M13.9977839,19.5232249 C13.9977839,20.4441318 12.1559702,22.2859454 11.4192448,22.1938547 C11.050882,22.1017641 10.4983379,21.6413106 10.4062472,21.3650386 C10.2220659,20.5362224 12.1559702,18.4181367 12.9847864,18.6023181 C13.2610584,18.6944088 13.6294212,19.2469529 13.9977839,19.5232249 Z M12.4322423,17.0367765 C12.2480609,17.3130485 10.4983379,18.9706808 10.2220659,19.3390435 C9.94579382,19.6153156 9.57743109,20.2599504 8.74861494,19.9836783 C8.28816152,19.799497 7.73561742,19.2469529 8.01188947,18.5102274 C8.19607084,18.1418647 9.85370314,16.576323 10.2220659,16.2079603 C11.6955168,14.6424187 12.6164236,16.300051 12.4322423,17.0367765 Z M10.9587913,14.0898746 C10.8667007,14.274056 8.47234289,16.4842324 8.19607084,16.8525951 C7.73561742,17.2209578 7.275164,17.9576833 6.44634785,17.8655926 C5.80171306,17.8655926 5.15707828,16.9446858 5.6175317,16.2079603 C5.70962238,16.0237789 6.81471058,15.1028721 6.99889195,14.8266001 L9.11697767,12.7085143 C9.39324972,12.4322423 9.48534041,12.2480609 10.0378845,12.3401516 C10.77461,12.4322423 11.3271541,13.3531491 10.9587913,14.0898746 Z M7.275164,12.9847864 C7.09098263,13.2610584 5.52544101,14.7345094 5.15707828,15.1028721 C4.88080623,15.3791442 4.42035281,15.9316883 3.77571803,15.5633255 C1.93390435,14.550328 4.23617144,12.9847864 5.34125965,11.8796982 C5.70962238,11.5113354 6.1700758,11.050882 6.81471058,11.5113354 C7.18307332,11.7876075 7.64352674,12.3401516 7.275164,12.9847864 Z M8.47234289,12.1559702 C8.3802522,12.524333 8.19607084,12.0638795 8.19607084,11.9717889 C8.01188947,11.1429727 7.09098263,10.3141566 5.98589443,10.4983379 C5.0649876,10.5904286 4.32826213,11.6955168 3.77571803,12.0638795 C0.368362734,9.39324972 -2.61943245e-16,6.7226199 2.57853914,3.31526461 C3.31526461,2.39435777 5.15707828,1.1050882 6.99889195,0.920906836 C9.11697767,0.736725468 10.6825193,2.11808572 11.5113354,3.13108324 C10.9587913,3.59153666 10.4062472,4.14408076 9.85370314,4.69662486 L8.28816152,6.26216648 C6.90680127,7.8277081 9.57743109,9.02488699 11.4192448,8.47234289 C13.3531491,7.8277081 13.1689677,5.80171306 15.4712348,6.35425717 C16.3921417,6.63052922 19.3390435,7.64352674 20.4441318,5.89380375 C20.1678597,5.70962238 20.075769,5.6175317 19.799497,5.34125965 C16.9446858,7.45934537 15.3791442,3.68362734 12.7085143,6.26216648 C12.524333,6.44634785 12.4322423,6.53843853 12.2480609,6.7226199 C10.6825193,8.56443357 8.93279631,7.45934537 8.84070562,7.18307332 C9.02488699,6.53843853 10.4983379,5.24916896 11.050882,4.78871555 C12.6164236,3.13108324 14.0898746,1.28926957 16.300051,0.920906836 C21.4571293,0.184181367 26.0616634,6.63052922 23.9435777,10.3141566 C23.4831243,11.1429727 22.4701268,12.4322423 21.7334013,12.800605 C21.1808572,12.4322423 20.8124945,11.8796982 20.4441318,11.3271541 C19.5232249,10.4062472 19.6153156,10.5904286 18.9706808,9.94579382 L16.9446858,7.73561742 C16.576323,7.45934537 16.4842324,7.45934537 16.300051,7.09098263 C15.9316883,7.45934537 15.9316883,7.36725468 15.6554162,7.8277081 C16.9446858,8.74861494 17.4051392,9.76161246 18.5102274,10.6825193 C18.7864994,11.050882 18.8785901,11.050882 19.1548622,11.3271541 C19.799497,12.0638795 20.6283131,13.0768771 21.2729479,13.6294212 C22.6543082,14.7345094 21.6413106,15.9316883 20.9045852,15.9316883 C20.1678597,15.9316883 18.1418647,13.3531491 17.4972299,12.800605 C17.2209578,12.524333 17.4051392,12.6164236 17.0367765,12.4322423 L16.4842324,12.9847864 C17.9576833,15.2870535 20.8124945,16.300051 19.5232249,17.6814112 C18.5102274,18.7864994 17.6814112,17.4051392 17.0367765,16.8525951 C16.2079603,16.2079603 15.6554162,15.2870535 14.8266001,14.6424187 C14.550328,14.8266001 14.8266001,14.550328 14.4582373,14.9186907 C14.3661466,15.1028721 14.3661466,15.1028721 14.274056,15.2870535 C14.9186907,15.8395976 15.3791442,16.576323 16.0237789,17.1288671 C18.326046,19.1548622 16.9446858,19.9836783 16.2079603,19.9836783 C15.5633255,19.9836783 15.3791442,19.5232249 15.1028721,19.2469529 C14.8266001,19.0627715 14.9186907,19.1548622 14.6424187,18.8785901 C13.7215119,17.6814112 13.9056932,18.1418647 13.0768771,17.6814112 C13.8136025,16.0237789 12.9847864,15.1949628 11.6034261,14.6424187 C12.6164236,13.1689677 11.3271541,11.3271541 9.76161246,11.4192448 C9.02488699,11.4192448 8.84070562,11.7876075 8.47234289,12.1559702 Z M8.74861494,20.9045852 L9.48534041,20.9045852 L9.57743109,21.4571293 C9.76161246,22.5622175 11.1429727,23.6673057 12.524333,22.8384895 C13.0768771,22.4701268 14.550328,20.9966759 14.7345094,20.3520411 C16.2079603,21.4571293 18.049774,20.7204038 18.2339553,18.9706808 C19.8915876,19.0627715 20.5362224,18.326046 20.8124945,16.8525951 C21.825492,16.7605044 22.2859454,16.3921417 22.6543082,15.6554162 C23.1147616,14.7345094 22.7463988,14.1819653 22.4701268,13.4452398 C23.4831243,12.6164236 25.324938,10.77461 25.4170287,8.3802522 C25.5091193,5.34125965 23.0226709,2.30226709 20.7204038,0.920906836 C17.8655926,-0.736725468 13.9977839,3.26128013e-16 12.1559702,2.39435777 C11.5113354,1.93390435 11.050882,1.19717889 10.0378845,0.736725468 C5.15707828,-1.84181367 -0.736725468,3.49944598 0.0920906836,8.28816152 C0.368362734,10.4062472 2.11808572,11.7876075 3.13108324,12.7085143 C2.67062982,13.3531491 1.74972299,13.9977839 2.39435777,15.2870535 C2.57853914,15.6554162 2.94690187,16.0237789 3.22317392,16.2079603 C3.59153666,16.4842324 3.95989939,16.576323 4.60453418,16.576323 C4.51244349,18.049774 5.52544101,18.7864994 6.99889195,18.7864994 C7.09098263,19.8915876 7.8277081,20.7204038 8.74861494,20.9045852 Z" id="Shape"></path>
                <path d="M9.57743109,21.4571293 L9.48534041,20.9045852 L8.74861494,20.9045852 C9.02488699,21.0887665 9.02488699,20.9966759 9.39324972,20.9966759 L9.57743109,21.4571293 Z" id="Shape"></path>
            </g>
        </g>
    </g>
</svg>