<?xml version="1.0" encoding="UTF-8"?>
<svg width="37px" height="37px" viewBox="0 0 37 37" version="1.1" xmlns="http://www.w3.org/2000/svg" xmlns:xlink="http://www.w3.org/1999/xlink">
    <!-- Generator: Sketch 48 (47235) - http://www.bohemiancoding.com/sketch -->
    <title>Design Inspiration</title>
    <desc>Created with Sketch.</desc>
    <defs>
        <linearGradient x1="105.598237%" y1="-31.2882872%" x2="-2.98967254%" y2="127.754408%" id="linearGradient-1">
            <stop stop-color="#FBFBFB" offset="0%"></stop>
            <stop stop-color="#FBFBFB" offset="14.1176%"></stop>
            <stop stop-color="#FBFBFB" offset="30.9804%"></stop>
            <stop stop-color="#8E9393" offset="100%"></stop>
            <stop stop-color="#727271" offset="100%"></stop>
        </linearGradient>
        <linearGradient x1="105.63662%" y1="-31.3286197%" x2="-3.00957746%" y2="127.799718%" id="linearGradient-2">
            <stop stop-color="#8E9393" offset="0%"></stop>
            <stop stop-color="#FBFBFB" offset="67.8431%"></stop>
            <stop stop-color="#FBFBFB" offset="85.098%"></stop>
            <stop stop-color="#FBFBFB" offset="100%"></stop>
        </linearGradient>
    </defs>
    <g id="Page-1" stroke="none" stroke-width="1" fill="none" fill-rule="evenodd">
        <g id="Design-Inspiration">
            <g id="Group" fill-rule="nonzero">
                <path d="M37,18.5465995 C37,28.7052897 28.7052897,37 18.5465995,37 C8.29471033,37 0,28.7052897 0,18.5465995 C0,8.29471033 8.29471033,0 18.5465995,0 C28.7052897,0 37,8.29471033 37,18.5465995 Z" id="Shape" fill="url(#linearGradient-1)"></path>
                <path d="M18.5465995,35.0428212 C9.41309824,35.0428212 1.95717884,27.5869018 1.95717884,18.5465995 C1.95717884,9.41309824 9.41309824,1.95717884 18.5465995,1.95717884 C27.6801008,1.95717884 35.0428212,9.41309824 35.0428212,18.5465995 C35.0428212,27.5869018 27.6801008,35.0428212 18.5465995,35.0428212 Z" id="Shape" fill="url(#linearGradient-2)"></path>
            </g>
            <path d="M13.9798489,24.231738 L15.8438287,24.231738 L15.8438287,22.3677582 L13.9798489,22.3677582 L13.9798489,24.231738 Z M17.7078086,18.8261965 L12.115869,18.8261965 L12.115869,12.581864 L10.2518892,12.581864 L10.2518892,20.2241814 L10.2518892,27.7732997 L12.115869,27.7732997 L12.115869,20.6901763 L17.7078086,20.6901763 L17.7078086,27.8664987 L26.7481108,27.8664987 L26.7481108,20.0377834 L26.7481108,19.7581864 C26.7481108,17.3350126 26.7481108,15.0050378 26.7481108,12.581864 L24.884131,12.581864 L24.97733,17.7078086 L24.97733,18.0806045 L24.884131,19.8513854 L24.884131,19.9445844 L24.884131,26.0025189 L19.5717884,26.0025189 L19.5717884,18.4534005 L19.5717884,17.5214106 L19.5717884,12.581864 L17.7078086,12.581864 L17.7078086,17.5214106 L17.7078086,18.8261965 Z M21.4357683,17.4282116 L21.4357683,17.8010076 L21.3425693,17.9874055 L21.4357683,18.8261965 L21.4357683,20.0377834 L21.4357683,20.1309824 L21.4357683,24.324937 L23.2065491,24.324937 L23.2065491,20.0377834 L23.2065491,17.7078086 L23.2065491,16.4962217 L23.2065491,9.22670025 L14.0730479,9.22670025 L13.9798489,17.0554156 L14.2594458,17.0554156 L15.1914358,17.0554156 L15.6574307,17.0554156 C15.8438287,16.9622166 15.7506297,17.0554156 15.8438287,16.8690176 L15.8438287,11.1838791 L15.8438287,10.9974811 L21.2493703,10.9974811 L21.3425693,10.9974811 L21.4357683,17.4282116 Z" id="Shape" stroke="#616063" stroke-width="0.5" fill="#616063"></path>
        </g>
    </g>
</svg>