<?xml version="1.0" encoding="UTF-8"?>
<svg width="37px" height="37px" viewBox="0 0 37 37" version="1.1" xmlns="http://www.w3.org/2000/svg" xmlns:xlink="http://www.w3.org/1999/xlink">
    <!-- Generator: Sketch 48 (47235) - http://www.bohemiancoding.com/sketch -->
    <title>Theme n Style</title>
    <desc>Created with Sketch.</desc>
    <defs>
        <linearGradient x1="105.333166%" y1="-31.6203535%" x2="-2.98201005%" y2="127.824242%" id="linearGradient-1">
            <stop stop-color="#FBFBFB" offset="0%"></stop>
            <stop stop-color="#FBFBFB" offset="14.1176%"></stop>
            <stop stop-color="#FBFBFB" offset="30.9804%"></stop>
            <stop stop-color="#8E9393" offset="100%"></stop>
            <stop stop-color="#727271" offset="100%"></stop>
        </linearGradient>
        <linearGradient x1="105.653107%" y1="-31.2411573%" x2="-3.30039548%" y2="127.440449%" id="linearGradient-2">
            <stop stop-color="#8E9393" offset="0%"></stop>
            <stop stop-color="#FBFBFB" offset="67.8431%"></stop>
            <stop stop-color="#FBFBFB" offset="85.098%"></stop>
            <stop stop-color="#FBFBFB" offset="100%"></stop>
        </linearGradient>
    </defs>
    <g id="Page-1" stroke="none" stroke-width="1" fill="none" fill-rule="evenodd">
        <g id="Theme-n-Style">
            <g id="Group" fill-rule="nonzero">
                <path d="M37,18.5 C37,28.7777778 28.6331658,37 18.4070352,37 C8.36683417,37 0,28.7777778 0,18.5 C0,8.22222222 8.36683417,0 18.4070352,0 C28.6331658,0 37,8.22222222 37,18.5 Z" id="Shape" fill="url(#linearGradient-1)"></path>
                <path d="M18.4070352,35.1313131 C9.29648241,35.1313131 2.04522613,27.6565657 2.04522613,18.5 C2.04522613,9.34343434 9.29648241,1.86868687 18.4070352,1.86868687 C27.5175879,1.86868687 34.9547739,9.34343434 34.9547739,18.5 C34.9547739,27.6565657 27.5175879,35.1313131 18.4070352,35.1313131 Z" id="Shape" fill="url(#linearGradient-2)"></path>
            </g>
            <g id="Group" transform="translate(8.180905, 8.969697)" fill="#616063">
                <path d="M4.09045226,2.61616162 C4.46231156,3.17676768 5.20603015,3.55050505 5.57788945,4.11111111 C5.94974874,4.48484848 6.50753769,5.23232323 7.43718593,4.67171717 C7.80904523,4.48484848 9.11055276,2.8030303 10.2261307,1.86868687 C10.9698492,2.24242424 13.201005,5.04545455 13.9447236,5.04545455 C14.6884422,4.67171717 15.8040201,3.17676768 16.5477387,2.8030303 L16.5477387,6.91414141 C14.3165829,8.03535354 13.758794,9.15656566 14.6884422,11.5858586 L5.94974874,11.5858586 C6.32160804,10.4646465 6.69346734,9.9040404 6.13567839,8.5959596 C5.57788945,7.84848485 5.0201005,7.28787879 4.09045226,6.91414141 L4.09045226,2.61616162 Z M16.7336683,18.6868687 C17.1055276,17.7525253 16.7336683,17.3787879 16.361809,16.6313131 C15.8040201,15.510101 21.1959799,14.5757576 20.2663317,9.53030303 C20.080402,8.22222222 19.1507538,7.28787879 18.0351759,6.91414141 L18.0351759,6.54040404 L18.0351759,6.16666667 C18.0351759,5.04545455 18.0351759,3.92424242 18.0351759,2.8030303 C18.0351759,1.86868687 18.4070352,0.186868687 17.4773869,0.186868687 C16.361809,-5.55111512e-17 14.5025126,2.8030303 13.758794,3.17676768 C10.040201,-1.12121212 10.040201,-0.186868687 8.36683417,1.68181818 C7.99497487,2.24242424 7.25125628,2.61616162 6.87939698,2.98989899 C6.50753769,2.8030303 6.13567839,2.61616162 5.94974874,2.24242424 C5.57788945,1.86868687 5.3919598,1.68181818 5.0201005,1.30808081 C4.64824121,1.12121212 4.46231156,0.747474747 4.09045226,0.560606061 C3.53266332,-5.55111512e-17 3.53266332,-5.55111512e-17 2.78894472,0.186868687 C2.23115578,1.12121212 2.60301508,4.67171717 2.60301508,6.16666667 L2.60301508,6.91414141 C-1.85929648,8.03535354 0.557788945,14.2020202 3.71859296,15.8838384 L4.46231156,16.2575758 C4.27638191,16.8181818 4.09045226,16.2575758 3.90452261,17.1919192 C3.34673367,19.0606061 4.83417085,19.4343434 5.20603015,18.1262626 C5.3919598,17.1919192 5.3919598,17.0050505 6.13567839,16.6313131 C6.69346734,16.4444444 11.3417085,16.6313131 13.3869347,16.6313131 C15.9899497,16.4444444 14.8743719,19.6212121 16.7336683,18.6868687 Z M1.67336683,10.0909091 C1.85929648,8.96969697 2.60301508,8.03535354 3.90452261,8.40909091 C4.83417085,8.96969697 5.20603015,10.4646465 4.27638191,11.2121212 C3.90452261,11.3989899 3.16080402,11.5858586 2.97487437,11.7727273 C2.41708543,12.520202 2.97487437,12.8939394 3.53266332,13.0808081 L3.71859296,13.2676768 C7.80904523,13.0808081 11.8994975,13.0808081 15.9899497,13.0808081 L16.361809,13.0808081 C17.2914573,13.0808081 18.0351759,13.0808081 17.6633166,11.7727273 C16.919598,11.3989899 15.9899497,11.3989899 15.8040201,10.2777778 C15.4321608,8.03535354 19.1507538,7.47474747 18.7788945,10.4646465 C18.2211055,18.1262626 1.48743719,16.6313131 1.67336683,10.0909091 Z" id="Shape"></path>
                <path d="M11.5276382,8.03535354 C12.2713568,6.54040404 9.66834171,5.79292929 9.11055276,7.1010101 C8.73869347,8.5959596 10.7839196,9.53030303 11.5276382,8.03535354 Z" id="Shape"></path>
            </g>
        </g>
    </g>
</svg>