<?xml version="1.0" encoding="UTF-8"?>
<svg width="37px" height="37px" viewBox="0 0 37 37" version="1.1" xmlns="http://www.w3.org/2000/svg" xmlns:xlink="http://www.w3.org/1999/xlink">
    <!-- Generator: Sketch 48 (47235) - http://www.bohemiancoding.com/sketch -->
    <title>Design Personel</title>
    <desc>Created with Sketch.</desc>
    <defs>
        <linearGradient x1="105.598489%" y1="-31.2887909%" x2="-2.98942065%" y2="127.754408%" id="linearGradient-1">
            <stop stop-color="#FBFBFB" offset="0%"></stop>
            <stop stop-color="#FBFBFB" offset="14.1176%"></stop>
            <stop stop-color="#FBFBFB" offset="30.9804%"></stop>
            <stop stop-color="#8E9393" offset="100%"></stop>
            <stop stop-color="#727271" offset="100%"></stop>
        </linearGradient>
        <linearGradient x1="105.637183%" y1="-31.3291549%" x2="-3.00929577%" y2="127.799718%" id="linearGradient-2">
            <stop stop-color="#8E9393" offset="0%"></stop>
            <stop stop-color="#FBFBFB" offset="67.8431%"></stop>
            <stop stop-color="#FBFBFB" offset="85.098%"></stop>
            <stop stop-color="#FBFBFB" offset="100%"></stop>
        </linearGradient>
    </defs>
    <g id="Page-1" stroke="none" stroke-width="1" fill="none" fill-rule="evenodd">
        <g id="Design-Personel">
            <g id="Group" fill-rule="nonzero">
                <path d="M37,18.5465995 C37,28.7052897 28.7052897,37 18.5465995,37 C8.29471033,37 0,28.7052897 0,18.5465995 C0,8.29471033 8.29471033,0 18.5465995,0 C28.7052897,0 37,8.29471033 37,18.5465995 Z" id="Shape" fill="url(#linearGradient-1)"></path>
                <path d="M18.5465995,35.0428212 C9.41309824,35.0428212 1.95717884,27.5869018 1.95717884,18.5465995 C1.95717884,9.41309824 9.41309824,1.95717884 18.5465995,1.95717884 C27.6801008,1.95717884 35.0428212,9.41309824 35.0428212,18.5465995 C35.0428212,27.5869018 27.6801008,35.0428212 18.5465995,35.0428212 Z" id="Shape" fill="url(#linearGradient-2)"></path>
            </g>
            <g id="Group" transform="translate(8.481108, 8.015113)" fill="#616063">
                <path d="M9.8790932,10.9042821 L10.1586902,10.6246851 C10.2518892,10.5314861 10.2518892,10.4382872 10.3450882,10.2518892 C10.4382872,10.2518892 10.4382872,10.1586902 10.5314861,10.0654912 C10.6246851,9.97229219 10.6246851,9.8790932 10.7178841,9.69269521 C10.8110831,9.69269521 10.8110831,9.69269521 10.8110831,9.59949622 C10.9974811,9.22670025 11.1838791,8.76070529 11.2770781,8.38790932 C11.3702771,8.20151134 11.3702771,8.10831234 11.3702771,8.01511335 C11.4634761,7.54911839 11.5566751,6.61712846 11.3702771,6.1511335 C11.3702771,6.05793451 11.3702771,5.87153652 11.3702771,5.77833753 C11.3702771,5.59193955 11.2770781,5.49874055 11.2770781,5.31234257 C11.1838791,5.21914358 10.9974811,4.56675063 10.9042821,4.56675063 C10.6246851,3.82115869 10.0654912,3.26196474 9.59949622,2.70277078 C9.50629723,2.60957179 9.50629723,2.60957179 9.41309824,2.5163728 C9.31989924,2.5163728 9.22670025,2.32997481 9.13350126,2.32997481 C9.04030227,2.23677582 9.13350126,2.32997481 9.04030227,2.23677582 C8.94710327,2.14357683 9.04030227,2.32997481 8.94710327,2.23677582 C8.94710327,2.23677582 8.94710327,2.14357683 8.94710327,2.14357683 L8.38790932,1.86397985 C8.29471033,1.77078086 8.20151134,1.77078086 8.10831234,1.67758186 C8.01511335,1.67758186 8.10831234,1.67758186 8.01511335,1.67758186 C7.92191436,1.58438287 7.92191436,1.58438287 7.82871537,1.58438287 C7.82871537,1.58438287 7.73551637,1.49118388 7.64231738,1.49118388 C7.54911839,1.49118388 7.54911839,1.49118388 7.54911839,1.49118388 C7.3627204,1.39798489 6.89672544,1.30478589 6.71032746,1.30478589 C6.61712846,1.2115869 6.61712846,1.2115869 6.43073048,1.2115869 C6.24433249,1.2115869 5.96473552,1.2115869 5.68513854,1.2115869 L5.21914358,1.2115869 C4.9395466,1.2115869 4.65994962,1.30478589 4.38035264,1.30478589 C4.28715365,1.30478589 4.28715365,1.30478589 4.19395466,1.39798489 C4.00755668,1.39798489 2.88916877,1.86397985 2.79596977,1.95717884 C2.70277078,2.05037783 2.70277078,2.05037783 2.60957179,2.05037783 C2.32997481,2.23677582 2.05037783,2.5163728 1.77078086,2.70277078 C1.67758186,2.88916877 1.39798489,3.07556675 1.30478589,3.26196474 L0.931989924,3.7279597 C0.838790932,3.82115869 0.652392947,4.19395466 0.652392947,4.38035264 C0.652392947,4.38035264 0.559193955,4.38035264 0.559193955,4.38035264 C0.559193955,4.47355164 0.559193955,4.47355164 0.559193955,4.47355164 C0.559193955,4.56675063 0.559193955,4.47355164 0.559193955,4.56675063 C0.465994962,4.65994962 0.465994962,4.56675063 0.465994962,4.65994962 L0.279596977,5.21914358 C0.186397985,5.40554156 0.186397985,5.40554156 0.186397985,5.59193955 C0.186397985,5.96473552 0,6.43073048 0,6.89672544 C0,7.08312343 0,7.4559194 0,7.64231738 C0.0931989924,7.64231738 0.0931989924,7.73551637 0.0931989924,7.73551637 C0.0931989924,8.01511335 0.279596977,8.48110831 0.279596977,8.6675063 C0.37279597,8.85390428 0.279596977,8.85390428 0.37279597,8.94710327 C0.652392947,9.59949622 0.931989924,10.0654912 1.30478589,10.6246851 C1.77078086,11.0906801 2.23677582,11.4634761 2.70277078,12.115869 C3.07556675,12.581864 3.35516373,13.4206549 3.35516373,13.9798489 C3.35516373,14.1662469 3.35516373,14.0730479 3.35516373,14.1662469 C2.23677582,14.1662469 2.4231738,15.4710327 3.16876574,15.4710327 C2.60957179,15.6574307 2.5163728,16.7758186 3.54156171,16.7758186 L3.91435768,16.7758186 L4.9395466,18.0806045 L6.61712846,18.0806045 C6.71032746,17.8010076 7.26952141,17.0554156 7.3627204,16.8690176 C7.4559194,16.8690176 7.4559194,16.8690176 7.4559194,16.7758186 C9.04030227,16.9622166 9.31989924,15.8438287 8.38790932,15.5642317 C9.22670025,15.4710327 9.13350126,14.2594458 8.10831234,14.2594458 C8.10831234,12.861461 8.94710327,11.836272 9.8790932,10.9042821 Z M6.33753149,19.5717884 L6.33753149,19.8513854 L6.33753149,20.0377834 L6.33753149,20.8765743 L14.0730479,20.8765743 L14.0730479,20.4105793 L14.0730479,20.1309824 L14.0730479,19.1989924 L14.0730479,19.0125945 C14.0730479,17.8010076 14.6322418,17.8942065 15.1914358,17.8010076 C15.1914358,17.8010076 17.8942065,17.3350126 17.9874055,17.3350126 C18.2670025,17.2418136 18.5465995,16.8690176 18.6397985,16.6826196 C18.6397985,16.4030227 18.7329975,16.3098237 18.6397985,15.9370277 C18.5465995,15.7506297 18.5465995,15.6574307 18.5465995,15.4710327 C18.5465995,14.7254408 19.1989924,14.6322418 18.9193955,14.3526448 C18.9193955,14.1662469 18.4534005,13.9798489 18.4534005,13.7934509 C19.5717884,13.5138539 18.9193955,12.768262 18.9193955,11.929471 L18.9193955,11.743073 L19.0125945,11.743073 C21.2493703,11.743073 19.3853904,10.1586902 18.9193955,9.31989924 C18.9193955,9.31989924 18.8261965,9.22670025 18.8261965,9.22670025 C18.3602015,8.5743073 18.1738035,8.01511335 17.8010076,7.26952141 C16.0302267,2.05037783 16.3098237,-0.465994962 8.94710327,0.186397985 C8.94710327,0.186397985 8.85390428,0.186397985 8.85390428,0.186397985 C8.76070529,0.279596977 8.85390428,0.186397985 8.76070529,0.279596977 C8.5743073,0.279596977 8.48110831,0.279596977 8.29471033,0.37279597 C8.48110831,0.559193955 9.97229219,1.30478589 10.4382872,1.77078086 C11.1838791,2.4231738 11.743073,3.07556675 12.209068,4.10075567 C12.209068,4.19395466 12.209068,4.19395466 12.209068,4.28715365 C12.302267,4.47355164 12.302267,4.47355164 12.395466,4.65994962 C12.395466,4.84634761 12.395466,4.65994962 12.488665,4.75314861 C12.395466,4.9395466 12.395466,4.84634761 12.488665,4.84634761 C12.488665,5.03274559 12.488665,4.9395466 12.488665,5.03274559 C12.581864,5.12594458 12.581864,5.40554156 12.675063,5.49874055 C12.675063,5.77833753 12.581864,5.59193955 12.675063,5.68513854 C12.675063,5.87153652 12.675063,5.96473552 12.675063,6.24433249 C12.768262,6.43073048 12.768262,6.52392947 12.768262,6.71032746 L12.768262,7.3627204 L12.675063,7.3627204 C12.675063,7.64231738 12.675063,7.73551637 12.675063,7.92191436 C12.675063,8.10831234 12.581864,8.29471033 12.581864,8.38790932 C12.581864,8.48110831 12.581864,8.48110831 12.581864,8.5743073 C12.488665,8.76070529 12.115869,9.97229219 12.02267,10.0654912 C11.5566751,11.2770781 9.78589421,12.395466 9.69269521,13.2342569 C9.59949622,13.2342569 9.59949622,13.2342569 9.59949622,13.3274559 C9.59949622,13.3274559 9.59949622,13.3274559 9.59949622,13.4206549 C9.59949622,13.4206549 9.50629723,13.4206549 9.59949622,13.6070529 C9.59949622,13.7002519 9.69269521,13.7002519 9.78589421,13.9798489 C9.78589421,13.9798489 9.8790932,14.0730479 9.8790932,14.0730479 C9.97229219,14.1662469 9.8790932,14.0730479 9.97229219,14.1662469 C9.97229219,14.2594458 9.97229219,14.3526448 10.0654912,14.5390428 C10.0654912,14.6322418 10.0654912,14.8186398 10.0654912,15.0050378 L10.0654912,15.1914358 C9.97229219,15.3778338 9.97229219,15.4710327 9.97229219,15.5642317 C10.0654912,15.8438287 10.0654912,15.8438287 10.0654912,16.1234257 L10.0654912,16.3098237 C9.97229219,16.9622166 9.41309824,17.7078086 8.85390428,17.8942065 C8.5743073,17.9874055 8.20151134,17.9874055 8.10831234,18.2670025 C8.01511335,18.2670025 8.01511335,18.3602015 8.01511335,18.3602015 C7.82871537,18.5465995 7.3627204,19.3853904 7.17632242,19.4785894 C7.08312343,19.4785894 6.98992443,19.4785894 6.89672544,19.4785894 C6.80352645,19.4785894 6.71032746,19.4785894 6.61712846,19.4785894 C6.52392947,19.4785894 6.43073048,19.4785894 6.43073048,19.4785894 C6.33753149,19.4785894 6.43073048,19.3853904 6.33753149,19.5717884 Z M3.44836272,2.23677582 C3.54156171,2.23677582 3.54156171,2.23677582 3.63476071,2.23677582 L3.82115869,2.14357683 L3.91435768,2.05037783 C4.19395466,2.05037783 4.47355164,1.86397985 4.75314861,1.86397985 C4.9395466,1.86397985 5.40554156,1.77078086 5.77833753,1.77078086 L5.96473552,1.77078086 L6.1511335,1.77078086 L6.24433249,1.77078086 C6.24433249,1.77078086 6.98992443,1.95717884 7.08312343,1.95717884 C7.17632242,2.05037783 6.98992443,1.95717884 7.17632242,2.05037783 C7.26952141,2.05037783 7.26952141,2.05037783 7.3627204,2.05037783 C7.3627204,2.05037783 7.4559194,2.14357683 7.4559194,2.14357683 L7.92191436,2.23677582 C8.01511335,2.32997481 7.92191436,2.32997481 8.01511335,2.32997481 C8.10831234,2.32997481 8.20151134,2.4231738 8.29471033,2.5163728 C9.69269521,3.35516373 9.8790932,3.82115869 10.2518892,4.47355164 C10.2518892,4.47355164 10.2518892,4.47355164 10.2518892,4.47355164 C10.2518892,4.56675063 10.2518892,4.56675063 10.2518892,4.56675063 C10.3450882,4.65994962 10.2518892,4.56675063 10.3450882,4.65994962 L10.6246851,5.31234257 C10.6246851,5.40554156 10.6246851,5.40554156 10.6246851,5.49874055 C10.9042821,6.24433249 10.8110831,6.52392947 10.8110831,7.3627204 L10.8110831,7.4559194 C10.8110831,7.64231738 10.8110831,7.54911839 10.8110831,7.73551637 C10.8110831,7.82871537 10.8110831,7.92191436 10.7178841,7.92191436 C10.7178841,8.10831234 10.6246851,8.48110831 10.5314861,8.6675063 C10.5314861,8.76070529 10.4382872,8.85390428 10.4382872,9.04030227 C10.4382872,9.04030227 10.4382872,9.04030227 10.3450882,9.13350126 C10.3450882,9.13350126 10.3450882,9.13350126 10.3450882,9.22670025 C10.3450882,9.22670025 10.1586902,9.50629723 10.1586902,9.59949622 C10.0654912,9.59949622 9.78589421,10.0654912 9.78589421,10.1586902 L9.69269521,10.2518892 C9.59949622,10.3450882 9.50629723,10.3450882 9.41309824,10.4382872 C8.38790932,11.4634761 7.54911839,12.488665 7.54911839,14.0730479 L7.54911839,14.2594458 L7.3627204,14.2594458 L6.80352645,14.2594458 L6.80352645,13.0478589 L4.75314861,13.0478589 L4.75314861,13.1410579 L4.75314861,14.1662469 C4.47355164,14.1662469 4.28715365,14.1662469 4.00755668,14.1662469 C3.7279597,13.2342569 3.82115869,12.768262 3.26196474,11.929471 C3.16876574,11.743073 3.07556675,11.5566751 2.88916877,11.3702771 C2.79596977,11.2770781 2.23677582,10.6246851 2.23677582,10.6246851 C2.05037783,10.4382872 1.86397985,10.3450882 1.67758186,10.0654912 L1.49118388,9.8790932 C1.30478589,9.41309824 0.838790932,8.85390428 0.838790932,8.38790932 C0.74559194,8.29471033 0.838790932,8.38790932 0.74559194,8.29471033 L0.74559194,8.10831234 C0.74559194,8.01511335 0.74559194,8.01511335 0.652392947,7.92191436 C0.652392947,7.73551637 0.652392947,7.54911839 0.652392947,7.4559194 L0.652392947,7.26952141 L0.652392947,6.89672544 L0.652392947,6.71032746 C0.652392947,5.96473552 0.74559194,5.59193955 0.931989924,4.9395466 C1.02518892,4.84634761 1.02518892,4.75314861 1.11838791,4.65994962 C1.2115869,4.47355164 1.2115869,4.56675063 1.2115869,4.38035264 C1.30478589,4.28715365 1.49118388,4.10075567 1.49118388,3.91435768 C1.58438287,3.82115869 1.67758186,3.82115869 1.67758186,3.7279597 C1.77078086,3.63476071 1.77078086,3.54156171 1.86397985,3.54156171 L1.86397985,3.44836272 C2.05037783,3.35516373 2.4231738,2.98236776 2.79596977,2.70277078 C2.98236776,2.60957179 2.98236776,2.60957179 3.07556675,2.5163728 C3.26196474,2.4231738 3.35516373,2.4231738 3.44836272,2.23677582 Z M4.28715365,3.44836272 C4.28715365,3.26196474 4.19395466,3.16876574 3.91435768,3.16876574 C3.63476071,3.26196474 3.16876574,3.63476071 2.88916877,3.91435768 C2.70277078,4.10075567 2.14357683,4.47355164 2.4231738,4.75314861 C2.79596977,5.03274559 4.28715365,3.44836272 4.28715365,3.44836272 Z M5.68513854,6.98992443 L5.40554156,7.73551637 L5.87153652,7.73551637 L6.1511335,7.73551637 L5.68513854,6.98992443 Z" id="Shape" stroke="#616063" stroke-width="0.5"></path>
                <polygon id="Shape" points="4.75314861 8.94710327 5.21914358 8.10831234 6.33753149 8.10831234 6.80352645 9.04030227 6.80352645 12.675063 4.75314861 12.675063"></polygon>
            </g>
        </g>
    </g>
</svg>