<?xml version="1.0" encoding="UTF-8"?>
<svg width="37px" height="37px" viewBox="0 0 37 37" version="1.1" xmlns="http://www.w3.org/2000/svg" xmlns:xlink="http://www.w3.org/1999/xlink">
    <!-- Generator: Sketch 48 (47235) - http://www.bohemiancoding.com/sketch -->
    <title>Space Planning</title>
    <desc>Created with Sketch.</desc>
    <defs>
        <linearGradient x1="105.597733%" y1="-31.2887909%" x2="-2.98992443%" y2="127.753904%" id="linearGradient-1">
            <stop stop-color="#FBFBFB" offset="0%"></stop>
            <stop stop-color="#FBFBFB" offset="14.1176%"></stop>
            <stop stop-color="#FBFBFB" offset="30.9804%"></stop>
            <stop stop-color="#8E9393" offset="100%"></stop>
            <stop stop-color="#727271" offset="100%"></stop>
        </linearGradient>
        <linearGradient x1="105.636056%" y1="-31.3291549%" x2="-3.01014085%" y2="127.799155%" id="linearGradient-2">
            <stop stop-color="#8E9393" offset="0%"></stop>
            <stop stop-color="#FBFBFB" offset="67.8431%"></stop>
            <stop stop-color="#FBFBFB" offset="85.098%"></stop>
            <stop stop-color="#FBFBFB" offset="100%"></stop>
        </linearGradient>
    </defs>
    <g id="Page-1" stroke="none" stroke-width="1" fill="none" fill-rule="evenodd">
        <g id="Space-Planning">
            <g id="Group" fill-rule="nonzero">
                <path d="M37,18.5465995 C37,28.7052897 28.7052897,37 18.5465995,37 C8.29471033,37 0,28.7052897 0,18.5465995 C0,8.29471033 8.29471033,0 18.5465995,0 C28.7052897,0 37,8.29471033 37,18.5465995 Z" id="Shape" fill="url(#linearGradient-1)"></path>
                <path d="M18.5465995,35.0428212 C9.41309824,35.0428212 1.95717884,27.5869018 1.95717884,18.5465995 C1.95717884,9.41309824 9.41309824,1.95717884 18.5465995,1.95717884 C27.6801008,1.95717884 35.0428212,9.41309824 35.0428212,18.5465995 C35.0428212,27.5869018 27.6801008,35.0428212 18.5465995,35.0428212 Z" id="Shape" fill="url(#linearGradient-2)"></path>
            </g>
            <g id="Group" transform="translate(8.108312, 6.617128)">
                <g transform="translate(3.075567, 6.151134)">
                    <path d="M1.2115869,11.0906801 C1.39798489,11.4634761 1.67758186,11.836272 1.95717884,12.115869 C2.14357683,12.395466 2.60957179,12.768262 2.88916877,12.9546599 C3.54156171,13.5138539 4.28715365,13.8866499 5.21914358,14.1662469 C7.3627204,14.8186398 9.50629723,14.4458438 11.0906801,13.4206549 C11.4634761,13.2342569 12.581864,12.488665 12.581864,12.209068 L11.836272,9.31989924 C11.743073,9.04030227 11.6498741,8.94710327 11.4634761,8.76070529 L8.76070529,6.05793451 C8.38790932,5.77833753 8.10831234,5.49874055 7.82871537,5.21914358 L7.17632242,5.87153652 C7.3627204,5.96473552 7.54911839,6.1511335 7.64231738,6.33753149 C7.82871537,6.52392947 8.01511335,6.61712846 8.20151134,6.80352645 L10.0654912,8.76070529 C10.7178841,9.41309824 10.4382872,9.22670025 11.5566751,9.31989924 C11.743073,9.8790932 11.929471,10.6246851 12.02267,11.2770781 C12.115869,11.4634761 12.115869,11.4634761 11.836272,11.743073 C11.5566751,12.02267 11.5566751,12.02267 11.3702771,12.02267 C11.0906801,11.929471 10.9042821,11.836272 10.7178841,11.836272 C10.2518892,11.6498741 9.78589421,11.5566751 9.41309824,11.4634761 C9.41309824,11.2770781 9.31989924,10.6246851 9.31989924,10.5314861 C9.31989924,10.5314861 6.05793451,7.17632242 5.87153652,7.08312343 L5.31234257,7.73551637 C5.40554156,7.92191436 6.43073048,8.85390428 6.61712846,9.04030227 L8.94710327,11.3702771 C9.22670025,11.6498741 9.04030227,11.6498741 9.31989924,11.743073 C9.69269521,11.836272 11.1838791,12.209068 11.4634761,12.302267 C11.1838791,12.675063 9.69269521,13.3274559 9.04030227,13.5138539 C6.80352645,14.1662469 4.56675063,13.5138539 2.88916877,12.02267 L1.67758186,10.5314861 L1.49118388,10.2518892 C0.37279597,8.01511335 0.74559194,4.9395466 2.4231738,3.07556675 C4.00755668,1.11838791 6.71032746,0.186397985 9.31989924,1.02518892 C10.5314861,1.39798489 10.9974811,1.86397985 11.743073,2.5163728 C11.929471,2.60957179 12.02267,2.79596977 12.302267,2.70277078 C12.488665,2.70277078 12.675063,2.5163728 12.581864,2.23677582 C12.488665,2.05037783 11.5566751,1.30478589 11.2770781,1.2115869 C10.9974811,0.931989924 10.6246851,0.838790932 10.2518892,0.652392947 C6.33753149,-1.11838791 1.58438287,1.02518892 0.37279597,5.31234257 C0.0931989924,6.24433249 -2.31759056e-15,7.17632242 0.186397985,8.20151134 C0.37279597,9.59949622 0.652392947,9.78589421 0.931989924,10.6246851 C0.931989924,10.6246851 0.931989924,10.7178841 1.02518892,10.8110831 C1.02518892,10.9042821 1.02518892,10.8110831 1.11838791,10.9042821 L1.2115869,11.0906801 Z" id="Shape" stroke="#616063" stroke-width="0.5"></path>
                    <path d="M1.2115869,11.0906801 C1.39798489,11.4634761 1.67758186,11.836272 1.95717884,12.115869 C2.14357683,12.395466 2.60957179,12.768262 2.88916877,12.9546599 C3.54156171,13.5138539 4.28715365,13.8866499 5.21914358,14.1662469 C7.3627204,14.8186398 9.50629723,14.4458438 11.0906801,13.4206549 C11.4634761,13.2342569 12.581864,12.488665 12.581864,12.209068 L11.836272,9.31989924 C11.743073,9.04030227 11.6498741,8.94710327 11.4634761,8.76070529 L8.76070529,6.05793451 C8.38790932,5.77833753 8.10831234,5.49874055 7.82871537,5.21914358 L7.17632242,5.87153652 C7.3627204,5.96473552 7.54911839,6.1511335 7.64231738,6.33753149 C7.82871537,6.52392947 8.01511335,6.61712846 8.20151134,6.80352645 L10.0654912,8.76070529 C10.7178841,9.41309824 10.4382872,9.22670025 11.5566751,9.31989924 C11.743073,9.8790932 11.929471,10.6246851 12.02267,11.2770781 C12.115869,11.4634761 12.115869,11.4634761 11.836272,11.743073 C11.5566751,12.02267 11.5566751,12.02267 11.3702771,12.02267 C11.0906801,11.929471 10.9042821,11.836272 10.7178841,11.836272 C10.2518892,11.6498741 9.78589421,11.5566751 9.41309824,11.4634761 C9.41309824,11.2770781 9.31989924,10.6246851 9.31989924,10.5314861 C9.31989924,10.5314861 6.05793451,7.17632242 5.87153652,7.08312343 L5.31234257,7.73551637 C5.40554156,7.92191436 6.43073048,8.85390428 6.61712846,9.04030227 L8.94710327,11.3702771 C9.22670025,11.6498741 9.04030227,11.6498741 9.31989924,11.743073 C9.69269521,11.836272 11.1838791,12.209068 11.4634761,12.302267 C11.1838791,12.675063 9.69269521,13.3274559 9.04030227,13.5138539 C6.80352645,14.1662469 4.56675063,13.5138539 2.88916877,12.02267 L1.67758186,10.5314861 L1.49118388,10.2518892 C0.37279597,8.01511335 0.74559194,4.9395466 2.4231738,3.07556675 C4.00755668,1.11838791 6.71032746,0.186397985 9.31989924,1.02518892 C10.5314861,1.39798489 10.9974811,1.86397985 11.743073,2.5163728 C11.929471,2.60957179 12.02267,2.79596977 12.302267,2.70277078 C12.488665,2.70277078 12.675063,2.5163728 12.581864,2.23677582 C12.488665,2.05037783 11.5566751,1.30478589 11.2770781,1.2115869 C10.9974811,0.931989924 10.6246851,0.838790932 10.2518892,0.652392947 C6.33753149,-1.11838791 1.58438287,1.02518892 0.37279597,5.31234257 C0.0931989924,6.24433249 -2.31759056e-15,7.17632242 0.186397985,8.20151134 C0.37279597,9.59949622 0.652392947,9.78589421 0.931989924,10.6246851 C0.931989924,10.6246851 0.931989924,10.7178841 1.02518892,10.8110831 C1.02518892,10.9042821 1.02518892,10.8110831 1.11838791,10.9042821 L1.2115869,11.0906801 Z" id="1" fill="#616063"></path>
                </g>
                <g>
                    <path d="M2.5163728,9.04030227 C2.5163728,8.6675063 2.5163728,8.10831234 2.4231738,7.73551637 C2.05037783,7.3627204 1.77078086,7.64231738 1.77078086,7.92191436 C1.77078086,8.29471033 1.77078086,8.85390428 1.77078086,9.22670025 C1.77078086,9.8790932 1.86397985,9.78589421 1.39798489,10.1586902 C1.2115869,10.3450882 1.02518892,10.5314861 0.838790932,10.8110831 C0.559193955,10.9974811 0.37279597,11.1838791 0.186397985,11.4634761 C-0.186397985,11.743073 0.186397985,12.115869 0.465994962,12.02267 C0.652392947,12.02267 1.49118388,11.0906801 1.77078086,10.9042821 L1.77078086,21.2493703 C1.77078086,21.4357683 1.77078086,21.2493703 1.67758186,21.3425693 C1.30478589,21.3425693 0.838790932,21.3425693 0.37279597,21.3425693 C0.186397985,21.3425693 0,21.4357683 0,21.6221662 C0,21.9017632 0.186397985,21.9949622 0.186397985,22.0881612 L1.77078086,22.0881612 C1.86397985,22.8337531 1.58438287,23.6725441 2.14357683,23.6725441 C2.70277078,23.6725441 2.4231738,22.8337531 2.5163728,22.0881612 L18.3602015,22.0881612 C18.4534005,22.8337531 18.1738035,23.6725441 18.7329975,23.6725441 C19.2921914,23.7657431 19.0125945,22.9269521 19.1057935,22.0881612 C19.3853904,22.0881612 19.7581864,22.0881612 20.1309824,22.0881612 C20.5037783,22.0881612 20.7833753,22.0881612 20.7833753,21.7153652 C20.8765743,21.1561713 19.9445844,21.4357683 19.1057935,21.3425693 C19.1057935,20.4105793 19.1057935,19.3853904 19.1057935,18.4534005 L19.1057935,10.9042821 C19.1989924,10.9042821 19.9445844,11.6498741 20.1309824,11.929471 C20.5969773,12.302267 20.9697733,11.836272 20.7833753,11.5566751 L19.3853904,10.1586902 C19.2921914,9.97229219 19.1057935,9.8790932 19.1057935,9.69269521 C19.1057935,9.22670025 19.1057935,8.76070529 19.1057935,8.29471033 C19.1057935,8.01511335 19.1057935,7.82871537 19.0125945,7.64231738 C18.8261965,7.54911839 18.5465995,7.54911839 18.4534005,7.73551637 C18.2670025,7.92191436 18.3602015,8.76070529 18.3602015,9.04030227 C18.1738035,8.94710327 17.8010076,8.5743073 17.6146096,8.38790932 C17.3350126,8.10831234 17.1486146,7.82871537 16.8690176,7.64231738 L12.675063,3.44836272 C12.675063,3.35516373 12.675063,3.35516373 12.581864,3.35516373 C12.581864,3.35516373 12.581864,3.26196474 12.581864,3.26196474 C12.488665,3.26196474 12.488665,3.26196474 12.488665,3.26196474 L12.115869,2.88916877 C12.02267,2.79596977 12.02267,2.79596977 11.929471,2.70277078 L10.9042821,1.67758186 C10.9974811,1.49118388 11.6498741,0.931989924 11.836272,0.74559194 C11.929471,0.652392947 12.02267,0.559193955 11.929471,0.279596977 C11.6498741,-1.26287869e-15 11.5566751,-1.26287869e-15 11.1838791,0.465994962 C10.9042821,0.652392947 10.7178841,0.931989924 10.4382872,1.11838791 C10.3450882,1.11838791 9.8790932,0.652392947 9.78589421,0.559193955 C9.59949622,0.37279597 9.31989924,-0.0931989924 8.94710327,0.186397985 C8.48110831,0.652392947 9.59949622,1.11838791 9.8790932,1.67758186 C8.94710327,2.60957179 3.26196474,8.6675063 2.5163728,9.04030227 Z M10.4382872,2.14357683 C11.6498741,3.44836272 13.1410579,4.84634761 14.3526448,6.1511335 L18.2670025,10.0654912 C18.3602015,10.0654912 18.2670025,10.0654912 18.3602015,10.0654912 L18.3602015,21.3425693 L2.5163728,21.3425693 C2.5163728,17.8942065 2.5163728,14.4458438 2.5163728,10.9974811 C2.5163728,10.2518892 2.4231738,10.1586902 2.70277078,9.97229219 C4.28715365,8.29471033 9.97229219,2.4231738 10.4382872,2.14357683 Z" id="Shape" stroke="#616063" stroke-width="0.5"></path>
                    <path d="M2.5163728,9.04030227 C2.5163728,8.6675063 2.5163728,8.10831234 2.4231738,7.73551637 C2.05037783,7.3627204 1.77078086,7.64231738 1.77078086,7.92191436 C1.77078086,8.29471033 1.77078086,8.85390428 1.77078086,9.22670025 C1.77078086,9.8790932 1.86397985,9.78589421 1.39798489,10.1586902 C1.2115869,10.3450882 1.02518892,10.5314861 0.838790932,10.8110831 C0.559193955,10.9974811 0.37279597,11.1838791 0.186397985,11.4634761 C-0.186397985,11.743073 0.186397985,12.115869 0.465994962,12.02267 C0.652392947,12.02267 1.49118388,11.0906801 1.77078086,10.9042821 L1.77078086,21.2493703 C1.77078086,21.4357683 1.77078086,21.2493703 1.67758186,21.3425693 C1.30478589,21.3425693 0.838790932,21.3425693 0.37279597,21.3425693 C0.186397985,21.3425693 0,21.4357683 0,21.6221662 C0,21.9017632 0.186397985,21.9949622 0.186397985,22.0881612 L1.77078086,22.0881612 C1.86397985,22.8337531 1.58438287,23.6725441 2.14357683,23.6725441 C2.70277078,23.6725441 2.4231738,22.8337531 2.5163728,22.0881612 L18.3602015,22.0881612 C18.4534005,22.8337531 18.1738035,23.6725441 18.7329975,23.6725441 C19.2921914,23.7657431 19.0125945,22.9269521 19.1057935,22.0881612 C19.3853904,22.0881612 19.7581864,22.0881612 20.1309824,22.0881612 C20.5037783,22.0881612 20.7833753,22.0881612 20.7833753,21.7153652 C20.8765743,21.1561713 19.9445844,21.4357683 19.1057935,21.3425693 C19.1057935,20.4105793 19.1057935,19.3853904 19.1057935,18.4534005 L19.1057935,10.9042821 C19.1989924,10.9042821 19.9445844,11.6498741 20.1309824,11.929471 C20.5969773,12.302267 20.9697733,11.836272 20.7833753,11.5566751 L19.3853904,10.1586902 C19.2921914,9.97229219 19.1057935,9.8790932 19.1057935,9.69269521 C19.1057935,9.22670025 19.1057935,8.76070529 19.1057935,8.29471033 C19.1057935,8.01511335 19.1057935,7.82871537 19.0125945,7.64231738 C18.8261965,7.54911839 18.5465995,7.54911839 18.4534005,7.73551637 C18.2670025,7.92191436 18.3602015,8.76070529 18.3602015,9.04030227 C18.1738035,8.94710327 17.8010076,8.5743073 17.6146096,8.38790932 C17.3350126,8.10831234 17.1486146,7.82871537 16.8690176,7.64231738 L12.675063,3.44836272 C12.675063,3.35516373 12.675063,3.35516373 12.581864,3.35516373 C12.581864,3.35516373 12.581864,3.26196474 12.581864,3.26196474 C12.488665,3.26196474 12.488665,3.26196474 12.488665,3.26196474 L12.115869,2.88916877 C12.02267,2.79596977 12.02267,2.79596977 11.929471,2.70277078 L10.9042821,1.67758186 C10.9974811,1.49118388 11.6498741,0.931989924 11.836272,0.74559194 C11.929471,0.652392947 12.02267,0.559193955 11.929471,0.279596977 C11.6498741,-1.26287869e-15 11.5566751,-1.26287869e-15 11.1838791,0.465994962 C10.9042821,0.652392947 10.7178841,0.931989924 10.4382872,1.11838791 C10.3450882,1.11838791 9.8790932,0.652392947 9.78589421,0.559193955 C9.59949622,0.37279597 9.31989924,-0.0931989924 8.94710327,0.186397985 C8.48110831,0.652392947 9.59949622,1.11838791 9.8790932,1.67758186 C8.94710327,2.60957179 3.26196474,8.6675063 2.5163728,9.04030227 Z M10.4382872,2.14357683 C11.6498741,3.44836272 13.1410579,4.84634761 14.3526448,6.1511335 L18.2670025,10.0654912 C18.3602015,10.0654912 18.2670025,10.0654912 18.3602015,10.0654912 L18.3602015,21.3425693 L2.5163728,21.3425693 C2.5163728,17.8942065 2.5163728,14.4458438 2.5163728,10.9974811 C2.5163728,10.2518892 2.4231738,10.1586902 2.70277078,9.97229219 C4.28715365,8.29471033 9.97229219,2.4231738 10.4382872,2.14357683 Z" id="1" fill="#616063"></path>
                </g>
                <g transform="translate(9.226700, 12.209068)">
                    <path d="M0.838790932,0 C0.74559194,0 0,0.74559194 0,0.931989924 L2.88916877,3.82115869 C3.44836272,4.38035264 3.16876574,4.28715365 4.28715365,4.28715365 C4.28715365,3.16876574 4.47355164,3.54156171 3.54156171,2.60957179 L1.86397985,0.931989924 C1.58438287,0.652392947 1.02518892,0.186397985 0.838790932,0 Z" id="Shape" stroke="#616063" stroke-width="0.5"></path>
                    <path d="M0.838790932,0 C0.74559194,0 0,0.74559194 0,0.931989924 L2.88916877,3.82115869 C3.44836272,4.38035264 3.16876574,4.28715365 4.28715365,4.28715365 C4.28715365,3.16876574 4.47355164,3.54156171 3.54156171,2.60957179 L1.86397985,0.931989924 C1.58438287,0.652392947 1.02518892,0.186397985 0.838790932,0 Z" id="1" fill="#616063"></path>
                </g>
                <g transform="translate(6.989924, 9.972292)">
                    <path d="M1.02518892,3.54156171 C1.11838791,3.54156171 3.54156171,1.11838791 3.54156171,1.02518892 C3.35516373,0.838790932 3.16876574,0.652392947 2.98236776,0.465994962 C2.32997481,-0.186397985 2.4231738,-0.0931989924 1.2115869,1.2115869 C-0.0931989924,2.4231738 -0.186397985,2.4231738 0.465994962,2.98236776 L1.02518892,3.54156171 Z" id="Shape" stroke="#616063" stroke-width="0.5"></path>
                    <path d="M1.02518892,3.54156171 C1.11838791,3.54156171 3.54156171,1.11838791 3.54156171,1.02518892 C3.35516373,0.838790932 3.16876574,0.652392947 2.98236776,0.465994962 C2.32997481,-0.186397985 2.4231738,-0.0931989924 1.2115869,1.2115869 C-0.0931989924,2.4231738 -0.186397985,2.4231738 0.465994962,2.98236776 L1.02518892,3.54156171 Z" id="1" fill="#616063"></path>
                </g>
            </g>
        </g>
    </g>
</svg>