<?xml version="1.0" encoding="UTF-8"?>
<svg width="37px" height="37px" viewBox="0 0 37 37" version="1.1" xmlns="http://www.w3.org/2000/svg" xmlns:xlink="http://www.w3.org/1999/xlink">
    <!-- Generator: Sketch 48 (47235) - http://www.bohemiancoding.com/sketch -->
    <title>2D 3D render</title>
    <desc>Created with Sketch.</desc>
    <defs>
        <linearGradient x1="105.591824%" y1="-30.9978742%" x2="-2.85987421%" y2="127.845283%" id="linearGradient-1">
            <stop stop-color="#FBFBFB" offset="0%"></stop>
            <stop stop-color="#FBFBFB" offset="14.1176%"></stop>
            <stop stop-color="#FBFBFB" offset="30.9804%"></stop>
            <stop stop-color="#8E9393" offset="100%"></stop>
            <stop stop-color="#727271" offset="100%"></stop>
        </linearGradient>
        <linearGradient x1="105.355634%" y1="-31.47%" x2="-3.29098592%" y2="127.659155%" id="linearGradient-2">
            <stop stop-color="#8E9393" offset="0%"></stop>
            <stop stop-color="#FBFBFB" offset="67.8431%"></stop>
            <stop stop-color="#FBFBFB" offset="85.098%"></stop>
            <stop stop-color="#FBFBFB" offset="100%"></stop>
        </linearGradient>
    </defs>
    <g id="Page-1" stroke="none" stroke-width="1" fill="none" fill-rule="evenodd">
        <g id="2D-3D-render">
            <g id="Group" fill-rule="nonzero">
                <path d="M37,18.6163522 C37,28.8553459 28.8553459,37 18.6163522,37 C8.37735849,37 0,28.8553459 0,18.6163522 C0,8.37735849 8.37735849,0 18.6163522,0 C28.8553459,0 37,8.37735849 37,18.6163522 Z" id="Shape" fill="url(#linearGradient-1)"></path>
                <path d="M18.6163522,35.1383648 C9.5408805,35.1383648 2.09433962,27.6918239 2.09433962,18.6163522 C2.09433962,9.5408805 9.5408805,2.09433962 18.6163522,2.09433962 C27.6918239,2.09433962 35.1383648,9.5408805 35.1383648,18.6163522 C35.1383648,27.6918239 27.6918239,35.1383648 18.6163522,35.1383648 Z" id="Shape" fill="url(#linearGradient-2)"></path>
            </g>
            <g id="Group" transform="translate(9.773585, 9.540881)">
                <path d="M16.754717,1.62893082 L4.88679245,1.62893082 L4.88679245,0.698113208 L16.754717,0.698113208 L17.2201258,1.16352201 L16.754717,1.62893082 Z M16.754717,0.698113208 L17.2201258,0.698113208 L17.2201258,1.16352201 L16.754717,0.698113208 Z M16.2893082,13.0314465 L16.2893082,1.16352201 L17.2201258,1.16352201 L17.2201258,13.0314465 L16.754717,13.4968553 L16.2893082,13.0314465 Z M17.2201258,13.0314465 L17.2201258,13.4968553 L16.754717,13.4968553 L17.2201258,13.0314465 Z M4.88679245,12.5660377 L16.754717,12.5660377 L16.754717,13.4968553 L4.88679245,13.4968553 L4.42138365,13.0314465 L4.88679245,12.5660377 Z M4.88679245,13.4968553 L4.42138365,13.4968553 L4.42138365,13.0314465 L4.88679245,13.4968553 Z M5.35220126,1.16352201 L5.35220126,13.0314465 L4.42138365,13.0314465 L4.42138365,1.16352201 L4.88679245,0.698113208 L5.35220126,1.16352201 Z M4.42138365,1.16352201 L4.42138365,0.698113208 L4.88679245,0.698113208 L4.42138365,1.16352201 Z" id="Shape" fill="#616063" fill-rule="nonzero"></path>
                <path d="M16.9874214,1.39622642 L13.0314465,5.35220126 L12.3333333,4.65408805 L16.5220126,0.698113208 L17.2201258,1.16352201 L16.9874214,1.39622642 Z M16.5220126,0.698113208 L17.2201258,0 L17.2201258,1.16352201 L16.5220126,0.698113208 Z M16.2893082,13.0314465 L16.2893082,1.16352201 L17.2201258,1.16352201 L17.2201258,13.0314465 L16.9874214,13.2641509 L16.2893082,13.0314465 Z M17.2201258,13.0314465 L16.9874214,13.2641509 L17.2201258,13.0314465 Z M12.3333333,16.5220126 L16.5220126,12.5660377 L16.9874214,13.2641509 L13.0314465,17.2201258 L12.3333333,16.754717 L12.3333333,16.5220126 Z M13.0314465,17.2201258 L12.3333333,17.918239 L12.3333333,16.754717 L13.0314465,17.2201258 Z M13.2641509,5.11949686 L13.2641509,16.754717 L12.3333333,16.754717 L12.3333333,5.11949686 L12.3333333,4.65408805 L13.2641509,5.11949686 Z M12.3333333,5.11949686 L12.3333333,4.88679245 L12.3333333,4.65408805 L12.3333333,5.11949686 Z" id="Shape" fill="#616063" fill-rule="nonzero"></path>
                <path d="M1.16352201,5.35220126 L0.465408805,5.11949686 L0.465408805,4.88679245 L4.42138365,0.93081761 L5.11949686,1.39622642 L1.16352201,5.35220126 Z M0.465408805,5.11949686 L0.465408805,4.88679245 L0.465408805,5.11949686 Z M1.16352201,16.9874214 L1.16352201,17.2201258 L0.465408805,16.9874214 L0.465408805,5.11949686 L1.16352201,5.11949686 L1.16352201,16.9874214 Z M1.16352201,17.2201258 L0.465408805,17.918239 L0.465408805,16.9874214 L1.16352201,17.2201258 Z M4.42138365,12.5660377 L5.35220126,13.0314465 L5.11949686,13.2641509 L1.16352201,17.2201258 L0.465408805,16.5220126 L4.42138365,12.5660377 Z M5.35220126,13.0314465 L5.11949686,13.2641509 L5.35220126,13.0314465 Z M4.42138365,1.16352201 L4.42138365,0.93081761 L5.35220126,1.16352201 L5.35220126,13.0314465 L4.42138365,13.0314465 L4.42138365,1.16352201 Z M4.42138365,0.93081761 L5.35220126,0 L5.35220126,1.16352201 L4.42138365,0.93081761 Z" id="Shape" fill="#616063" fill-rule="nonzero"></path>
                <g transform="translate(3.955975, 0.465409)">
                    <path d="M0.93081761,0 C1.39622642,0 1.62893082,0.232704403 1.62893082,0.698113208 C1.62893082,1.16352201 1.39622642,1.62893082 0.93081761,1.62893082 C0.465408805,1.62893082 0,1.16352201 0,0.698113208 C0,0.232704403 0.465408805,0 0.93081761,0 Z" id="Shape" stroke="#616063" stroke-width="0.88427673"></path>
                    <path d="M0.93081761,0 C1.39622642,0 1.62893082,0.232704403 1.62893082,0.698113208 C1.62893082,1.16352201 1.39622642,1.62893082 0.93081761,1.62893082 C0.465408805,1.62893082 0,1.16352201 0,0.698113208 C0,0.232704403 0.465408805,0 0.93081761,0 Z" id="1" fill="#616063"></path>
                </g>
                <g transform="translate(15.591195, 0.465409)">
                    <path d="M0.93081761,0 C1.39622642,0 1.86163522,0.232704403 1.86163522,0.698113208 C1.86163522,1.16352201 1.39622642,1.62893082 0.93081761,1.62893082 C0.465408805,1.62893082 0,1.16352201 0,0.698113208 C0,0.232704403 0.465408805,0 0.93081761,0 Z" id="Shape" stroke="#616063" stroke-width="0.88427673"></path>
                    <path d="M0.93081761,0 C1.39622642,0 1.86163522,0.232704403 1.86163522,0.698113208 C1.86163522,1.16352201 1.39622642,1.62893082 0.93081761,1.62893082 C0.465408805,1.62893082 0,1.16352201 0,0.698113208 C0,0.232704403 0.465408805,0 0.93081761,0 Z" id="1" fill="#616063"></path>
                </g>
                <g transform="translate(15.823899, 12.100629)">
                    <path d="M0.698113208,0 C1.16352201,0 1.62893082,0.232704403 1.62893082,0.93081761 C1.62893082,1.39622642 1.16352201,1.62893082 0.698113208,1.62893082 C0.232704403,1.62893082 0,1.39622642 0,0.93081761 C0,0.232704403 0.232704403,0 0.698113208,0 Z" id="Shape" stroke="#616063" stroke-width="0.88427673"></path>
                    <path d="M0.698113208,0 C1.16352201,0 1.62893082,0.232704403 1.62893082,0.93081761 C1.62893082,1.39622642 1.16352201,1.62893082 0.698113208,1.62893082 C0.232704403,1.62893082 0,1.39622642 0,0.93081761 C0,0.232704403 0.232704403,0 0.698113208,0 Z" id="1" fill="#616063"></path>
                </g>
                <path d="M12.7987421,5.58490566 L0.698113208,5.58490566 L0.698113208,4.65408805 L12.7987421,4.65408805 L13.2641509,5.11949686 L12.7987421,5.58490566 Z M12.7987421,4.65408805 L13.2641509,4.65408805 L13.2641509,5.11949686 L12.7987421,4.65408805 Z M12.3333333,16.9874214 L12.3333333,5.11949686 L13.2641509,5.11949686 L13.2641509,16.9874214 L12.7987421,17.2201258 L12.3333333,16.9874214 Z M13.2641509,16.9874214 L13.2641509,17.2201258 L12.7987421,17.2201258 L13.2641509,16.9874214 Z M0.698113208,16.5220126 L12.7987421,16.5220126 L12.7987421,17.2201258 L0.698113208,17.2201258 L0.465408805,16.9874214 L0.698113208,16.5220126 Z M0.698113208,17.2201258 L0.465408805,17.2201258 L0.465408805,16.9874214 L0.698113208,17.2201258 Z M1.16352201,5.11949686 L1.16352201,16.9874214 L0.465408805,16.9874214 L0.465408805,5.11949686 L0.698113208,4.65408805 L1.16352201,5.11949686 Z M0.465408805,5.11949686 L0.465408805,4.65408805 L0.698113208,4.65408805 L0.465408805,5.11949686 Z" id="Shape" fill="#616063" fill-rule="nonzero"></path>
                <g transform="translate(3.955975, 12.100629)">
                    <path d="M0.93081761,0 C1.39622642,0 1.86163522,0.232704403 1.86163522,0.93081761 C1.86163522,1.39622642 1.39622642,1.62893082 0.93081761,1.62893082 C0.465408805,1.62893082 0,1.39622642 0,0.93081761 C0,0.232704403 0.465408805,0 0.93081761,0 Z" id="Shape" stroke="#616063" stroke-width="0.88427673"></path>
                    <path d="M0.93081761,0 C1.39622642,0 1.86163522,0.232704403 1.86163522,0.93081761 C1.86163522,1.39622642 1.39622642,1.62893082 0.93081761,1.62893082 C0.465408805,1.62893082 0,1.39622642 0,0.93081761 C0,0.232704403 0.465408805,0 0.93081761,0 Z" id="1" fill="#616063"></path>
                </g>
                <g transform="translate(0.232704, 16.056604)">
                    <path d="M0.93081761,0 C1.39622642,0 1.86163522,0.232704403 1.86163522,0.698113208 C1.86163522,1.16352201 1.39622642,1.62893082 0.93081761,1.62893082 C0.465408805,1.62893082 0,1.16352201 0,0.698113208 C0,0.232704403 0.465408805,0 0.93081761,0 Z" id="Shape" stroke="#616063" stroke-width="0.88427673"></path>
                    <path d="M0.93081761,0 C1.39622642,0 1.86163522,0.232704403 1.86163522,0.698113208 C1.86163522,1.16352201 1.39622642,1.62893082 0.93081761,1.62893082 C0.465408805,1.62893082 0,1.16352201 0,0.698113208 C0,0.232704403 0.465408805,0 0.93081761,0 Z" id="1" fill="#616063"></path>
                </g>
                <g transform="translate(0.000000, 4.188679)">
                    <path d="M0.93081761,0 C1.39622642,0 1.86163522,0.465408805 1.86163522,0.93081761 C1.86163522,1.39622642 1.39622642,1.86163522 0.93081761,1.86163522 C0.465408805,1.86163522 0,1.39622642 0,0.93081761 C0,0.465408805 0.465408805,0 0.93081761,0 Z" id="Shape" stroke="#616063" stroke-width="0.88427673"></path>
                    <path d="M0.93081761,0 C1.39622642,0 1.86163522,0.465408805 1.86163522,0.93081761 C1.86163522,1.39622642 1.39622642,1.86163522 0.93081761,1.86163522 C0.465408805,1.86163522 0,1.39622642 0,0.93081761 C0,0.465408805 0.465408805,0 0.93081761,0 Z" id="1" fill="#616063"></path>
                </g>
                <g transform="translate(11.867925, 16.056604)">
                    <path d="M0.93081761,0 C1.39622642,0 1.86163522,0.232704403 1.86163522,0.698113208 C1.86163522,1.16352201 1.39622642,1.62893082 0.93081761,1.62893082 C0.465408805,1.62893082 0,1.16352201 0,0.698113208 C0,0.232704403 0.465408805,0 0.93081761,0 Z" id="Shape" stroke="#616063" stroke-width="0.88427673"></path>
                    <path d="M0.93081761,0 C1.39622642,0 1.86163522,0.232704403 1.86163522,0.698113208 C1.86163522,1.16352201 1.39622642,1.62893082 0.93081761,1.62893082 C0.465408805,1.62893082 0,1.16352201 0,0.698113208 C0,0.232704403 0.465408805,0 0.93081761,0 Z" id="1" fill="#616063"></path>
                </g>
                <g transform="translate(11.867925, 4.188679)">
                    <path d="M0.698113208,0 C1.39622642,0 1.62893082,0.465408805 1.62893082,0.93081761 C1.62893082,1.39622642 1.39622642,1.86163522 0.698113208,1.86163522 C0.232704403,1.86163522 0,1.39622642 0,0.93081761 C0,0.465408805 0.232704403,0 0.698113208,0 Z" id="Shape" stroke="#616063" stroke-width="0.88427673"></path>
                    <path d="M0.698113208,0 C1.39622642,0 1.62893082,0.465408805 1.62893082,0.93081761 C1.62893082,1.39622642 1.39622642,1.86163522 0.698113208,1.86163522 C0.232704403,1.86163522 0,1.39622642 0,0.93081761 C0,0.465408805 0.232704403,0 0.698113208,0 Z" id="1" fill="#616063"></path>
                </g>
            </g>
        </g>
    </g>
</svg>