<?xml version="1.0" encoding="UTF-8"?>
<svg width="11px" height="10px" viewBox="0 0 11 10" version="1.1" xmlns="http://www.w3.org/2000/svg" xmlns:xlink="http://www.w3.org/1999/xlink">
    <!-- Generator: Sketch 48.1 (47250) - http://www.bohemiancoding.com/sketch -->
    <title>icon</title>
    <desc>Created with Sketch.</desc>
    <defs></defs>
    <g id="Desktop-HD-Copy-16" stroke="none" stroke-width="1" fill="none" fill-rule="evenodd" transform="translate(-325.000000, -94.000000)">
        <g id="Group-4" transform="translate(-16.000000, 0.000000)" fill="#5A5A5A" fill-rule="nonzero">
            <g id="Group-3">
                <g id="Group-2">
                    <g id="Fill" transform="translate(341.000000, 94.000000)">
                        <g id="icon">
                            <path d="M7.85743843,3.20341796 L5.21517122,0.413106289 L4.83308586,0 L3.9307766,0.927030184 C2.3883274,0.696502121 1.27969204,1.28972767 0.887025854,2.01942583 C0.410300892,2.90526833 0.897606679,3.87225672 0.912890093,3.90176431 C1.32025187,4.75318129 1.9057242,5.26403147 2.65343585,5.42202004 C2.81743865,5.45583082 2.98261709,5.47119936 3.1472077,5.47119936 C3.92431054,5.47119936 4.70141337,5.12632938 5.29217612,4.77346776 C5.45147632,4.88903916 5.64545812,4.95727547 5.85295986,4.95727547 C6.39963583,4.95727547 6.84403049,4.49068667 6.84403049,3.91774759 C6.84403049,3.34480851 6.39963583,2.87883445 5.85295986,2.87883445 C5.30628388,2.87883445 4.86188922,3.34480851 4.86188922,3.91774759 C4.86188922,3.97491855 4.86953093,4.03086002 4.87776046,4.08618676 C4.28288295,4.43966312 3.49813841,4.77223827 2.8039187,4.6259298 C2.29545126,4.51835003 1.90278508,4.16302945 1.59829244,3.52677199 C1.59535332,3.52062458 1.29497545,2.91018627 1.56008391,2.41839307 C1.78345689,2.00282781 2.3659901,1.73541526 3.25477942,1.63459765 L3.11664087,1.78029139 L1.83988795,3.12042786 C1.8534079,3.15300916 1.8634009,3.17268089 1.86398872,3.17391037 C1.98684386,3.43087232 2.12498241,3.63988443 2.2789922,3.80709412 L4.59031471,1.38316838 C4.70023772,1.26821172 4.84601798,1.20489334 5.0006156,1.20489334 C5.15521321,1.20489334 5.30216912,1.26821172 5.41091649,1.38316838 L8.21542302,4.32593594 C8.44173511,4.56261142 8.44173511,4.94928383 8.21542302,5.1859593 L4.56974088,9.01026618 C4.35107049,9.23956476 3.96839731,9.23956476 3.7491391,9.01026618 L0.944044746,6.06749862 C0.834121727,5.9531567 0.774163717,5.80070081 0.774163717,5.63779431 C0.774163717,5.47550255 0.834121727,5.32181718 0.944044746,5.20747526 L1.24677391,4.88903916 C1.07454159,4.70338723 0.921707448,4.4808508 0.784744543,4.22634782 L0.396780948,4.63392144 C0.141077671,4.90194873 0,5.2584988 0,5.63779431 C0,6.01708981 0.141077671,6.37363988 0.396780948,6.64166718 L3.2018753,9.58443475 C3.45757858,9.85246204 3.79675281,10 4.15885216,10 C4.51977587,10 4.86012575,9.85246204 5.11582903,9.58443475 L8.76092334,5.76012787 L9.52568188,4.96526711 L9.31347755,4.74088646 C9.71496109,4.51158788 9.89365947,6.42773714 9.89365947,6.42773714 C9.89365947,6.42773714 10.4544432,11.0007992 10.9529176,6.42773714 C11.4290548,2.05139239 8.14370853,3.10382984 7.85743843,3.20341796 Z" id="Shape"></path>
                        </g>
                    </g>
                </g>
            </g>
        </g>
    </g>
</svg>