<?xml version="1.0" encoding="UTF-8"?>
<svg width="37px" height="37px" viewBox="0 0 37 37" version="1.1" xmlns="http://www.w3.org/2000/svg" xmlns:xlink="http://www.w3.org/1999/xlink">
    <!-- Generator: Sketch 48 (47235) - http://www.bohemiancoding.com/sketch -->
    <title>Easy payment alt</title>
    <desc>Created with Sketch.</desc>
    <defs>
        <linearGradient x1="105.333166%" y1="-31.6203535%" x2="-2.98201005%" y2="127.824242%" id="linearGradient-1">
            <stop stop-color="#FBFBFB" offset="0%"></stop>
            <stop stop-color="#FBFBFB" offset="14.1176%"></stop>
            <stop stop-color="#FBFBFB" offset="30.9804%"></stop>
            <stop stop-color="#8E9393" offset="100%"></stop>
            <stop stop-color="#727271" offset="100%"></stop>
        </linearGradient>
        <linearGradient x1="105.653107%" y1="-29.5255821%" x2="-3.30039548%" y2="125.805134%" id="linearGradient-2">
            <stop stop-color="#8E9393" offset="0%"></stop>
            <stop stop-color="#FBFBFB" offset="67.8431%"></stop>
            <stop stop-color="#FBFBFB" offset="85.098%"></stop>
            <stop stop-color="#FBFBFB" offset="100%"></stop>
        </linearGradient>
    </defs>
    <g id="Page-1" stroke="none" stroke-width="1" fill="none" fill-rule="evenodd">
        <g id="Easy-payment-alt" fill-rule="nonzero">
            <g id="bg">
                <path d="M36.5600014,18.2800007 C36.5600014,28.4355566 28.2926644,36.5600014 18.1881414,36.5600014 C8.26733699,36.5600014 0,28.4355566 0,18.2800007 C0,8.12444475 8.26733699,0 18.1881414,0 C28.2926644,0 36.5600014,8.12444475 36.5600014,18.2800007 Z" id="Shape" fill="url(#linearGradient-1)"></path>
                <path d="M18.1881414,34.7135367 C9.18592999,34.7135367 2.0209046,27.3276778 2.0209046,18.2800007 C2.0209046,9.23232358 9.18592999,1.84646472 18.1881414,1.84646472 C27.1903528,1.84646472 34.5390968,9.23232358 34.5390968,18.2800007 C34.5390968,27.3276778 27.1903528,34.7135367 18.1881414,34.7135367 Z" id="Shape" fill="url(#linearGradient-2)"></path>
            </g>
            <g id="Easy-payment" transform="translate(19.000000, 18.500000) scale(1, -1) rotate(-270.000000) translate(-19.000000, -18.500000) translate(10.000000, 7.000000)" fill="#616063">
                <path d="M17.2409618,9.83939945 C16.971535,9.66896042 14.5925541,7.56380801 13.2454204,6.58263194 C13.2396879,6.57802548 13.2396879,6.57802548 13.2396879,6.57341902 L13.2396879,2.04066197 C13.2396879,0.916685623 12.0989236,0 10.7001975,0 L2.38236306,0 C1.08108917,0 0.0205796178,0.856801638 0.0205796178,1.89786169 L0.0205796178,12.5295723 C0.0205796178,13.6535487 1.16134395,14.5702343 2.56007006,14.5702343 L4.97917834,14.5702343 L5.59255414,14.5702343 C5.69573885,14.5702343 5.78172611,14.4965309 5.77026115,14.4136146 L5.63841401,13.5107484 C5.62694904,13.437045 5.55242675,13.386374 5.46070701,13.386374 L5.23714013,13.386374 L5.09956051,13.386374 C5.00210828,13.386374 4.9218535,13.3218835 4.9218535,13.2435737 L4.9218535,1.16543449 C4.9218535,1.08712466 5.00210828,1.02263421 5.09956051,1.02263421 L10.7173949,1.02263421 C11.2849108,1.02263421 11.749242,1.39575751 11.749242,1.85179709 L11.749242,11.7188353 L11.749242,12.6907985 C11.749242,13.0040378 11.4798153,13.2712125 11.1186688,13.3541288 C11.1129363,13.3541288 11.1129363,13.3541288 11.1072038,13.3541288 C10.493828,13.086954 9.77153503,11.9445519 9.66261783,11.7648999 C9.65115287,11.7510805 9.64542038,11.7326547 9.64542038,11.7188353 C9.60529299,11.4286283 9.19828662,8.61868744 7.3352293,8.61868744 C7.28363694,8.61868744 7.23204459,8.61868744 7.18045223,8.6232939 C7.18045223,8.6232939 5.69000637,8.72463603 6.92249045,12.1380232 C6.92249045,12.1472361 6.92822293,12.1518426 6.92822293,12.1610555 L7.47280892,15.9429595 C7.47280892,15.947566 7.47280892,15.9521724 7.4785414,15.9613854 C7.52440127,16.1041856 8.14350955,18.0342925 9.74287261,19.4024113 C9.77153503,19.43005 9.78873248,19.4622953 9.78873248,19.499147 L9.78873248,19.8262056 C9.78873248,19.8354186 9.783,19.840025 9.77153503,19.840025 L9.62822293,19.840025 C9.2785414,19.840025 8.9919172,20.070348 8.9919172,20.3513421 L8.9919172,21.6826092 C8.9919172,21.9636033 9.2785414,22.1939263 9.62822293,22.1939263 L16.3753567,22.1939263 C16.7250382,22.1939263 17.0116624,21.9636033 17.0116624,21.6826092 L17.0116624,20.3605551 C17.0116624,20.079561 16.7250382,19.8492379 16.3753567,19.8492379 C16.3638917,19.8492379 16.3581592,19.8446315 16.3581592,19.8354186 C16.5817261,18.1678799 17.3842739,12.4650819 17.8142102,12.0182552 C17.8256752,12.0044359 17.8371401,11.9906165 17.8428726,11.9721906 C17.9173949,11.7648999 18.2900064,10.4981233 17.2409618,9.83939945 Z M2.67471975,13.2527866 C2.67471975,13.32649 2.60019745,13.3817675 2.51421019,13.3817675 C1.95242675,13.3817675 1.49382803,13.0132507 1.49382803,12.5618176 L1.49382803,1.84258417 C1.49382803,1.39115105 1.95242675,1.02263421 2.51421019,1.02263421 C2.60592994,1.02263421 2.67471975,1.0825182 2.67471975,1.1516151 L2.67471975,13.2527866 Z" id="Shape"></path>
            </g>
        </g>
    </g>
</svg>