<?xml version="1.0" encoding="UTF-8"?>
<svg width="37px" height="37px" viewBox="0 0 37 37" version="1.1" xmlns="http://www.w3.org/2000/svg" xmlns:xlink="http://www.w3.org/1999/xlink">
    <!-- Generator: Sketch 48 (47235) - http://www.bohemiancoding.com/sketch -->
    <title>Furniture alt</title>
    <desc>Created with Sketch.</desc>
    <defs>
        <linearGradient x1="105.333166%" y1="-31.6203535%" x2="-2.98201005%" y2="127.824242%" id="linearGradient-1">
            <stop stop-color="#FBFBFB" offset="0%"></stop>
            <stop stop-color="#FBFBFB" offset="14.1176%"></stop>
            <stop stop-color="#FBFBFB" offset="30.9804%"></stop>
            <stop stop-color="#8E9393" offset="100%"></stop>
            <stop stop-color="#727271" offset="100%"></stop>
        </linearGradient>
        <linearGradient x1="105.653107%" y1="-29.5255821%" x2="-3.30039548%" y2="125.805134%" id="linearGradient-2">
            <stop stop-color="#8E9393" offset="0%"></stop>
            <stop stop-color="#FBFBFB" offset="67.8431%"></stop>
            <stop stop-color="#FBFBFB" offset="85.098%"></stop>
            <stop stop-color="#FBFBFB" offset="100%"></stop>
        </linearGradient>
    </defs>
    <g id="Page-1" stroke="none" stroke-width="1" fill="none" fill-rule="evenodd">
        <g id="Furniture-alt" fill-rule="nonzero">
            <g id="bg">
                <path d="M36.5600014,18.2800007 C36.5600014,28.4355566 28.2926644,36.5600014 18.1881414,36.5600014 C8.26733699,36.5600014 0,28.4355566 0,18.2800007 C0,8.12444475 8.26733699,0 18.1881414,0 C28.2926644,0 36.5600014,8.12444475 36.5600014,18.2800007 Z" id="Shape" fill="url(#linearGradient-1)"></path>
                <path d="M18.1881414,34.7135367 C9.18592999,34.7135367 2.0209046,27.3276778 2.0209046,18.2800007 C2.0209046,9.23232358 9.18592999,1.84646472 18.1881414,1.84646472 C27.1903528,1.84646472 34.5390968,9.23232358 34.5390968,18.2800007 C34.5390968,27.3276778 27.1903528,34.7135367 18.1881414,34.7135367 Z" id="Shape" fill="url(#linearGradient-2)"></path>
            </g>
            <g id="furniture-(1)" transform="translate(9.000000, 9.000000)" fill="#616063" stroke="#616063" stroke-width="0.4">
                <path d="M11.6923472,12.6404511 L10.7443222,12.6404511 L10.7443222,9.7963763 C10.7432952,8.92419335 10.0364636,8.21736175 9.16428067,8.21633472 L2.84411435,8.21633472 C1.97193139,8.21736175 1.26509979,8.92419335 1.26407277,9.7963763 L1.26407277,12.6404511 L0.316047817,12.6404511 C0.141532225,12.6404511 3.95010395e-05,12.7819439 3.95010395e-05,12.9564595 L3.95010395e-05,17.3805759 C3.95010395e-05,17.5550915 0.141532225,17.6965842 0.316047817,17.6965842 L0.632056133,17.6965842 L0.632056133,18.6446091 C0.632056133,18.8191247 0.773548857,18.9606175 0.948064449,18.9606175 L2.21209771,18.9606175 C2.38661331,18.9606175 2.52810603,18.8191247 2.52810603,18.6446091 L2.52810603,17.6965842 L9.48028898,17.6965842 L9.48028898,18.6446091 C9.48028898,18.8191247 9.6217817,18.9606175 9.7962973,18.9606175 L11.0603306,18.9606175 C11.2348462,18.9606175 11.3763389,18.8191247 11.3763389,18.6446091 L11.3763389,17.6965842 L11.6923472,17.6965842 C11.8668628,17.6965842 12.0083555,17.5550915 12.0083555,17.3805759 L12.0083555,12.9564595 C12.0083555,12.7819439 11.8669023,12.6404511 11.6923472,12.6404511 Z M1.8960894,18.3286008 L1.26407277,18.3286008 L1.26407277,17.6965842 L1.8960894,17.6965842 L1.8960894,18.3286008 Z M2.52810603,17.0645676 L0.632056133,17.0645676 L0.632056133,13.2724678 L2.52810603,13.2724678 L2.52810603,17.0645676 Z M8.84827235,17.0645676 L3.16012266,17.0645676 L3.16012266,15.1685177 L8.84827235,15.1685177 L8.84827235,17.0645676 Z M9.16428067,12.6404511 C8.98976507,12.6404511 8.84827235,12.7819439 8.84827235,12.9564595 L8.84827235,14.536501 L3.16012266,14.536501 L3.16012266,12.9564595 C3.16012266,12.7819439 3.01862994,12.6404511 2.84411435,12.6404511 L1.8960894,12.6404511 L1.8960894,9.7963763 C1.8960894,9.27279002 2.32052807,8.84835135 2.84411435,8.84835135 L9.16428067,8.84835135 C9.68786694,8.84835135 10.1123056,9.27279002 10.1123056,9.7963763 L10.1123056,12.6404511 L9.16428067,12.6404511 Z M10.7443222,18.3286008 L10.1123056,18.3286008 L10.1123056,17.6965842 L10.7443222,17.6965842 L10.7443222,18.3286008 Z M11.3763389,17.0645676 L9.48028898,17.0645676 L9.48028898,13.2724678 L11.3763389,13.2724678 L11.3763389,17.0645676 Z" id="Shape"></path>
                <path d="M18.9460021,5.27745738 L17.3659605,0.221324324 C17.3245634,0.0896673597 17.2025052,0.000118503119 17.0644886,0.000118503119 L14.536422,0.000118503119 C14.3984054,0.000118503119 14.2763472,0.0896673597 14.2349501,0.221324324 L12.6549085,5.27745738 C12.6025301,5.44395426 12.6950811,5.62135343 12.861578,5.67373181 C12.8922703,5.68337006 12.9242266,5.68830769 12.9563805,5.68826819 L15.484447,5.68826819 L15.484447,17.0645676 L13.2723888,17.0645676 C13.0978732,17.0645676 12.9563805,17.2060603 12.9563805,17.3805759 L12.9563805,18.6446091 C12.9563805,18.8191247 13.0978732,18.9606175 13.2723888,18.9606175 L18.3285218,18.9606175 C18.5030374,18.9606175 18.6445301,18.8191247 18.6445301,18.6446091 L18.6445301,17.3805759 C18.6445301,17.2060603 18.5030374,17.0645676 18.3285218,17.0645676 L16.1164636,17.0645676 L16.1164636,5.68826819 L18.6445301,5.68826819 C18.8190457,5.68826819 18.9605385,5.54681497 18.9605385,5.37225988 C18.960578,5.34010603 18.9556798,5.30814969 18.9460021,5.27745738 Z M18.0125135,17.6965842 L18.0125135,18.3286008 L13.5883971,18.3286008 L13.5883971,17.6965842 L18.0125135,17.6965842 Z M13.3861518,5.05625156 L14.7686881,0.632135135 L16.8322225,0.632135135 L18.2147588,5.05625156 L13.3861518,5.05625156 Z" id="Shape"></path>
                <path d="M10.4283139,1.26415177 L7.69547401,1.26415177 L6.2017027,0.0693243243 C6.08624116,-0.0231081081 5.92215385,-0.0231081081 5.80669231,0.0693243243 L4.312921,1.26415177 L1.58008108,1.26415177 L1.58008108,6.95230146 L10.4283139,6.95230146 L10.4283139,1.26415177 Z M6.00419751,0.720617464 L6.68329938,1.26415177 L5.32446362,1.26415177 L6.00419751,0.720617464 Z M9.7962973,6.32028482 L2.21209771,6.32028482 L2.21209771,1.8961684 L9.7962973,1.8961684 L9.7962973,6.32028482 Z" id="Shape"></path>
                <path d="M9.48028898,2.21217672 L2.52810603,2.21217672 L2.52810603,6.00427651 L9.48028898,6.00427651 L9.48028898,2.21217672 Z M8.84827235,5.37225988 L3.16012266,5.37225988 L3.16012266,2.84419335 L8.84827235,2.84419335 L8.84827235,5.37225988 Z" id="Shape"></path>
            </g>
        </g>
    </g>
</svg>