<?xml version="1.0" encoding="UTF-8"?>
<svg width="37px" height="37px" viewBox="0 0 37 37" version="1.1" xmlns="http://www.w3.org/2000/svg" xmlns:xlink="http://www.w3.org/1999/xlink">
    <!-- Generator: Sketch 48 (47235) - http://www.bohemiancoding.com/sketch -->
    <title>installation alt</title>
    <desc>Created with Sketch.</desc>
    <defs>
        <linearGradient x1="105.333166%" y1="-31.6203535%" x2="-2.98201005%" y2="127.824242%" id="linearGradient-1">
            <stop stop-color="#FBFBFB" offset="0%"></stop>
            <stop stop-color="#FBFBFB" offset="14.1176%"></stop>
            <stop stop-color="#FBFBFB" offset="30.9804%"></stop>
            <stop stop-color="#8E9393" offset="100%"></stop>
            <stop stop-color="#727271" offset="100%"></stop>
        </linearGradient>
        <linearGradient x1="105.653107%" y1="-29.5255821%" x2="-3.30039548%" y2="125.805134%" id="linearGradient-2">
            <stop stop-color="#8E9393" offset="0%"></stop>
            <stop stop-color="#FBFBFB" offset="67.8431%"></stop>
            <stop stop-color="#FBFBFB" offset="85.098%"></stop>
            <stop stop-color="#FBFBFB" offset="100%"></stop>
        </linearGradient>
    </defs>
    <g id="Page-1" stroke="none" stroke-width="1" fill="none" fill-rule="evenodd">
        <g id="installation-alt" fill-rule="nonzero">
            <g id="bg">
                <path d="M36.5600014,18.2800007 C36.5600014,28.4355566 28.2926644,36.5600014 18.1881414,36.5600014 C8.26733699,36.5600014 0,28.4355566 0,18.2800007 C0,8.12444475 8.26733699,0 18.1881414,0 C28.2926644,0 36.5600014,8.12444475 36.5600014,18.2800007 Z" id="Shape" fill="url(#linearGradient-1)"></path>
                <path d="M18.1881414,34.7135367 C9.18592999,34.7135367 2.0209046,27.3276778 2.0209046,18.2800007 C2.0209046,9.23232358 9.18592999,1.84646472 18.1881414,1.84646472 C27.1903528,1.84646472 34.5390968,9.23232358 34.5390968,18.2800007 C34.5390968,27.3276778 27.1903528,34.7135367 18.1881414,34.7135367 Z" id="Shape" fill="url(#linearGradient-2)"></path>
            </g>
            <g id="tools" transform="translate(9.000000, 9.000000)" fill="#616063">
                <path d="M12.3776265,10.9219844 L12.8441245,10.4551362 C12.9062257,10.393035 12.9414008,10.3083658 12.9414008,10.2200389 C12.9414008,10.1320623 12.9058755,10.047393 12.843463,9.98494163 L12.0333074,9.17875486 L12.9361089,8.16871595 C13.1701946,8.29490272 13.4212062,8.3822179 13.6785603,8.41708171 C13.8757977,8.44365759 14.0291829,8.44863813 14.1520623,8.452607 C14.4270039,8.46155642 14.4927237,8.46357977 14.7497276,8.69797665 C14.6202335,8.81085603 14.5461868,8.96957198 14.5398833,9.1455642 C14.5338911,9.33217899 14.6063035,9.51513619 14.7391051,9.64758755 L15.9128405,10.8216732 C16.1007782,11.0096109 16.3511284,11.1135409 16.6170817,11.1135409 C16.8833852,11.1135409 17.1337354,11.0096109 17.321323,10.8216732 L19.669144,8.47385214 C19.857393,8.28560311 19.9610117,8.03521401 19.9610117,7.76961089 C19.9610117,7.50330739 19.8574319,7.2529572 19.669144,7.06501946 L18.4950584,5.89062257 C18.3692218,5.76509728 18.2025292,5.69603113 18.025214,5.69603113 L18.0172374,5.69603113 C17.8379377,5.69836576 17.6712451,5.7707393 17.5503891,5.88494163 C17.3123346,5.64552529 17.3103113,5.58077821 17.3013619,5.30719844 C17.2970428,5.18400778 17.291751,5.03093385 17.2651751,4.83470817 C17.1997665,4.35424125 16.9670039,3.89338521 16.6100778,3.53645914 L15.4001556,2.32618677 C14.6909339,1.61727626 14.3403113,1.28692607 13.4607393,0.88614786 C11.5359144,0.00957198444 9.57392996,0.166303502 6.68785992,1.42470817 C6.54342412,1.4877821 6.46338521,1.64284047 6.49560311,1.79692607 C6.52747082,1.95097276 6.6629572,2.06124514 6.82035019,2.06124514 L7.24470817,2.0592607 C8.73587549,2.04828794 9.48198444,2.04264591 10.8117899,3.37245136 C11.4403502,4.00132296 11.4094553,4.98015564 10.7407393,5.64957198 C10.7384047,5.65190661 10.7377432,5.65490272 10.7354086,5.65719844 C10.7330739,5.65984436 10.7297665,5.66050584 10.7277821,5.66319066 L9.68319066,6.83229572 L3.24731518,0.396420233 C2.71937743,-0.131867704 1.85972763,-0.131867704 1.33081712,0.396420233 L0.435953307,1.29190661 C-0.0923346304,1.82019455 -0.0923346304,2.67914397 0.435953307,3.20743191 L7.02984436,9.80167315 L0.448560311,17.1669261 C0.19155642,17.4235798 0.046459144,17.7619455 0.0391439689,18.1195331 C0.0321789883,18.4824514 0.167315175,18.8214397 0.42,19.073463 L0.889494163,19.5433074 C1.13552529,19.7896887 1.46357977,19.9241634 1.81587549,19.9241634 C1.8248249,19.9241634 1.83447471,19.9241634 1.84342412,19.9238132 C2.20101167,19.9168482 2.53968872,19.7714008 2.80898833,19.5011284 L9.38,12.1478599 L10.033463,12.7976654 C10.0982101,12.8620623 10.1828794,12.8942802 10.2675486,12.8942802 C10.3525681,12.8942802 10.4375486,12.861751 10.5022957,12.7970039 L10.9684825,12.3308171 L16.5228016,17.8921012 L17.998716,16.5503502 L12.3776265,10.9219844 Z M1.79863813,2.22891051 C1.66883268,2.09906615 1.66883268,1.88922179 1.79863813,1.75941634 C1.92848249,1.62961089 2.13863813,1.62961089 2.2681323,1.75941634 L7.91276265,7.40404669 C8.042607,7.53389105 8.042607,7.74373541 7.91276265,7.87354086 C7.84801556,7.93828794 7.76299611,7.97081712 7.67801556,7.97081712 C7.59299611,7.97081712 7.50801556,7.93828794 7.44326848,7.87354086 L1.79863813,2.22891051 Z M9.11805447,11.4442802 C9.11770428,11.4445914 9.11770428,11.4452918 9.117393,11.4456031 L2.32657588,19.0452529 C2.19175097,19.1800778 2.01544747,19.2561089 1.83019455,19.2600778 C1.65124514,19.2594163 1.48287938,19.1976654 1.35902724,19.073463 L0.889494163,18.6039689 C0.765642023,18.4804669 0.699571984,18.3131128 0.702879377,18.1328016 C0.706848249,17.9475097 0.783229572,17.7715564 0.930972763,17.6228016 L10.9890272,6.36743191 L12.38393,7.76233463 L12.3968872,7.77529183 L11.328716,8.97097276 C11.328716,8.97097276 11.3283658,8.97097276 11.3280545,8.97132296 L9.11805447,11.4442802 Z M10.2668872,12.0933852 L9.8229572,11.6521401 L10.9631518,10.3764591 L11.5900389,9.67486381 L12.1392218,10.2210506 L10.2668872,12.0933852 Z" id="Shape"></path>
                <path d="M19.9604669,19.5480934 L19.7433074,17.9217899 C19.7307004,17.8281712 19.6785603,17.7441634 19.6001946,17.6910117 L18.5290272,16.9658366 L16.946537,18.4045525 L17.7514008,19.5822957 C17.8051751,19.661323 17.8905058,19.7128016 17.9851362,19.7243969 L19.590856,19.9216342 C19.6044747,19.9233074 19.6180934,19.9242802 19.6313619,19.9242802 C19.7193385,19.9242802 19.804358,19.8890661 19.8674319,19.8256809 C19.939572,19.752607 19.9740856,19.65 19.9604669,19.5480934 Z" id="Shape"></path>
            </g>
        </g>
    </g>
</svg>