<?xml version="1.0" encoding="UTF-8"?>
<svg width="47px" height="47px" viewBox="0 0 47 47" version="1.1" xmlns="http://www.w3.org/2000/svg" xmlns:xlink="http://www.w3.org/1999/xlink">
    <!-- Generator: Sketch 48.1 (47250) - http://www.bohemiancoding.com/sketch -->
    <title>right-arrow</title>
    <desc>Created with Sketch.</desc>
    <defs></defs>
    <g id="DesignPartner-Copy" stroke="none" stroke-width="1" fill="none" fill-rule="evenodd" transform="translate(-1117.000000, -925.000000)">
        <g id="right-arrow" transform="translate(1140.500000, 948.500000) scale(-1, 1) translate(-1140.500000, -948.500000) translate(1117.000000, 925.000000)" fill="#8C013F" fill-rule="nonzero">
            <path d="M23.5,47 C36.4575856,47 47,36.4575856 47,23.5 C47,10.5424144 36.4575856,0 23.5,0 C10.5424144,0 0,10.5424144 0,23.5 C0,36.4575856 10.5424144,47 23.5,47 Z M23.5,2.3480832 C35.1637439,2.3480832 44.6519168,11.8362561 44.6519168,23.5 C44.6519168,35.1637439 35.1637439,44.6519168 23.5,44.6519168 C11.8362561,44.6519168 2.3480832,35.1637439 2.3480832,23.5 C2.3480832,11.8362561 11.8362561,2.3480832 23.5,2.3480832 Z" id="Shape"></path>
            <path d="M13.1906566,23.6321627 L30.9440236,23.6321627 L26.2975589,28.0683919 C25.8329125,28.5120148 25.8329125,29.2236599 26.2975589,29.6672828 C26.5298822,29.8890943 26.8299663,30 27.1397306,30 C27.4494949,30 27.7495791,29.8890943 27.9819024,29.6672828 L34.6515152,23.2994455 C35.1161616,22.8558226 35.1161616,22.1441774 34.6515152,21.7005545 L27.9819024,15.3327172 C27.5172559,14.8890943 26.7718855,14.8890943 26.3072391,15.3327172 C25.8425926,15.7763401 25.8425926,16.4879852 26.3072391,16.9316081 L30.9537037,21.3678373 L13.1906566,21.3678373 C12.5324074,21.3678373 12,21.8761553 12,22.5046211 C12,23.1330869 12.5324074,23.6321627 13.1906566,23.6321627 Z" id="Shape"></path>
        </g>
    </g>
</svg>