<svg id="Layer_1" data-name="Layer 1" xmlns="http://www.w3.org/2000/svg" viewBox="0 0 130 35.5"><defs><style>.cls-1{fill:#151616;}.cls-2{fill:#8c031f;}</style></defs><title>Arrivae Logo_Burgundy(134-46)2</title><g id="Page-1"><g id="Arrivae-Logo_Burgundy" data-name="Arrivae-Logo Burgundy"><path id="Fill-1" class="cls-1" d="M41.79,31.11L35,19.81l-6.19,0,0.11,11.27H26.93V5.41c2,0,4-.11,6-0.11q9.58,0,9.58,7.31A6.73,6.73,0,0,1,41,16.94a7.37,7.37,0,0,1-4,2.54l7.05,11.63H41.79Zm-12.91-24V18.28c0.87,0.11,2.76,0,3.58,0,2.17,0,4.41-.14,5.4-0.81a5.24,5.24,0,0,0,2.67-4.94c0-1.43-.94-3.74-2-4.36C36.48,7,31.19,6.85,28.88,7.09Z" transform="translate(-2.18 -5.28)"/><polygon id="Fill-2" class="cls-1" points="67.61 25.82 67.61 0.07 69.43 0.07 69.43 25.82 67.61 25.82"/><polygon id="Fill-3" class="cls-2" points="91.08 25.83 101.14 0.01 111.42 25.82 109.36 25.83 101.16 5.11 94.52 23.93 106.86 23.91 107.71 25.83 91.08 25.83"/><polygon id="Fill-4" class="cls-1" points="117.48 1.84 117.48 11.46 129.06 11.48 129.06 13.17 117.48 13.15 117.48 24.23 129.62 24.26 129.62 25.81 115.64 25.81 115.64 0.1 129.76 0.1 129.76 1.86 117.48 1.84"/><path id="Fill-5" class="cls-1" d="M2.2,31.11L12.26,5.29,22.53,31.1H20.47l-3.54-8.95H7.74L4.3,31.1H2.2Zm14-10.72-4-10-3.85,10h7.81Z" transform="translate(-2.18 -5.28)"/><path id="Fill-6" class="cls-1" d="M63.24,31.08L56.4,19.78l-6.19,0,0.11,11.27H48.38V5.39c2,0,4-.11,6-0.11Q64,5.28,64,12.59a6.73,6.73,0,0,1-1.54,4.32,7.37,7.37,0,0,1-4,2.54l7.05,11.63H63.24Zm-12.91-24V18.26c0.87,0.11,2.76,0,3.58,0,2.17,0,4.41-.14,5.4-0.81A5.24,5.24,0,0,0,62,12.52c0-1.43-.94-3.74-2-4.36C57.92,6.95,52.63,6.82,50.32,7.07Z" transform="translate(-2.18 -5.28)"/><polygon id="Fill-7" class="cls-2" points="130 35.5 0 35.5 0 33.68 130 33.68 130 35.5"/><polygon id="Fill-8" class="cls-1" points="73.68 0.01 83.74 25.83 94.01 0.02 91.95 0.01 83.76 20.73 75.73 0.02 73.68 0.01"/></g></g></svg>