<?xml version="1.0" encoding="UTF-8"?>
<svg width="491px" height="490px" viewBox="0 0 491 490" version="1.1" xmlns="http://www.w3.org/2000/svg" xmlns:xlink="http://www.w3.org/1999/xlink">
    <!-- Generator: Sketch 52.1 (67048) - http://www.bohemiancoding.com/sketch -->
    <title>MOM</title>
    <desc>Created with Sketch.</desc>
    <g id="Page-1" stroke="none" stroke-width="1" fill="none" fill-rule="evenodd">
        <g id="Timesheets-User-Form-Copy" transform="translate(-710.000000, -218.000000)" fill="#8F0021">
            <g id="MOM" transform="translate(710.000000, 218.000000)">
                <path d="M229.9,145.379 L182.4,192.879 C164.9,210.379 147.3,227.879 129.9,245.579 C125.8,249.779 122.7,255.379 121.5,260.879 C115.2,289.779 109.1,318.679 103,347.579 L99.6,363.579 C98,371.379 100.1,379.179 105.4,384.479 C109.5,388.579 115.2,390.879 121.2,390.879 C122.9,390.879 124.6,390.679 126.3,390.379 L143.9,386.679 C171.9,380.779 200,374.779 228,368.979 C234.5,367.579 240,364.679 244.7,359.979 C323.3,281.279 401.9,202.679 480.5,124.179 C486.3,118.379 489.5,111.479 490.3,102.979 C490.4,101.579 490.3,100.179 490,98.879 C489.5,96.879 489.1,94.779 488.6,92.779 C487.5,87.679 486.3,81.879 483.9,76.279 C469.2,42.679 444.8,18.679 411.4,5.179 C404.7,2.479 397.6,1.579 391.4,0.779 L389.7,0.579 C380.7,-0.521 372.5,2.479 365.4,9.679 C320.4,54.879 275.1,100.179 229.9,145.379 Z M386.4,24.679 C386.6,24.679 386.7,24.679 386.9,24.679 L388.6,24.879 C393.8,25.479 398.6,26.079 402.4,27.679 C429.6,38.679 449.6,58.279 461.7,85.879 C463.1,89.079 464,93.179 464.9,97.479 C465.2,99.079 465.6,100.679 465.9,102.279 C465.5,104.079 464.8,105.279 463.4,106.579 C384.7,185.079 306.1,263.779 227.5,342.379 C226.2,343.679 225,344.279 223.2,344.679 C195.1,350.579 167.1,356.479 139,362.379 L124.2,365.479 L127,352.379 C133.1,323.579 139.2,294.679 145.4,265.879 C145.6,264.979 146.4,263.579 147.3,262.579 C164.7,244.979 182.1,227.479 199.6,210.079 L247.1,162.579 C292.4,117.279 337.7,71.979 382.9,26.579 C384.8,24.979 385.7,24.679 386.4,24.679 Z" id="Shape" fill-rule="nonzero"></path>
                <path d="M38.9,109.379 L213.5,109.379 C220.3,109.379 225.8,103.879 225.8,97.079 C225.8,90.279 220.3,84.779 213.5,84.779 L38.9,84.779 C17.4,84.779 -7.10542736e-13,102.279 -7.10542736e-13,123.679 L-7.10542736e-13,451.079 C-7.10542736e-13,472.579 17.5,489.979 38.9,489.979 L366.2,489.979 C387.7,489.979 405.1,472.479 405.1,451.079 L405.1,283.579 C405.1,276.779 399.6,271.279 392.8,271.279 C386,271.279 380.5,276.779 380.5,283.579 L380.5,451.079 C380.5,458.979 374,465.479 366.1,465.479 L38.9,465.479 C31,465.479 24.5,458.979 24.5,451.079 L24.5,123.779 C24.5,115.879 31,109.379 38.9,109.379 Z" id="Path"></path>
            </g>
        </g>
    </g>
</svg>