<?xml version="1.0" encoding="UTF-8"?>
<svg width="71px" height="71px" viewBox="0 0 71 71" version="1.1" xmlns="http://www.w3.org/2000/svg" xmlns:xlink="http://www.w3.org/1999/xlink">
    <!-- Generator: Sketch 48.1 (47250) - http://www.bohemiancoding.com/sketch -->
    <title>Call</title>
    <desc>Created with Sketch.</desc>
    <defs></defs>
    <g id="Contact-us-Copy-3" stroke="none" stroke-width="1" fill="none" fill-rule="evenodd" transform="translate(-264.000000, -358.000000)">
        <g id="Group-2" transform="translate(230.000000, 359.000000)">
            <g id="Call" transform="translate(35.000000, 0.000000)">
                <circle id="Oval-5" stroke="#8C031F" fill="#8C031F" cx="34.5" cy="34.5" r="34.5"></circle>
                <g id="phone-receiver" transform="translate(18.000000, 18.000000)" fill="#FFFFFF" fill-rule="nonzero">
                    <path d="M33.983794,26.8325807 C34.0558396,27.3848985 33.887635,27.8651236 33.479886,28.2732561 L28.6927602,33.0273087 C28.4767996,33.2674212 28.1949099,33.4716935 27.8469735,33.6395957 C27.499037,33.8077334 27.1571583,33.915784 26.8213372,33.9637477 C26.7973416,33.9637477 26.7251783,33.9699271 26.6051414,33.9819327 C26.4853398,33.9938795 26.3293683,34 26.1374033,34 C25.681369,34 24.9434449,33.9219634 23.9236311,33.7658314 C22.9038174,33.6096994 21.656104,33.2254604 20.1804912,32.613291 C18.7045254,32.0010039 17.0308899,31.0824556 15.1592905,29.8579992 C13.2876911,28.6336016 11.295996,26.9526958 9.18438159,24.815635 C7.50468833,23.1588582 6.11294249,21.5741152 5.00914407,20.0614648 C3.90534564,18.5486967 3.01750777,17.1500409 2.34563047,15.8654386 C1.67369435,14.5808363 1.16978638,13.4162903 0.833847725,12.3718006 C0.497909073,11.3273109 0.269950702,10.4268887 0.149972612,9.67053411 C0.0299945225,8.91417949 -0.0179967135,8.31990085 0.00599890449,7.88769821 C0.0299945225,7.45549557 0.0419923315,7.21538299 0.0419923315,7.16736048 C0.0899835674,6.83120287 0.197963848,6.48904244 0.365933174,6.1408792 C0.5339025,5.79271596 0.737865253,5.51058368 0.977821433,5.29448236 L5.76494722,0.504236415 C6.10088587,0.168078805 6.48481576,0 6.91673688,0 C7.22867992,0 7.50462952,0.090042217 7.7445857,0.270126651 C7.98454188,0.450211085 8.18850463,0.67231522 8.35647396,0.936439057 L12.2077706,8.24786708 C12.4237312,8.63204721 12.4837203,9.05224422 12.3877378,9.50845812 C12.2917553,9.96467202 12.0877926,10.3488521 11.7758495,10.6609985 L10.0121716,12.4258259 C9.96418036,12.4738485 9.92218803,12.5518851 9.88619461,12.6599357 C9.85020118,12.7679864 9.83220447,12.8580286 9.83220447,12.9300624 C9.92818694,13.4342988 10.1441475,14.010569 10.4800862,14.6588729 C10.7680336,15.2351431 11.2119525,15.9374724 11.8118429,16.7658608 C12.4117334,17.5942492 13.2635778,18.5486379 14.3673763,19.6291445 C15.4471791,20.73378 16.4070038,21.5920648 17.2468504,22.2044696 C18.0865206,22.8165212 18.7886277,23.2669089 19.3525247,23.555044 C19.9164217,23.8431791 20.3483429,24.0172607 20.6482293,24.0771123 L21.0980295,24.1672133 C21.1460207,24.1672133 21.2241829,24.1491461 21.3320456,24.113188 C21.4400258,24.0771123 21.5180116,24.0351514 21.5660617,23.9870701 L23.6176282,21.8980906 C24.0497846,21.5139694 24.5534573,21.3218793 25.1294109,21.3218793 C25.5374541,21.3218793 25.8612185,21.3938542 26.1011746,21.5379806 L26.1371093,21.5379806 L33.0837818,25.6439057 C33.5878663,25.9562875 33.8877527,26.3523555 33.983794,26.8325807 Z" id="Shape"></path>
                </g>
            </g>
        </g>
    </g>
</svg>