<?xml version="1.0" encoding="UTF-8"?>
<svg width="13px" height="10px" viewBox="0 0 13 10" version="1.1" xmlns="http://www.w3.org/2000/svg" xmlns:xlink="http://www.w3.org/1999/xlink">
    <!-- Generator: Sketch 48.1 (47250) - http://www.bohemiancoding.com/sketch -->
    <title>icon</title>
    <desc>Created with Sketch.</desc>
    <defs></defs>
    <g id="Page-1" stroke="none" stroke-width="1" fill="none" fill-rule="evenodd">
        <g id="StripePPTImage" transform="translate(-38.000000, -11.000000)" fill="#5A5A5A" fill-rule="nonzero">
            <g id="icon" transform="translate(38.000000, 11.000000)">
                <path d="M8.6057659,3.20341796 L5.7118542,0.413106289 L5.29337976,0 L4.30513627,0.927030184 C2.61578715,0.696502121 1.40156747,1.28972767 0.971504506,2.01942583 C0.449377167,2.90526833 0.983093029,3.87225672 0.999832007,3.90176431 C1.44599014,4.75318129 2.08722174,5.26403147 2.90614403,5.42202004 C3.08576614,5.45583082 3.26667586,5.47119936 3.44694177,5.47119936 C4.2980544,5.47119936 5.14916703,5.12632938 5.79619289,4.77346776 C5.97066454,4.88903916 6.1831208,4.95727547 6.41038461,4.95727547 C7.00912496,4.95727547 7.49584292,4.49068667 7.49584292,3.91774759 C7.49584292,3.34480851 7.00912496,2.87883445 6.41038461,2.87883445 C5.81164425,2.87883445 5.32492629,3.34480851 5.32492629,3.91774759 C5.32492629,3.97491855 5.33329578,4.03086002 5.34230908,4.08618676 C4.69077656,4.43966312 3.83129445,4.77223827 3.07095858,4.6259298 C2.51406567,4.51835003 2.08400271,4.16302945 1.75051077,3.52677199 C1.74729174,3.52062458 1.41830645,2.91018627 1.70866333,2.41839307 C1.95330992,2.00282781 2.59132249,1.73541526 3.56475842,1.63459765 L3.41346381,1.78029139 L2.01511538,3.12042786 C2.02992293,3.15300916 2.04086765,3.17268089 2.04151146,3.17391037 C2.17606709,3.43087232 2.32736169,3.63988443 2.49603908,3.80709412 L5.02748754,1.38316838 C5.14787941,1.26821172 5.30754351,1.20489334 5.4768647,1.20489334 C5.6461859,1.20489334 5.80713761,1.26821172 5.92624187,1.38316838 L8.99784426,4.32593594 C9.24570989,4.56261142 9.24570989,4.94928383 8.99784426,5.1859593 L5.0049543,9.01026618 C4.76545816,9.23956476 4.34633991,9.23956476 4.10619996,9.01026618 L1.03395377,6.06749862 C0.913561892,5.9531567 0.847893595,5.80070081 0.847893595,5.63779431 C0.847893595,5.47550255 0.913561892,5.32181718 1.03395377,5.20747526 L1.36551429,4.88903916 C1.17687889,4.70338723 1.00948911,4.4808508 0.859482118,4.22634782 L0.43456961,4.63392144 C0.154513639,4.90194873 0,5.2584988 0,5.63779431 C0,6.01708981 0.154513639,6.37363988 0.43456961,6.64166718 L3.5068158,9.58443475 C3.78687177,9.85246204 4.15834831,10 4.55493332,10 C4.95023072,10 5.32299487,9.85246204 5.60305084,9.58443475 L9.59529699,5.76012787 L10.4328897,4.96526711 L10.2004754,4.74088646 C10.6401955,4.51158788 10.8359128,6.42773714 10.8359128,6.42773714 C10.8359128,6.42773714 11.4501045,11.0007992 11.9960527,6.42773714 C12.5175362,2.05139239 8.91929982,3.10382984 8.6057659,3.20341796 Z" id="Shape"></path>
            </g>
        </g>
    </g>
</svg>