<?xml version="1.0" encoding="UTF-8"?>
<svg width="37px" height="37px" viewBox="0 0 37 37" version="1.1" xmlns="http://www.w3.org/2000/svg" xmlns:xlink="http://www.w3.org/1999/xlink">
    <!-- Generator: Sketch 48 (47235) - http://www.bohemiancoding.com/sketch -->
    <title>Site alt</title>
    <desc>Created with Sketch.</desc>
    <defs>
        <linearGradient x1="105.333166%" y1="-31.6203535%" x2="-2.98201005%" y2="127.824242%" id="linearGradient-1">
            <stop stop-color="#FBFBFB" offset="0%"></stop>
            <stop stop-color="#FBFBFB" offset="14.1176%"></stop>
            <stop stop-color="#FBFBFB" offset="30.9804%"></stop>
            <stop stop-color="#8E9393" offset="100%"></stop>
            <stop stop-color="#727271" offset="100%"></stop>
        </linearGradient>
        <linearGradient x1="105.653107%" y1="-29.5255821%" x2="-3.30039548%" y2="125.805134%" id="linearGradient-2">
            <stop stop-color="#8E9393" offset="0%"></stop>
            <stop stop-color="#FBFBFB" offset="67.8431%"></stop>
            <stop stop-color="#FBFBFB" offset="85.098%"></stop>
            <stop stop-color="#FBFBFB" offset="100%"></stop>
        </linearGradient>
    </defs>
    <g id="Page-1" stroke="none" stroke-width="1" fill="none" fill-rule="evenodd">
        <g id="Site-alt" fill-rule="nonzero">
            <g id="bg">
                <path d="M36.5600014,18.2800007 C36.5600014,28.4355566 28.2926644,36.5600014 18.1881414,36.5600014 C8.26733699,36.5600014 0,28.4355566 0,18.2800007 C0,8.12444475 8.26733699,0 18.1881414,0 C28.2926644,0 36.5600014,8.12444475 36.5600014,18.2800007 Z" id="Shape" fill="url(#linearGradient-1)"></path>
                <path d="M18.1881414,34.7135367 C9.18592999,34.7135367 2.0209046,27.3276778 2.0209046,18.2800007 C2.0209046,9.23232358 9.18592999,1.84646472 18.1881414,1.84646472 C27.1903528,1.84646472 34.5390968,9.23232358 34.5390968,18.2800007 C34.5390968,27.3276778 27.1903528,34.7135367 18.1881414,34.7135367 Z" id="Shape" fill="url(#linearGradient-2)"></path>
            </g>
            <g id="Measurement" transform="translate(9.000000, 7.500000)" fill="#616063">
                <path d="M14.6511328,5.54417969 C14.5785156,5.47152344 14.4777344,5.42972656 14.375,5.42972656 C14.2722656,5.42972656 14.1714844,5.47152344 14.0988281,5.54417969 C14.0261719,5.61683594 13.984375,5.71722656 13.984375,5.82035156 C13.984375,5.92308594 14.0261328,6.02386719 14.0988281,6.09652344 C14.1715234,6.16917969 14.2722656,6.21097656 14.375,6.21097656 C14.4777344,6.21097656 14.5785156,6.16917969 14.6511328,6.09652344 C14.7237891,6.02386719 14.765625,5.92308594 14.765625,5.82035156 C14.765625,5.71761719 14.7238281,5.61683594 14.6511328,5.54417969 Z" id="Shape"></path>
                <path d="M5.859375,11.0156641 L2.734375,11.0156641 C2.51867187,11.0156641 2.34375,11.1905469 2.34375,11.4062891 L2.34375,14.5312891 C2.34375,14.7470312 2.51867187,14.9219141 2.734375,14.9219141 L5.859375,14.9219141 C6.07507812,14.9219141 6.25,14.7470312 6.25,14.5312891 L6.25,11.4062891 C6.25,11.1905469 6.07511719,11.0156641 5.859375,11.0156641 Z M5.46875,14.1406641 L3.125,14.1406641 L3.125,11.7969141 L5.46875,11.7969141 L5.46875,14.1406641 Z" id="Shape"></path>
                <path d="M19.7588672,8.19382813 C19.6128906,8.13332031 19.4448438,8.16683594 19.3331641,8.27847656 L15.3527734,12.2588672 C15.3527344,12.2589453 15.3526563,12.2589844 15.3525781,12.2590625 C15.3525,12.2591406 15.3524609,12.2591797 15.3524219,12.2592578 L10.7124219,16.8992578 C10.7123438,16.8993359 10.7123047,16.899375 10.7122266,16.8994531 C10.7121484,16.8995312 10.7121094,16.8995703 10.7120313,16.8996484 L8.27847656,19.3332031 C8.16679688,19.4449219 8.13335938,19.6129687 8.19378906,19.7589063 C8.25425781,19.9048828 8.39667969,20.0000391 8.5546875,20.0000391 L19.609375,20.0000391 C19.8250781,20.0000391 20,19.8251562 20,19.6094141 L20,8.55472656 C20,8.39675781 19.9048437,8.25429688 19.7588672,8.19382813 Z M19.21875,19.2187891 L9.49777344,19.2187891 L10.9884375,17.728125 L11.3613281,18.1010156 C11.4376172,18.1773047 11.5375781,18.2154297 11.6375391,18.2154297 C11.7375,18.2154297 11.8374609,18.1773047 11.91375,18.1010156 C12.0662891,17.9484766 12.0662891,17.7011328 11.91375,17.5485547 L11.5408594,17.1756641 L12.5352344,16.1812891 L12.9080859,16.5541406 C12.984375,16.6304297 13.0843359,16.6685547 13.1842969,16.6685547 C13.2842578,16.6685547 13.3842188,16.6303906 13.4605078,16.5541406 C13.6130469,16.4016016 13.6130469,16.1542578 13.4605078,16.0017187 L13.0876172,15.6288281 L14.0819922,14.6344531 L14.4548828,15.0073437 C14.5311719,15.0836328 14.6311328,15.1217578 14.7310938,15.1217578 C14.8310547,15.1217578 14.9310156,15.0836328 15.0073047,15.0073437 C15.1598438,14.8548047 15.1598438,14.6074609 15.0073047,14.4548828 L14.6344141,14.0819922 L15.62875,13.0876563 L16.0016406,13.4605469 C16.0779297,13.5368359 16.1778906,13.5749609 16.2778516,13.5749609 C16.3778125,13.5749609 16.4777734,13.5368359 16.5540625,13.4605469 C16.7066016,13.3080078 16.7066016,13.0606641 16.5540625,12.9080859 L16.1811719,12.5351953 L17.1755469,11.5408203 L17.5483984,11.9136719 C17.6246875,11.9899609 17.7246484,12.0280859 17.8246094,12.0280859 C17.9245703,12.0280859 18.0245313,11.9899219 18.1008203,11.9136719 C18.2533594,11.7611328 18.2533594,11.5137891 18.1008203,11.36125 L17.7279297,10.9883594 L19.21875,9.49777344 L19.21875,19.2187891 Z" id="Shape"></path>
                <path d="M17.8057422,12.9091016 C17.6597656,12.8485938 17.4917188,12.8820703 17.3800391,12.99375 L12.99375,17.3800781 C12.8820703,17.4917969 12.8485937,17.6598047 12.9090625,17.8057812 C12.9695312,17.9517578 13.1119531,18.0469141 13.2699609,18.0469141 L17.65625,18.0469141 C17.8719531,18.0469141 18.046875,17.8720312 18.046875,17.6562891 L18.046875,13.27 C18.046875,13.1120313 17.9517188,12.9695703 17.8057422,12.9091016 Z M17.265625,17.2656641 L14.2130469,17.2656641 L17.265625,14.2130469 L17.265625,17.2656641 Z" id="Shape"></path>
                <path d="M18.0882812,5.83050781 C17.9807422,5.72300781 17.8206641,5.68761719 17.6777344,5.73992188 L15.0105078,6.71667969 C14.9571875,6.73621094 14.9087891,6.76710938 14.8685937,6.80726563 L14.1186328,7.55722656 L9.22152344,2.66007813 C9.14824219,2.58683594 9.04890625,2.54566406 8.9453125,2.54566406 C8.84171875,2.54566406 8.74234375,2.58683594 8.66910156,2.66007813 L2.77445312,8.55472656 L1.33371094,8.55472656 L8.9453125,0.943085938 L13.1222266,5.12 C13.2748047,5.27253906 13.5220703,5.27253906 13.6746875,5.12 C13.8272266,4.96746094 13.8272266,4.72011719 13.6746875,4.56753906 L9.2215625,0.114414062 C9.06898437,-0.038125 8.82171875,-0.038125 8.66910156,0.114414062 L0.114414062,8.66910156 C0.002734375,8.78082031 -0.030703125,8.94882813 0.0297265625,9.09480469 C0.0901953125,9.24082031 0.232617187,9.33597656 0.390625,9.33597656 L0.78125,9.33597656 L0.78125,19.6094141 C0.78125,19.8251563 0.956171875,20.0000391 1.171875,20.0000391 L7.38226562,20.0000391 C7.59796875,20.0000391 7.77289062,19.8251563 7.77289062,19.6094141 C7.77289062,19.3936719 7.59796875,19.2187891 7.38226562,19.2187891 L1.5625,19.2187891 L1.5625,9.33597656 L2.93625,9.33597656 C3.03984375,9.33597656 3.13917969,9.29480469 3.21246094,9.2215625 L8.9453125,3.48871094 L13.5661719,8.10960938 L7.7734375,13.9023828 L7.7734375,10.3906641 L10.5078125,10.3906641 C10.7235156,10.3906641 10.8984375,10.2157813 10.8984375,10.0000391 C10.8984375,9.78429688 10.7235156,9.60941406 10.5078125,9.60941406 L7.3828125,9.60941406 C7.16710937,9.60941406 6.9921875,9.78429688 6.9921875,10.0000391 L6.9921875,14.5312891 C6.9921875,14.576875 7.00039062,14.6203906 7.01472656,14.6610547 L6.66476562,15.0110156 C6.04640625,15.629375 6.04640625,16.6355469 6.66476562,17.2539063 C6.97398437,17.563125 7.38003906,17.7177344 7.78621094,17.7176953 C8.19230469,17.7176953 8.59851562,17.5630859 8.90765625,17.2539453 L12.201875,13.9597266 C12.3544141,13.8071875 12.3544141,13.5598438 12.201875,13.4073047 C12.0493359,13.2547656 11.8020703,13.2547656 11.6494141,13.4073047 L9.15363281,15.9030859 L8.015625,14.7650781 L15.1526172,7.62808594 L16.290625,8.76609375 L13.5634766,11.4932813 C13.4109375,11.6458203 13.4109375,11.8931641 13.5634766,12.0457031 C13.7160547,12.1982422 13.9633203,12.1982422 14.1159375,12.0457031 L17.1114844,9.05015625 C17.1516016,9.01 17.1825391,8.9615625 17.2020312,8.90828125 L18.1788281,6.24105469 C18.2311328,6.09824219 18.1958203,5.93804688 18.0882812,5.83050781 Z M8.60125,16.4554688 L8.35523437,16.7014844 C8.20324219,16.8534766 8.00121094,16.9371875 7.78625,16.9371875 C7.57128906,16.9371875 7.36921875,16.8534766 7.21726562,16.7014844 C7.06523437,16.5494922 6.9815625,16.3474219 6.9815625,16.1325 C6.9815625,15.9175781 7.06519531,15.7154688 7.21722656,15.5634766 L7.46324219,15.3174609 L8.60125,16.4554688 Z M16.6830469,8.05355469 L15.8651562,7.23566406 L17.1557031,6.76304688 L16.6830469,8.05355469 Z" id="Shape"></path>
                <path d="M13.1519141,12.4570703 C13.0792969,12.3844141 12.9785156,12.3426172 12.8757812,12.3426172 C12.7730469,12.3426172 12.6722656,12.3844141 12.5996094,12.4570703 C12.5269531,12.5301172 12.4851562,12.6305078 12.4851562,12.7332422 C12.4851562,12.8363672 12.5269141,12.9367578 12.5996094,13.0098047 C12.6722656,13.0824609 12.7726563,13.1238672 12.8757812,13.1238672 C12.9785156,13.1238672 13.0792969,13.0824609 13.1519141,13.0098047 C13.2245703,12.9367578 13.2664062,12.8359766 13.2664062,12.7332422 C13.2664062,12.6305078 13.2246094,12.5301172 13.1519141,12.4570703 Z" id="Shape"></path>
                <path d="M8.9453125,5.89847656 C8.12683594,5.89847656 7.4609375,6.564375 7.4609375,7.38285156 C7.4609375,8.20132812 8.12683594,8.86722656 8.9453125,8.86722656 C9.76378906,8.86722656 10.4296875,8.20132812 10.4296875,7.38285156 C10.4296875,6.564375 9.76378906,5.89847656 8.9453125,5.89847656 Z M8.9453125,8.08597656 C8.55761719,8.08597656 8.2421875,7.77058594 8.2421875,7.38285156 C8.2421875,6.99515625 8.55761719,6.67972656 8.9453125,6.67972656 C9.33300781,6.67972656 9.6484375,6.99515625 9.6484375,7.38285156 C9.6484375,7.77054688 9.33300781,8.08597656 8.9453125,8.08597656 Z" id="Shape"></path>
            </g>
        </g>
    </g>
</svg>