<?xml version="1.0" encoding="UTF-8"?>
<svg width="65px" height="65px" viewBox="0 0 124 116" version="1.1" xmlns="http://www.w3.org/2000/svg" xmlns:xlink="http://www.w3.org/1999/xlink">
    <!-- Generator: Sketch 48 (47235) - http://www.bohemiancoding.com/sketch -->
    <title>Logo_burgundy</title>
    <desc>Created with Sketch.</desc>
    <defs></defs>
    <g id="Page-1" stroke="none" stroke-width="1" fill="none" fill-rule="evenodd">
        <g id="Logo_burgundy">
            <path d="M61.7578,0.8245 L110.8833,84.6252 L105.5854,84.6082 L61.7482,10.2852 L21.5075,79.9452 L95.8404,80.0492 L98.6093,84.632 C69.9729,84.6575 41.3364,84.6963 12.694,84.6124 L61.7578,0.8245 Z" id="Fill-1" fill="#8C031F"></path>
            <path d="M61.7578,0.8245 L110.8833,84.6252 L105.5854,84.6082 L61.7482,10.2852 L21.5075,79.9452 L95.8404,80.0492 L98.6093,84.632 C69.9729,84.6575 41.3364,84.6963 12.694,84.6124 L61.7578,0.8245 Z" id="Stroke-2" stroke="#8C031F" stroke-width="0.8504"></path>
            <path d="M0.5714,110.0851 C41.3432,110.0658 82.1213,110.0596 122.8932,110.0916 L122.8932,114.5789 C82.1213,114.6497 41.3432,114.6755 0.5714,114.5661 L0.5714,110.0851 Z" id="Fill-3" fill="#8C031F"></path>
            <path d="M0.5714,110.0851 C41.3432,110.0658 82.1213,110.0596 122.8932,110.0916 L122.8932,114.5789 C82.1213,114.6497 41.3432,114.6755 0.5714,114.5661 L0.5714,110.0851 Z" id="Stroke-4" stroke="#8C031F" stroke-width="0.8504"></path>
        </g>
    </g>
</svg>