<svg xmlns="http://www.w3.org/2000/svg" width="26" height="18" viewBox="0 0 26 18">
    <g fill="#8C051E" fill-rule="nonzero" stroke="#FFF" stroke-width=".4">
        <path d="M24.847 8.514C24.633 8.21 19.524 1.041 13 1.041c-6.525 0-11.634 7.168-11.848 7.473a.851.851 0 0 0 0 .972c.214.305 5.323 7.473 11.848 7.473 6.524 0 11.633-7.168 11.847-7.473a.85.85 0 0 0 0-.972zM13 15.312C8.194 15.312 4.03 10.555 2.8 9 4.03 7.443 8.183 2.687 13 2.687c4.806 0 8.968 4.757 10.2 6.314-1.23 1.556-5.384 6.311-10.2 6.311z"/>
        <path d="M13 4.06c-2.618 0-4.747 2.216-4.747 4.94s2.13 4.94 4.747 4.94 4.747-2.216 4.747-4.94S15.617 4.06 13 4.06zm0 8.233c-1.745 0-3.165-1.477-3.165-3.293S11.255 5.707 13 5.707 16.165 7.184 16.165 9s-1.42 3.293-3.165 3.293z"/>
    </g>
</svg>
