<svg version="1.1" viewBox="0 0 1000 1000" xmlns="http://www.w3.org/2000/svg" xmlns:xlink="http://www.w3.org/1999/xlink" overflow="hidden"><g><path d=" M 476.1 929.5 C 491 842.3 612.2 842.3 627 929.5 C 651.4 929.5 675.8 929.5 700.2 929.5 C 734 929.5 734.5 921.4 734.5 889.1 L 734.5 668.2 C 734.5 577.8 744.2 584.9 668.5 584.9 L 446.5 584.9 C 413.5 584.9 411.5 591.4 411.5 623.3 L 411.5 845.3 C 411.5 859.1 409.5 908.4 413.8 917.3 C 418.1 926.1 426.1 929.5 438.8 929.4 C 451.3 929.5 463.7 929.5 476.1 929.5 Z"/><path d=" M 777.5 929.1 C 794.5 848.7 887.2 845.3 919.5 902.7 C 925.2 912.8 924.7 919.3 928.8 929.1 C 977.8 934.7 971.4 912.7 971.4 872.6 C 971.4 847.9 974.6 797.8 966.4 778.1 C 957.7 757.4 930.7 724.5 916 704.9 C 912.4 700.1 908.6 694.5 905.2 690.6 C 897.4 681.6 892 671.7 874.1 671.1 L 774.6 671.4 C 759 673.5 756 685.6 756.1 702.1 L 756.1 901.1 C 756.1 917 761.2 929.1 777.5 929.1 L 777.5 929.1 Z M 820.7 800.1 L 820.7 714.2 C 834.7 713.4 857 713.2 870.9 714 C 881.4 714.6 888.3 728.3 896 739.1 C 905 751.7 934.5 788.6 935 800.1 C 903.7 800.6 850.8 801.1 820.7 800.1 Z"/><path d=" M 540.5 891.9 C 517 897.9 495.8 920.9 503.3 951.7 C 508.9 975 532.5 995.5 562.6 988.7 C 585.8 983.5 607 959.1 600 929.2 C 594.6 906.1 570.6 884.2 540.5 891.9 Z"/><path d=" M 849.3 890.9 C 823 893.5 801.1 914.8 803.7 944.3 C 806 970.6 828.8 992.2 857.9 989.5 C 883.7 987.1 905.2 964.3 902.5 935.1 C 900 910 877.2 888.1 849.3 890.9 Z"/><path d=" M 27.9 241.1 L 27.9 989.4 L 198.8 989.4 L 198.8 377.7 L 799 377.7 L 799 499.7 L 969.9 499.7 L 969.9 243.2 C 969.9 234 952.1 229.1 944.9 225.8 L 900.5 204.8 C 894.3 202 891.3 199.8 885 197 C 873.5 191.9 866.1 188.2 854.6 183.1 C 800.3 158.9 730.8 122.3 676.9 99.1 L 512.1 21.3 C 482.7 7.1 489.5 7 467 17 L 319.7 91.4 C 309.8 96.5 300.3 100.4 289.8 105.8 L 55 223.7 C 48.7 227 27.9 232.7 27.9 241.1 Z"/><path d=" M 249.3 721.6 L 354.4 721.6 L 354.4 812.6 L 249.3 812.6 L 249.3 721.6 Z"/><path d=" M 249.3 600.3 L 354.4 600.3 L 354.4 689.2 L 249.3 689.2 L 249.3 600.3 Z"/></g></svg>