<svg xmlns="http://www.w3.org/2000/svg" width="18" height="18" style=""><rect id="backgroundrect" width="100%" height="100%" x="0" y="0" fill="none" stroke="none"/>
    
<g class="currentLayer" style=""><title>Layer 1</title><path fill="#000000" fill-rule="nonzero" d="M15.366 2.634C13.61.878 11.488 0 9 0 6.512 0 4.39.878 2.634 2.634.878 4.39 0 6.512 0 9c0 2.488.878 4.61 2.634 6.366C4.39 17.122 6.512 18 9 18c2.488 0 4.61-.878 6.366-2.634C17.122 13.61 18 11.488 18 9c0-2.488-.878-4.61-2.634-6.366zm-1.08 11.653a7.274 7.274 0 0 1-4.152 2.103v-3.256H7.866v3.256a7.274 7.274 0 0 1-4.153-2.103 7.274 7.274 0 0 1-2.103-4.153h3.256V7.866H1.61a7.274 7.274 0 0 1 2.103-4.153A7.274 7.274 0 0 1 7.866 1.61v3.256h2.268V1.61a7.274 7.274 0 0 1 4.153 2.103 7.274 7.274 0 0 1 2.103 4.153h-3.256v2.268h3.256a7.274 7.274 0 0 1-2.103 4.153z" id="svg_1" class="selected" fill-opacity="1"/></g></svg>