<?xml version="1.0" encoding="UTF-8"?>
<svg width="24px" height="20px" viewBox="0 0 24 20" version="1.1" xmlns="http://www.w3.org/2000/svg" xmlns:xlink="http://www.w3.org/1999/xlink">
    <!-- Generator: Sketch 48.1 (47250) - http://www.bohemiancoding.com/sketch -->
    <title>Campaign</title>
    <desc>Created with Sketch.</desc>
    <defs></defs>
    <g id="Page-2" stroke="none" stroke-width="1" fill="none" fill-rule="evenodd">
        <g id="Campaign" fill-rule="nonzero">
            <path d="M23.2590672,3.80167481 L20.1265019,3.80167481 L20.1265019,0.764986077 C20.1265019,0.342509766 19.7947616,0 19.3855691,0 L0.740932834,0 C0.331740328,0 0,0.342509766 0,0.764986077 L0,17.2354423 C0,18.7598045 1.20120031,20 2.67763247,20 L21.3222687,20 C22.7987009,20 24,18.7598045 24,17.2354423 L24,4.56666088 C24,4.14418458 23.6682597,3.80167481 23.2590672,3.80167481 Z M1.48186567,17.2354423 L1.48186567,1.52997216 L18.6446363,1.52997216 L18.6446363,4.56655888 L18.6446363,17.2353403 C18.6446363,17.6789302 18.7469838,18.0980406 18.9275738,18.4699259 L2.67763247,18.4699259 C2.01830104,18.4700279 1.48186567,17.9161779 1.48186567,17.2354423 Z M21.3222687,18.4700279 C20.6629373,18.4700279 20.1265019,17.9161779 20.1265019,17.2354423 L20.1265019,5.33164697 L22.5181343,5.33164697 L22.5181343,17.2354423 C22.5181343,17.9161779 21.9816002,18.4700279 21.3222687,18.4700279 Z" id="Shape" fill="#515151"></path>
            <path d="M3.7498661,5.26315789 L16.2501339,5.26315789 C16.66426,5.26315789 17,5.02750877 17,4.73684211 C17,4.44617544 16.66426,4.21052632 16.2501339,4.21052632 L3.7498661,4.21052632 C3.33574005,4.21052632 3,4.44617544 3,4.73684211 C3,5.02750877 3.33564006,5.26315789 3.7498661,5.26315789 Z" id="Shape" fill="#8C013F"></path>
            <path d="M4,9.47377752 C4,10.6345556 4.89720289,11.5789474 6.00008866,11.5789474 C7.10279711,11.5789474 8,10.6345556 8,9.47377752 C8,8.31290619 7.10288577,7.36842105 6.00008866,7.36842105 C4.89720289,7.36842105 4,8.31290619 4,9.47377752 Z M6.67006516,9.47377752 C6.67006516,9.86278745 6.36951993,10.1792954 6,10.1792954 C5.63048007,10.1792954 5.32975752,9.86278745 5.32975752,9.47377752 C5.32975752,9.08467427 5.63039142,8.76807301 6,8.76807301 C6.36951993,8.76807301 6.67006516,9.08467427 6.67006516,9.47377752 Z" id="Shape" fill="#515151"></path>
            <path d="M3.75719334,15.7894737 C4.17536598,15.7894737 4.51438667,15.4167389 4.51438667,14.9569809 L4.51438667,14.028918 C4.51438667,13.5961328 4.83483089,13.2439328 5.22867239,13.2439328 L6.77102473,13.2439328 C7.16506815,13.2439328 7.48561333,13.5960218 7.48561333,14.028918 L7.48561333,14.9569809 C7.48561333,15.4167389 7.82463402,15.7894737 8.24280666,15.7894737 C8.6609793,15.7894737 9,15.4167389 9,14.9569809 L9,14.028918 C9,12.6780598 8.00010096,11.5789474 6.77102473,11.5789474 L5.22867239,11.5789474 C3.99979808,11.5789474 3,12.6779488 3,14.028918 L3,14.9569809 C3,15.4167389 3.33891974,15.7894737 3.75719334,15.7894737 Z" id="Shape" fill="#515151"></path>
            <path d="M16.2784794,7.36842105 L10.7215206,7.36842105 C10.3230488,7.36842105 10,7.60407018 10,7.89473684 C10,8.18540351 10.3230488,8.42105263 10.7215206,8.42105263 L16.2784794,8.42105263 C16.6769512,8.42105263 17,8.18540351 17,7.89473684 C17,7.60407018 16.6769512,7.36842105 16.2784794,7.36842105 Z" id="Shape" fill="#8C013F"></path>
            <path d="M16.2784794,14.7368421 L10.7215206,14.7368421 C10.3230488,14.7368421 10,14.9724913 10,15.2631579 C10,15.5538245 10.3230488,15.7894737 10.7215206,15.7894737 L16.2784794,15.7894737 C16.6769512,15.7894737 17,15.5538245 17,15.2631579 C17,14.9724913 16.6769512,14.7368421 16.2784794,14.7368421 Z" id="Shape" fill="#8C013F"></path>
            <path d="M16.2784794,10.5263158 L10.7215206,10.5263158 C10.3230488,10.5263158 10,10.7619649 10,11.0526316 C10,11.3432982 10.3230488,11.5789474 10.7215206,11.5789474 L16.2784794,11.5789474 C16.6769512,11.5789474 17,11.3432982 17,11.0526316 C17,10.7619649 16.6769512,10.5263158 16.2784794,10.5263158 Z" id="Shape" fill="#8C013F"></path>
        </g>
    </g>
</svg>