<?xml version="1.0" encoding="iso-8859-1"?>
<!-- Generator: Adobe Illustrator 19.0.0, SVG Export Plug-In . SVG Version: 6.00 Build 0)  -->
<svg xmlns="http://www.w3.org/2000/svg" xmlns:xlink="http://www.w3.org/1999/xlink" version="1.1" id="Layer_1" x="0px" y="0px" viewBox="0 0 512.012 512.012" style="enable-background:new 0 0 512.012 512.012;" xml:space="preserve" width="512px" height="512px">
<g>
	<g>
		<g>
			<path d="M511.98,164.306c-1.101-36.48-32.845-66.167-70.75-66.167h-94.643c-11.298,0-21.922,4.983-29.124,13.619l-78.524,93.022     v-38.374c0-21.743-11.716-40.747-29.124-51.2c17.408-10.453,29.124-29.457,29.124-51.2c0-32.93-26.803-59.733-59.733-59.733     s-59.733,26.803-59.733,59.733c0,21.743,11.716,40.747,29.124,51.2c-17.408,10.453-29.124,29.457-29.124,51.2v179.891     l-18.517,21.931c-1.596,1.894-3.934,2.978-6.4,2.978H70.781c-37.905,0-69.649,29.687-70.75,66.167     c-0.555,18.645,6.272,36.275,19.243,49.63c12.971,13.38,30.37,20.736,48.998,20.736h80.077c11.298,0,21.931-4.983,29.175-13.67     l212.813-255.582c2.022-2.423,4.983-3.814,8.141-3.814h45.261c18.628,0,36.028-7.356,48.998-20.736     C505.708,200.581,512.543,182.951,511.98,164.306z M221.872,224.995l-85.333,101.086V166.405     c0-23.526,19.14-42.667,42.667-42.667c23.526,0,42.667,19.14,42.667,42.667V224.995z" fill="#8c013f"/>
			<path d="M424.183,322.516c-0.785-0.794-1.732-1.417-2.79-1.852c-2.082-0.862-4.429-0.862-6.511,0     c-1.05,0.435-1.997,1.058-2.79,1.852l-59.716,59.725c-3.337,3.328-3.337,8.73,0,12.066c3.328,3.328,8.73,3.328,12.066,0     l45.167-45.167v150.067c0,4.71,3.814,8.533,8.533,8.533c4.71,0,8.533-3.823,8.533-8.533V349.14l45.167,45.167     c1.664,1.664,3.849,2.5,6.033,2.5c2.185,0,4.361-0.836,6.033-2.5c3.328-3.337,3.328-8.738,0-12.066L424.183,322.516z" fill="#8c013f"/>
		</g>
	</g>
</g>
<g>
</g>
<g>
</g>
<g>
</g>
<g>
</g>
<g>
</g>
<g>
</g>
<g>
</g>
<g>
</g>
<g>
</g>
<g>
</g>
<g>
</g>
<g>
</g>
<g>
</g>
<g>
</g>
<g>
</g>
</svg>
