<?xml version="1.0" encoding="UTF-8"?>
<svg width="59px" height="54px" viewBox="0 0 59 54" version="1.1" xmlns="http://www.w3.org/2000/svg" xmlns:xlink="http://www.w3.org/1999/xlink">
    <!-- Generator: Sketch 48.1 (47250) - http://www.bohemiancoding.com/sketch -->
    <title>letters (1)</title>
    <desc>Created with Sketch.</desc>
    <defs></defs>
    <g id="Desktop-Copy-9" stroke="none" stroke-width="1" fill="none" fill-rule="evenodd" transform="translate(-967.000000, -181.000000)">
        <g id="Group-3" transform="translate(-31.000000, 0.000000)" fill="#8C031F" fill-rule="nonzero">
            <g id="Followup" transform="translate(974.000000, 149.000000)">
                <g id="letters-(1)" transform="translate(24.000000, 32.000000)">
                    <path d="M53.8144531,0 L12.0996094,0 C9.24029883,0 6.9140625,2.79512308 6.9140625,6.23076923 L6.9140625,8.30769231 L5.18554688,8.30769231 C2.31390625,8.30769231 0,11.1201231 0,14.5384615 L0,47.7692308 C0,51.2048769 2.32669727,54 5.18554688,54 L46.9003906,54 C49.7609688,54 52.0859375,51.1974 52.0859375,47.7692308 L52.0859375,45.6923077 L53.8144531,45.6923077 C56.6737637,45.6923077 59,42.8971846 59,39.4615385 L59,6.23076923 C59,2.79512308 56.6737637,0 53.8144531,0 Z M46.030832,12.4615385 L27.2694082,35.0309077 C26.9424883,35.4263538 26.5069023,35.6441538 26.0429688,35.6441538 C25.5790352,35.6441538 25.1434492,35.4263538 24.8131875,35.0267538 L6.05510547,12.4615385 L46.030832,12.4615385 Z M3.45703125,46.5657231 L3.45703125,15.2140154 L15.8994629,30.1818462 L3.45703125,46.5657231 Z M46.9003906,49.8461538 L5.64579297,49.8461538 L18.3451973,33.1238769 L22.3639961,37.9584 C23.3447559,39.1447385 24.6513984,39.7982769 26.043084,39.7982769 C27.4347695,39.7982769 28.7414121,39.1448769 29.7187148,37.9625538 L34.0047422,32.8065231 L46.9996074,49.8402 C46.9666504,49.8424154 46.9339238,49.8461538 46.9003906,49.8461538 Z M48.6289063,45.8285538 L36.4501309,29.8646308 L48.6289063,15.2140154 L48.6289063,45.8285538 Z M55.5429688,39.4615385 C55.5429688,40.6067538 54.7675566,41.5384615 53.8144531,41.5384615 L52.0859375,41.5384615 L52.0859375,14.5384615 C52.0859375,11.1161077 49.7685742,8.30769231 46.9003906,8.30769231 L10.3710938,8.30769231 L10.3710938,6.23076923 C10.3710938,5.08555385 11.1465059,4.15384615 12.0996094,4.15384615 L53.8144531,4.15384615 C54.7675566,4.15384615 55.5429688,5.08555385 55.5429688,6.23076923 L55.5429688,39.4615385 Z" id="Shape"></path>
                </g>
            </g>
        </g>
    </g>
</svg>