<?xml version="1.0" encoding="UTF-8"?>
<svg width="24px" height="24px" viewBox="0 0 24 24" version="1.1" xmlns="http://www.w3.org/2000/svg" xmlns:xlink="http://www.w3.org/1999/xlink">
    <!-- Generator: Sketch 48.1 (47250) - http://www.bohemiancoding.com/sketch -->
    <title>two-cogwheels-configuration-interface-symbol</title>
    <desc>Created with Sketch.</desc>
    <defs></defs>
    <g id="Updated_Wardrobe_5" stroke="none" stroke-width="1" fill="none" fill-rule="evenodd" transform="translate(-1007.000000, -825.000000)">
        <g id="Group-5" transform="translate(267.000000, 444.000000)" fill="#8C031F">
            <g id="row1" transform="translate(20.000000, 331.000000)">
                <g id="two-cogwheels-configuration-interface-symbol" transform="translate(720.000000, 50.000000)">
                    <g id="Shape">
                        <path d="M22.6239235,12.9321925 L21.7634532,12.9321925 C21.5306214,12.9321925 21.2591442,12.7215009 21.1706234,12.4720041 C21.0885768,12.2407709 20.992183,12.0106168 20.8844794,11.7877761 C20.769742,11.5507881 20.8119842,11.2115715 20.976597,11.0469588 L21.5890891,10.4343867 C22.0182253,10.0052905 22.0182253,9.30699514 21.5890891,8.87785899 L20.5948984,7.88366826 C20.3869644,7.67577422 20.1106515,7.5613166 19.8165946,7.5613166 C19.5226575,7.5613166 19.2462647,7.67577422 19.0383707,7.88366826 L18.4257986,8.49624033 C18.3274466,8.5945524 18.1636731,8.65325988 17.9879103,8.65325988 C17.8778487,8.65325988 17.7731024,8.63076001 17.685221,8.58819808 C17.4623004,8.48033456 17.2317866,8.38386085 17.0000339,8.3014146 C16.750657,8.21289378 16.5399654,7.94141661 16.5399654,7.7086648 L16.5399654,6.84811454 C16.5399654,6.24129732 16.046247,5.74749901 15.4393099,5.74749901 L14.0330078,5.74749901 C13.4260308,5.74749901 12.9323523,6.24129732 12.9323523,6.84811454 L12.9323523,7.7086648 C12.9323523,7.94149654 12.7217008,8.21301367 12.4722839,8.3014146 C12.2408509,8.38362107 12.010417,8.47985499 11.7877362,8.58747872 C11.7012935,8.62928133 11.5940294,8.65230074 11.4856864,8.65230074 C11.3092042,8.65230074 11.1449911,8.59347336 11.0463993,8.49492151 L10.4348263,7.88358834 C10.2269323,7.67569429 9.9505395,7.56123667 9.65644256,7.56123667 C9.36246552,7.56123667 9.08607274,7.67569429 8.8781787,7.88346844 L7.88298887,8.87805881 C7.67497493,9.08583296 7.56051731,9.36218577 7.56039742,9.65620278 C7.56039742,9.95017982 7.67485504,10.2265726 7.88274909,10.4344666 L8.49532116,11.0470387 C8.66005381,11.2117714 8.70237595,11.5512277 8.58767855,11.7883756 C8.4801747,12.0108166 8.38394078,12.2408509 8.30189417,12.4722039 C8.21337335,12.7215409 7.94201607,12.9322724 7.70914437,12.9322724 L6.848714,12.9322724 C6.24177689,12.9322724 5.74809848,13.4260707 5.74809848,14.0328879 L5.74809848,15.43923 C5.74809848,16.0460472 6.24177689,16.5398455 6.848714,16.5398455 L7.70914437,16.5398455 C7.94201607,16.5398455 8.21349324,16.7504172 8.30201406,16.9997941 C8.38394078,17.2305078 8.4801747,17.4606619 8.58803822,17.6836225 C8.7026557,17.9206105 8.66021366,18.2601068 8.49536112,18.4249594 L7.88278905,19.0374915 C7.45369287,19.4665876 7.45369287,20.164883 7.88278905,20.5939792 L8.87837852,21.5896886 C9.08627257,21.7975826 9.36266534,21.9120403 9.65664238,21.9120403 C9.95061943,21.9120403 10.2270122,21.7975826 10.4349062,21.5896886 L11.0474783,20.9771565 C11.1460302,20.8785647 11.3101634,20.8197773 11.4864856,20.8197773 C11.5964273,20.8197773 11.7008539,20.8421572 11.7885355,20.8845993 C12.0113761,20.9923029 12.2414503,21.0885768 12.4725237,21.1706234 C12.7218207,21.2591442 12.9325921,21.5306214 12.9325921,21.7634931 L12.9325921,22.6240434 C12.9325921,23.2308606 13.4263105,23.7246189 14.0331677,23.7246189 L15.4395497,23.7246189 C16.0464469,23.7246189 16.5401253,23.2308606 16.5401253,22.6240434 L16.5401253,21.7634931 C16.5401253,21.5306214 16.7508568,21.2591442 17.0001938,21.1707433 C17.2317067,21.0885369 17.4621406,20.9923029 17.6848214,20.8847192 C17.7712241,20.8428766 17.8784882,20.8198971 17.9868312,20.8198971 C18.1633134,20.8198971 18.3274466,20.8787245 18.4260384,20.9772764 L19.0385305,21.5898085 C19.2464645,21.7977025 19.5226975,21.9121601 19.8166745,21.9121601 C20.1107714,21.9121601 20.3871642,21.7975826 20.5950583,21.5895687 L21.5897286,20.5943789 C22.018545,20.1651628 22.018545,19.4668674 21.5895687,19.0377312 L20.9775561,18.4254389 C20.8129434,18.2608661 20.7707011,17.9213698 20.8852787,17.6842219 C20.9929024,17.461661 21.0890164,17.231387 21.1711829,17.0000339 C21.2596238,16.7506969 21.5310211,16.5400853 21.7638528,16.5400853 L22.6242432,16.5400853 C23.2312203,16.5400853 23.7248987,16.046287 23.7248987,15.4394698 L23.7248987,14.0331277 C23.7244991,13.4259109 23.2307007,12.9321925 22.6239235,12.9321925 Z M17.9615738,14.7359791 C17.9615738,16.5144682 16.5145881,17.961414 14.7360989,17.961414 C12.9576897,17.961414 11.510704,16.5144682 11.510704,14.7359791 C11.510704,12.9575298 12.9576897,11.5105841 14.7360989,11.5105841 C16.5145881,11.5105841 17.9615738,12.9574099 17.9615738,14.7359791 Z" fill-rule="nonzero"></path>
                        <path d="M8.06750383,5.87090863 C8.0883252,5.81232103 8.15790297,5.76292521 8.19067366,5.76292521 L8.62164816,5.76292521 C9.02620629,5.76292521 9.35539185,5.43385955 9.35539185,5.02918153 L9.35539185,4.3260105 C9.35539185,3.92137243 9.02620629,3.59226681 8.62164816,3.59226681 L8.19079355,3.59226681 C8.15802286,3.59226681 8.0884451,3.54287099 8.06766368,3.4842834 C8.0243824,3.36235246 7.9736278,3.24094106 7.91675867,3.12364598 C7.8902224,3.0687351 7.90428982,2.98592916 7.92726926,2.96294972 L8.23363523,2.65662372 C8.51965939,2.3704397 8.51965939,1.90501601 8.23363523,1.61899185 L7.73651988,1.12187651 C7.59796382,0.983320445 7.41364868,0.907028686 7.21766399,0.907028686 C7.02163933,0.907028686 6.83732419,0.983480302 6.69876813,1.1219964 L6.39256202,1.42824247 C6.38301056,1.43779393 6.35023988,1.45306028 6.30316199,1.45306028 C6.27638594,1.45306028 6.25044914,1.44794485 6.23186576,1.43887297 C6.11437085,1.38200383 5.99303938,1.33124923 5.87122834,1.28808784 C5.81252085,1.26730643 5.76312503,1.19756881 5.76312503,1.16491801 L5.76312503,0.733983471 C5.76312503,0.329305445 5.43393948,0.000239785518 5.02938135,0.000239785518 L4.32621032,0.000239785518 C3.92165218,0.000239785518 3.59246663,0.329305445 3.59246663,0.733983471 L3.59246663,1.16491801 C3.59246663,1.1976887 3.54307082,1.26714657 3.48448322,1.28796795 C3.36207271,1.33136912 3.24062135,1.38224362 3.12360602,1.43887297 C3.10514253,1.44778499 3.07908584,1.45294038 3.05230979,1.45294038 C3.0052319,1.45294038 2.9725811,1.43779393 2.96306961,1.42824247 L2.65670365,1.1219964 C2.51814758,0.983440338 2.33387241,0.907148579 2.13784775,0.907148579 C1.94182309,0.907148579 1.75762785,0.983440338 1.61911175,1.1219964 L1.12191647,1.61911175 C0.835892316,1.90529576 0.835892316,2.37083935 1.12191647,2.6568635 L1.42812258,2.96306961 C1.45110203,2.98604906 1.46528934,3.06885499 1.43875307,3.12364598 C1.38188394,3.24106096 1.33112934,3.36247236 1.28784805,3.48440329 C1.26706664,3.54299089 1.19732902,3.5925066 1.16467823,3.5925066 L0.733743685,3.5925066 C0.329225516,3.5925066 0,3.92157226 0,4.32625028 L0,5.02942131 C0,5.43397945 0.329105624,5.763165 0.733623793,5.763165 L1.1645983,5.763165 C1.19736898,5.763165 1.26694675,5.81256082 1.28776812,5.87114841 C1.33104941,5.99319924 1.38180401,6.11449075 1.43867314,6.23178583 C1.46520941,6.28669671 1.45114199,6.36946268 1.42816255,6.39248209 L1.12179658,6.69884805 C0.983240517,6.83740412 0.906948758,7.02171926 0.906948758,7.21770395 C0.906948758,7.41372861 0.983240517,7.59792385 1.12191647,7.73659981 L1.61903182,8.23359526 C1.75758788,8.37215133 1.94186305,8.44844309 2.13788772,8.44844309 C2.33391238,8.44844309 2.51810762,8.37215133 2.65662372,8.23359526 L2.96298968,7.92726926 C2.97250118,7.91771781 3.00531183,7.90245146 3.05238972,7.90245146 C3.07916577,7.90245146 3.10510257,7.90756689 3.12368594,7.91659881 C3.24122081,7.97346794 3.36255228,8.02422254 3.48432336,8.06738394 C3.54303085,8.08816535 3.59242667,8.157863 3.59242667,8.1905138 L3.59242667,8.6214883 C3.59242667,9.02612637 3.92165218,9.35523199 4.32617035,9.35523199 L5.02934139,9.35523199 C5.43389952,9.35523199 5.76308507,9.02616633 5.76308507,8.6214883 L5.76308507,8.19063369 C5.76308507,8.157863 5.81248089,8.08840513 5.87106848,8.06762372 C5.99299942,8.02434243 6.11429093,7.97358783 6.2317059,7.9167187 C6.25028928,7.90764682 6.27634597,7.90253139 6.30312202,7.90253139 C6.35019991,7.90253139 6.38285071,7.91779774 6.39252206,7.92734919 L6.69888802,8.23367519 C6.83744408,8.37223126 7.02171926,8.44852302 7.21774392,8.44852302 C7.41376858,8.44852302 7.59796382,8.37223126 7.73647992,8.23367519 L8.23359526,7.73659981 C8.51961942,7.4504158 8.51961942,6.98499211 8.23359526,6.69896795 L7.92738916,6.39276184 C7.90436975,6.3697824 7.89018244,6.28685657 7.9167187,6.23206558 C7.9736278,6.11401118 8.02434243,5.99271967 8.06750383,5.87090863 Z M6.10697747,4.67757603 C6.10697747,5.46563114 5.46583096,6.10689754 4.67777585,6.10689754 C3.88960085,6.10689754 3.24845434,5.46575103 3.24845434,4.67757603 C3.24845434,3.88940103 3.88960085,3.24825452 4.67777585,3.24825452 C5.46579099,3.24825452 6.10697747,3.889441 6.10697747,4.67757603 Z" fill-rule="nonzero"></path>
                    </g>
                </g>
            </g>
        </g>
    </g>
</svg>