<?xml version="1.0" encoding="UTF-8"?>
<svg width="20px" height="25px" viewBox="0 0 20 25" version="1.1" xmlns="http://www.w3.org/2000/svg" xmlns:xlink="http://www.w3.org/1999/xlink">
    <!-- Generator: Sketch 48.1 (47250) - http://www.bohemiancoding.com/sketch -->
    <title>log-file-format (1)</title>
    <desc>Created with Sketch.</desc>
    <defs></defs>
    <g id="Page-2" stroke="none" stroke-width="1" fill="none" fill-rule="evenodd">
        <g id="log-file-format-(1)" fill-rule="nonzero">
            <g id="Group" fill="#515151">
                <path d="M9.07669173,18.9948998 C8.16992481,18.9948998 7.64185464,19.7785519 7.64185464,20.8259563 C7.64185464,21.8816485 8.18746867,22.625592 9.08521303,22.625592 C9.99197995,22.625592 10.5111278,21.8419399 10.5111278,20.7942623 C10.5113784,19.8265938 10.0011028,18.9948998 9.07669173,18.9948998 Z" id="Shape"></path>
                <path d="M19.9463158,5.98315118 C19.9447619,5.86867031 19.9047619,5.75560109 19.8181955,5.66621129 L14.5190977,0.167440801 C14.5180451,0.165892532 14.5164411,0.165437158 14.5148872,0.164025501 C14.4833083,0.131967213 14.4470175,0.105555556 14.4080201,0.0822404372 C14.3964912,0.0754553734 14.3848622,0.0693533698 14.372782,0.0631602914 C14.3385464,0.0465391621 14.3032581,0.0327868852 14.2664662,0.022723133 C14.2564411,0.0200819672 14.2475689,0.0163934426 14.2375439,0.0140255009 C14.1970426,0.00514571949 14.1559398,0 14.1138847,0 L1.09057644,0 C0.496441103,0 0.0127819549,0.4393898 0.0127819549,0.979143898 L0.0127819549,23.9886157 C0.0127819549,24.5285974 0.496441103,24.967714 1.09057644,24.967714 L18.8737845,24.967714 C19.4684211,24.967714 19.9516291,24.5285974 19.9516291,23.9886157 L19.9516291,6.03802368 C19.9516792,6.01962659 19.9484211,6.00159381 19.9463158,5.98315118 Z M6.03894737,23.5047359 L2.33318296,23.5047359 L2.33318296,18.1153005 L3.67989975,18.1153005 L3.67989975,22.4814208 L6.03894737,22.4814208 L6.03894737,23.5047359 Z M9.01518797,23.5929417 C7.25458647,23.5929417 6.22486216,22.3855191 6.22486216,20.8504098 C6.22486216,19.2346995 7.36025063,18.0272769 9.1118797,18.0272769 C10.9341855,18.0272769 11.9288221,19.2667577 11.9288221,20.754326 C11.9288221,22.5213115 10.7494737,23.5929417 9.01518797,23.5929417 Z M17.7660652,23.2571038 C17.3518797,23.3849727 16.5688722,23.560929 15.785213,23.560929 C14.7027068,23.560929 13.9190977,23.3130692 13.3734336,22.8332878 C12.827619,22.3693534 12.5285213,21.6655738 12.537193,20.8739071 C12.5460652,19.0826958 13.980401,18.0589253 15.9262155,18.0589253 C16.6919298,18.0589253 17.2816541,18.195173 17.5720802,18.3227687 L17.2905263,19.2986339 C16.9651128,19.1704918 16.5601504,19.0667122 15.9086216,19.0667122 C14.7905764,19.0667122 13.9456642,19.642623 13.9456642,20.8098361 C13.9456642,21.9213115 14.7116792,22.5772769 15.8120301,22.5772769 C16.1198997,22.5772769 16.3662155,22.5452186 16.4719799,22.4974499 L16.4719799,21.3698543 L15.556792,21.3698543 L15.556792,20.4182605 L17.766015,20.4182605 L17.766015,23.2571038 L17.7660652,23.2571038 Z M1.09057644,16.6248179 L1.09057644,0.979143898 L13.5749373,0.979143898 L13.5749373,5.98875228 C13.5749373,6.25901639 13.8160401,6.47832423 14.1138847,6.47832423 L18.8738346,6.47832423 L18.874386,16.6248179 L1.09057644,16.6248179 Z" id="Shape"></path>
            </g>
            <g id="Group" transform="translate(4.000000, 3.000000)">
                <path d="M10.1252654,0.537448819 L9.33133649,0.537448819 L9.33133649,1.76508661 C9.33133649,1.98708661 9.1327109,2.16708661 8.88779147,2.16708661 C8.64250711,2.16708661 8.44414218,1.98703937 8.44414218,1.76508661 L8.44414218,0.537448819 L7.04291943,0.537448819 L7.04291943,1.76508661 C7.04291943,1.98708661 6.84429384,2.16708661 6.59937441,2.16708661 C6.35419431,2.16708661 6.15572512,1.98703937 6.15572512,1.76508661 L6.15572512,0.537448819 L4.4272654,0.537448819 L4.4272654,1.76508661 C4.4272654,1.98708661 4.22858768,2.16708661 3.98361611,2.16708661 C3.73843602,2.16708661 3.54001896,1.98703937 3.54001896,1.76508661 L3.54001896,0.537448819 L2.13884834,0.537448819 L2.13884834,1.76508661 C2.13884834,1.98708661 1.94017062,2.16708661 1.69519905,2.16708661 C1.45001896,2.16708661 1.2516019,1.98703937 1.2516019,1.76508661 L1.2516019,0.537448819 L0.87807109,0.537448819 C0.413777251,0.537448819 0.0373791469,0.878456693 0.0373791469,1.29935433 L0.0373791469,11.2036535 C0.0373791469,11.6244567 0.413829384,11.9655118 0.87807109,11.9655118 L10.1257346,11.9655118 C10.5901848,11.9655118 10.9664787,11.6244567 10.9664787,11.2036535 L10.9664787,1.29935433 C10.9660095,0.878503937 10.5897156,0.537448819 10.1252654,0.537448819 Z M10.2657109,11.2038898 L0.550834123,11.2038898 L0.550834123,3.5852126 L10.2657109,3.5852126 L10.2657109,11.2038898 Z" id="Shape" fill="#515151"></path>
                <path d="M2.13863981,0.410503937 C2.13863981,0.188551181 1.93996209,0.00850393701 1.69499052,0.00850393701 C1.44981043,0.00850393701 1.25139336,0.188551181 1.25139336,0.410503937 L1.25139336,0.537496063 L2.13890047,0.537496063 L2.13890047,0.410503937 L2.13863981,0.410503937 Z" id="Shape" fill="#8C013F"></path>
                <path d="M4.42731754,0.410503937 C4.42731754,0.188551181 4.22863981,0.00850393701 3.98366825,0.00850393701 C3.73848815,0.00850393701 3.54007109,0.188551181 3.54007109,0.410503937 L3.54007109,0.537496063 L4.4275782,0.537496063 L4.4275782,0.410503937 L4.42731754,0.410503937 Z" id="Shape" fill="#8C013F"></path>
                <path d="M7.0427109,0.410503937 C7.0427109,0.188551181 6.84403318,0.00850393701 6.59916588,0.00850393701 C6.35388152,0.00850393701 6.15546445,0.188551181 6.15546445,0.410503937 L6.15546445,0.537496063 L7.04291943,0.537496063 L7.04291943,0.410503937 L7.0427109,0.410503937 Z" id="Shape" fill="#8C013F"></path>
                <path d="M9.33138863,0.410503937 C9.33138863,0.188551181 9.13276303,0.00850393701 8.8878436,0.00850393701 C8.64255924,0.00850393701 8.44419431,0.188551181 8.44419431,0.410503937 L8.44419431,0.537496063 L9.33164929,0.537496063 L9.33164929,0.410503937 L9.33138863,0.410503937 Z" id="Shape" fill="#8C013F"></path>
                <path d="M1.69504265,5.29144882 L8.8878436,5.29144882 C8.96526066,5.29144882 9.0279763,5.17937665 9.0279763,5.04144882 C9.0279763,4.90352099 8.9653128,4.79144882 8.8878436,4.79144882 L1.69504265,4.79144882 C1.61772986,4.79144882 1.55490995,4.90352099 1.55490995,5.04144882 C1.55490995,5.17937665 1.61772986,5.29144882 1.69504265,5.29144882 Z" id="Shape" fill="#8C013F"></path>
                <path d="M1.69504265,6.7727874 L8.8878436,6.7727874 C8.96526066,6.7727874 9.0279763,6.66071523 9.0279763,6.5227874 C9.0279763,6.38485957 8.9653128,6.2727874 8.8878436,6.2727874 L1.69504265,6.2727874 C1.61772986,6.2727874 1.55490995,6.38485957 1.55490995,6.5227874 C1.55490995,6.66071523 1.61772986,6.7727874 1.69504265,6.7727874 Z" id="Shape" fill="#8C013F"></path>
                <path d="M1.69504265,8.50829921 L8.8878436,8.50829921 C8.96526066,8.50829921 9.0279763,8.39632005 9.0279763,8.25829921 C9.0279763,8.12027838 8.9653128,8.00829921 8.8878436,8.00829921 L1.69504265,8.00829921 C1.61772986,8.00829921 1.55490995,8.12037139 1.55490995,8.25829921 C1.55490995,8.39622704 1.61772986,8.50829921 1.69504265,8.50829921 Z" id="Shape" fill="#8C013F"></path>
                <path d="M1.69504265,9.98968504 L8.8878436,9.98968504 C8.96526066,9.98968504 9.0279763,9.87733385 9.0279763,9.73968504 C9.0279763,9.60203623 8.9653128,9.48968504 8.8878436,9.48968504 L1.69504265,9.48968504 C1.61772986,9.48968504 1.55490995,9.60194322 1.55490995,9.73968504 C1.55490995,9.87742685 1.61772986,9.98968504 1.69504265,9.98968504 Z" id="Shape" fill="#8C013F"></path>
            </g>
        </g>
    </g>
</svg>