<?xml version="1.0" encoding="UTF-8"?>
<svg width="54px" height="54px" viewBox="0 0 54 54" version="1.1" xmlns="http://www.w3.org/2000/svg" xmlns:xlink="http://www.w3.org/1999/xlink">
    <!-- Generator: Sketch 48.1 (47250) - http://www.bohemiancoding.com/sketch -->
    <title>circle-outline-with-exclamation-point</title>
    <desc>Created with Sketch.</desc>
    <defs></defs>
    <g id="Desktop-Copy-9" stroke="none" stroke-width="1" fill="none" fill-rule="evenodd" transform="translate(-606.000000, -181.000000)">
        <g id="Group-3" transform="translate(-31.000000, 0.000000)" fill="#8C031F" fill-rule="nonzero">
            <g id="Lost" transform="translate(617.000000, 149.000000)">
                <g id="circle-outline-with-exclamation-point" transform="translate(20.000000, 32.000000)">
                    <path d="M27,0 C12.1121003,0 0,12.1121003 0,27 C0,41.8872412 12.1121003,54 27,54 C41.8872412,54 54,41.8872412 54,27 C54,12.1121003 41.8885583,0 27,0 Z M27,51.3657894 C13.5648674,51.3657894 2.63421059,40.4351326 2.63421059,27 C2.63421059,13.5648674 13.5648674,2.63421059 27,2.63421059 C40.4351326,2.63421059 51.3657894,13.5648674 51.3657894,27 C51.3657894,40.4351326 40.4351326,51.3657894 27,51.3657894 Z M30.1011244,8.39259494 C30.3487402,8.64745482 30.4837435,8.99056075 30.4745238,9.34552062 L29.6058928,36.5911608 C29.5874534,37.3050318 29.0033172,37.8746799 28.2887875,37.8746799 L25.7105539,37.8746799 C24.9966828,37.8746799 24.4118881,37.3050318 24.3934486,36.5911608 L23.5248177,9.34552062 C23.5155979,8.99056075 23.6506012,8.64679626 23.898217,8.39259494 C24.1458328,8.13839362 24.4863045,7.99482914 24.8412644,7.99482914 L29.158077,7.99482914 C29.5123784,7.99548769 29.8535086,8.13839362 30.1011244,8.39259494 Z M30.4192053,41.4901339 L30.4192053,46.4226932 C30.4192053,47.1497354 29.8291422,47.7397985 29.1021001,47.7397985 L24.8972414,47.7397985 C24.1701993,47.7397985 23.5801361,47.1497354 23.5801361,46.4226932 L23.5801361,41.4901339 C23.5801361,40.7630918 24.1701993,40.1730286 24.8972414,40.1730286 L29.1021001,40.1730286 C29.8298007,40.1730286 30.4192053,40.7617747 30.4192053,41.4901339 Z" id="Shape"></path>
                </g>
            </g>
        </g>
    </g>
</svg>