<?xml version="1.0" encoding="UTF-8"?>
<svg width="54px" height="54px" viewBox="0 0 54 54" version="1.1" xmlns="http://www.w3.org/2000/svg" xmlns:xlink="http://www.w3.org/1999/xlink">
    <!-- Generator: Sketch 48.1 (47250) - http://www.bohemiancoding.com/sketch -->
    <title>delete-contact</title>
    <desc>Created with Sketch.</desc>
    <defs></defs>
    <g id="Desktop-Copy-9" stroke="none" stroke-width="1" fill="none" fill-rule="evenodd" transform="translate(-253.000000, -596.000000)">
        <g id="Group-3" transform="translate(-31.000000, 0.000000)" fill="#8C031F" fill-rule="nonzero">
            <g id="NotCpontactable" transform="translate(256.000000, 558.000000)">
                <g id="delete-contact" transform="translate(28.000000, 38.000000)">
                    <path d="M32.886,48.6252237 C32.886,42.3104211 39.0781452,37.1655 46.7644355,36.98325 C44.6701935,36.2688158 42.5628871,35.5799605 40.4372903,34.9141974 C40.0579839,34.7955395 39.6137903,34.5663947 39.4574516,34.2931974 C39.0520161,33.5514079 38.7585,32.7648553 38.4728226,31.9846974 C38.2855645,31.4908816 38.1196452,31.0222895 37.4463871,30.7849737 C37.2669677,30.7213816 37.1032258,30.4329079 37.1058387,30.2506579 C37.1424194,28.4402368 36.6276774,26.5431316 38.2672742,24.9721579 C38.3217097,24.9234868 38.3347742,24.8535 38.3739677,24.7941711 C39.2575645,23.2128947 39.4160806,21.4046053 40.6528548,19.9334605 C40.6868226,19.8997105 40.6968387,19.8506842 40.6994516,19.8062763 C40.8422903,18.6850658 40.9877419,17.5635 41.1075,16.4401579 C41.1205645,16.3001842 40.9672742,16.0543421 40.8244355,16.0120658 C40.1411613,15.8127632 40.1799194,15.3676184 40.1825323,14.9203421 C40.1851452,12.7262368 40.1825323,10.5324868 40.1799194,8.34051316 C40.1773065,7.06653947 39.7200484,5.93040789 38.5350968,5.06321053 C37.191629,4.07735526 35.8094032,3.12347368 34.4293548,2.16959211 C33.7617581,1.70952632 33.7016613,1.35568421 34.3278871,0.849078947 C34.5983226,0.626328947 34.9567258,0.465394737 35.2789839,0.274618421 C35.2140968,0.189710526 35.1361452,0.103026316 35.0712581,0.0181184211 C34.6527581,0.0181184211 34.2268548,-0.0262894737 33.8240323,0.0245131579 C32.2959194,0.225947368 30.7604032,0.401802632 29.2610323,0.690276316 C26.3925,1.24128947 23.6093226,1.97277632 21.2838387,3.53735526 C19.6882258,4.60776316 18.4205323,5.85438158 18.2620161,7.62003947 C18.1788387,8.54230263 18.1919032,9.47273684 18.1814516,10.3971316 C18.1683871,11.9020263 18.1945161,13.4115395 18.1579355,14.9164342 C18.1500968,15.1622763 17.9759032,15.5651447 17.7760161,15.6202105 C17.0252419,15.8173816 17.0069516,16.2074605 17.1084194,16.7161974 C17.1759194,17.064 17.118871,17.4285 17.2177258,17.7699079 C17.4777097,18.7131316 17.7477097,19.6524474 18.0804194,20.58075 C18.3299516,21.2738684 18.8107258,21.9247105 18.9431129,22.6263553 C19.2135484,24.0296447 19.8471774,25.2506842 21.0064355,26.3083026 C21.1989194,26.4820263 21.344371,26.7768947 21.3234677,27.0078158 C21.2350645,28.0888816 21.0974516,29.1699474 20.9206452,30.2403553 C20.8866774,30.4481842 20.6140645,30.7618816 20.3932742,30.7977632 C19.5149032,30.9462632 19.3772903,31.5015395 19.1669516,32.0589474 C18.8917258,32.8007368 18.5925484,33.5322237 18.2445968,34.2487895 C18.1352903,34.4694079 17.8652903,34.7024605 17.5948548,34.7976711 C16.0279839,35.3572105 14.4402097,35.8638158 12.8655,36.4045263 C11.1867097,36.9789868 9.49529032,37.5278684 7.85569355,38.1659211 C6.1695,38.8252895 4.53469355,39.5628158 2.88464516,40.2857763 C1.91264516,40.7096053 1.00335484,41.1824605 0.236903226,41.7654474 L0.236903226,50.1599605 C11.1688548,50.1599605 22.0951452,50.1599605 33.0244839,50.1599605 C32.940871,49.6576184 32.886,49.1510132 32.886,48.6252237 Z" id="Shape"></path>
                    <polygon id="Shape" points="51.7694516 43.3786974 47.1777097 47.1263684 42.5837903 43.3786974 40.7464839 44.8796842 45.3408387 48.6252237 40.7464839 52.3728947 42.5837903 53.8738816 47.1777097 50.1240789 51.7694516 53.8738816 53.6089355 52.3728947 49.0150161 48.6252237 53.6089355 44.8796842"></polygon>
                </g>
            </g>
        </g>
    </g>
</svg>