<?xml version="1.0" encoding="UTF-8"?>
<svg width="424px" height="512px" viewBox="0 0 424 512" version="1.1" xmlns="http://www.w3.org/2000/svg" xmlns:xlink="http://www.w3.org/1999/xlink">
    <!-- Generator: Sketch 48.1 (47250) - http://www.bohemiancoding.com/sketch -->
    <title>NotClaimed Lead</title>
    <desc>Created with Sketch.</desc>
    <defs></defs>
    <g id="Page-1" stroke="none" stroke-width="1" fill="none" fill-rule="evenodd">
        <g id="NotClaimed-Lead" fill="#8C013F" fill-rule="nonzero">
            <g id="claim">
                <path d="M265.851,148.522 L75.62,148.522 C67.317,148.522 60.586,155.253 60.586,163.556 C60.586,171.859 67.317,178.59 75.62,178.59 L265.851,178.59 C274.154,178.59 280.885,171.859 280.885,163.556 C280.885,155.253 274.153,148.522 265.851,148.522 Z" id="Shape"></path>
                <path d="M265.851,206.515 L75.62,206.515 C67.317,206.515 60.586,213.246 60.586,221.549 C60.586,229.852 67.317,236.583 75.62,236.583 L265.851,236.583 C274.154,236.583 280.885,229.852 280.885,221.549 C280.884,213.246 274.153,206.515 265.851,206.515 Z" id="Shape"></path>
                <path d="M265.851,266.824 L75.62,266.824 C67.317,266.824 60.586,273.555 60.586,281.858 C60.586,290.161 67.317,296.892 75.62,296.892 L265.851,296.892 C274.154,296.892 280.885,290.161 280.885,281.858 C280.884,273.556 274.153,266.824 265.851,266.824 Z" id="Shape"></path>
                <path d="M152.111,326.673 L75.621,326.673 C67.318,326.673 60.587,333.404 60.587,341.707 C60.587,350.01 67.318,356.741 75.621,356.741 L152.111,356.741 C160.414,356.741 167.145,350.01 167.145,341.707 C167.145,333.404 160.413,326.673 152.111,326.673 Z" id="Shape"></path>
                <path d="M341.057,318.029 L341.057,42.384 C341.057,19.013 322.044,0 298.674,0 L99.994,0 C95.933,0 92.107,1.575 89.173,4.481 L4.896,88.727 C2.004,91.618 0.412,95.462 0.412,99.55 L0.412,400.714 C0.412,424.085 19.425,443.098 42.796,443.098 L232.758,443.098 C245.031,482.951 282.196,512 326.022,512 C379.819,512 423.587,468.233 423.587,414.435 C423.589,365.749 387.743,325.28 341.057,318.029 Z M84.961,51.207 L84.961,84.517 L84.96,84.517 L51.639,84.517 L84.961,51.207 Z M228.477,413.031 L42.797,413.031 C36.006,413.031 30.481,407.507 30.481,400.715 L30.481,114.585 L99.994,114.585 C108.297,114.585 115.028,107.854 115.028,99.551 C115.028,99.433 115.013,99.318 115.01,99.201 C115.013,99.084 115.028,98.969 115.028,98.851 L115.028,30.068 L298.674,30.068 C305.464,30.068 310.99,35.592 310.99,42.384 L310.99,318.029 C264.755,325.21 229.16,364.974 228.477,413.031 Z M326.023,481.932 C288.805,481.932 258.527,451.653 258.527,414.435 C258.527,377.217 288.805,346.939 326.023,346.939 C363.241,346.939 393.52,377.217 393.52,414.435 C393.521,451.653 363.241,481.932 326.023,481.932 Z" id="Shape"></path>
            </g>
            <g id="multiply-(1)" transform="translate(298.000000, 386.000000)" stroke="#8C013F" stroke-width="3">
                <polygon id="Shape" points="58 2.63602469 55.3639753 0 29 26.3639753 2.63602469 0 0 2.63602469 26.3639753 29 0 55.3639753 2.63602469 58 29 31.6360247 55.3639753 58 58 55.3639753 31.6360247 29"></polygon>
            </g>
        </g>
    </g>
</svg>