<?xml version="1.0" encoding="UTF-8"?>
<svg width="27px" height="27px" viewBox="0 0 27 27" version="1.1" xmlns="http://www.w3.org/2000/svg" xmlns:xlink="http://www.w3.org/1999/xlink">
    <!-- Generator: Sketch 48 (47235) - http://www.bohemiancoding.com/sketch -->
    <title>Book Order red</title>
    <desc>Created with Sketch.</desc>
    <defs></defs>
    <g id="Client-Profile-Edit" stroke="none" stroke-width="1" fill="none" fill-rule="evenodd" transform="translate(-459.000000, -228.000000)">
        <g id="Book-Order-Circle" transform="translate(436.000000, 218.000000)">
            <g id="Book-Order-red" transform="translate(23.150000, 10.050000)">
                <g id="Group-8" transform="translate(0.128720, 0.130403)" fill="#000000" fill-rule="nonzero">
                    <path d="M25.9550629,19.7671404 C25.485554,18.2866082 24.3302871,17.0659453 22.7912235,16.4241846 L22.7912235,6.67564315 C22.7912841,6.51965545 22.7007866,6.37524691 22.553289,6.29584703 L11.892269,0.561410849 C11.7401072,0.479529717 11.5510558,0.479529717 11.3989545,0.561410849 L0.737934612,6.29584703 C0.727758184,6.30114035 0.720489306,6.30908034 0.71079747,6.31525589 C0.701105634,6.32143143 0.691898389,6.3284892 0.682206553,6.33554697 C0.640107639,6.3657079 0.603944975,6.40209951 0.575111762,6.44317793 C0.575111762,6.4462657 0.56929666,6.44803014 0.567358293,6.45111791 L0.567358293,6.45420569 C0.540039429,6.49903354 0.521503792,6.54783139 0.512599418,6.59844881 C0.512599418,6.61168213 0.508238091,6.62403322 0.506784316,6.63726653 C0.50533054,6.65049985 0.50000003,6.66240983 0.50000003,6.67564315 L0.50000003,18.1445155 C0.499939456,18.3005032 0.590436978,18.4449117 0.737934612,18.5243116 L11.3989545,24.2587478 C11.4117357,24.264372 11.4248196,24.2693896 11.4382065,24.2737456 C11.4514116,24.2797557 11.4650408,24.285049 11.4789122,24.2896255 C11.585583,24.3302077 11.7056406,24.3302077 11.8123114,24.2896255 C11.8263645,24.285049 11.8401148,24.2797557 11.8535017,24.2737456 C11.8661011,24.2684522 11.8796696,24.2653645 11.892269,24.2587478 L14.7857667,22.7020689 C15.6761436,25.5096268 18.8981946,27.1286125 21.9825609,26.3181272 C25.0668667,25.507697 26.8454398,22.5746983 25.9550629,19.7671404 Z M11.6456118,1.45333623 L14.1654892,2.80886872 L10.4292863,4.81856805 C10.1987418,4.94257523 10.1222368,5.21325164 10.2584677,5.42310995 C10.3946986,5.63296826 10.6920562,5.70260858 10.9226008,5.57860139 L15.1186813,3.32320353 L17.6385588,4.67873602 L7.93024633,9.8992785 L5.41036889,8.54374601 L9.46979453,6.36024916 C9.70033909,6.23624197 9.77684402,5.96556556 9.64061315,5.75570725 C9.50438227,5.54584894 9.20702462,5.47620862 8.97648006,5.60021581 L4.45766139,8.03117564 L1.93729935,6.67564315 L11.6456118,1.45333623 Z M7.44565452,10.663723 L7.44565452,13.6090176 L4.9422532,12.2623073 L4.9422532,9.31701267 L7.44565452,10.663723 Z M14.744637,19.8687061 C14.6157356,20.3136763 14.5513455,20.7721003 14.5531627,21.2322888 C14.5532838,21.4168936 14.5639448,21.601388 14.5851457,21.7850003 L12.1302036,23.1061261 L12.1302036,21.6733993 C12.1302036,21.429796 11.9132276,21.2322888 11.6456118,21.2322888 C11.377996,21.2322888 11.16102,21.429796 11.16102,21.6733993 L11.16102,23.1061261 L1.46918366,17.8930825 L1.46918366,7.44890981 L3.97306957,8.79562009 L3.97306957,12.5137403 C3.97288785,12.6698934 4.0633248,12.8145225 4.21100415,12.8939775 L7.6835891,14.7620804 C7.75833739,14.8021112 7.8435044,14.8232845 7.93024633,14.8233947 C8.19786216,14.8233947 8.41483815,14.6258875 8.41483815,14.3822843 L8.41483815,11.1846744 L11.16102,12.6619534 L11.16102,19.9089574 C11.16102,20.1525607 11.377996,20.3500679 11.6456118,20.3500679 C11.9132276,20.3500679 12.1302036,20.1525607 12.1302036,19.9089574 L12.1302036,12.6619534 L20.9129457,7.93766022 C21.1433691,7.81365303 21.2197528,7.5430869 21.083522,7.33333886 C20.9472911,7.12359083 20.6500546,7.05406079 20.4196312,7.17806798 L11.6456118,11.8979501 L8.88343843,10.4118489 L18.5917509,5.18954195 L21.8220399,6.92707612 L21.8220399,16.1154073 C18.7290721,15.372853 15.5603868,17.0532082 14.744637,19.8687061 Z M20.3682645,25.6433936 C17.6919244,25.6433936 15.5223463,23.6684868 15.5223463,21.2322888 C15.5223463,18.7960908 17.6919244,16.8211841 20.3682645,16.8211841 C23.0446045,16.8211841 25.2141826,18.7960908 25.2141826,21.2322888 C25.2112751,23.6673841 23.043393,25.6406918 20.3682645,25.6433936 Z" id="Shape"></path>
                    <path d="M3.12320137,14.856756 C2.85558554,14.856756 2.63860956,15.0542632 2.63860956,15.2978664 L2.63860956,17.0623083 C2.63860956,17.3059116 2.85558554,17.5034188 3.12320137,17.5034188 C3.3908172,17.5034188 3.60779319,17.3059116 3.60779319,17.0623083 L3.60779319,15.2978664 C3.60779319,15.0542632 3.3908172,14.856756 3.12320137,14.856756 Z" id="Shape" stroke="#FFFFFF" stroke-width="0.5"></path>
                    <path d="M5.06156863,15.7389769 C4.7939528,15.7389769 4.57697682,15.9364841 4.57697682,16.1800874 L4.57697682,17.9445293 C4.57697682,18.1881325 4.7939528,18.3856398 5.06156863,18.3856398 C5.32918446,18.3856398 5.54616045,18.1881325 5.54616045,17.9445293 L5.54616045,16.1800874 C5.54616045,15.9364841 5.32918446,15.7389769 5.06156863,15.7389769 Z" id="Shape" stroke="#FFFFFF" stroke-width="0.5"></path>
                    <path d="M22.7365705,18.1064168 C22.5106901,17.9757379 22.2112124,18.036556 22.0676521,18.2421686 C21.9299069,18.4395104 21.9852109,18.7004272 22.1938277,18.8368958 C23.5258494,19.653281 23.8785717,21.2980165 22.981774,22.5104638 C22.0849157,23.7229662 20.2780545,24.0440947 18.9460933,23.2277094 C17.6140716,22.4113242 17.2612887,20.7665887 18.158147,19.5541414 C18.698164,18.8240484 19.6016249,18.3860809 20.5685067,18.3856398 C20.8361226,18.3856398 21.0530985,18.1881325 21.0530985,17.9445293 C21.0530985,17.700926 20.8361226,17.5034188 20.5685067,17.5034188 C18.4274589,17.5038048 16.6920751,19.0840279 16.6924991,21.0329643 C16.6929231,22.9819006 18.4289127,24.5615724 20.5699605,24.5611864 C22.7110083,24.5608004 24.4463921,22.9805773 24.4459681,21.0316409 C24.4457258,19.8585628 23.8050955,18.7622378 22.7365705,18.1064168 Z" id="Shape" stroke="#FFFFFF" stroke-width="0.5"></path>
                    <path d="M22.3530161,19.8382166 C22.1652368,19.6730758 21.8674551,19.6730758 21.6796758,19.8382166 L19.841619,21.5113486 L19.4573377,21.161548 C19.2648336,20.9922718 18.958087,20.9971241 18.7721249,21.1723552 C18.5907058,21.3432855 18.5907058,21.6143479 18.7721249,21.7852782 L19.4990126,22.4469439 C19.6882457,22.6191424 19.9949923,22.6191424 20.1842254,22.4469439 L22.3648886,20.4619468 C22.5508507,20.2867156 22.5455202,20.0074376 22.3530161,19.8382166 Z" id="Shape"></path>
                </g>
                <polygon id="Path-24" stroke="#D0021B" stroke-width="0.72" fill="#D0021B" points="5.22454777 9.18595231 7.83841248 10.5466545 7.83841248 13.6231023 5.22454777 12.1963707"></polygon>
                <polygon id="Path-13-Copy" stroke="#D0021B" stroke-width="0.72" fill="#D0021B" points="7.01084788 9.10031148 16.5721196 3.88933766 17.855357 4.59560389 8.238776 9.7744226"></polygon>
                <polygon id="Path-13" stroke="#8C051E" stroke-width="0.72" fill="#8C051E" points="5.79668421 8.47344608 15.3825189 3.16868278 16.9817851 4.03597769 7.42258751 9.29082253"></polygon>
            </g>
        </g>
    </g>
</svg>