<?xml version="1.0" encoding="UTF-8"?>
<svg width="24px" height="23px" viewBox="0 0 24 23" version="1.1" xmlns="http://www.w3.org/2000/svg" xmlns:xlink="http://www.w3.org/1999/xlink">
    <!-- Generator: Sketch 48 (47235) - http://www.bohemiancoding.com/sketch -->
    <title>Delivery black</title>
    <desc>Created with Sketch.</desc>
    <defs></defs>
    <g id="Last-Mile" stroke="none" stroke-width="1" fill="none" fill-rule="evenodd" transform="translate(-443.000000, -606.000000)">
        <g id="Delivery-black" transform="translate(444.000000, 606.000000)" fill="#000000" fill-rule="nonzero" stroke="#000000" stroke-width="0.03">
            <path d="M14.09375,9.28125 C13.9036563,9.28125 13.75,9.43490625 13.75,9.625 L13.75,15.46875 C13.75,15.6588437 13.9036563,15.8125 14.09375,15.8125 C14.2838437,15.8125 14.4375,15.6588437 14.4375,15.46875 L14.4375,9.625 C14.4375,9.43490625 14.2838437,9.28125 14.09375,9.28125 Z" id="Shape"></path>
            <path d="M21.65625,17.875 L20.6322187,17.875 C20.442125,17.875 20.2884687,18.0286563 20.2884687,18.21875 C20.2884687,18.4088437 20.442125,18.5625 20.6322187,18.5625 L21.65625,18.5625 C21.8463437,18.5625 22,18.4088437 22,18.21875 C22,18.0286563 21.8463437,17.875 21.65625,17.875 Z" id="Shape"></path>
            <path d="M21.65625,17.875 C21.4661563,17.875 21.3125,18.0286563 21.3125,18.21875 L21.3125,19.59375 C21.3125,19.7838437 21.4661563,19.9375 21.65625,19.9375 C21.8463437,19.9375 22,19.7838437 22,19.59375 L22,18.21875 C22,18.0286563 21.8463437,17.875 21.65625,17.875 Z" id="Shape"></path>
            <path d="M3.4375,19.25 C3.43715625,19.25 3.4368125,19.25 3.43646875,19.25 L1.03021875,19.2572187 C0.840125,19.2579063 0.6868125,19.4119063 0.6875,19.602 C0.6881875,19.79175 0.84184375,19.9447187 1.03125,19.9447187 C1.03159375,19.9447187 1.0319375,19.9447187 1.03228125,19.9447187 L3.43853125,19.9375 C3.628625,19.9368125 3.7819375,19.7828125 3.78125,19.5927187 C3.7805625,19.4029687 3.62690625,19.25 3.4375,19.25 Z" id="Shape"></path>
            <path d="M21.3125,16.15625 L20.96875,16.15625 C20.7786563,16.15625 20.625,16.3099063 20.625,16.5 C20.625,16.6900937 20.7786563,16.84375 20.96875,16.84375 L21.3125,16.84375 C21.5025937,16.84375 21.65625,16.6900937 21.65625,16.5 C21.65625,16.3099063 21.5025937,16.15625 21.3125,16.15625 Z" id="Shape"></path>
            <path d="M21.3125,13.75 C21.1224063,13.75 20.96875,13.9036563 20.96875,14.09375 L20.96875,18.21875 C20.96875,18.4088437 21.1224063,18.5625 21.3125,18.5625 C21.5025937,18.5625 21.65625,18.4088437 21.65625,18.21875 L21.65625,14.09375 C21.65625,13.9036563 21.5025937,13.75 21.3125,13.75 Z" id="Shape"></path>
            <path d="M19.25,9.28125 L14.09375,9.28125 C13.9036563,9.28125 13.75,9.43490625 13.75,9.625 C13.75,9.81509375 13.9036563,9.96875 14.09375,9.96875 L19.25,9.96875 C19.4400937,9.96875 19.59375,9.81509375 19.59375,9.625 C19.59375,9.43490625 19.4400937,9.28125 19.25,9.28125 Z" id="Shape"></path>
            <path d="M21.624625,13.9497188 L19.562125,9.48096875 C19.4827187,9.30840625 19.278875,9.23346875 19.1059687,9.312875 C18.9334062,9.39228125 18.8584687,9.5968125 18.937875,9.76903125 L21.000375,14.2377813 C21.0584687,14.3635938 21.1829062,14.4375 21.3128437,14.4375 C21.3609687,14.4375 21.4097812,14.4275313 21.4565312,14.405875 C21.6290937,14.3264688 21.7040312,14.1219375 21.624625,13.9497188 Z" id="Shape"></path>
            <path d="M1.03125,17.875 C0.84115625,17.875 0.6875,18.0286563 0.6875,18.21875 L0.6875,19.6154062 C0.6875,19.8055 0.84115625,19.9591562 1.03125,19.9591562 C1.22134375,19.9591562 1.375,19.8051562 1.375,19.6154062 L1.375,18.21875 C1.375,18.0286563 1.22134375,17.875 1.03125,17.875 Z" id="Shape"></path>
            <path d="M0.34375,13.40625 C0.15365625,13.40625 0,13.5599063 0,13.75 L0,18.21875 C0,18.4088437 0.15365625,18.5625 0.34375,18.5625 C0.53384375,18.5625 0.6875,18.4088437 0.6875,18.21875 L0.6875,13.75 C0.6875,13.5599063 0.53384375,13.40625 0.34375,13.40625 Z" id="Shape"></path>
            <path d="M14.09375,13.40625 L0.34375,13.40625 C0.15365625,13.40625 0,13.5599063 0,13.75 C0,13.9400937 0.15365625,14.09375 0.34375,14.09375 L14.09375,14.09375 C14.2838437,14.09375 14.4375,13.9400937 14.4375,13.75 C14.4375,13.5599063 14.2838437,13.40625 14.09375,13.40625 Z" id="Shape"></path>
            <path d="M2.0625,17.875 L0.34375,17.875 C0.15365625,17.875 0,18.0286563 0,18.21875 C0,18.4088437 0.15365625,18.5625 0.34375,18.5625 L2.0625,18.5625 C2.25259375,18.5625 2.40625,18.4088437 2.40625,18.21875 C2.40625,18.0286563 2.25259375,17.875 2.0625,17.875 Z" id="Shape"></path>
            <path d="M5.5,17.1875 C4.17346875,17.1875 3.09375,18.2672187 3.09375,19.59375 C3.09375,20.9202813 4.17346875,22 5.5,22 C6.82653125,22 7.90625,20.9202813 7.90625,19.59375 C7.90625,18.2672187 6.82653125,17.1875 5.5,17.1875 Z M5.5,21.3125 C4.55228125,21.3125 3.78125,20.5414687 3.78125,19.59375 C3.78125,18.6460313 4.55228125,17.875 5.5,17.875 C6.44771875,17.875 7.21875,18.6460313 7.21875,19.59375 C7.21875,20.5414687 6.44771875,21.3125 5.5,21.3125 Z" id="Shape"></path>
            <path d="M5.5,18.5625 C4.9314375,18.5625 4.46875,19.0251875 4.46875,19.59375 C4.46875,20.1623125 4.9314375,20.625 5.5,20.625 C6.0685625,20.625 6.53125,20.1623125 6.53125,19.59375 C6.53125,19.0251875 6.0685625,18.5625 5.5,18.5625 Z M5.5,19.9375 C5.31025,19.9375 5.15625,19.7835 5.15625,19.59375 C5.15625,19.404 5.31025,19.25 5.5,19.25 C5.68975,19.25 5.84375,19.404 5.84375,19.59375 C5.84375,19.7835 5.68975,19.9375 5.5,19.9375 Z" id="Shape"></path>
            <path d="M16.84375,18.5625 C16.2751875,18.5625 15.8125,19.0251875 15.8125,19.59375 C15.8125,20.1623125 16.2751875,20.625 16.84375,20.625 C17.4123125,20.625 17.875,20.1623125 17.875,19.59375 C17.875,19.0251875 17.4123125,18.5625 16.84375,18.5625 Z M16.84375,19.9375 C16.654,19.9375 16.5,19.7835 16.5,19.59375 C16.5,19.404 16.654,19.25 16.84375,19.25 C17.0335,19.25 17.1875,19.404 17.1875,19.59375 C17.1875,19.7835 17.0335,19.9375 16.84375,19.9375 Z" id="Shape"></path>
            <path d="M16.84375,17.1875 C15.5172187,17.1875 14.4375,18.2672187 14.4375,19.59375 C14.4375,20.9202813 15.5172187,22 16.84375,22 C18.1702813,22 19.25,20.9202813 19.25,19.59375 C19.25,18.2672187 18.1702813,17.1875 16.84375,17.1875 Z M16.84375,21.3125 C15.8960313,21.3125 15.125,20.5414687 15.125,19.59375 C15.125,18.6460313 15.8960313,17.875 16.84375,17.875 C17.7914687,17.875 18.5625,18.6460313 18.5625,19.59375 C18.5625,20.5414687 17.7914687,21.3125 16.84375,21.3125 Z" id="Shape"></path>
            <path d="M14.7898438,19.25 L7.5625,19.25 C7.37240625,19.25 7.21875,19.4036563 7.21875,19.59375 C7.21875,19.7838437 7.37240625,19.9375 7.5625,19.9375 L14.7898438,19.9375 C14.9799375,19.9375 15.1335938,19.7838437 15.1335938,19.59375 C15.1335938,19.4036563 14.9799375,19.25 14.7898438,19.25 Z" id="Shape"></path>
            <path d="M21.65625,19.25 L18.90625,19.25 C18.7161563,19.25 18.5625,19.4036563 18.5625,19.59375 C18.5625,19.7838437 18.7161563,19.9375 18.90625,19.9375 L21.65625,19.9375 C21.8463437,19.9375 22,19.7838437 22,19.59375 C22,19.4036563 21.8463437,19.25 21.65625,19.25 Z" id="Shape"></path>
            <path d="M21.3125,13.75 L17.1875,13.75 C16.9974063,13.75 16.84375,13.9036563 16.84375,14.09375 C16.84375,14.2838437 16.9974063,14.4375 17.1875,14.4375 L21.3125,14.4375 C21.5025937,14.4375 21.65625,14.2838437 21.65625,14.09375 C21.65625,13.9036563 21.5025937,13.75 21.3125,13.75 Z" id="Shape"></path>
            <path d="M17.1875,13.75 C16.6189375,13.75 16.15625,13.2873125 16.15625,12.71875 C16.15625,12.5286563 16.0025937,12.375 15.8125,12.375 C15.6224063,12.375 15.46875,12.5286563 15.46875,12.71875 C15.46875,13.6664687 16.2397813,14.4375 17.1875,14.4375 C17.3775937,14.4375 17.53125,14.2838437 17.53125,14.09375 C17.53125,13.9036563 17.3775937,13.75 17.1875,13.75 Z" id="Shape"></path>
            <path d="M15.8125,9.28125 C15.6224063,9.28125 15.46875,9.43490625 15.46875,9.625 L15.46875,12.71875 C15.46875,12.9088437 15.6224063,13.0625 15.8125,13.0625 C16.0025937,13.0625 16.15625,12.9088437 16.15625,12.71875 L16.15625,9.625 C16.15625,9.43490625 16.0025937,9.28125 15.8125,9.28125 Z" id="Shape"></path>
            <path d="M1.71875,5.79459375 C1.52865625,5.79459375 1.375,5.94825 1.375,6.13834375 L1.375,13.75 C1.375,13.9400937 1.52865625,14.09375 1.71875,14.09375 C1.90884375,14.09375 2.0625,13.9400937 2.0625,13.75 L2.0625,6.13834375 C2.0625,5.94825 1.90884375,5.79459375 1.71875,5.79459375 Z" id="Shape"></path>
            <path d="M14.09375,5.79459375 C13.9036563,5.79459375 13.75,5.94825 13.75,6.13834375 L13.75,13.75 C13.75,13.9400937 13.9036563,14.09375 14.09375,14.09375 C14.2838437,14.09375 14.4375,13.9400937 14.4375,13.75 L14.4375,6.13834375 C14.4375,5.94825 14.2838437,5.79459375 14.09375,5.79459375 Z" id="Shape"></path>
            <path d="M15.125,5.15625 C14.9349063,5.15625 14.78125,5.30990625 14.78125,5.5 L14.78125,6.875 C14.78125,7.06509375 14.9349063,7.21875 15.125,7.21875 C15.3150937,7.21875 15.46875,7.06509375 15.46875,6.875 L15.46875,5.5 C15.46875,5.30990625 15.3150937,5.15625 15.125,5.15625 Z" id="Shape"></path>
            <path d="M0.6875,5.15625 C0.49740625,5.15625 0.34375,5.30990625 0.34375,5.5 L0.34375,6.875 C0.34375,7.06509375 0.49740625,7.21875 0.6875,7.21875 C0.87759375,7.21875 1.03125,7.06509375 1.03125,6.875 L1.03125,5.5 C1.03125,5.30990625 0.87759375,5.15625 0.6875,5.15625 Z" id="Shape"></path>
            <path d="M8.9375,9.28125 C8.74740625,9.28125 8.59375,9.43490625 8.59375,9.625 L8.59375,13.75 C8.59375,13.9400937 8.74740625,14.09375 8.9375,14.09375 C9.12759375,14.09375 9.28125,13.9400937 9.28125,13.75 L9.28125,9.625 C9.28125,9.43490625 9.12759375,9.28125 8.9375,9.28125 Z" id="Shape"></path>
            <path d="M15.324375,6.5951875 L8.105625,1.4389375 C7.986,1.3536875 7.8258125,1.3536875 7.7061875,1.4389375 L0.4874375,6.5951875 C0.33309375,6.70553125 0.297,6.920375 0.4076875,7.07471875 C0.518375,7.2290625 0.73321875,7.2648125 0.88721875,7.15446875 L7.90625,2.14121875 L14.9252813,7.15446875 C14.9857813,7.19778125 15.0555625,7.21875 15.1246563,7.21875 C15.23225,7.21875 15.3374375,7.1685625 15.404125,7.07471875 C15.5148125,6.92003125 15.4787188,6.7051875 15.324375,6.5951875 Z" id="Shape"></path>
            <path d="M15.324375,5.2201875 L8.105625,0.0639375 C7.986,-0.0213125 7.8258125,-0.0213125 7.7061875,0.0639375 L0.4874375,5.2201875 C0.33309375,5.33053125 0.297,5.545375 0.4076875,5.69971875 C0.518375,5.8540625 0.73321875,5.89015625 0.88721875,5.77946875 L7.90625,0.76621875 L14.9252813,5.77946875 C14.9857813,5.82278125 15.0555625,5.84375 15.1246563,5.84375 C15.23225,5.84375 15.3374375,5.7935625 15.404125,5.69971875 C15.5148125,5.54503125 15.4787188,5.3301875 15.324375,5.2201875 Z" id="Shape"></path>
            <path d="M6.875,9.28125 C6.68490625,9.28125 6.53125,9.43490625 6.53125,9.625 L6.53125,13.75 C6.53125,13.9400937 6.68490625,14.09375 6.875,14.09375 C7.06509375,14.09375 7.21875,13.9400937 7.21875,13.75 L7.21875,9.625 C7.21875,9.43490625 7.06509375,9.28125 6.875,9.28125 Z" id="Shape"></path>
            <path d="M8.9375,9.28125 L6.875,9.28125 C6.68490625,9.28125 6.53125,9.43490625 6.53125,9.625 C6.53125,9.81509375 6.68490625,9.96875 6.875,9.96875 L8.9375,9.96875 C9.12759375,9.96875 9.28125,9.81509375 9.28125,9.625 C9.28125,9.43490625 9.12759375,9.28125 8.9375,9.28125 Z" id="Shape"></path>
            <path d="M5.5,7.5625 L3.09375,7.5625 C2.90365625,7.5625 2.75,7.71615625 2.75,7.90625 L2.75,10.3125 C2.75,10.5025938 2.90365625,10.65625 3.09375,10.65625 L5.5,10.65625 C5.69009375,10.65625 5.84375,10.5025938 5.84375,10.3125 L5.84375,7.90625 C5.84375,7.71615625 5.69009375,7.5625 5.5,7.5625 Z M5.15625,9.96875 L3.4375,9.96875 L3.4375,8.25 L5.15625,8.25 L5.15625,9.96875 Z" id="Shape"></path>
            <path d="M12.71875,7.5625 L10.3125,7.5625 C10.1224062,7.5625 9.96875,7.71615625 9.96875,7.90625 L9.96875,10.3125 C9.96875,10.5025938 10.1224062,10.65625 10.3125,10.65625 L12.71875,10.65625 C12.9088437,10.65625 13.0625,10.5025938 13.0625,10.3125 L13.0625,7.90625 C13.0625,7.71615625 12.9088437,7.5625 12.71875,7.5625 Z M12.375,9.96875 L10.65625,9.96875 L10.65625,8.25 L12.375,8.25 L12.375,9.96875 Z" id="Shape"></path>
            <path d="M7.90625,4.46875 C7.1479375,4.46875 6.53125,5.0854375 6.53125,5.84375 C6.53125,6.6020625 7.1479375,7.21875 7.90625,7.21875 C8.6645625,7.21875 9.28125,6.6020625 9.28125,5.84375 C9.28125,5.0854375 8.6645625,4.46875 7.90625,4.46875 Z M7.90625,6.53125 C7.52709375,6.53125 7.21875,6.22290625 7.21875,5.84375 C7.21875,5.46459375 7.52709375,5.15625 7.90625,5.15625 C8.28540625,5.15625 8.59375,5.46459375 8.59375,5.84375 C8.59375,6.22290625 8.28540625,6.53125 7.90625,6.53125 Z" id="Shape"></path>
        </g>
    </g>
</svg>