<?xml version="1.0" encoding="UTF-8"?>
<svg width="22px" height="23px" viewBox="0 0 22 23" version="1.1" xmlns="http://www.w3.org/2000/svg" xmlns:xlink="http://www.w3.org/1999/xlink">
    <!-- Generator: Sketch 48 (47235) - http://www.bohemiancoding.com/sketch -->
    <title>Final Estimate black</title>
    <desc>Created with Sketch.</desc>
    <defs></defs>
    <g id="Finalise-Design" stroke="none" stroke-width="1" fill="none" fill-rule="evenodd" transform="translate(-470.000000, -598.000000)">
        <g id="Final-Estimate-black" transform="translate(471.000000, 599.000000)" fill="#000000" fill-rule="nonzero">
            <path d="M20.8696687,2.13815 L18.8897187,0.1582 C18.7530437,0.02156875 18.5314937,0.02156875 18.3948187,0.1582 L15.4278687,3.12515 L15.4278687,0.35 C15.4278687,0.1567125 15.2711562,0 15.0778687,0 L1.77786875,0 C1.58458125,0 1.42786875,0.1567125 1.42786875,0.35 L1.42786875,1.4 L0.37786875,1.4 C0.18458125,1.4 0.02786875,1.5567125 0.02786875,1.75 L0.02786875,20.65 C0.02786875,20.8432875 0.18458125,21 0.37786875,21 L13.6778687,21 C13.8711562,21 14.0278687,20.8432875 14.0278687,20.65 L14.0278687,19.6 L15.0778687,19.6 C15.2711562,19.6 15.4278687,19.4432875 15.4278687,19.25 L15.4278687,8.07485 L19.5869187,3.9158 C19.7823062,4.3154125 19.7008875,4.79513125 19.3846187,5.1079 L16.9097687,7.5831 L17.4046687,8.078 L19.8795187,5.6028 C20.4673,5.0148875 20.5603125,4.09460625 20.1021187,3.40095 L20.8696687,2.63305 C21.0063,2.496375 21.0063,2.274825 20.8696687,2.13815 Z M2.12786875,0.7 L14.7278687,0.7 L14.7278687,3.82515 L14.0278687,4.52515 L14.0278687,1.75 C14.0278687,1.5567125 13.8711562,1.4 13.6778687,1.4 L2.12786875,1.4 L2.12786875,0.7 Z M13.3278687,20.3 L0.72786875,20.3 L0.72786875,2.1 L13.3278687,2.1 L13.3278687,5.22515 L11.9600687,6.59295 L11.9278687,6.62515 L11.9278687,5.95 L10.8778687,5.95 L10.8778687,6.65 L11.9030187,6.65 L5.52531875,13.0277 C5.47658125,13.0764812 5.44333125,13.1385625 5.42976875,13.2062 L4.93486875,15.68 C4.89619375,15.8693937 5.0183875,16.0542812 5.20778125,16.0929125 C5.2308375,16.0976375 5.25433125,16.1 5.27786875,16.1 C5.30140625,16.100175 5.32485625,16.0978562 5.34786875,16.093 L7.82306875,15.5981 C7.89075,15.5847562 7.95291875,15.5515062 8.00156875,15.50255 L13.3278687,10.17485 L13.3278687,20.3 Z M7.58016875,14.93275 L5.72516875,15.30375 L6.09651875,13.44875 L12.2078687,7.3353 L13.6925687,8.82 L7.58016875,14.93275 Z M14.7278687,18.9 L14.0278687,18.9 L14.0278687,9.47485 L14.4349187,9.0678 L14.7278687,8.77485 L14.7278687,18.9 Z M14.1874687,8.32545 L12.7024187,6.8404 L18.6422687,0.90055 L20.1273187,2.3856 L14.1874687,8.32545 Z" id="Shape" stroke="#000000" stroke-width="0.1"></path>
            <rect id="Rectangle-path" x="3.52786875" y="3.15" width="7" height="1"></rect>
            <rect id="Rectangle-path" x="3.52786875" y="5.95" width="2.1" height="1"></rect>
            <rect id="Rectangle-path" x="6.32786875" y="5.95" width="3.85" height="1"></rect>
            <rect id="Rectangle-path" x="2.12786875" y="7.35" width="2.8" height="1"></rect>
            <rect id="Rectangle-path" x="5.62786875" y="7.35" width="3.5" height="1"></rect>
            <rect id="Rectangle-path" x="2.12786875" y="8.75" width="5.95" height="1"></rect>
            <rect id="Rectangle-path" x="2.12786875" y="10.15" width="2.1" height="1"></rect>
            <rect id="Rectangle-path" x="4.92786875" y="10.15" width="2.1" height="1"></rect>
            <rect id="Rectangle-path" x="2.12786875" y="11.55" width="3.5" height="1"></rect>
            <rect id="Rectangle-path" x="9.47786875" y="14.35" width="2.45" height="1"></rect>
            <rect id="Rectangle-path" x="2.12786875" y="14.35" width="1.75" height="1"></rect>
            <rect id="Rectangle-path" x="2.12786875" y="15.75" width="2.1" height="1"></rect>
            <rect id="Rectangle-path" x="10.8778688" y="12.95" width="1.05" height="1"></rect>
        </g>
    </g>
</svg>