<?xml version="1.0" encoding="UTF-8"?>
<svg width="21px" height="23px" viewBox="0 0 21 23" version="1.1" xmlns="http://www.w3.org/2000/svg" xmlns:xlink="http://www.w3.org/1999/xlink">
    <!-- Generator: Sketch 48 (47235) - http://www.bohemiancoding.com/sketch -->
    <title>Finalise design red</title>
    <desc>Created with Sketch.</desc>
    <defs></defs>
    <g id="Client-Profile-Edit" stroke="none" stroke-width="1" fill="none" fill-rule="evenodd" transform="translate(-659.000000, -231.000000)">
        <g id="Finalise-Design-Circle" transform="translate(618.000000, 218.000000)">
            <g id="Finalise-design-red" transform="translate(41.000000, 13.000000)">
                <path d="M4.41100673,4.79456775 C4.25607575,4.79456775 3.98131062,4.84821861 3.89783908,4.91074071 C3.6846622,5.07041509 3.6056417,5.23506338 3.57547283,5.40714025 C3.47010338,6.00814532 4.40248201,6.43709448 4.97447567,5.93766424 C5.10511962,5.82359385 5.03413533,5.91506767 5.16794022,5.59269798" id="Path-6" stroke="#D0021B" stroke-width="0.8" stroke-linecap="round"></path>
                <path d="M4.41100673,9.02638593 C4.25607575,9.02638593 3.98131062,9.08003679 3.89783908,9.14255889 C3.6846622,9.30223327 3.6056417,9.46688156 3.57547283,9.63895843 C3.47010338,10.2399635 4.40248201,10.6689127 4.97447567,10.1694824 C5.10511962,10.055412 5.03413533,10.1468859 5.16794022,9.82451616" id="Path-6" stroke="#D0021B" stroke-width="0.8" stroke-linecap="round"></path>
                <path d="M0.91637436,1.69383483 C0.922571574,1.5741605 0.935644243,1.49197504 0.955592367,1.44727845 C0.975540492,1.40258186 1.02602047,1.35950362 1.10703232,1.31804373 L1.64759051,1.31804373 L1.64759051,18.0679145 L1.10703232,18.0679145 C1.03047119,18.0579595 0.979991207,18.0267996 0.955592367,17.9744348 C0.931193528,17.92207 0.918120858,17.8370972 0.91637436,17.7195165 L0.91637436,1.69383483 Z" id="Path-3" stroke="#8C051E" stroke-width="0.8" fill="#8C051E"></path>
                <path d="M10.5321965,10.0936207 L7.45275192,10.0936207 C7.22500122,10.0936207 7.04031069,10.2542622 7.04031069,10.4524569 C7.04031069,10.6506515 7.22494978,10.811293 7.45275192,10.811293 L10.5321965,10.811293 C10.7599472,10.811293 10.9446378,10.6506515 10.9446378,10.4524569 C10.9446378,10.2542622 10.7599987,10.0936207 10.5321965,10.0936207 Z" id="Shape" fill="#000000" fill-rule="nonzero"></path>
                <path d="M10.5321965,8.5626253 L7.45275192,8.5626253 C7.22500122,8.5626253 7.04031069,8.72326681 7.04031069,8.92146145 C7.04031069,9.11965609 7.22494978,9.2802976 7.45275192,9.2802976 L10.5321965,9.2802976 C10.7599472,9.2802976 10.9446378,9.11965609 10.9446378,8.92146145 C10.9446378,8.72326681 10.7599987,8.5626253 10.5321965,8.5626253 Z" id="Shape" fill="#000000" fill-rule="nonzero"></path>
                <path d="M9.65236992,14.3037798 L7.45275192,14.3037798 C7.22500122,14.3037798 7.04031069,14.4644213 7.04031069,14.662616 C7.04031069,14.8608106 7.22494978,15.0214521 7.45275192,15.0214521 L9.65236992,15.0214521 C9.88012062,15.0214521 10.0648112,14.8608106 10.0648112,14.662616 C10.0648112,14.4644213 9.88012062,14.3037798 9.65236992,14.3037798 Z" id="Shape" fill="#000000" fill-rule="nonzero"></path>
                <path d="M10.5321965,12.7728292 L7.45275192,12.7728292 C7.22500122,12.7728292 7.04031069,12.9334707 7.04031069,13.1316653 C7.04031069,13.32986 7.22494978,13.4905015 7.45275192,13.4905015 L10.5321965,13.4905015 C10.7599472,13.4905015 10.9446378,13.32986 10.9446378,13.1316653 C10.9446378,12.9334707 10.7599987,12.7728292 10.5321965,12.7728292 Z" id="Shape" fill="#000000" fill-rule="nonzero"></path>
                <path d="M14.4915192,5.88341687 L7.45275192,5.88341687 C7.22500122,5.88341687 7.04031069,6.04405837 7.04031069,6.24225301 C7.04031069,6.44044766 7.22494978,6.60108916 7.45275192,6.60108916 L14.4914678,6.60108916 C14.7192185,6.60108916 14.903909,6.44044766 14.903909,6.24225301 C14.903909,6.04405837 14.7192699,5.88341687 14.4915192,5.88341687 Z" id="Shape" fill="#000000" fill-rule="nonzero"></path>
                <path d="M12.7318145,4.35242144 L7.45275192,4.35242144 C7.22500122,4.35242144 7.04031069,4.51306294 7.04031069,4.71125758 C7.04031069,4.90945223 7.22494978,5.07009373 7.45275192,5.07009373 L12.7318145,5.07009373 C12.9595652,5.07009373 13.1442558,4.90945223 13.1442558,4.71125758 C13.1442558,4.51306294 12.9596167,4.35242144 12.7318145,4.35242144 Z" id="Shape" fill="#000000" fill-rule="nonzero"></path>
                <path d="M19.2269945,14.8606889 C18.8780241,14.8265767 18.5292409,14.9235417 18.2531932,15.1289954 C18.033301,14.7673051 17.6583369,14.510706 17.2245007,14.4681002 C16.8754366,14.4340339 16.5267003,14.5309989 16.2506993,14.7364067 C16.0308072,14.3747163 15.6558431,14.1181173 15.2220069,14.0755115 C14.9555135,14.0494338 14.6893949,14.0997527 14.4555458,14.2164137 L14.4555458,10.4476858 C14.4555458,10.0671258 14.2904042,9.70231353 14.0023197,9.44681636 C13.7145163,9.19154875 13.3266724,9.0669451 12.9381729,9.10505159 C12.245056,9.17309235 11.7021402,9.78743334 11.7021402,10.5036977 L11.7021402,14.2842708 L10.5984175,15.3662198 C10.0118979,15.9411688 9.77514503,16.7569233 9.96515619,17.5484365 L10.8030881,20.2357497 C11.1425978,21.6503271 12.4150685,22.6382495 13.8975021,22.6382495 L17.2840285,22.6382495 C19.0368897,22.6382495 20.4629804,21.3551458 20.4629804,19.6368183 L20.4629804,16.2594269 C20.4630273,15.5430707 19.9201114,14.9287297 19.2269945,14.8606889 Z M17.2840753,21.9020136 L13.897549,21.9020136 C12.7653035,21.9020136 11.7933755,21.262267 11.534048,20.181833 L10.6961161,17.379712 C10.566101,16.8381865 10.7281047,16.2799952 11.1293903,15.886626 L11.7021402,15.325175 L11.7021402,16.5959119 C11.7021402,16.7991618 11.8702324,16.9639839 12.0776195,16.9639839 C12.2850066,16.9639839 12.4530988,16.7992077 12.4530988,16.5959119 L12.4530988,10.5036518 C12.4530988,10.1609229 12.6990314,9.86828339 13.0130627,9.83752273 C13.1934258,9.819755 13.3659205,9.87494055 13.4985583,9.99265749 C13.6295569,10.1088593 13.7046809,10.2747374 13.7046809,10.4477317 L13.7046809,16.0070976 C13.7046809,16.2103476 13.8727731,16.3751697 14.0801602,16.3751697 C14.2875473,16.3751697 14.4556395,16.2103935 14.4556395,16.0070976 L14.4556395,15.4181916 C14.4556395,15.2451973 14.5307166,15.0793192 14.661762,14.9631174 C14.7944935,14.8454004 14.9668945,14.790169 15.1472576,14.8079826 C15.4612421,14.8387892 15.7072215,15.1314287 15.7072215,15.4741576 L15.7072215,16.3995945 C15.7072215,16.6028445 15.8753137,16.7676666 16.0827008,16.7676666 C16.2900411,16.7676666 16.4581801,16.6028904 16.4581801,16.3995945 L16.4581801,15.8106885 C16.4581801,15.6376942 16.5332572,15.4718161 16.6643027,15.3556143 C16.7970341,15.2378973 16.969482,15.1827118 17.1497983,15.2004795 C17.4637827,15.2312861 17.7097622,15.5239256 17.7097622,15.8666545 L17.7097622,16.7921374 C17.7097622,16.9953873 17.8778544,17.1602094 18.0852415,17.1602094 C18.2925817,17.1602094 18.4607208,16.9954332 18.4607208,16.7921374 L18.4607208,16.2032313 C18.4607208,16.030237 18.5357979,15.864359 18.6668433,15.7481571 C18.7995748,15.6304861 18.9718822,15.5752087 19.1523389,15.5930682 C19.4663234,15.6238289 19.7123028,15.9164684 19.7123028,16.2591974 L19.7123028,19.6367265 C19.7120686,20.949105 18.6228649,21.9020136 17.2840753,21.9020136 Z" id="Shape" fill="#000000" fill-rule="nonzero"></path>
                <path d="M5.69309868,5.11794153 C5.46534798,5.11794153 5.28065744,5.27858304 5.28065744,5.47677768 C5.28065744,5.91206289 4.87361802,6.2661993 4.3733073,6.2661993 C3.87299658,6.2661993 3.46595716,5.91206289 3.46595716,5.47677768 C3.46595716,5.04149247 3.87299658,4.68735606 4.3733073,4.68735606 C4.601058,4.68735606 4.78574854,4.52671456 4.78574854,4.32851992 C4.78574854,4.13032527 4.60110945,3.96968377 4.3733073,3.96968377 C3.41816398,3.96968377 2.64112613,4.64577458 2.64112613,5.47673292 C2.64112613,6.30769126 3.41821543,6.98378207 4.3733073,6.98378207 C5.32839917,6.98378207 6.10548847,6.30769126 6.10548847,5.47673292 C6.10553992,5.27858304 5.92084938,5.11794153 5.69309868,5.11794153 Z" id="Shape" fill="#000000" fill-rule="nonzero"></path>
                <path d="M5.69309868,9.32810064 C5.46534798,9.32810064 5.28065744,9.48874214 5.28065744,9.68693679 C5.28065744,10.122222 4.87361802,10.4763584 4.3733073,10.4763584 C3.87299658,10.4763584 3.46595716,10.122222 3.46595716,9.68693679 C3.46595716,9.25165158 3.87299658,8.89751517 4.3733073,8.89751517 C4.601058,8.89751517 4.78574854,8.73687367 4.78574854,8.53867902 C4.78574854,8.34048438 4.60110945,8.17984288 4.3733073,8.17984288 C3.41816398,8.17984288 2.64112613,8.85593368 2.64112613,9.68689203 C2.64112613,10.5178504 3.41821543,11.1939412 4.3733073,11.1939412 C5.32839917,11.1939412 6.10548847,10.5178504 6.10548847,9.68689203 C6.10553992,9.4887869 5.92084938,9.32810064 5.69309868,9.32810064 Z" id="Shape" fill="#000000" fill-rule="nonzero"></path>
                <path d="M4.24357905,10.1609996 C4.2836105,10.1609996 4.32116572,10.2023957 4.38137851,10.2006077 C4.50713174,10.1968735 4.66975122,10.1418737 4.72553784,10.0896573 C4.77462507,10.0437116 4.92113789,9.99304066 4.92113789,9.865625 C4.92113789,9.78110881 4.94613671,9.67376199 4.92113789,9.605356 C4.8559641,9.42701648 4.67659426,9.33103287 4.53052019,9.25651811 C4.46685587,9.22404191 4.4582856,9.22460982 4.38137851,9.22460982 C4.32437336,9.22460982 4.23931773,9.23926844 4.17854313,9.25651811 C4.13916649,9.26769439 4.10339276,9.29208265 4.06898291,9.30376065 C3.89066317,9.36427875 3.77643404,9.54144951 3.77643404,9.70154194 C3.77643404,9.9475597 3.9902131,10.1609996 4.24357905,10.1609996 Z" id="Oval" stroke="#D0021B" stroke-width="0.8" fill="#D0021B"></path>
                <path d="M4.24357905,5.92918146 C4.2836105,5.92918146 4.32116572,5.97057749 4.38137851,5.96878951 C4.50713174,5.96505534 4.66975122,5.91005548 4.72553784,5.85783913 C4.77462507,5.81189341 4.92113789,5.76122248 4.92113789,5.63380682 C4.92113789,5.54929063 4.94613671,5.4419438 4.92113789,5.37353782 C4.8559641,5.1951983 4.67659426,5.09921469 4.53052019,5.02469993 C4.46685587,4.99222373 4.4582856,4.99279164 4.38137851,4.99279164 C4.32437336,4.99279164 4.23931773,5.00745026 4.17854313,5.02469993 C4.13916649,5.03587621 4.10339276,5.06026447 4.06898291,5.07194247 C3.89066317,5.13246057 3.77643404,5.30963132 3.77643404,5.46972376 C3.77643404,5.71574151 3.9902131,5.92918146 4.24357905,5.92918146 Z" id="Oval" stroke="#D0021B" stroke-width="0.8" fill="#D0021B"></path>
                <path d="M5.69309868,13.5383045 C5.46534798,13.5383045 5.28065744,13.698946 5.28065744,13.8971407 C5.28065744,14.3324259 4.87361802,14.6865623 4.3733073,14.6865623 C3.87299658,14.6865623 3.46595716,14.3324259 3.46595716,13.8971407 C3.46595716,13.4618554 3.87299658,13.107719 4.3733073,13.107719 C4.601058,13.107719 4.78574854,12.9470775 4.78574854,12.7488829 C4.78574854,12.5506882 4.60110945,12.3900467 4.3733073,12.3900467 C3.41816398,12.3900467 2.64112613,13.0661375 2.64112613,13.8970959 C2.64112613,14.7280542 3.41821543,15.404145 4.3733073,15.404145 C5.32839917,15.404145 6.10548847,14.7280542 6.10548847,13.8970959 C6.10553992,13.698946 5.92084938,13.5383045 5.69309868,13.5383045 Z" id="Shape" fill="#000000" fill-rule="nonzero"></path>
                <path d="M4.24357905,14.3928178 C4.2836105,14.3928178 4.32116572,14.4342139 4.38137851,14.4324259 C4.50713174,14.4286917 4.66975122,14.3736918 4.72553784,14.3214755 C4.77462507,14.2755298 4.92113789,14.2248588 4.92113789,14.0974432 C4.92113789,14.012927 4.94613671,13.9055802 4.92113789,13.8371742 C4.8559641,13.6588347 4.67659426,13.562851 4.53052019,13.4883363 C4.46685587,13.4558601 4.43124835,13.3989442 4.35434126,13.3989442 C4.29733611,13.3989442 4.19333321,13.3816946 4.13255861,13.3989442 C4.09318197,13.4101205 4.03449611,13.4766583 4.00008626,13.4883363 C3.82176651,13.5488544 3.77643404,13.7732677 3.77643404,13.9333601 C3.77643404,14.1793779 3.9902131,14.3928178 4.24357905,14.3928178 Z" id="Oval" stroke="#D0021B" stroke-width="0.8" fill="#D0021B"></path>
                <path d="M16.2511725,0.525 L1.29386268,0.525 C0.581337903,0.525 0.0015948208,1.02934897 0.0015948208,1.64931148 L0.0015948208,17.7245621 C0.0015948208,18.3445246 0.581286458,18.8488736 1.29386268,18.8488736 L8.7725433,18.8488736 C9.000294,18.8488736 9.18498454,18.6882321 9.18498454,18.4900374 C9.18498454,18.2918875 9.00034544,18.1312013 8.7725433,18.1312013 L1.29386268,18.1312013 C1.03611906,18.1312013 0.826425848,17.9487619 0.826425848,17.7245173 L0.826425848,1.64931148 C0.826425848,1.42506687 1.03611906,1.24262753 1.29386268,1.24262753 L16.2511725,1.24262753 C16.5089161,1.24262753 16.7186093,1.42506687 16.7186093,1.64931148 L16.7186093,13.5144477 C16.7186093,13.7125976 16.9032484,13.8732839 17.1310505,13.8732839 C17.3588012,13.8732839 17.5434918,13.7126424 17.5434918,13.5144477 L17.5434918,1.64931148 C17.5434403,1.02934897 16.9637487,0.525 16.2511725,0.525 Z" id="Shape" fill="#000000" fill-rule="nonzero"></path>
                <path d="M4.41180511,13.1814371 C4.25687412,13.1814371 3.95118882,13.2865628 3.86771728,13.3490849 C3.6545404,13.5087593 3.6056417,13.6986997 3.57547283,13.8707766 C3.47010338,14.4717817 4.40248201,14.9007308 4.97447567,14.4013006 C5.10511962,14.2872302 5.03413533,14.378704 5.16794022,14.0563343" id="Path-6" stroke="#D0021B" stroke-width="0.8" stroke-linecap="round"></path>
            </g>
        </g>
    </g>
</svg>