<?xml version="1.0" encoding="UTF-8"?>
<svg width="60px" height="61px" viewBox="0 0 60 61" version="1.1" xmlns="http://www.w3.org/2000/svg" xmlns:xlink="http://www.w3.org/1999/xlink">
    <!-- Generator: Sketch 48 (47235) - http://www.bohemiancoding.com/sketch -->
    <title>designer</title>
    <desc>Created with Sketch.</desc>
    <defs></defs>
    <g id="Client-Status-View" stroke="none" stroke-width="1" fill="none" fill-rule="evenodd" transform="translate(-1091.000000, -847.000000)">
        <g id="Footer" transform="translate(0.000000, 812.000000)" fill="#FFFFFF">
            <g id="bottom-icons" transform="translate(83.000000, 27.500000)">
                <g id="management" transform="translate(1008.000000, 8.000000)">
                    <g>
                        <path d="M22.2864516,37.3133065 L23.7660215,36.5125 C24.3690323,36.1860887 24.5756989,35.4631048 24.2275269,34.8975806 L21.424086,30.3453629 C21.1905376,29.966129 20.7666667,29.7540323 20.3309677,29.7540323 C20.1169892,29.7540323 19.9002151,29.8050403 19.7017204,29.9127016 L18.2221505,30.7135081 C18.0189247,30.8233871 17.8034409,30.8735887 17.5935484,30.8735887 C16.9348387,30.8735887 16.3307527,30.3798387 16.3307527,29.6897177 L16.3307527,28.0881048 C16.3307527,27.4352823 15.7662366,26.9058468 15.0696774,26.9058468 L9.46258065,26.9058468 C8.76623656,26.9058468 8.20150538,27.4350806 8.20150538,28.0881048 L8.20150538,29.6897177 C8.20150538,30.3798387 7.5972043,30.8735887 6.93870968,30.8735887 C6.7288172,30.8735887 6.51333333,30.8233871 6.31010753,30.7135081 L4.83053763,29.9127016 C4.63204301,29.8052419 4.41505376,29.7542339 4.20129032,29.7540323 C3.76537634,29.7540323 3.34172043,29.966129 3.10817204,30.3453629 L0.304731183,34.8975806 C-0.0434408602,35.4631048 0.163225806,36.1860887 0.766236559,36.5125 L2.24580645,37.3133065 C3.08645161,37.7683468 3.08645161,38.9058468 2.24580645,39.3608871 L0.766236559,40.1616935 C0.163010753,40.4881048 -0.0434408602,41.2110887 0.304731183,41.7766129 L3.10817204,46.3288306 C3.34172043,46.7080645 3.7655914,46.9201613 4.20129032,46.9201613 C4.41526882,46.9201613 4.63204301,46.8689516 4.83053763,46.7614919 L6.31010753,45.9606855 C6.51333333,45.8508065 6.7288172,45.8006048 6.93870968,45.8006048 C7.59741935,45.8006048 8.20150538,46.2943548 8.20150538,46.9844758 L8.20150538,48.5860887 C8.20150538,49.2389113 8.76602151,49.7683468 9.46258065,49.7683468 L15.0694624,49.7683468 C15.7658065,49.7683468 16.3305376,49.2391129 16.3305376,48.5860887 L16.3305376,46.9844758 C16.3305376,46.2943548 16.9348387,45.8006048 17.5933333,45.8006048 C17.8032258,45.8006048 18.0187097,45.8508065 18.2219355,45.9606855 L19.7015054,46.7614919 C19.9,46.8689516 20.1169892,46.9201613 20.3307527,46.9201613 C20.7666667,46.9201613 21.1903226,46.7080645 21.423871,46.3288306 L24.2273118,41.7766129 C24.5754839,41.2110887 24.3688172,40.4881048 23.7658065,40.1616935 L22.2862366,39.3608871 C21.4458065,38.9058468 21.4458065,37.7681452 22.2864516,37.3133065 Z M12.2662366,41.8443548 C10.2,41.8443548 8.52516129,40.2739919 8.52516129,38.3370968 C8.52516129,36.4 10.2002151,34.8298387 12.2662366,34.8298387 C14.3322581,34.8298387 16.0073118,36.4002016 16.0073118,38.3370968 C16.0073118,40.2739919 14.3322581,41.8443548 12.2662366,41.8443548 Z" id="Shape" fill-rule="nonzero"></path>
                        <path d="M21.3137634,4.76995968 C20.6372043,4.13608871 19.5410753,4.13608871 18.8645161,4.76995968 C18.188172,5.40423387 18.188172,6.43205645 18.8645161,7.06612903 L21.9591398,9.9671371 C10.5851613,10.4951613 1.37827957,18.8707661 0.381935484,29.4239919 L0.637849462,29.0082661 C1.37032258,27.81875 2.73591398,27.0798387 4.20129032,27.0800403 C4.23225806,27.0800403 4.26301075,27.0826613 4.29397849,27.0834677 C6.24537634,19.4784274 13.3187097,13.7264113 21.8886022,13.2268145 L18.8645161,16.0616935 C18.188172,16.6957661 18.188172,17.7237903 18.8645161,18.3578629 C19.2027957,18.6747984 19.6458065,18.8332661 20.0890323,18.8332661 C20.5322581,18.8332661 20.9754839,18.6747984 21.3135484,18.3578629 L27.335914,12.7118952 C27.6606452,12.4072581 27.8430108,11.9943548 27.8430108,11.5639113 C27.8430108,11.1332661 27.6606452,10.7203629 27.335914,10.4159274 L21.3137634,4.76995968 Z" id="Shape" fill-rule="nonzero"></path>
                        <path d="M59.8645161,32.8493952 C59.7197849,34.7072581 58.0939785,35.8449597 56.111828,35.9796371 C54.5931183,44.1298387 47.2501075,50.4231855 38.2668817,50.9467742 L41.2907527,48.1118952 C41.9670968,47.477621 41.9670968,46.4497984 41.2907527,45.8157258 C40.6141935,45.1818548 39.5180645,45.1818548 38.8415054,45.8157258 L32.8193548,51.4616935 C32.1430108,52.0959677 32.1430108,53.1237903 32.8193548,53.7578629 L38.8415054,59.403629 C39.1797849,59.7205645 39.6227957,59.8790323 40.0660215,59.8790323 C40.5092473,59.8790323 40.9524731,59.7205645 41.2905376,59.403629 C41.9668817,58.7695565 41.9668817,57.7415323 41.2905376,57.1074597 L38.196129,54.2064516 C50.2451613,53.6471774 59.8645161,44.2816532 59.8645161,32.8493952 Z" id="Shape" fill-rule="nonzero"></path>
                        <g id="head" transform="translate(28.800000, 0.000000)" fill-rule="nonzero">
                            <path d="M14.3974194,13.0760081 C18.2427957,13.0760081 21.3711828,10.1431452 21.3711828,6.53810484 C21.3711828,2.9328629 18.2427957,0 14.3974194,0 C10.552043,0 7.42365591,2.9328629 7.42365591,6.53790323 C7.42365591,10.1429435 10.552043,13.0760081 14.3974194,13.0760081 Z" id="Shape"></path>
                            <path d="M27.9825806,30.7008065 L27.9825806,21.7129032 C27.9825806,19.225 26.2772043,17.01875 23.7552688,16.2443548 L23.7436559,16.2407258 L20.0550538,15.6681452 C19.7410753,15.577621 19.4055914,15.7334677 19.2926882,16.0237903 L15.1073118,26.7897177 C14.8658065,27.4108871 13.9288172,27.4108871 13.6875269,26.7897177 L9.50215054,16.0237903 C9.41096774,15.7893145 9.17483871,15.6423387 8.92193548,15.6423387 C8.86193548,15.6423387 5.0511828,16.2399194 5.0511828,16.2399194 C2.50860215,17.0342742 0.809677419,19.2439516 0.809677419,21.7427419 L0.809677419,30.7008065 C0.809677419,32.0433468 1.97053763,33.1314516 3.40236559,33.1314516 L25.3896774,33.1314516 C26.8219355,33.1314516 27.9825806,32.0431452 27.9825806,30.7008065 Z" id="Shape"></path>
                            <path d="M15.9174194,15.5453629 C15.7567742,15.38125 15.5217204,15.2985887 15.283871,15.2985887 L13.5107527,15.2985887 C13.2731183,15.2985887 13.0380645,15.38125 12.8772043,15.5453629 C12.6283871,15.7995968 12.5922581,16.1667339 12.7688172,16.453629 L13.7165591,17.7931452 L13.2729032,21.3022177 L14.1466667,23.48125 C14.231828,23.7004032 14.5623656,23.7004032 14.6477419,23.48125 L15.5215054,21.3022177 L15.0778495,17.7931452 L16.0255914,16.453629 C16.2023656,16.1667339 16.1662366,15.7995968 15.9174194,15.5453629 Z" id="Shape"></path>
                        </g>
                    </g>
                </g>
            </g>
        </g>
    </g>
</svg>