<?xml version="1.0" encoding="UTF-8"?>
<svg width="41px" height="41px" viewBox="0 0 41 41" version="1.1" xmlns="http://www.w3.org/2000/svg" xmlns:xlink="http://www.w3.org/1999/xlink">
    <!-- Generator: Sketch 48 (47235) - http://www.bohemiancoding.com/sketch -->
    <title>footer contact</title>
    <desc>Created with Sketch.</desc>
    <defs></defs>
    <g id="Client-BOQ-Approve" stroke="none" stroke-width="1" fill="none" fill-rule="evenodd" transform="translate(-83.000000, -846.000000)">
        <g id="Footer" transform="translate(0.000000, 812.000000)" fill="#FFFFFF" fill-rule="nonzero">
            <g id="bottom-icons" transform="translate(83.000000, 27.500000)">
                <path d="M40.4809341,38.60176 C40.5656937,39.2522458 40.3678059,39.8178254 39.8881012,40.2984988 L34.2561885,45.8975289 C34.0021172,46.1803187 33.6704823,46.4208979 33.2611453,46.6186429 C32.8518083,46.816665 32.449598,46.9439204 32.0545144,47.0004091 C32.0262843,47.0004091 31.9413863,47.0076868 31.8001664,47.0218263 C31.6592233,47.0358964 31.4757274,47.0431048 31.2498863,47.0431048 C30.7133752,47.0431048 29.8452293,46.9511981 28.6454484,46.7673154 C27.4456675,46.5834328 25.9777695,46.1308998 24.2417543,45.4099244 C22.505324,44.6888104 20.536341,43.6070008 18.3344594,42.1649115 C16.1325777,40.7228914 13.789407,38.7432242 11.3051548,36.2263257 C9.3290451,34.2750761 7.69169705,32.4086634 6.39311067,30.627157 C5.09452428,28.8455119 4.05000915,27.1982614 3.25956526,25.6853359 C2.46905218,24.1724105 1.87621927,22.80088 1.48099732,21.5707444 C1.08577538,20.3406088 0.817589061,19.280147 0.676438367,18.3893591 C0.535287673,17.4985713 0.478827396,16.7986665 0.507057535,16.2896449 C0.535287673,15.7806232 0.549402743,15.4978334 0.549402743,15.4412755 C0.60586302,15.0453698 0.732898645,14.6423943 0.930509617,14.2323491 C1.12812059,13.8223039 1.36807677,13.4900259 1.65037816,13.2355151 L7.28229085,7.59385858 C7.67751279,7.19795286 8.12919501,7 8.63733751,7 C9.00432931,7 9.32897591,7.10604617 9.6112773,7.31813852 C9.89357868,7.53023087 10.1335349,7.79181144 10.3311458,8.10288021 L14.8620831,16.7138296 C15.1161544,17.1662933 15.1867297,17.6611754 15.0738092,18.198476 C14.9608886,18.7357766 14.7209324,19.1882403 14.3539406,19.5558671 L12.2790254,21.6343721 C12.2225651,21.69093 12.1731624,21.7828367 12.1308172,21.9100921 C12.088472,22.0373475 12.0672994,22.1433937 12.0672994,22.2282307 C12.1802199,22.8220892 12.4342912,23.5007848 12.8295131,24.2643172 C13.1682748,24.9430127 13.6905324,25.7701729 14.3962858,26.7457977 C15.1020393,27.7214225 16.1042092,28.8454426 17.4027956,30.1179967 C18.6731518,31.4189684 19.8023574,32.4298033 20.7904123,33.1510559 C21.7782595,33.8718927 22.6042679,34.4023315 23.2676761,34.7416792 C23.9310844,35.081027 24.4392269,35.2860496 24.7920344,35.3565391 L25.3212112,35.4626546 C25.3776714,35.4626546 25.469627,35.4413761 25.5965242,35.3990269 C25.7235598,35.3565391 25.8153078,35.3071202 25.8718372,35.250493 L28.2854449,32.7902217 C28.7938642,32.3378273 29.3864203,32.1115955 30.0640129,32.1115955 C30.5440636,32.1115955 30.9249629,32.1963631 31.2072643,32.3661063 L31.2495403,32.3661063 L39.4220963,37.2018119 C40.0151368,37.5697159 40.3679443,38.0361804 40.4809341,38.60176 Z" id="footer-contact"></path>
            </g>
        </g>
    </g>
</svg>