<?xml version="1.0" encoding="UTF-8"?>
<svg width="59px" height="63px" viewBox="0 0 59 63" version="1.1" xmlns="http://www.w3.org/2000/svg" xmlns:xlink="http://www.w3.org/1999/xlink">
    <!-- Generator: Sketch 48 (47235) - http://www.bohemiancoding.com/sketch -->
    <title>management</title>
    <desc>Created with Sketch.</desc>
    <defs></defs>
    <g id="Client-Status-View" stroke="none" stroke-width="1" fill="none" fill-rule="evenodd" transform="translate(-770.000000, -839.000000)">
        <g id="Footer" transform="translate(0.000000, 812.000000)" fill="#FFFFFF">
            <g id="bottom-icons" transform="translate(83.000000, 27.500000)">
                <g id="designer" transform="translate(687.000000, 0.000000)">
                    <g id="idea">
                        <g id="bulb" transform="translate(0.566621, 0.000000)" fill-rule="nonzero">
                            <path d="M18.3554105,7.5315185 C19.3963904,7.5315185 20.240278,6.57602555 20.240278,5.39737469 L20.240278,2.29033016 C20.240278,1.11167931 19.3963904,0.156186349 18.3554105,0.156186349 C17.3144307,0.156186349 16.470543,1.11167931 16.470543,2.29033016 L16.470543,5.39737469 C16.470543,6.57602555 17.3144307,7.5315185 18.3554105,7.5315185 Z" id="Shape"></path>
                            <path d="M1.89063291,23.0664994 L4.63476251,23.0664994 C5.67574234,23.0664994 6.51962999,22.1110064 6.51962999,20.9323556 C6.51962999,19.7537047 5.67574234,18.7982118 4.63476251,18.7982118 L1.89063291,18.7982118 C0.849653077,18.7982118 0.00576542676,19.7537047 0.00576542676,20.9323556 C0.00576542676,22.1110064 0.849866611,23.0664994 1.89063291,23.0664994 Z" id="Shape"></path>
                            <path d="M30.1911911,20.9323556 C30.1911911,22.1110064 31.0350787,23.0664994 32.0760585,23.0664994 L34.8201882,23.0664994 C35.861168,23.0664994 36.7050556,22.1110064 36.7050556,20.9323556 C36.7050556,19.7537047 35.861168,18.7982118 34.8201882,18.7982118 L32.0760585,18.7982118 C31.0350787,18.7984536 30.1911911,19.7539465 30.1911911,20.9323556 Z" id="Shape"></path>
                            <path d="M30.1935399,10.9236152 L32.1339263,8.72661002 C32.8699792,7.89321321 32.8699792,6.54169356 32.1339263,5.70829674 C31.39766,4.8751417 30.2044302,4.8751417 29.4681638,5.70829674 L27.527991,7.90530193 C26.7919382,8.73869875 26.7919382,10.0902184 27.527991,10.9236152 C27.8959106,11.3401927 28.3782847,11.5486024 28.8606587,11.5486024 C29.3432463,11.5486024 29.8254068,11.3401927 30.1935399,10.9236152 Z" id="Shape"></path>
                            <path d="M7.85016237,11.5486024 C8.33253641,11.5486024 8.81491045,11.3401927 9.18304362,10.9236152 C9.91909644,10.0902184 9.91909644,8.73869875 9.18304362,7.90530193 L7.24265722,5.70829674 C6.50639087,4.8751417 5.31316106,4.8751417 4.57689471,5.70829674 C3.84084189,6.54169356 3.84084189,7.89321321 4.57689471,8.72661002 L6.51728112,10.9236152 C6.88541429,11.3401927 7.3675748,11.5486024 7.85016237,11.5486024 Z" id="Shape"></path>
                            <path d="M12.4560977,33.483597 L16.0723015,33.483597 L14.6482411,25.1916976 C14.5724364,24.7499755 14.6749329,24.2930216 14.927544,23.9458334 C15.1801551,23.5986452 15.5568297,23.3974887 15.9542171,23.3974887 L20.7563905,23.3974887 C21.1537779,23.3974887 21.5304524,23.5986452 21.7830635,23.9458334 C22.0356746,24.2930216 22.1381711,24.7497337 22.0623664,25.1916976 L20.638306,33.483597 L24.2545098,33.483597 C24.3288197,32.8482135 24.411671,32.1603649 24.5026367,31.4260957 C27.5378135,29.1176324 29.3872343,25.2369094 29.3872343,21.05421 C29.3872343,14.166537 24.4383628,8.56341221 18.355197,8.56341221 C12.2720312,8.56341221 7.32337319,14.1667788 7.32337319,21.05421 C7.32358673,25.2371512 9.17279398,29.1176324 12.2079709,31.4260957 C12.2989365,32.1603649 12.3817878,32.8484553 12.4560977,33.483597 Z" id="Shape"></path>
                            <path d="M23.9295105,36.496833 L12.7813105,36.496833 C12.8248715,36.9610401 12.8554069,37.3399008 12.8707814,37.6157655 C12.8823123,37.8251423 12.9013168,38.0299253 12.9250191,38.2313235 L23.7855884,38.2313235 C23.8095042,38.0299253 23.8282953,37.8251423 23.8400397,37.6160073 C23.8554141,37.3401426 23.8859495,36.9610401 23.9295105,36.496833 Z" id="Shape"></path>
                            <path d="M22.8293817,41.2443177 L13.8814394,41.2443177 C14.8474686,42.9099025 16.4312527,43.9019034 18.3554105,43.9019034 C20.2797819,43.9019034 21.8633524,42.9099025 22.8293817,41.2443177 Z" id="Shape"></path>
                        </g>
                        <g id="Head" transform="translate(31.730769, 24.866165)" fill-rule="nonzero">
                            <path d="M13.5684767,16.6066012 C17.3643823,16.6066012 20.4524231,13.077468 20.4524231,8.73935931 C20.4524231,4.40125066 17.3643823,0.872117441 13.5684767,0.872117441 C9.77257108,0.872117441 6.68453026,4.40125066 6.68453026,8.73935931 C6.68475126,13.077468 9.77279208,16.6066012 13.5684767,16.6066012 Z" id="Shape"></path>
                            <path d="M0.156173729,36.5094679 C0.156173729,37.0600662 0.546681718,37.5063539 1.02846294,37.5063539 L26.1062804,37.5063539 C26.5880617,37.5063539 26.9785696,37.0600662 26.9785696,36.5094679 L26.9785696,27.00508 C26.9785696,24.0101281 25.2956504,21.3536175 22.8056371,20.4191157 L19.1531608,19.7258165 C18.843318,19.6169597 18.5120382,19.8043651 18.4006539,20.1536667 L14.2692695,33.1083866 C14.0310309,33.8557355 13.1061435,33.8557355 12.8676839,33.1083866 L8.73629945,20.1536667 C8.64635223,19.8715482 8.41319664,19.6947506 8.163687,19.6947506 C8.10445885,19.6947506 4.34280833,20.4138118 4.34280833,20.4138118 C1.83312597,21.3695293 0.156173729,24.0285656 0.156173729,27.0353881 L0.156173729,36.5094679 Z" id="Shape"></path>
                            <path d="M14.478336,19.1146018 L12.6561864,19.1146018 C12.4119808,19.1146018 12.1704271,19.2181547 12.0051187,19.4237451 C11.7494211,19.7422334 11.712293,20.2021598 11.8937344,20.5615641 L12.8676839,22.2396262 L12.4117598,26.6355729 L13.309685,29.3653283 C13.3972013,29.6398697 13.7368791,29.6398697 13.8246163,29.3653283 L14.7225416,26.6355729 L14.2666175,22.2396262 L15.2405669,20.5615641 C15.4222294,20.2021598 15.3851013,19.7422334 15.1294036,19.4237451 C14.9643162,19.2181547 14.7227626,19.1146018 14.478336,19.1146018 Z" id="Shape"></path>
                        </g>
                    </g>
                </g>
            </g>
        </g>
    </g>
</svg>