<?xml version="1.0" encoding="UTF-8"?>
<svg width="22px" height="24px" viewBox="0 0 22 24" version="1.1" xmlns="http://www.w3.org/2000/svg" xmlns:xlink="http://www.w3.org/1999/xlink">
    <!-- Generator: Sketch 48 (47235) - http://www.bohemiancoding.com/sketch -->
    <title>Handover black</title>
    <desc>Created with Sketch.</desc>
    <defs></defs>
    <g id="Last-Mile" stroke="none" stroke-width="1" fill="none" fill-rule="evenodd" transform="translate(-437.000000, -600.000000)">
        <g id="Handover-black" transform="translate(437.000000, 601.000000)" fill="#000000" fill-rule="nonzero">
            <g id="hand" transform="translate(0.000000, 9.500000)">
                <path d="M2.09277673,10.319013 L2.08905539,10.319013 C1.90231201,10.319013 1.75278199,10.4978539 1.75278199,10.7191044 C1.75278199,10.9403549 1.90569505,11.1191957 2.09277673,11.1191957 C2.2795201,11.1191957 2.43107995,10.9403549 2.43107995,10.7191044 C2.43107995,10.4978539 2.2795201,10.319013 2.09277673,10.319013 Z" id="Shape-Copy-10"></path>
                <path d="M20.0126983,3.11736918 C19.8256166,3.11736918 19.6743951,3.29621 19.6743951,3.51746051 C19.6743951,3.73871101 19.8256166,3.91755183 20.0126983,3.91755183 C20.5722518,3.91755183 21.027608,4.45607476 21.027608,5.11782581 C21.027608,5.54552343 20.8334219,5.94401439 20.5201531,6.15806325 C20.3587825,6.26848846 20.3033008,6.51294426 20.3970108,6.704588 C20.4592586,6.83261723 20.5729284,6.90423358 20.6899814,6.90423358 C20.7474929,6.90423358 20.8056811,6.88702965 20.859133,6.85022125 C21.3804582,6.49373988 21.7042144,5.82958828 21.7042144,5.11782581 C21.7042144,4.01477402 20.9454003,3.11736918 20.0126983,3.11736918 Z" id="Shape-Copy-9" stroke="#000000" stroke-width="0.1"></path>
                <path d="M20.9870116,6.31449896 C20.8987144,6.12005458 20.6930261,6.04723796 20.528949,6.15166179 L11.3947621,11.9673893 C11.2303467,12.0718131 11.1684372,12.3146686 11.2570727,12.5091129 C11.3183055,12.6435436 11.4350202,12.719561 11.5554561,12.719561 C11.6095846,12.719561 11.6643897,12.7043575 11.7151352,12.6719501 L20.8493222,6.85622262 C21.0137375,6.75179878 21.0753087,6.50894335 20.9870116,6.31449896 Z" id="Shape-Copy-8" stroke="#000000" stroke-width="0.1"></path>
                <path d="M11.5987589,11.9229792 L3.81778485,10.7227052 C3.62968826,10.6918982 3.46256647,10.8483339 3.43888524,11.0675839 C3.41418911,11.2864339 3.54511245,11.4872797 3.73050262,11.5156862 L11.5114767,12.7159602 C11.526362,12.7183607 11.5409091,12.719561 11.5554561,12.719561 C11.7229162,12.719561 11.8683866,12.5727275 11.8903763,12.3710814 C11.9150724,12.1522315 11.7841491,11.9513856 11.5987589,11.9229792 Z" id="Shape-Copy-7" stroke="#000000" stroke-width="0.1"></path>
                <path d="M3.77414373,0.716821231 L0.391111528,0.716821231 C0.204029847,0.716821231 0.0528083076,0.895662053 0.0528083076,1.11691256 L0.0528083076,11.9193783 C0.0528083076,12.1406288 0.204029847,12.3194697 0.391111528,12.3194697 L3.77414373,12.3194697 C3.96122541,12.3194697 4.11244695,12.1406288 4.11244695,11.9193783 L4.11244695,1.11691256 C4.11244695,0.895662053 3.96122541,0.716821231 3.77414373,0.716821231 Z M3.43584051,11.519287 L0.729414748,11.519287 L0.729414748,1.51700388 L3.43584051,1.51700388 L3.43584051,11.519287 Z" id="Shape-Copy-6" stroke="#000000" stroke-width="0.1"></path>
                <path d="M20.1162191,3.4810522 C20.0881399,3.26260233 19.9145904,3.11296818 19.7308917,3.14577567 L13.1958884,4.32204416 C13.0111749,4.35525174 12.8843112,4.55929832 12.9123903,4.77774818 C12.9377631,4.97619348 13.0818802,5.11782581 13.2462956,5.11782581 C13.2632108,5.11782581 13.2804642,5.11622544 13.2977177,5.11302471 L19.832721,3.93675622 C20.0174346,3.90354864 20.1442983,3.69950206 20.1162191,3.4810522 Z" id="Shape-Copy-5" stroke="#000000" stroke-width="0.1"></path>
                <path d="M12.1833469,2.74728471 C11.9993099,2.71007621 11.8244072,2.85570946 11.7926067,3.07335914 C11.7608062,3.29100882 11.8842868,3.49785603 12.0683238,3.53546462 C12.5551421,3.63468727 12.9083307,4.13200078 12.9083307,4.71773448 C12.9083307,5.37948553 12.4529745,5.91800846 11.893421,5.91800846 C11.7063393,5.91800846 11.5551178,6.09684928 11.5551178,6.31809978 C11.5551178,6.53935029 11.7063393,6.71819111 11.893421,6.71819111 C12.826123,6.71819111 13.5849371,5.82078627 13.5849371,4.71773448 C13.5849371,3.74151165 12.9956129,2.91212233 12.1833469,2.74728471 Z" id="Shape-Copy-4" stroke="#000000" stroke-width="0.1"></path>
                <path d="M12.1907896,2.74848498 L6.88348863,1.52420553 C6.70012829,1.48059557 6.52218079,1.62302808 6.48665895,1.84027767 C6.45079881,2.05712717 6.57055815,2.26757521 6.7539185,2.3095848 L12.0612194,3.53386425 C12.0828708,3.53906544 12.1048605,3.54146599 12.1261736,3.54146599 C12.2848378,3.54146599 12.4265869,3.40903576 12.4580491,3.2177921 C12.4939092,3.00094261 12.3741499,2.79049457 12.1907896,2.74848498 Z" id="Shape-Copy-3" stroke="#000000" stroke-width="0.1"></path>
                <path d="M6.81887272,1.51700388 L3.77414373,1.51700388 C3.58706205,1.51700388 3.43584051,1.6958447 3.43584051,1.91709521 C3.43584051,2.13834571 3.58706205,2.31718653 3.77414373,2.31718653 L6.81887272,2.31718653 C7.0059544,2.31718653 7.15717594,2.13834571 7.15717594,1.91709521 C7.15717594,1.6958447 7.0059544,1.51700388 6.81887272,1.51700388 Z" id="Shape-Copy-2" stroke="#000000" stroke-width="0.1"></path>
                <path d="M11.7770447,5.91040672 L7.52152851,5.51911741 C7.33444682,5.49711238 7.17273788,5.66675111 7.15819085,5.88720143 C7.14364381,6.10765175 7.28302473,6.29969558 7.46942981,6.31689951 L11.724946,6.70818883 C11.7337419,6.70898901 11.7425378,6.7093891 11.7513337,6.7093891 C11.9265747,6.7093891 12.0744132,6.54975266 12.0882837,6.34010481 C12.1028307,6.11965449 11.9634498,5.92761065 11.7770447,5.91040672 Z" id="Shape-Copy" stroke="#000000" stroke-width="0.1"></path>
            </g>
            <path d="M8.7321012,2.80063928 L8.72837986,2.80063928 C8.54163648,2.80063928 8.39210646,2.9794801 8.39210646,3.2007306 C8.39210646,3.4219811 8.54501952,3.60082193 8.7321012,3.60082193 C8.91884458,3.60082193 9.07040442,3.4219811 9.07040442,3.2007306 C9.07040442,2.9794801 8.91884458,2.80063928 8.7321012,2.80063928 Z" id="Shape"></path>
            <path d="M12.3685225,1.28909425 C11.6658667,0.457704476 10.7311349,0 9.73720007,0 C8.7432652,0 7.80887171,0.457704476 7.10621592,1.28909425 C6.40322183,2.12008393 6.01620294,3.22513617 6.01620294,4.40060449 C6.01620294,5.57647289 6.40322183,6.68152513 7.10621592,7.51251481 C7.80887171,8.34390459 8.7432652,8.80160906 9.73720007,8.80160906 C10.7311349,8.80160906 11.6658667,8.34390459 12.3685225,7.51251481 C13.0715166,6.68152513 13.4585355,5.5760728 13.4585355,4.40060449 C13.4585355,3.22513617 13.0715166,2.12008393 12.3685225,1.28909425 Z M11.8901618,6.94678568 C11.3150463,7.62694093 10.550481,8.00142641 9.73720007,8.00142641 C8.92391912,8.00142641 8.15935385,7.62694093 7.58457667,6.94678568 C7.0094612,6.26703052 6.69280938,5.36242403 6.69280938,4.40060449 C6.69280938,3.43918503 7.0094612,2.53457855 7.58457667,1.85482338 C8.15935385,1.17466813 8.92391912,0.80018265 9.73720007,0.80018265 C10.550481,0.80018265 11.3150463,1.17466813 11.8901618,1.85482338 C12.4652772,2.53457855 12.781929,3.43878494 12.781929,4.40060449 C12.781929,5.36242403 12.4652772,6.26663043 11.8901618,6.94678568 Z" id="Shape" stroke="#000000" stroke-width="0.1"></path>
            <path d="M14.373984,12.1199665 L13.7965004,11.4370106 L13.7965004,10.8024658 C13.7965004,10.5812153 13.6452789,10.4023745 13.4581972,10.4023745 L13.119894,10.4023745 L13.119894,10.0022831 C13.119894,9.78103263 12.9686724,9.6021918 12.7815907,9.6021918 L12.2450418,9.6021918 L10.8705159,7.97662075 C10.7382393,7.82018504 10.5244317,7.82018504 10.3921551,7.97662075 C10.2598785,8.13305646 10.2598785,8.38591418 10.3921551,8.54234988 L11.8658039,10.2851477 C11.9290666,10.3603649 12.0149956,10.4023745 12.1049843,10.4023745 L12.4432875,10.4023745 L12.4432875,10.8024658 C12.4432875,11.0237163 12.5945091,11.2025571 12.7815907,11.2025571 L13.119894,11.2025571 L13.119894,11.6026484 C13.119894,11.7090727 13.1554158,11.8106959 13.2190168,11.885513 L13.8956233,12.6856956 C13.9615924,12.7637135 14.048198,12.8029224 14.1348036,12.8029224 C14.2214093,12.8029224 14.3080149,12.7637135 14.373984,12.6856956 C14.5062606,12.5292599 14.5062606,12.2764022 14.373984,12.1199665 Z" id="Shape" stroke="#000000" stroke-width="0.1"></path>
            <path d="M16.7431215,9.32012742 L13.2450662,5.15517673 C13.1124513,4.99834093 12.898982,4.99754074 12.7663671,5.15317627 C12.6337522,5.30921189 12.6330756,5.5620696 12.7646756,5.71930549 L16.2627309,9.88425619 C16.3290383,9.96267409 16.4159822,10.0022831 16.5029262,10.0022831 C16.5891935,10.0022831 16.6754608,9.96347427 16.7414299,9.88625665 C16.8740448,9.73022103 16.8747214,9.47736331 16.7431215,9.32012742 Z" id="Shape" stroke="#000000" stroke-width="0.1"></path>
            <path d="M16.5029262,12.0027398 L14.1348036,12.0027398 C13.9477219,12.0027398 13.7965004,12.1815806 13.7965004,12.4028311 C13.7965004,12.6240816 13.9477219,12.8029224 14.1348036,12.8029224 L16.5029262,12.8029224 C16.6900079,12.8029224 16.8412294,12.6240816 16.8412294,12.4028311 C16.8412294,12.1815806 16.6900079,12.0027398 16.5029262,12.0027398 Z" id="Shape" stroke="#000000" stroke-width="0.1"></path>
            <path d="M16.5029262,9.20210048 C16.3158445,9.20210048 16.164623,9.3809413 16.164623,9.6021918 L16.164623,12.4028311 C16.164623,12.6240816 16.3158445,12.8029224 16.5029262,12.8029224 C16.6900079,12.8029224 16.8412294,12.6240816 16.8412294,12.4028311 L16.8412294,9.6021918 C16.8412294,9.3809413 16.6900079,9.20210048 16.5029262,9.20210048 Z" id="Shape" stroke="#000000" stroke-width="0.1"></path>
        </g>
    </g>
</svg>