<?xml version="1.0" encoding="UTF-8"?>
<svg width="21px" height="22px" viewBox="0 0 21 22" version="1.1" xmlns="http://www.w3.org/2000/svg" xmlns:xlink="http://www.w3.org/1999/xlink">
    <!-- Generator: Sketch 48 (47235) - http://www.bohemiancoding.com/sketch -->
    <title>Initial Estimate grey</title>
    <desc>Created with Sketch.</desc>
    <defs></defs>
    <g id="Client-BOQ-Approve" stroke="none" stroke-width="1" fill="none" fill-rule="evenodd" transform="translate(-510.000000, -476.000000)">
        <g id="substatus-contents" transform="translate(478.000000, 465.500000)" fill="#AB9E9E" stroke="#AA9E9D">
            <g id="Group-16">
                <g id="Book-Order-Circle-Copy" transform="translate(0.000000, 11.000000)">
                    <g id="Place-order-icon-red" transform="translate(32.150000, 0.050000)">
                        <g id="Group-8" transform="translate(0.128720, 0.130403)">
                            <g id="Initial-Estimate-grey">
                                <g id="Estimate-icon-Copy">
                                    <g>
                                        <path d="M6.16434879,2.42423003 C5.40815111,2.4250958 4.79535917,3.04476747 4.79450301,3.80945486 C4.79450301,4.57448856 5.40780865,5.19467969 6.16434879,5.19467969 C6.92088892,5.19467969 7.53419456,4.57448856 7.53419456,3.80945486 C7.53419456,3.04442116 6.92088892,2.42423003 6.16434879,2.42423003 Z M6.16434879,4.50206728 C5.78605731,4.50206728 5.4794259,4.19199336 5.4794259,3.80945486 C5.4794259,3.42691637 5.78605731,3.11684245 6.16434879,3.11684245 C6.54246903,3.11723204 6.8488864,3.42708952 6.84927167,3.80945486 C6.84927167,4.19199336 6.54264026,4.50206728 6.16434879,4.50206728 Z" id="Shape" stroke-width="0.3" fill-rule="nonzero"></path>
                                        <path d="M14.3834234,2.42423003 C13.6272257,2.4250958 13.0144338,3.04476747 13.0135776,3.80945486 C13.0135776,4.57448856 13.6268833,5.19467969 14.3834234,5.19467969 C15.1399636,5.19467969 15.7532692,4.57448856 15.7532692,3.80945486 C15.7532692,3.04442116 15.1399636,2.42423003 14.3834234,2.42423003 Z M14.3834234,4.50206728 C14.005132,4.50206728 13.6985005,4.19199336 13.6985005,3.80945486 C13.6985005,3.42691637 14.005132,3.11684245 14.3834234,3.11684245 C14.7615437,3.11723204 15.067961,3.42708952 15.0683463,3.80945486 C15.0683463,4.19199336 14.7617149,4.50206728 14.3834234,4.50206728 Z" id="Shape" stroke-width="0.3" fill-rule="nonzero"></path>
                                        <path d="M20.4132705,4.5732332 L14.5914259,0.0712525022 C14.4686535,-0.0237652635 14.2981505,-0.0237652635 14.1753781,0.0712525022 L10.2738433,3.0882289 L6.3723513,0.0712525022 C6.24957888,-0.0237652635 6.07907589,-0.0237652635 5.95630346,0.0712525022 L0.134458924,4.5732332 C0.0496997169,4.63877165 2.84217094e-14,4.74045581 2.84217094e-14,4.8483302 L2.84217094e-14,20.4321095 C2.84217094e-14,20.6233571 0.153337111,20.7784157 0.342461443,20.7784157 L20.2052251,20.7784157 C20.3943495,20.7784157 20.5476866,20.6233571 20.5476866,20.4321095 L20.5476866,4.8483302 C20.5477294,4.7404991 20.4980297,4.63877165 20.4132705,4.5732332 Z M11.6437319,20.0858466 L0.684965694,20.0858466 L0.684965694,5.01949204 L6.16434879,0.782305723 L11.6437319,5.01949204 L11.6437319,20.0858466 Z M19.8628065,20.0858466 L12.3286548,20.0858466 L12.3286548,15.5838659 L18.8354222,15.5838659 C19.0245465,15.5838659 19.1778836,15.4288073 19.1778836,15.2375597 L19.1778836,7.61882315 C19.1778836,7.42757554 19.0245465,7.27251694 18.8354222,7.27251694 L12.3286548,7.27251694 L12.3286548,4.84837348 C12.3286548,4.7404991 12.278955,4.63877165 12.1941958,4.57327649 L10.8376204,3.5242717 L14.3833806,0.782349011 L19.8627637,5.01953533 L19.8628065,20.0858466 Z M16.0957306,14.1986411 C16.284855,14.1986411 16.4381921,14.0435825 16.4381921,13.8523349 C16.4387914,13.2788085 16.8984175,12.8140223 17.4655764,12.8134163 C17.6547007,12.8134163 17.8080379,12.6583577 17.8080379,12.4671101 L17.8080379,10.3892728 C17.8080379,10.1980252 17.6547007,10.0429666 17.4655764,10.0429666 C16.8984175,10.0423606 16.4387914,9.57757434 16.4381921,9.00404798 C16.4381921,8.81280037 16.284855,8.65774177 16.0957306,8.65774177 L12.3286548,8.65774177 L12.3286548,7.96512935 L18.4929607,7.96512935 L18.4929607,14.8912535 L12.3286548,14.8912535 L12.3286548,14.1986411 L16.0957306,14.1986411 Z M12.3286548,13.5060287 L12.3286548,9.35035418 L15.7877294,9.35035418 C15.9262122,10.029807 16.4512484,10.5607377 17.123115,10.700732 L17.123115,12.1556076 C16.4512056,12.2956452 15.9261694,12.8265759 15.7877294,13.5059854 L12.3286548,13.5059854 L12.3286548,13.5060287 Z" id="Shape" stroke-width="0.3" fill-rule="nonzero"></path>
                                        <path d="M6.16434879,6.92621073 C3.89579857,6.92885132 2.05742274,8.78786633 2.05481147,11.0818852 C2.05481147,13.3769863 3.89472838,15.2375597 6.16434879,15.2375597 C8.43396919,15.2375597 10.2738861,13.3769863 10.2738861,11.0818852 C10.2738861,8.78678412 8.43396919,6.92621073 6.16434879,6.92621073 Z M6.16434879,14.5449473 C4.27297704,14.5449473 2.73973435,12.9944911 2.73973435,11.0818852 C2.73973435,9.16927933 4.27297704,7.61882315 6.16434879,7.61882315 C8.05482157,7.62094427 9.58686564,9.17018838 9.58896322,11.0818852 C9.58896322,12.9944911 8.05572053,14.5449473 6.16434879,14.5449473 Z" id="Shape" stroke-width="0.3" fill-rule="nonzero"></path>
                                        <ellipse id="Oval-3" cx="14.3833806" cy="3.7181537" rx="1" ry="1"></ellipse>
                                        <path d="M12.3855878,9.43051913 L15.7509469,9.43051913 C15.9028802,9.94670377 16.0442067,10.272754 16.1749263,10.4086697 C16.305646,10.5445854 16.6112061,10.6831855 17.0916069,10.8244701 L17.0916069,12.0908311 C16.6283688,12.2353915 16.3228086,12.3801128 16.1749263,12.5249949 C16.0270441,12.6698771 15.8857176,12.9629764 15.7509469,13.404293 L12.3855878,13.404293 L12.3855878,9.43051913 Z" id="Path-28"></path>
                                    </g>
                                </g>
                            </g>
                        </g>
                    </g>
                </g>
            </g>
        </g>
    </g>
</svg>