<?xml version="1.0" encoding="UTF-8"?>
<svg width="21px" height="22px" viewBox="0 0 21 22" version="1.1" xmlns="http://www.w3.org/2000/svg" xmlns:xlink="http://www.w3.org/1999/xlink">
    <!-- Generator: Sketch 48 (47235) - http://www.bohemiancoding.com/sketch -->
    <title>Initial Estimate Black</title>
    <desc>Created with Sketch.</desc>
    <defs></defs>
    <g id="Client-BOQ-Approve" stroke="none" stroke-width="1" fill="none" fill-rule="evenodd" transform="translate(-601.000000, -519.000000)">
        <g id="Initial-Estimate-Black" transform="translate(601.000000, 519.000000)" fill="#000000" fill-rule="nonzero" stroke="#000000">
            <path d="M6.44306879,3.10463303 C5.68687111,3.1054988 5.07407917,3.72517047 5.07322301,4.48985786 C5.07322301,5.25489156 5.68652865,5.87508269 6.44306879,5.87508269 C7.19960892,5.87508269 7.81291456,5.25489156 7.81291456,4.48985786 C7.81291456,3.72482416 7.19960892,3.10463303 6.44306879,3.10463303 Z M6.44306879,5.18247028 C6.06477731,5.18247028 5.7581459,4.87239636 5.7581459,4.48985786 C5.7581459,4.10731937 6.06477731,3.79724545 6.44306879,3.79724545 C6.82118903,3.79763504 7.1276064,4.10749252 7.12799167,4.48985786 C7.12799167,4.87239636 6.82136026,5.18247028 6.44306879,5.18247028 Z" id="Shape" stroke-width="0.3"></path>
            <path d="M14.6621434,3.10463303 C13.9059457,3.1054988 13.2931538,3.72517047 13.2922976,4.48985786 C13.2922976,5.25489156 13.9056033,5.87508269 14.6621434,5.87508269 C15.4186836,5.87508269 16.0319892,5.25489156 16.0319892,4.48985786 C16.0319892,3.72482416 15.4186836,3.10463303 14.6621434,3.10463303 Z M14.6621434,5.18247028 C14.283852,5.18247028 13.9772205,4.87239636 13.9772205,4.48985786 C13.9772205,4.10731937 14.283852,3.79724545 14.6621434,3.79724545 C15.0402637,3.79763504 15.346681,4.10749252 15.3470663,4.48985786 C15.3470663,4.87239636 15.0404349,5.18247028 14.6621434,5.18247028 Z" id="Shape" stroke-width="0.3"></path>
            <path d="M20.6919905,5.2536362 L14.8701459,0.751655502 C14.7473735,0.656637737 14.5768705,0.656637737 14.4540981,0.751655502 L10.5525633,3.7686319 L6.6510713,0.751655502 C6.52829888,0.656637737 6.35779589,0.656637737 6.23502346,0.751655502 L0.413178924,5.2536362 C0.328419717,5.31917465 0.27872,5.42085881 0.27872,5.5287332 L0.27872,21.1125125 C0.27872,21.3037601 0.432057111,21.4588187 0.621181443,21.4588187 L20.4839451,21.4588187 C20.6730695,21.4588187 20.8264066,21.3037601 20.8264066,21.1125125 L20.8264066,5.5287332 C20.8264494,5.4209021 20.7767497,5.31917465 20.6919905,5.2536362 Z M11.9224519,20.7662496 L0.963685694,20.7662496 L0.963685694,5.69989504 L6.44306879,1.46270872 L11.9224519,5.69989504 L11.9224519,20.7662496 Z M20.1415265,20.7662496 L12.6073748,20.7662496 L12.6073748,16.2642689 L19.1141422,16.2642689 C19.3032665,16.2642689 19.4566036,16.1092103 19.4566036,15.9179627 L19.4566036,8.29922615 C19.4566036,8.10797854 19.3032665,7.95291994 19.1141422,7.95291994 L12.6073748,7.95291994 L12.6073748,5.52877648 C12.6073748,5.4209021 12.557675,5.31917465 12.4729158,5.25367949 L11.1163404,4.2046747 L14.6621006,1.46275201 L20.1414837,5.69993833 L20.1415265,20.7662496 Z M16.3744506,14.8790441 C16.563575,14.8790441 16.7169121,14.7239855 16.7169121,14.5327379 C16.7175114,13.9592115 17.1771375,13.4944253 17.7442964,13.4938193 C17.9334207,13.4938193 18.0867579,13.3387607 18.0867579,13.1475131 L18.0867579,11.0696758 C18.0867579,10.8784282 17.9334207,10.7233696 17.7442964,10.7233696 C17.1771375,10.7227636 16.7175114,10.2579773 16.7169121,9.68445098 C16.7169121,9.49320337 16.563575,9.33814477 16.3744506,9.33814477 L12.6073748,9.33814477 L12.6073748,8.64553235 L18.7716807,8.64553235 L18.7716807,15.5716565 L12.6073748,15.5716565 L12.6073748,14.8790441 L16.3744506,14.8790441 Z M12.6073748,10.0307572 L16.0664494,10.0307572 C16.2049322,10.71021 16.7299684,11.2411407 17.401835,11.381135 L17.401835,12.8360106 C16.7299256,12.9760482 16.2048894,13.5069789 16.0664494,14.1863884 L12.6073748,14.1863884 L12.6073748,10.0307572 Z" id="Shape" stroke-width="0.3"></path>
            <path d="M6.44306879,7.60661373 C4.17451857,7.60925432 2.33614274,9.46826933 2.33353147,11.7622882 C2.33353147,14.0573893 4.17344838,15.9179627 6.44306879,15.9179627 C8.71268919,15.9179627 10.5526061,14.0573893 10.5526061,11.7622882 C10.5526061,9.46718712 8.71268919,7.60661373 6.44306879,7.60661373 Z M6.44306879,15.2253503 C4.55169704,15.2253503 3.01845435,13.6748941 3.01845435,11.7622882 C3.01845435,9.84968233 4.55169704,8.29922615 6.44306879,8.29922615 C8.33354157,8.30134727 9.86558564,9.85059138 9.86768322,11.7622882 C9.86768322,13.6748941 8.33444053,15.2253503 6.44306879,15.2253503 Z" id="Shape" stroke-width="0.3"></path>
            <circle id="Oval-3" cx="14.6621006" cy="4.3985567" r="1"></circle>
            <path d="M12.6643078,10.1109221 L16.0296669,10.1109221 C16.1816002,10.6271068 16.3229267,10.953157 16.4536463,11.0890727 C16.584366,11.2249884 16.8899261,11.3635885 17.3703269,11.5048731 L17.3703269,12.7712341 C16.9070888,12.9157945 16.6015286,13.0605158 16.4536463,13.2053979 C16.3057641,13.3502801 16.1644376,13.6433794 16.0296669,14.084696 L12.6643078,14.084696 L12.6643078,10.1109221 Z" id="Path-28"></path>
        </g>
    </g>
</svg>