<?xml version="1.0" encoding="UTF-8"?>
<svg width="24px" height="24px" viewBox="0 0 24 24" version="1.1" xmlns="http://www.w3.org/2000/svg" xmlns:xlink="http://www.w3.org/1999/xlink">
    <!-- Generator: Sketch 48 (47235) - http://www.bohemiancoding.com/sketch -->
    <title>Installation grey</title>
    <desc>Created with Sketch.</desc>
    <defs></defs>
    <g id="Last-Mile" stroke="none" stroke-width="1" fill="none" fill-rule="evenodd" transform="translate(-486.000000, -600.000000)">
        <path d="M508.570197,614.664566 L506.680738,614.664566 L506.680738,614.596374 L507.72443,613.553006 C507.805018,613.472439 507.850319,613.363126 507.850319,613.249173 L507.850319,612.292515 C507.850319,612.055199 507.657853,611.862827 507.420516,611.862827 L504.1005,611.862827 C504.10411,611.861682 505.226914,611.453378 507.468912,610.637915 C507.576019,610.598943 507.663269,610.519021 507.711493,610.415724 C507.759631,610.312427 507.764788,610.194262 507.725805,610.087184 L507.132848,608.458537 C507.080498,608.314764 506.95564,608.209662 506.804994,608.182591 L506.402956,608.110361 L506.319746,607.881896 L506.536496,607.722224 C506.689979,607.60913 506.750581,607.408465 506.68538,607.229371 L505.294236,603.408284 C504.960063,602.490341 504.288324,601.757465 503.402714,601.344578 C502.51719,600.931776 501.523743,600.888378 500.605597,601.22246 L499.378551,601.668949 C499.155483,601.750117 499.040468,601.996672 499.121658,602.219637 L499.496059,603.247967 C499.577249,603.470932 499.823828,603.585831 500.046852,603.504792 C500.584322,603.309241 501.180588,603.587292 501.376234,604.124488 L501.76396,605.189427 C501.822155,605.349314 501.814634,605.522263 501.742685,605.676392 C501.670778,605.830565 501.543084,605.947569 501.383197,606.005748 L497.482216,607.42518 C497.405023,607.363434 497.320051,607.310368 497.228159,607.267528 C496.926437,607.126891 496.587967,607.112066 496.275156,607.225934 L487.867343,610.285227 C487.221564,610.520224 486.887349,611.236686 487.122451,611.882292 L487.840953,613.855893 C487.954808,614.168663 488.183764,614.418355 488.485443,614.559034 C488.600416,614.612617 488.720718,614.647464 488.842911,614.664394 L487.429803,614.664394 C487.192466,614.664394 487,614.856765 487,615.094082 L487,620.250082 C487,620.487399 487.192466,620.67977 487.429803,620.67977 L503.594019,620.67977 L504.573154,622.753746 C504.644115,622.904094 504.795535,623 504.961826,623 C505.128117,623 505.279536,622.904094 505.350497,622.753703 L506.329589,620.67977 L508.570197,620.67977 C508.807534,620.67977 509,620.487399 509,620.250082 L509,615.094254 C508.999957,614.856937 508.807534,614.664566 508.570197,614.664566 Z M500.173558,602.59656 L500.07638,602.329595 L500.899539,602.030016 C501.601967,601.774395 502.361902,601.807566 503.039444,602.12343 C503.716943,602.439294 504.230859,602.999951 504.486506,603.70219 L505.767707,607.221164 L505.550957,607.380836 C505.397474,607.49393 505.336872,607.694595 505.402073,607.873689 L505.679812,608.636471 C505.732162,608.780245 505.85702,608.885346 506.007666,608.912417 L506.409704,608.984647 L506.771126,609.977356 L504.22669,610.903205 L503.865268,609.910496 L504.126847,609.596781 C504.224842,609.479261 504.252951,609.318472 504.200558,609.174698 L503.922819,608.411916 C503.849924,608.211595 503.640868,608.095021 503.432327,608.138033 L502.673725,608.294181 L502.386358,607.504887 L502.05975,606.607784 C502.2566,606.461605 502.415241,606.267987 502.521703,606.039608 C502.690702,605.677381 502.70841,605.271068 502.571646,604.89552 L502.183921,603.830581 C501.876783,602.986974 501.029082,602.492833 500.173558,602.59656 Z M501.273296,606.960301 L501.84588,608.533131 L498.518214,609.743992 L497.94563,608.171162 L501.273296,606.960301 Z M488.648683,613.562158 L488.479641,613.09788 L490.316019,612.429672 C490.539087,612.348504 490.654102,612.101949 490.572912,611.878984 C490.491722,611.655975 490.245101,611.541034 490.022119,611.622159 L488.185698,612.290367 L487.93018,611.5886 C487.857243,611.388237 487.960954,611.165873 488.161372,611.092998 L496.569185,608.033619 C496.66632,607.998255 496.771321,608.002853 496.864975,608.046509 C496.958629,608.090166 497.029676,608.167681 497.065006,608.264705 L497.482732,609.412058 L495.69101,610.063981 C495.467943,610.145149 495.352927,610.391704 495.434117,610.614669 C495.497642,610.789209 495.662472,610.897533 495.838003,610.897533 C495.886786,610.897533 495.936471,610.889154 495.984953,610.871494 L497.776674,610.219571 L497.783508,610.238391 C497.818838,610.335458 497.814282,610.440431 497.770571,610.53406 C497.726903,610.627689 497.649409,610.698716 497.552317,610.734037 L489.144504,613.793287 C489.047368,613.828608 488.94241,613.82401 488.848713,613.780397 C488.755059,613.73674 488.684012,613.659225 488.648683,613.562158 Z M487.859564,615.523856 L491.723281,615.523856 L490.673529,616.573369 C490.574417,616.672413 490.442725,616.72694 490.302609,616.72694 L487.859564,616.72694 L487.859564,615.523856 Z M503.24287,618.402681 L501.465934,618.402681 C501.228597,618.402681 501.036131,618.595052 501.036131,618.832369 C501.036131,619.069686 501.228597,619.262057 501.465934,619.262057 L503.24287,619.262057 L503.24287,619.820609 L487.859564,619.820609 L487.859564,617.586359 L490.302652,617.586359 C490.672369,617.586359 491.019865,617.442414 491.281314,617.181077 L492.938894,615.523942 L500.956402,615.523942 C500.740125,615.753052 500.561069,616.021306 500.431741,616.321615 L500.025276,617.265124 C499.727552,617.956149 499.048935,618.402724 498.296349,618.402724 L497.57385,618.402724 C497.336513,618.402724 497.144047,618.595095 497.144047,618.832412 C497.144047,619.069729 497.336513,619.2621 497.57385,619.2621 L498.296349,619.2621 C499.392606,619.2621 500.381154,618.611681 500.814739,617.605094 L501.221161,616.661584 C501.518843,615.97056 502.197459,615.523985 502.950088,615.523985 L503.24287,615.523985 L503.24287,618.402681 Z M492.761127,614.66448 C492.761041,614.66448 491.565586,614.66448 489.174762,614.66448 C489.263731,614.652663 489.352099,614.63221 489.438489,614.6008 L497.846259,611.541421 C498.159113,611.427596 498.408872,611.198744 498.549547,610.897146 C498.592398,610.805279 498.623387,610.710017 498.642814,610.613122 L502.514268,609.204433 L503.242097,609.054601 L503.308286,609.236445 L503.046708,609.55016 C502.948713,609.66768 502.920604,609.828469 502.972997,609.972243 L503.565953,611.600889 C503.613103,611.730483 503.716213,611.823468 503.838062,611.862827 L502.503093,611.862827 C502.265755,611.862827 502.073289,612.055199 502.073289,612.292515 L502.073289,613.249173 C502.073289,613.363126 502.118591,613.472439 502.199179,613.553006 L503.24287,614.596374 L503.24287,614.66448 L492.761127,614.66448 Z M505.947064,614.114565 C505.866476,614.195132 505.821174,614.304444 505.821174,614.418398 L505.821174,619.743566 L504.961826,621.56381 L504.102434,619.743523 L504.102434,614.418398 C504.102434,614.304444 504.057133,614.195132 503.976544,614.114565 L502.932853,613.071196 L502.932853,612.722161 L506.990712,612.722161 L506.990712,613.071196 L505.947064,614.114565 Z M506.680738,619.820566 L506.680738,615.523899 L508.140393,615.523899 L508.140393,619.820566 L506.680738,619.820566 Z" id="Installation-grey" stroke="#FFFFFF" stroke-width="0.1" fill="#AA9E9D" fill-rule="nonzero"></path>
    </g>
</svg>