<?xml version="1.0" encoding="UTF-8"?>
<svg width="24px" height="24px" viewBox="0 0 24 24" version="1.1" xmlns="http://www.w3.org/2000/svg" xmlns:xlink="http://www.w3.org/1999/xlink">
    <!-- Generator: Sketch 48 (47235) - http://www.bohemiancoding.com/sketch -->
    <title>Installation black</title>
    <desc>Created with Sketch.</desc>
    <defs></defs>
    <g id="Last-Mile" stroke="none" stroke-width="1" fill="none" fill-rule="evenodd" transform="translate(-436.000000, -600.000000)">
        <path d="M458.570197,614.664566 L456.680738,614.664566 L456.680738,614.596374 L457.72443,613.553006 C457.805018,613.472439 457.850319,613.363126 457.850319,613.249173 L457.850319,612.292515 C457.850319,612.055199 457.657853,611.862827 457.420516,611.862827 L454.1005,611.862827 C454.10411,611.861682 455.226914,611.453378 457.468912,610.637915 C457.576019,610.598943 457.663269,610.519021 457.711493,610.415724 C457.759631,610.312427 457.764788,610.194262 457.725805,610.087184 L457.132848,608.458537 C457.080498,608.314764 456.95564,608.209662 456.804994,608.182591 L456.402956,608.110361 L456.319746,607.881896 L456.536496,607.722224 C456.689979,607.60913 456.750581,607.408465 456.68538,607.229371 L455.294236,603.408284 C454.960063,602.490341 454.288324,601.757465 453.402714,601.344578 C452.51719,600.931776 451.523743,600.888378 450.605597,601.22246 L449.378551,601.668949 C449.155483,601.750117 449.040468,601.996672 449.121658,602.219637 L449.496059,603.247967 C449.577249,603.470932 449.823828,603.585831 450.046852,603.504792 C450.584322,603.309241 451.180588,603.587292 451.376234,604.124488 L451.76396,605.189427 C451.822155,605.349314 451.814634,605.522263 451.742685,605.676392 C451.670778,605.830565 451.543084,605.947569 451.383197,606.005748 L447.482216,607.42518 C447.405023,607.363434 447.320051,607.310368 447.228159,607.267528 C446.926437,607.126891 446.587967,607.112066 446.275156,607.225934 L437.867343,610.285227 C437.221564,610.520224 436.887349,611.236686 437.122451,611.882292 L437.840953,613.855893 C437.954808,614.168663 438.183764,614.418355 438.485443,614.559034 C438.600416,614.612617 438.720718,614.647464 438.842911,614.664394 L437.429803,614.664394 C437.192466,614.664394 437,614.856765 437,615.094082 L437,620.250082 C437,620.487399 437.192466,620.67977 437.429803,620.67977 L453.594019,620.67977 L454.573154,622.753746 C454.644115,622.904094 454.795535,623 454.961826,623 C455.128117,623 455.279536,622.904094 455.350497,622.753703 L456.329589,620.67977 L458.570197,620.67977 C458.807534,620.67977 459,620.487399 459,620.250082 L459,615.094254 C458.999957,614.856937 458.807534,614.664566 458.570197,614.664566 Z M450.173558,602.59656 L450.07638,602.329595 L450.899539,602.030016 C451.601967,601.774395 452.361902,601.807566 453.039444,602.12343 C453.716943,602.439294 454.230859,602.999951 454.486506,603.70219 L455.767707,607.221164 L455.550957,607.380836 C455.397474,607.49393 455.336872,607.694595 455.402073,607.873689 L455.679812,608.636471 C455.732162,608.780245 455.85702,608.885346 456.007666,608.912417 L456.409704,608.984647 L456.771126,609.977356 L454.22669,610.903205 L453.865268,609.910496 L454.126847,609.596781 C454.224842,609.479261 454.252951,609.318472 454.200558,609.174698 L453.922819,608.411916 C453.849924,608.211595 453.640868,608.095021 453.432327,608.138033 L452.673725,608.294181 L452.386358,607.504887 L452.05975,606.607784 C452.2566,606.461605 452.415241,606.267987 452.521703,606.039608 C452.690702,605.677381 452.70841,605.271068 452.571646,604.89552 L452.183921,603.830581 C451.876783,602.986974 451.029082,602.492833 450.173558,602.59656 Z M451.273296,606.960301 L451.84588,608.533131 L448.518214,609.743992 L447.94563,608.171162 L451.273296,606.960301 Z M438.648683,613.562158 L438.479641,613.09788 L440.316019,612.429672 C440.539087,612.348504 440.654102,612.101949 440.572912,611.878984 C440.491722,611.655975 440.245101,611.541034 440.022119,611.622159 L438.185698,612.290367 L437.93018,611.5886 C437.857243,611.388237 437.960954,611.165873 438.161372,611.092998 L446.569185,608.033619 C446.66632,607.998255 446.771321,608.002853 446.864975,608.046509 C446.958629,608.090166 447.029676,608.167681 447.065006,608.264705 L447.482732,609.412058 L445.69101,610.063981 C445.467943,610.145149 445.352927,610.391704 445.434117,610.614669 C445.497642,610.789209 445.662472,610.897533 445.838003,610.897533 C445.886786,610.897533 445.936471,610.889154 445.984953,610.871494 L447.776674,610.219571 L447.783508,610.238391 C447.818838,610.335458 447.814282,610.440431 447.770571,610.53406 C447.726903,610.627689 447.649409,610.698716 447.552317,610.734037 L439.144504,613.793287 C439.047368,613.828608 438.94241,613.82401 438.848713,613.780397 C438.755059,613.73674 438.684012,613.659225 438.648683,613.562158 Z M437.859564,615.523856 L441.723281,615.523856 L440.673529,616.573369 C440.574417,616.672413 440.442725,616.72694 440.302609,616.72694 L437.859564,616.72694 L437.859564,615.523856 Z M453.24287,618.402681 L451.465934,618.402681 C451.228597,618.402681 451.036131,618.595052 451.036131,618.832369 C451.036131,619.069686 451.228597,619.262057 451.465934,619.262057 L453.24287,619.262057 L453.24287,619.820609 L437.859564,619.820609 L437.859564,617.586359 L440.302652,617.586359 C440.672369,617.586359 441.019865,617.442414 441.281314,617.181077 L442.938894,615.523942 L450.956402,615.523942 C450.740125,615.753052 450.561069,616.021306 450.431741,616.321615 L450.025276,617.265124 C449.727552,617.956149 449.048935,618.402724 448.296349,618.402724 L447.57385,618.402724 C447.336513,618.402724 447.144047,618.595095 447.144047,618.832412 C447.144047,619.069729 447.336513,619.2621 447.57385,619.2621 L448.296349,619.2621 C449.392606,619.2621 450.381154,618.611681 450.814739,617.605094 L451.221161,616.661584 C451.518843,615.97056 452.197459,615.523985 452.950088,615.523985 L453.24287,615.523985 L453.24287,618.402681 Z M442.761127,614.66448 C442.761041,614.66448 441.565586,614.66448 439.174762,614.66448 C439.263731,614.652663 439.352099,614.63221 439.438489,614.6008 L447.846259,611.541421 C448.159113,611.427596 448.408872,611.198744 448.549547,610.897146 C448.592398,610.805279 448.623387,610.710017 448.642814,610.613122 L452.514268,609.204433 L453.242097,609.054601 L453.308286,609.236445 L453.046708,609.55016 C452.948713,609.66768 452.920604,609.828469 452.972997,609.972243 L453.565953,611.600889 C453.613103,611.730483 453.716213,611.823468 453.838062,611.862827 L452.503093,611.862827 C452.265755,611.862827 452.073289,612.055199 452.073289,612.292515 L452.073289,613.249173 C452.073289,613.363126 452.118591,613.472439 452.199179,613.553006 L453.24287,614.596374 L453.24287,614.66448 L442.761127,614.66448 Z M455.947064,614.114565 C455.866476,614.195132 455.821174,614.304444 455.821174,614.418398 L455.821174,619.743566 L454.961826,621.56381 L454.102434,619.743523 L454.102434,614.418398 C454.102434,614.304444 454.057133,614.195132 453.976544,614.114565 L452.932853,613.071196 L452.932853,612.722161 L456.990712,612.722161 L456.990712,613.071196 L455.947064,614.114565 Z M456.680738,619.820566 L456.680738,615.523899 L458.140393,615.523899 L458.140393,619.820566 L456.680738,619.820566 Z" id="Installation-black" stroke="#FFFFFF" stroke-width="0.1" fill="#000000" fill-rule="nonzero"></path>
    </g>
</svg>