<?xml version="1.0" encoding="UTF-8"?>
<svg width="22px" height="22px" viewBox="0 0 22 22" version="1.1" xmlns="http://www.w3.org/2000/svg" xmlns:xlink="http://www.w3.org/1999/xlink">
    <!-- Generator: Sketch 48 (47235) - http://www.bohemiancoding.com/sketch -->
    <title>Last Mile grey</title>
    <desc>Created with Sketch.</desc>
    <defs></defs>
    <g id="Client-Profile-Edit" stroke="none" stroke-width="1" fill="none" fill-rule="evenodd" transform="translate(-1050.000000, -228.000000)">
        <g id="Last-mile-circle" transform="translate(1032.000000, 218.000000)" fill-rule="nonzero">
            <g id="Last-Mile-grey" transform="translate(18.150000, 10.050000)">
                <path d="M11.1672917,15.1897661 L9.66421474,16.7744605 L9.20979612,16.2953669 L8.72042221,16.8113139 L9.41952779,17.5483811 C9.48943835,17.6220878 9.55934891,17.6589411 9.66421474,17.6589411 C9.76908058,17.6589411 9.83899114,17.6220878 9.9089017,17.5483811 L11.6566656,15.7057132 L11.1672917,15.1897661 Z" id="Shape" fill="#000000"></path>
                <path d="M21.5368212,7.23998766 L19.5793256,5.54473319 L19.5793256,0.532676497 C19.5793256,0.311556349 19.4395045,0.164142917 19.2297728,0.164142917 L16.4333505,0.164142917 C16.2236188,0.164142917 16.0837977,0.311556349 16.0837977,0.532676497 L16.0837977,2.48590447 L13.4971071,0.237849633 C13.357286,0.127289559 13.1825096,0.127289559 13.0426884,0.237849633 L5.00297429,7.23998766 C4.93306374,7.31369437 4.89810846,7.42425445 4.89810846,7.53481452 L4.89810846,11.5957151 L4.19900288,11.5957151 L4.19900288,11.2271816 C4.19900288,10.6006745 3.74458425,10.1215808 3.15034451,10.1215808 C2.55610477,10.1215808 2.10168614,10.6006745 2.10168614,11.2271816 L2.10168614,11.5957151 L0.353922199,11.5957151 C0.144190526,11.5957151 0.00436940986,11.7431286 0.00436940986,11.9642487 L0.00436940986,21.4396835 C0.00436940986,21.6608036 0.144190526,21.8082171 0.353922199,21.8082171 L21.3270895,21.8082171 C21.5368212,21.8082171 21.6766423,21.6608036 21.6766423,21.4396835 L21.6766423,7.53481452 C21.6766423,7.42425445 21.6416871,7.31369437 21.5368212,7.23998766 Z M16.7829033,0.901210077 L18.88022,0.901210077 L18.88022,4.9182261 L16.7829033,3.0755582 L16.7829033,0.901210077 Z M4.19900288,12.3327823 L6.29631961,12.3327823 L6.29631961,13.0698495 L4.19900288,13.0698495 L4.19900288,12.3327823 Z M2.80079172,11.2271816 C2.80079172,11.0060614 2.94061284,10.858648 3.15034451,10.858648 C3.36007619,10.858648 3.4998973,11.0060614 3.4998973,11.2271816 L3.4998973,13.0698495 L2.80079172,13.0698495 L2.80079172,11.2271816 Z M6.6458724,13.8069166 L12.5882698,13.8069166 L12.5882698,19.5970156 L2.10168614,19.5970156 L2.10168614,13.8069166 L6.6458724,13.8069166 Z M6.99542519,13.0698495 L6.99542519,11.2271816 C6.99542519,11.0060614 7.13524631,10.858648 7.34497798,10.858648 C7.55470966,10.858648 7.69453077,11.0060614 7.69453077,11.2271816 L7.69453077,13.0698495 L6.99542519,13.0698495 Z M8.39363635,13.0698495 L8.39363635,12.3327823 L10.4909531,12.3327823 L10.4909531,13.0698495 L8.39363635,13.0698495 Z M11.1900587,13.0698495 L11.1900587,11.2271816 C11.1900587,11.0060614 11.3298798,10.858648 11.5396115,10.858648 C11.7493431,10.858648 11.8891642,11.0060614 11.8891642,11.2271816 L11.8891642,13.0698495 L11.1900587,13.0698495 Z M13.986481,21.0711499 L0.703474988,21.0711499 L0.703474988,12.3327823 L2.10168614,12.3327823 L2.10168614,13.0698495 L1.75213336,13.0698495 C1.54240168,13.0698495 1.40258057,13.2172629 1.40258057,13.438383 L1.40258057,19.9655492 C1.40258057,20.1866693 1.54240168,20.3340827 1.75213336,20.3340827 L12.9378226,20.3340827 C13.1475543,20.3340827 13.2873754,20.1866693 13.2873754,19.9655492 L13.2873754,13.438383 C13.2873754,13.2172629 13.1475543,13.0698495 12.9378226,13.0698495 L12.5882698,13.0698495 L12.5882698,12.3327823 L13.986481,12.3327823 L13.986481,20.2970239 L13.986481,21.0711499 Z M14.6855866,21.0711499 L20.9775368,21.0711499 L14.6855866,21.0711499 Z M20.9775368,21.0711499 L14.6855866,21.0711499 L14.6855866,20.3282754 L14.6855866,12.3327823 L14.6855866,11.9642487 C14.6855866,11.7431286 14.5457654,11.5957151 14.3360338,11.5957151 L12.5882698,11.5957151 L12.5882698,11.2271816 C12.5882698,10.6006745 12.1338512,10.1215808 11.5396115,10.1215808 C10.9453717,10.1215808 10.4909531,10.6006745 10.4909531,11.2271816 L10.4909531,11.5957151 L8.39363635,11.5957151 L8.39363635,11.2271816 C8.39363635,10.6006745 7.93921772,10.1215808 7.34497798,10.1215808 C6.75073824,10.1215808 6.29631961,10.6006745 6.29631961,11.2271816 L6.29631961,11.5957151 L5.59721404,11.5957151 L5.59721404,7.71908131 L13.2873754,1.01177015 L20.9775368,7.71908131 L20.9775368,21.0711499 Z M20.9775368,6.91658849 L13.4971071,0.740621078 C13.357286,0.630061004 12.0289854,1.78238358 11.8891642,1.89294366 L5.59721404,7.71908131 L13.2873754,1.01177015 L20.9775368,7.71908131 L20.9775368,6.91658849 Z M7.60024351,15.4437391 L6.20203235,15.4437391 C5.99230068,15.4437391 5.85247956,15.5911525 5.85247956,15.8122727 L5.85247956,17.286407 C5.85247956,17.5075272 5.99230068,17.6549406 6.20203235,17.6549406 L7.60024351,17.6549406 C7.80997518,17.6549406 7.94979629,17.5075272 7.94979629,17.286407 L7.94979629,15.8122727 C7.94979629,15.5911525 7.80997518,15.4437391 7.60024351,15.4437391 Z M7.25069072,16.9178734 L6.55158514,16.9178734 L6.55158514,16.1808063 L7.25069072,16.1808063 L7.25069072,16.9178734 Z M4.80382119,15.4437391 L3.40561004,15.4437391 C3.19587836,15.4437391 3.05605725,15.5911525 3.05605725,15.8122727 L3.05605725,17.286407 C3.05605725,17.5075272 3.19587836,17.6549406 3.40561004,17.6549406 L4.80382119,17.6549406 C5.01355287,17.6549406 5.15337398,17.5075272 5.15337398,17.286407 L5.15337398,15.8122727 C5.15337398,15.5911525 5.01355287,15.4437391 4.80382119,15.4437391 Z M4.4542684,16.9178734 L3.75516283,16.9178734 L3.75516283,16.1808063 L4.4542684,16.1808063 L4.4542684,16.9178734 Z" id="Shape" fill="#AA9E9D"></path>
                <path d="M14.3360338,4.11860522 L12.238717,4.11860522 C12.0289854,4.11860522 11.8891642,4.26601865 11.8891642,4.4871388 L11.8891642,6.69834028 C11.8891642,6.91946042 12.0289854,7.06687386 12.238717,7.06687386 L14.3360338,7.06687386 C14.5457654,7.06687386 14.6855866,6.91946042 14.6855866,6.69834028 L14.6855866,4.4871388 C14.6855866,4.26601865 14.5457654,4.11860522 14.3360338,4.11860522 Z M13.986481,6.3298067 L12.5882698,6.3298067 L12.5882698,4.85567238 L13.986481,4.85567238 L13.986481,6.3298067 Z" id="Shape" fill="#000000"></path>
                <path d="M11.1672917,15.1897661 L9.66421474,16.7744605 L9.20979612,16.2953669 L8.72042221,16.8113139 L9.41952779,17.5483811 C9.48943835,17.6220878 9.55934891,17.6589411 9.66421474,17.6589411 C9.76908058,17.6589411 9.83899114,17.6220878 9.9089017,17.5483811 L11.6566656,15.7057132 L11.1672917,15.1897661 Z" id="Shape" fill="#AB9E9E"></path>
                <path d="M14.3360338,4.11860522 L12.238717,4.11860522 C12.0289854,4.11860522 11.8891642,4.26601865 11.8891642,4.4871388 L11.8891642,6.69834028 C11.8891642,6.91946042 12.0289854,7.06687386 12.238717,7.06687386 L14.3360338,7.06687386 C14.5457654,7.06687386 14.6855866,6.91946042 14.6855866,6.69834028 L14.6855866,4.4871388 C14.6855866,4.26601865 14.5457654,4.11860522 14.3360338,4.11860522 Z M13.986481,6.3298067 L12.5882698,6.3298067 L12.5882698,4.85567238 L13.986481,4.85567238 L13.986481,6.3298067 Z" id="Shape" fill="#AB9E9E"></path>
            </g>
        </g>
    </g>
</svg>