<?xml version="1.0" encoding="UTF-8"?>
<svg width="22px" height="22px" viewBox="0 0 22 22" version="1.1" xmlns="http://www.w3.org/2000/svg" xmlns:xlink="http://www.w3.org/1999/xlink">
    <!-- Generator: Sketch 48 (47235) - http://www.bohemiancoding.com/sketch -->
    <title>Last Mile red</title>
    <desc>Created with Sketch.</desc>
    <defs></defs>
    <g id="Last-Mile" stroke="none" stroke-width="1" fill="none" fill-rule="evenodd" transform="translate(-951.000000, -416.000000)">
        <g id="Main-Status-elements-Copy-2" transform="translate(180.000000, 316.000000)">
            <g id="Main-Status-Icons" transform="translate(59.210526, 40.000000)">
                <g id="Last-mile-circle" transform="translate(653.052632, 0.000000)">
                    <g id="Last-Mile-red" transform="translate(59.000000, 60.000000)">
                        <g id="house-(1)-copy" opacity="0.8" transform="translate(0.000000, 0.154930)" fill="#000000" fill-rule="nonzero">
                            <path d="M11.1672917,15.0348366 L9.66421474,16.619531 L9.20979612,16.1404373 L8.72042221,16.6563843 L9.41952779,17.3934515 C9.48943835,17.4671582 9.55934891,17.5040115 9.66421474,17.5040115 C9.76908058,17.5040115 9.83899114,17.4671582 9.9089017,17.3934515 L11.6566656,15.5507836 L11.1672917,15.0348366 Z" id="Shape"></path>
                            <path d="M21.5368212,7.08505808 L19.5793256,5.38980361 L19.5793256,0.37774692 C19.5793256,0.156626772 19.4395045,0.0092133395 19.2297728,0.0092133395 L16.4333505,0.0092133395 C16.2236188,0.0092133395 16.0837977,0.156626772 16.0837977,0.37774692 L16.0837977,2.33097489 L13.4971071,0.0829200555 C13.357286,-0.0276400185 13.1825096,-0.0276400185 13.0426884,0.0829200555 L5.00297429,7.08505808 C4.93306374,7.1587648 4.89810846,7.26932487 4.89810846,7.37988494 L4.89810846,11.4407856 L4.19900288,11.4407856 L4.19900288,11.072252 C4.19900288,10.4457449 3.74458425,9.96665124 3.15034451,9.96665124 C2.55610477,9.96665124 2.10168614,10.4457449 2.10168614,11.072252 L2.10168614,11.4407856 L0.353922199,11.4407856 C0.144190526,11.4407856 0.00436940986,11.588199 0.00436940986,11.8093191 L0.00436940986,21.2847539 C0.00436940986,21.5058741 0.144190526,21.6532875 0.353922199,21.6532875 L21.3270895,21.6532875 C21.5368212,21.6532875 21.6766423,21.5058741 21.6766423,21.2847539 L21.6766423,7.37988494 C21.6766423,7.26932487 21.6416871,7.1587648 21.5368212,7.08505808 Z M16.7829033,0.7462805 L18.88022,0.7462805 L18.88022,4.76329652 L16.7829033,2.92062862 L16.7829033,0.7462805 Z M4.19900288,12.1778527 L6.29631961,12.1778527 L6.29631961,12.9149199 L4.19900288,12.9149199 L4.19900288,12.1778527 Z M2.80079172,11.072252 C2.80079172,10.8511318 2.94061284,10.7037184 3.15034451,10.7037184 C3.36007619,10.7037184 3.4998973,10.8511318 3.4998973,11.072252 L3.4998973,12.9149199 L2.80079172,12.9149199 L2.80079172,11.072252 Z M6.6458724,13.651987 L12.5882698,13.651987 L12.5882698,19.442086 L2.10168614,19.442086 L2.10168614,13.651987 L6.6458724,13.651987 Z M6.99542519,12.9149199 L6.99542519,11.072252 C6.99542519,10.8511318 7.13524631,10.7037184 7.34497798,10.7037184 C7.55470966,10.7037184 7.69453077,10.8511318 7.69453077,11.072252 L7.69453077,12.9149199 L6.99542519,12.9149199 Z M8.39363635,12.9149199 L8.39363635,12.1778527 L10.4909531,12.1778527 L10.4909531,12.9149199 L8.39363635,12.9149199 Z M11.1900587,12.9149199 L11.1900587,11.072252 C11.1900587,10.8511318 11.3298798,10.7037184 11.5396115,10.7037184 C11.7493431,10.7037184 11.8891642,10.8511318 11.8891642,11.072252 L11.8891642,12.9149199 L11.1900587,12.9149199 Z M13.986481,20.9162203 L0.703474988,20.9162203 L0.703474988,12.1778527 L2.10168614,12.1778527 L2.10168614,12.9149199 L1.75213336,12.9149199 C1.54240168,12.9149199 1.40258057,13.0623333 1.40258057,13.2834535 L1.40258057,19.8106196 C1.40258057,20.0317397 1.54240168,20.1791532 1.75213336,20.1791532 L12.9378226,20.1791532 C13.1475543,20.1791532 13.2873754,20.0317397 13.2873754,19.8106196 L13.2873754,13.2834535 C13.2873754,13.0623333 13.1475543,12.9149199 12.9378226,12.9149199 L12.5882698,12.9149199 L12.5882698,12.1778527 L13.986481,12.1778527 L13.986481,20.1420943 L13.986481,20.9162203 Z M14.6855866,20.9162203 L20.9775368,20.9162203 L14.6855866,20.9162203 Z M20.9775368,20.9162203 L14.6855866,20.9162203 L14.6855866,20.1733459 L14.6855866,12.1778527 L14.6855866,11.8093191 C14.6855866,11.588199 14.5457654,11.4407856 14.3360338,11.4407856 L12.5882698,11.4407856 L12.5882698,11.072252 C12.5882698,10.4457449 12.1338512,9.96665124 11.5396115,9.96665124 C10.9453717,9.96665124 10.4909531,10.4457449 10.4909531,11.072252 L10.4909531,11.4407856 L8.39363635,11.4407856 L8.39363635,11.072252 C8.39363635,10.4457449 7.93921772,9.96665124 7.34497798,9.96665124 C6.75073824,9.96665124 6.29631961,10.4457449 6.29631961,11.072252 L6.29631961,11.4407856 L5.59721404,11.4407856 L5.59721404,7.56415173 L13.2873754,0.856840574 L20.9775368,7.56415173 L20.9775368,20.9162203 Z M20.9775368,6.76165891 L13.4971071,0.5856915 C13.357286,0.475131426 12.0289854,1.62745401 11.8891642,1.73801408 L5.59721404,7.56415173 L13.2873754,0.856840574 L20.9775368,7.56415173 L20.9775368,6.76165891 Z M7.60024351,15.2888095 L6.20203235,15.2888095 C5.99230068,15.2888095 5.85247956,15.436223 5.85247956,15.6573431 L5.85247956,17.1314774 C5.85247956,17.3525976 5.99230068,17.500011 6.20203235,17.500011 L7.60024351,17.500011 C7.80997518,17.500011 7.94979629,17.3525976 7.94979629,17.1314774 L7.94979629,15.6573431 C7.94979629,15.436223 7.80997518,15.2888095 7.60024351,15.2888095 Z M7.25069072,16.7629439 L6.55158514,16.7629439 L6.55158514,16.0258767 L7.25069072,16.0258767 L7.25069072,16.7629439 Z M4.80382119,15.2888095 L3.40561004,15.2888095 C3.19587836,15.2888095 3.05605725,15.436223 3.05605725,15.6573431 L3.05605725,17.1314774 C3.05605725,17.3525976 3.19587836,17.500011 3.40561004,17.500011 L4.80382119,17.500011 C5.01355287,17.500011 5.15337398,17.3525976 5.15337398,17.1314774 L5.15337398,15.6573431 C5.15337398,15.436223 5.01355287,15.2888095 4.80382119,15.2888095 Z M4.4542684,16.7629439 L3.75516283,16.7629439 L3.75516283,16.0258767 L4.4542684,16.0258767 L4.4542684,16.7629439 Z" id="Shape"></path>
                            <path d="M14.3360338,3.96367564 L12.238717,3.96367564 C12.0289854,3.96367564 11.8891642,4.11108907 11.8891642,4.33220922 L11.8891642,6.5434107 C11.8891642,6.76453085 12.0289854,6.91194428 12.238717,6.91194428 L14.3360338,6.91194428 C14.5457654,6.91194428 14.6855866,6.76453085 14.6855866,6.5434107 L14.6855866,4.33220922 C14.6855866,4.11108907 14.5457654,3.96367564 14.3360338,3.96367564 Z M13.986481,6.17487712 L12.5882698,6.17487712 L12.5882698,4.7007428 L13.986481,4.7007428 L13.986481,6.17487712 Z" id="Shape"></path>
                        </g>
                        <polygon id="Path-26" stroke="#8C051E" stroke-width="0.5" fill="#8C051E" points="19.6533036 6.85862951 20.8808354 7.85812702 20.8808354 21.1287935 19.6533036 21.1287935"></polygon>
                        <polygon id="Path-26-Copy" stroke="#D0021B" stroke-width="0.5" fill="#D0021B" points="18.801171 6.09792125 19.4692975 6.68564499 19.4692975 21.1287935 18.6760851 21.1287935"></polygon>
                        <rect id="Rectangle-8" stroke="#D0021B" stroke-width="0.5" fill="#D0021B" x="3.69171439" y="16.2521127" width="1" height="1"></rect>
                        <rect id="Rectangle-8-Copy" stroke="#D0021B" stroke-width="0.5" fill="#D0021B" x="6.40621027" y="16.2521127" width="1" height="1"></rect>
                    </g>
                </g>
            </g>
        </g>
    </g>
</svg>