<?xml version="1.0" encoding="UTF-8"?>
<svg width="23px" height="23px" viewBox="0 0 23 23" version="1.1" xmlns="http://www.w3.org/2000/svg" xmlns:xlink="http://www.w3.org/1999/xlink">
    <!-- Generator: Sketch 48 (47235) - http://www.bohemiancoding.com/sketch -->
    <title>Payment grey</title>
    <desc>Created with Sketch.</desc>
    <defs></defs>
    <g id="Place-Order-Copy-3" stroke="none" stroke-width="1" fill="none" fill-rule="evenodd" transform="translate(-529.000000, -513.000000)">
        <g id="Payment-grey" transform="translate(530.000000, 514.000000)" fill="#AB9E9E" fill-rule="nonzero">
            <path d="M8.67480469,20.2871484 C8.59851562,20.2108184 8.49269531,20.1669727 8.38482422,20.1669727 C8.27654297,20.1669727 8.17113281,20.2108184 8.09484375,20.2871484 C8.01855469,20.3634785 7.97466797,20.4692578 7.97466797,20.5771289 C7.97466797,20.685 8.01855469,20.7908203 8.09484375,20.8670684 C8.17113281,20.9433574 8.27695313,20.9872852 8.38482422,20.9872852 C8.49269531,20.9872852 8.59851562,20.9433984 8.67480469,20.8670684 C8.75109375,20.7908203 8.79498047,20.685 8.79498047,20.5771289 C8.79498047,20.4692578 8.75109375,20.3634375 8.67480469,20.2871484 Z" id="Shape"></path>
            <path d="M2.37890625,12.8446582 C2.15237695,12.8446582 1.96875,13.0282852 1.96875,13.2548145 L1.96875,17.062418 C1.96875,17.2889062 2.15237695,17.4725742 2.37890625,17.4725742 C2.60543555,17.4725742 2.7890625,17.2889062 2.7890625,17.062418 L2.7890625,13.2548145 C2.7890625,13.0283262 2.60543555,12.8446582 2.37890625,12.8446582 Z" id="Shape"></path>
            <path d="M2.66888672,11.255918 C2.59259766,11.1796289 2.48677734,11.1357012 2.37890625,11.1357012 C2.27103516,11.1357012 2.16521484,11.1795879 2.08892578,11.255918 C2.01263672,11.332166 1.96875,11.4376172 1.96875,11.5458574 C1.96875,11.6537285 2.01263672,11.7595488 2.08892578,11.8358379 C2.16521484,11.912127 2.27103516,11.9560137 2.37890625,11.9560137 C2.48677734,11.9560137 2.59259766,11.912168 2.66888672,11.8358379 C2.74517578,11.7595078 2.7890625,11.6537285 2.7890625,11.5458574 C2.7890625,11.4379863 2.74517578,11.332207 2.66888672,11.255918 Z" id="Shape"></path>
            <path d="M21,11.1025195 C21,10.1204824 20.2917832,9.30123633 19.359375,9.12733008 L19.359375,6.46775391 C19.359375,5.33695312 18.4393945,4.41697266 17.3085938,4.41697266 L15.1652813,4.41697266 L10.8810352,0.132726562 C10.7208691,-0.0273984375 10.4611582,-0.0273984375 10.3009512,0.132726562 L9.34754297,1.08613477 L8.39413477,0.132726562 C8.23396875,-0.0273984375 7.97425781,-0.0273984375 7.8140918,0.132726562 L3.504375,4.44248437 C3.46032422,4.42632422 3.41295117,4.41705469 3.36328125,4.41705469 L2.05078125,4.41705469 C0.919980469,4.41705469 0,5.33703516 0,6.46783594 C0,6.49773633 0.000984375,6.52743164 0.00225585938,6.55700391 C0.000779296875,6.57103125 0,6.5853457 0,6.59986523 L0,18.9365449 C0,20.0673457 0.919980469,20.9873262 2.05078125,20.9873262 L6.65818945,20.9873262 C6.88471875,20.9873262 7.0683457,20.8036582 7.0683457,20.5771699 C7.0683457,20.3506816 6.88471875,20.1670137 6.65818945,20.1670137 L2.05078125,20.1670137 C1.37230078,20.1670137 0.8203125,19.6150254 0.8203125,18.9365449 L0.8203125,8.10727148 C1.16332617,8.3653418 1.58947852,8.51853516 2.05078125,8.51853516 L10.636418,8.52686133 L15.295957,8.52686133 C15.3093281,8.52686133 15.3226992,8.52616406 15.3359883,8.52489258 C15.3367676,8.52481055 15.3375469,8.5246875 15.3383262,8.52460547 C15.959959,8.5858418 16.4472656,9.11153906 16.4472656,9.74904492 L16.4472656,12.2920137 L11.484375,12.2920137 C10.3535742,12.2920137 9.43359375,13.2119941 9.43359375,14.3427949 C9.43359375,15.4735957 10.3535742,16.3935762 11.484375,16.3935762 L16.4472656,16.3935762 L16.4472656,18.9365449 C16.4472656,19.6150254 15.8952773,20.1670137 15.2167969,20.1670137 L10.103502,20.1670137 C9.87697266,20.1670137 9.6933457,20.3506816 9.6933457,20.5771699 C9.6933457,20.8036582 9.87697266,20.9873262 10.103502,20.9873262 L15.2167969,20.9873262 C16.3475977,20.9873262 17.2675781,20.0673457 17.2675781,18.9365449 L17.2675781,18.7724824 L17.3085938,18.7724824 C18.4393945,18.7724824 19.359375,17.852502 19.359375,16.7217012 L19.359375,16.3523145 C20.2943262,16.1617559 21,15.3331992 21,14.3427949 L21,11.1845918 C21,11.1760195 20.9997539,11.1674883 20.9992207,11.1590391 C20.9997539,11.1402539 21,11.1213867 21,11.1025195 Z M9.79494141,1.79898633 L10.5910137,1.00287305 L11.4699375,1.88179687 C10.9456348,2.19757617 10.2869648,2.20582031 9.75548437,1.90685742 C9.77390039,1.87256836 9.78694336,1.8361875 9.79494141,1.79898633 Z M0.8203125,6.46775391 C0.8203125,5.78927344 1.37230078,5.23728516 2.05078125,5.23728516 L2.7095332,5.23728516 L0.943277344,7.00354102 C0.864568359,6.84148828 0.8203125,6.65970703 0.8203125,6.46775391 Z M2.05078125,7.69822266 C1.86329883,7.69822266 1.68553711,7.65589453 1.52635547,7.58058984 L8.10411328,1.00283203 L8.7675,1.66621875 L2.73545508,7.69822266 L2.05078125,7.69822266 Z M5.92179492,7.69822266 C5.97757617,7.62952148 6.03684375,7.5634043 6.0999668,7.50032227 C6.58432031,7.01592773 7.22834766,6.74920313 7.91330859,6.74920313 C8.59826953,6.74920313 9.24229687,7.01596875 9.72665039,7.50032227 C9.78977344,7.5634043 9.84904102,7.6295625 9.90482227,7.69822266 L5.92179492,7.69822266 Z M14.5078008,7.69822266 L10.8871465,7.69822266 C10.7322715,7.41267188 10.5381035,7.15164844 10.3066934,6.92023828 C9.66738281,6.28092773 8.817375,5.92884961 7.91326758,5.92884961 C7.00916016,5.92884961 6.15915234,6.28092773 5.5198418,6.92023828 C5.28839062,7.15164844 5.09422266,7.41267188 4.93938867,7.69822266 L3.89554102,7.69822266 L9.12043945,2.47340625 C9.55819922,2.78766797 10.0744629,2.94533203 10.5910137,2.94533203 C11.1075645,2.94533203 11.6238281,2.78770898 12.0615879,2.47340625 L14.7398262,5.15164453 C14.2014961,5.9015332 14.1240176,6.88205273 14.5078008,7.69822266 Z M15.3314766,7.50114258 C15.007043,6.96248437 15.007043,6.28191211 15.3314766,5.74329492 L16.2104004,6.62221875 L15.3314766,7.50114258 Z M16.0960488,7.89665625 L17.0804648,6.91224023 C17.2406309,6.75207422 17.2406309,6.49236328 17.0804648,6.33215625 L15.9855937,5.23728516 L17.3085937,5.23728516 C17.9870742,5.23728516 18.5390625,5.78927344 18.5390625,6.46775391 L18.5390625,12.2919727 L17.2675781,12.2919727 L17.2675781,9.74900391 C17.2675781,8.93271094 16.7881055,8.22650391 16.0960488,7.89665625 Z M18.5390625,16.7216602 C18.5390625,17.4001406 17.9870742,17.9521289 17.3085937,17.9521289 L17.2675781,17.9521289 L17.2675781,16.3935352 L18.5390625,16.3935352 L18.5390625,16.7216602 Z M20.1796875,14.3427539 C20.1796875,15.0212344 19.6276992,15.5732227 18.9492188,15.5732227 L11.484375,15.5732227 C10.8058945,15.5732227 10.2539062,15.0212344 10.2539062,14.3427539 C10.2539062,13.6642734 10.8058945,13.1122852 11.484375,13.1122852 L18.9902344,13.1122852 C19.4349668,13.1122852 19.8464355,12.9670898 20.1796875,12.7216113 L20.1796875,14.3427539 Z M19.359375,12.2330332 L19.359375,9.97200586 C19.8350332,10.1277012 20.1796875,10.5755098 20.1796875,11.1025195 C20.1796875,11.6295293 19.8350332,12.0773379 19.359375,12.2330332 Z" id="Shape" stroke="#AB9E9E" stroke-width="0.2"></path>
            <path d="M11.8563867,14.0527734 C11.7800977,13.9764844 11.6742773,13.9325977 11.5664062,13.9325977 C11.4585352,13.9325977 11.3527148,13.9764434 11.2764258,14.0527734 C11.2001367,14.1290625 11.15625,14.2348828 11.15625,14.3427539 C11.15625,14.450625 11.2001367,14.5564453 11.2764258,14.6326934 C11.3527148,14.7089824 11.4585352,14.7529102 11.5664062,14.7529102 C11.6742773,14.7529102 11.7800977,14.7090234 11.8563867,14.6326934 C11.9326758,14.5564453 11.9765625,14.450625 11.9765625,14.3427539 C11.9765625,14.2348828 11.9326758,14.1290625 11.8563867,14.0527734 Z" id="Shape"></path>
            <path d="M12.0412031,5.17198828 C11.8809961,5.0119043 11.6213262,5.01186328 11.4611602,5.17198828 L10.7483086,5.88483984 C10.5881426,6.04500586 10.5881016,6.3047168 10.7483086,6.46492383 C10.8283711,6.54498633 10.9333301,6.58505859 11.0383301,6.58505859 C11.1432891,6.58505859 11.2482891,6.54498633 11.3283516,6.46492383 L12.0412031,5.75207227 C12.2013691,5.59190625 12.2014102,5.33223633 12.0412031,5.17198828 Z" id="Shape"></path>
        </g>
    </g>
</svg>