<?xml version="1.0" encoding="UTF-8"?>
<svg width="23px" height="25px" viewBox="0 0 23 25" version="1.1" xmlns="http://www.w3.org/2000/svg" xmlns:xlink="http://www.w3.org/1999/xlink">
    <!-- Generator: Sketch 48 (47235) - http://www.bohemiancoding.com/sketch -->
    <title>Initial PPT Black</title>
    <desc>Created with Sketch.</desc>
    <defs></defs>
    <g id="Client-BOQ-Approve" stroke="none" stroke-width="1" fill="none" fill-rule="evenodd" transform="translate(-726.000000, -516.000000)">
        <g id="Group-16" transform="translate(478.000000, 465.500000)" fill="#000000" stroke="#FFFFFF" stroke-width="0.1">
            <g id="Book-Order-Circle-Copy" transform="translate(0.000000, 11.000000)">
                <g id="Place-order-icon-red" transform="translate(32.150000, 0.050000)">
                    <g id="Group-8" transform="translate(0.128720, 0.130403)">
                        <g id="Group-17">
                            <g id="Initial-PPT-Black" transform="translate(216.721280, 40.319597)">
                                <rect id="Rectangle-path" fill-rule="nonzero" x="4.81248633" y="19.6458184" width="11.3749863" height="1"></rect>
                                <path d="M12.6874863,0 L8.31251367,0 C8.07089063,0 7.875,0.214546875 7.875,0.479181641 L7.875,2.39586328 C7.875,2.66045312 8.07089063,2.875 8.31251367,2.875 L12.6875273,2.875 C12.9291094,2.875 13.125,2.66045312 13.125,2.39581836 L13.125,0.479181641 C13.125,0.214546875 12.9291094,0 12.6874863,0 Z M12.2500137,1.91668164 L8.75002734,1.91668164 L8.75002734,0.958318359 L12.2500137,0.958318359 L12.2500137,1.91668164 Z" id="Shape" fill-rule="nonzero"></path>
                                <path d="M20.5624863,1.91668164 L0.437513672,1.91668164 C0.195890625,1.91668164 0,2.13118359 0,2.39581836 L0,4.3125 C0,4.57713477 0.195890625,4.79168164 0.437513672,4.79168164 L7.875,4.79168164 L7.875,3.83331836 L0.874986328,3.83331836 L0.874986328,2.875 L20.1249727,2.875 L20.1249727,3.83331836 L13.125,3.83331836 L13.125,4.79163672 L20.5624863,4.79163672 C20.8041094,4.79163672 21,4.57708984 21,4.31245508 L21,2.39581836 C21,2.13118359 20.8041094,1.91668164 20.5624863,1.91668164 Z" id="Shape" fill-rule="nonzero"></path>
                                <path d="M19.2499863,5.75 L19.2499863,16.7708184 L16.1874727,16.7708184 C15.9458496,16.7708184 15.749959,16.9853652 15.749959,17.25 L15.749959,22.5208184 C15.749959,22.7854531 15.9458496,23 16.1874727,23 L17.9374863,23 C18.1791094,23 18.375,22.7854531 18.375,22.5208184 L18.375,17.7291816 L19.2499863,17.7291816 C19.7332324,17.7291816 20.1249727,17.3001328 20.1249727,16.7708633 L20.1249727,5.75 L19.2499863,5.75 Z M16.6250273,22.0416816 L16.6250273,17.7291816 L17.5000137,17.7291816 L17.5000137,22.0416816 L16.6250273,22.0416816 Z" id="Shape" fill-rule="nonzero"></path>
                                <path d="M4.81248633,16.7708184 L1.75001367,16.7708184 L1.75001367,5.75 L0.874986328,5.75 L0.874986328,16.7708184 C0.874986328,17.3000879 1.26672656,17.7291367 1.74997266,17.7291367 L2.625,17.7291367 L2.625,22.5208184 C2.625,22.7854531 2.82089062,23 3.06251367,23 L4.81252734,23 C5.05415039,23 5.25004102,22.7854531 5.25004102,22.5208184 L5.25004102,17.25 C5.25,16.9853652 5.05410937,16.7708184 4.81248633,16.7708184 Z M3.49998633,22.0416816 L3.49998633,17.7291816 L4.37497266,17.7291816 L4.37497266,22.0416816 L3.49998633,22.0416816 Z" id="Shape" fill-rule="nonzero"></path>
                                <path d="M13.9999863,15.8125 L7.00001367,15.8125 C6.75839063,15.8125 6.5625,16.0270469 6.5625,16.2916816 L6.5625,18.2083633 C6.5625,18.472998 6.75839063,18.6875449 7.00001367,18.6875449 L14.0000273,18.6875449 C14.2416504,18.6875449 14.437541,18.472998 14.437541,18.2083633 L14.437541,16.2916816 C14.4375,16.0270469 14.2416094,15.8125 13.9999863,15.8125 Z M7.43748633,17.7291816 L7.43748633,16.7708633 L13.5625137,16.7708633 L13.5625137,17.7291816 L7.43748633,17.7291816 Z" id="Shape" fill-rule="nonzero"></path>
                                <rect id="Rectangle-path" fill-rule="nonzero" x="5.22264258" y="16.7708184" width="1.36717383" height="1"></rect>
                                <rect id="Rectangle-path" fill-rule="nonzero" x="14.4101426" y="16.7708184" width="1.36717383" height="1"></rect>
                                <path d="M11.3749863,5.75 L7.00001367,5.75 C6.75839063,5.75 6.5625,5.96454688 6.5625,6.22918164 L6.5625,11.0208633 C6.5625,11.285498 6.75839063,11.5000449 7.00001367,11.5000449 L11.3750273,11.5000449 C11.6166504,11.5000449 11.812541,11.285498 11.812541,11.0208633 L11.812541,6.22918164 C11.8125,5.96454688 11.6166094,5.75 11.3749863,5.75 Z M10.9375137,10.5416816 L7.43752734,10.5416816 L7.43752734,6.70836328 L10.9375137,6.70836328 L10.9375137,10.5416816 Z" id="Shape" fill-rule="nonzero"></path>
                                <path d="M10.4742784,7.30588235 C8.78291705,7.30588235 7.41176471,8.80757571 7.41176471,10.660064 C7.41176471,12.5125074 8.78287603,14.0142456 10.4742784,14.0142456 C12.1648604,14.0121343 13.5348643,12.5116538 13.536792,10.660064 C13.536792,8.80757571 12.1656807,7.30588235 10.4742784,7.30588235 Z M10.4742784,13.0558824 C9.26616314,13.0558824 8.28679205,11.9832378 8.28679205,10.660064 C8.28679205,9.33684524 9.26616314,8.26420071 10.4742784,8.26420071 C11.6818194,8.26577298 12.6603292,9.33751907 12.6617647,10.6600191 C12.6618057,11.9832378 11.6824346,13.0558824 10.4742784,13.0558824 Z" id="Shape" fill-rule="nonzero"></path>
                                <path d="M15.75,6.22913672 C15.75,5.96450195 15.5541094,5.74995508 15.3124863,5.74995508 L12.6874863,5.74995508 L12.6874863,6.70827344 L14.8749727,6.70827344 L14.8749727,8.625 C14.8749727,8.88963477 15.0708633,9.10418164 15.3124863,9.10418164 L17.4999727,9.10418164 L17.4999727,8.14586328 L15.75,8.14586328 L15.75,6.22913672 Z" id="Shape" fill-rule="nonzero"></path>
                                <path d="M6.12498633,12.4583633 C6.12498633,12.1937285 5.9290957,11.9791816 5.68747266,11.9791816 L3.9375,11.9791816 L3.9375,12.9375 L5.25,12.9375 L5.25,13.8958184 C5.25,14.1604531 5.44589063,14.375 5.68751367,14.375 L8.31251367,14.375 L8.31251367,13.4166816 L6.12498633,13.4166816 L6.12498633,12.4583633 Z" id="Shape" fill-rule="nonzero"></path>
                                <path d="M8.37579918,10.6227951 L7.36687088,10.6227951 L7.36687088,6.59750557 L11.0266743,6.59750557 L11.0266743,7.75323486 C10.5679575,7.8534038 10.2186572,7.97312235 9.97877312,8.11239052 C9.73888907,8.25165869 9.47822223,8.48606548 9.19677258,8.81561089 C8.9489041,9.18574921 8.78165728,9.46551657 8.69503212,9.65491295 C8.60840696,9.84430933 8.50199598,10.1669367 8.37579918,10.6227951 Z" id="Path-17"></path>
                                <path d="M11.2546159,8.54947948 C11.5588171,8.641324 11.7672865,8.71522136 11.880024,8.77117157 C12.2554489,8.95749016 12.5706226,9.33949255 12.7000762,9.55212784 C12.8315022,9.76800298 13.0148934,10.0031181 13.1031829,10.591692 C13.1198921,10.7030827 13.1500809,10.9068358 13.1446591,11.1517897 C13.1428156,11.2350788 13.1289902,11.3738218 13.1031829,11.5680189 C12.8701335,12.2676859 12.6423913,12.6945241 12.4199563,12.8485336 C12.3496493,12.8972128 12.1002427,13.1097956 11.8325396,13.272089 C11.6263594,13.3970846 11.3925936,13.4047918 11.2983552,13.4548035 C11.1250882,13.5467551 10.9986399,13.5107403 10.8714562,13.5135002 C10.6632463,13.5180183 10.4943161,13.4735054 10.3877603,13.4548035 C9.99702371,13.3862241 9.71225787,13.1924849 9.5345231,13.0551128 C9.33119817,12.897962 9.04541499,12.612624 8.84965429,12.1558418 C8.7909081,12.0187652 8.71654058,11.7623947 8.62655172,11.3867302 L10.8714562,11.4263 C10.9891358,11.3981379 11.0671283,11.3669398 11.1054336,11.3327055 C11.1437388,11.2984712 11.1934663,11.2153394 11.2546159,11.0833101 L11.2546159,8.54947948 Z" id="Path-18"></path>
                            </g>
                        </g>
                    </g>
                </g>
            </g>
        </g>
    </g>
</svg>