<?xml version="1.0" encoding="UTF-8"?>
<svg width="22px" height="23px" viewBox="0 0 22 23" version="1.1" xmlns="http://www.w3.org/2000/svg" xmlns:xlink="http://www.w3.org/1999/xlink">
    <!-- Generator: Sketch 48 (47235) - http://www.bohemiancoding.com/sketch -->
    <title>Prod kick off red</title>
    <desc>Created with Sketch.</desc>
    <defs></defs>
    <g id="Client-Profile-Edit" stroke="none" stroke-width="1" fill="none" fill-rule="evenodd" transform="translate(-854.000000, -229.000000)">
        <g id="Prod-kick-off-circle" transform="translate(802.000000, 218.000000)" stroke-width="0.1">
            <g id="Prod-kick-off-red" transform="translate(52.150000, 11.550000)">
                <g id="prod-kick-off-copy" fill="#000000" fill-rule="nonzero" stroke="#FFFFFF">
                    <path d="M20.5690077,10.4463047 C20.568838,10.2092461 20.3789506,10.016918 20.1447829,10.016918 L19.0182247,10.016918 C18.8220599,9.24592969 18.5220657,8.51189453 18.1232469,7.82697266 L18.9198666,7.01984766 C19.0854933,6.85205469 19.0854933,6.57997656 18.9198666,6.41218359 L17.7199746,5.19659766 C17.5543055,5.02880469 17.2858249,5.02880469 17.1201134,5.19659766 C16.9544868,5.36439063 16.9544868,5.63646875 17.1201134,5.80426172 L18.0201385,6.71601563 L17.2860794,7.45967578 C17.1447136,7.60289063 17.1212586,7.82662891 17.229796,7.99674219 C17.7262095,8.77490625 18.0754887,9.62951172 18.2679635,10.5368398 C18.3099533,10.7348398 18.4827055,10.87625 18.6826027,10.87625 L19.7207277,10.87625 L19.7216184,13.4376602 L18.6826027,13.4376602 C18.4827055,13.4376602 18.3099109,13.5790703 18.2679635,13.7770703 C18.0754887,14.6844844 17.7262095,15.5391328 17.2298384,16.3172539 C17.121301,16.4873242 17.144756,16.7111055 17.2861218,16.8543203 L18.023065,17.6009023 L16.2362057,19.4131094 L15.4983294,18.665582 C15.3569211,18.5223672 15.136029,18.4986055 14.9681968,18.6085625 C14.2001641,19.1114688 13.3565497,19.4653164 12.4608085,19.6603086 C12.2654072,19.7028477 12.1258227,19.8778594 12.1258227,20.0804141 L12.1258227,21.1389922 L9.59743949,21.1398945 L9.59743949,20.0804141 C9.59743949,19.8779023 9.45785502,19.7028477 9.26241132,19.6603086 C8.36675492,19.4653164 7.52309808,19.1114688 6.75502299,18.6085625 C6.58714839,18.4986055 6.3662987,18.5223672 6.22489043,18.665582 L5.48408754,19.4160742 L3.69637993,17.6048555 L4.43718282,16.8543633 C4.57854868,16.7111484 4.60200362,16.4873672 4.4934662,16.3172539 C3.99705277,15.5391328 3.64773108,14.6844414 3.45529877,13.7770273 C3.41330891,13.5790273 3.24051428,13.4376172 3.04061711,13.4376172 L1.99477274,13.4376172 L1.99566344,10.876207 L3.0405747,10.876207 C3.24047187,10.876207 3.4132665,10.7347969 3.45521394,10.5367969 C3.64768866,9.62942578 3.99696794,8.77477734 4.49342379,7.99665625 C4.60196121,7.82654297 4.57850627,7.60276172 4.43714041,7.45954688 L3.69909443,6.71184766 L4.35981969,6.0424375 C4.52544636,5.87464453 4.52544636,5.60256641 4.35981969,5.43477344 C4.19415062,5.26698047 3.92567001,5.26698047 3.75995852,5.43477344 L2.79936629,6.40792969 C2.71984004,6.48849609 2.67513569,6.59780859 2.67513569,6.71176172 C2.67513569,6.82571484 2.71984004,6.93502734 2.79936629,7.01559375 L3.60005774,7.82675781 C3.20119651,8.51167969 2.90111747,9.24575781 2.70503756,10.0167461 L1.57173553,10.0167461 C1.33756784,10.0167461 1.14768037,10.2090313 1.14759555,10.4463047 L1.14636554,13.8670469 C1.14632313,13.981043 1.19098507,14.0903984 1.27055373,14.1710078 C1.35007997,14.2516172 1.4580236,14.2969063 1.57050552,14.2969063 L2.70503756,14.2969063 C2.90115988,15.0678945 3.20119651,15.8020156 3.60005774,16.4869805 L2.79660938,17.3009375 C2.63098272,17.4687305 2.63098272,17.7408086 2.79660938,17.9086445 L5.18426299,20.3275273 C5.34993206,20.4952773 5.61841267,20.4952773 5.78412416,20.3275273 L6.58757253,19.5135703 C7.26360924,19.9176484 7.9882524,20.2216094 8.74932918,20.4202539 L8.74932918,21.569625 C8.74932918,21.6836211 8.79403354,21.7929336 8.87364461,21.8735 C8.95317086,21.9540664 9.06102966,21.9993125 9.17346916,21.9993125 C9.17351158,21.9993125 9.17359641,21.9993125 9.17359641,21.9993125 L12.5502596,21.9980664 C12.7844273,21.9979805 12.9742299,21.8056094 12.9742299,21.5683789 L12.9742299,20.4202109 C13.7353916,20.2214805 14.4598651,19.9175625 15.1359442,19.5134844 L15.9366356,20.3246484 C16.0162043,20.4052148 16.1240631,20.4505039 16.236545,20.4505039 L16.2366723,20.4505039 C16.3491966,20.4505039 16.4570978,20.4051289 16.5366241,20.3244766 L18.9229628,17.9042617 C19.0884198,17.7364258 19.088335,17.4644766 18.9227932,17.2967695 L18.1233741,16.4868516 C18.522193,15.8019727 18.8222296,15.0679375 19.0183095,14.2969063 L20.1460977,14.2969063 C20.2585796,14.2969063 20.3665233,14.2516172 20.4460495,14.1710078 C20.5256182,14.0903984 20.5702801,13.981043 20.5702377,13.8670469 L20.5690077,10.4463047 Z" id="Shape"></path>
                    <path d="M21.2917422,1.71939453 L16.032364,1.71939453 L16.032364,0.430332031 C16.032364,0.193015625 15.8424342,0.00064453125 15.6082241,0.00064453125 L6.10774297,0.00064453125 C5.87353287,0.00064453125 5.68360299,0.193015625 5.68360299,0.430332031 L5.68360299,1.71935156 L0.424139981,1.71935156 C0.189929883,1.71935156 0,1.91172266 0,2.14903906 L0,3.86774609 C0,4.1050625 0.189929883,4.29743359 0.424139981,4.29743359 L5.6836454,4.29743359 L5.6836454,4.55524609 C5.6836454,4.67512891 5.73220943,4.78341016 5.81033601,4.86135547 L8.78707764,7.87703125 C8.84904449,7.93976562 8.92823143,7.98075781 9.01331391,7.99596875 L9.01331391,9.62474219 C9.01331391,9.77594922 9.0917798,9.91602734 9.21991249,9.99358594 L10.4341404,10.7286094 L10.4341404,12.3759023 C10.4341404,13.1813945 11.0809963,13.836625 11.8760043,13.836625 L12.8940675,13.836625 C13.2214187,13.836625 13.4876938,14.1064258 13.4876938,14.4380156 C13.4876938,14.7696055 13.2214187,15.0394062 12.8940675,15.0394062 L10.2644844,15.0394062 C9.46943404,15.0394062 8.82262057,15.6946797 8.82262057,16.5001289 L8.82262057,16.982625 C8.2239894,16.7231367 7.67375261,16.3477617 7.19943687,15.8672852 C6.22213352,14.8772422 5.68389989,13.5607656 5.68389989,12.1605859 C5.68389989,10.7604062 6.22213352,9.44401562 7.19943687,8.45388672 C7.36506353,8.28609375 7.36506353,8.01401563 7.19943687,7.84622266 C7.0338102,7.67842969 6.76532959,7.67842969 6.59957569,7.84622266 C5.46207468,8.99860156 4.83557751,10.5308242 4.83557751,12.160543 C4.83557751,13.7903047 5.46207468,15.3224844 6.59957569,16.4748633 C7.7370767,17.6272852 9.24947505,18.2619336 10.8581956,18.2619336 C12.4669161,18.2619336 13.9793145,17.6272422 15.1168155,16.4748633 C17.0366851,14.5298828 17.4344436,11.5074609 16.0840243,9.12475781 C15.9674282,8.91898047 15.7081939,8.84795313 15.5050308,8.96607422 C15.3019102,9.08423828 15.2317998,9.34686328 15.3484383,9.55264062 C16.5084612,11.599457 16.1665619,14.1960586 14.5169967,15.8671562 C13.5397358,16.8571992 12.2402557,17.4025156 10.8581532,17.4025156 C10.4531843,17.4025156 10.0555107,17.3553359 9.67077329,17.2642852 L9.67077329,16.500043 C9.67077329,16.1684531 9.93704837,15.8986523 10.2643996,15.8986523 L12.8939827,15.8986523 C13.6890331,15.8986523 14.3358465,15.2433789 14.3358465,14.4379297 C14.3358465,13.6324805 13.6889906,12.977207 12.8939827,12.977207 L11.8759195,12.977207 C11.5485682,12.977207 11.2822931,12.7074062 11.2822931,12.3758164 L11.2822931,10.7285234 L12.4965211,9.9935 C12.6246538,9.91594141 12.7031197,9.77586328 12.7031197,9.62465625 L12.7031197,7.99588281 C12.7882022,7.98067187 12.8673891,7.93967969 12.9293559,7.87694531 L15.9083031,4.85903516 C15.9855814,4.77924219 16.0322792,4.67276562 16.0322792,4.55516016 L16.0322792,4.29734766 L21.2917422,4.29734766 C21.5259523,4.29734766 21.7158822,4.10497656 21.7158822,3.86766016 L21.7158822,2.14903906 C21.715967,1.91172266 21.5259523,1.71939453 21.2917422,1.71939453 Z M0.848279962,3.43805859 L0.848279962,2.57868359 L5.6836454,2.57868359 L5.6836454,3.43805859 L0.848279962,3.43805859 Z M10.8582804,9.98430469 L9.86159387,9.3809375 L9.86159387,8.00288672 L11.8550094,8.00288672 L11.8550094,9.3809375 L10.8582804,9.98430469 Z M12.4538526,7.14346875 L12.2791069,7.14346875 L9.43745389,7.14346875 L9.26270822,7.14346875 L7.13199861,4.98489063 L14.5845622,4.98489063 L12.4538526,7.14346875 Z M15.1841265,4.12555859 L6.53188295,4.12555859 L6.53188295,2.92247656 L11.4591171,2.92247656 C11.6933272,2.92247656 11.8832571,2.73010547 11.8832571,2.49278906 C11.8832571,2.25547266 11.6933272,2.06310156 11.4591171,2.06310156 L6.53188295,2.06310156 L6.53188295,0.860019531 L15.1841265,0.860019531 L15.1841265,4.12555859 Z M20.8676871,3.43805859 L16.032364,3.43805859 L16.032364,2.57868359 L20.8676871,2.57868359 L20.8676871,3.43805859 Z" id="Shape"></path>
                </g>
                <polygon id="Path-12" stroke="#D0021B" fill="#D0021B" points="9.73905872 8.01760517 12.0340231 8.01760517 12.0340231 9.58600586 10.8865409 10.2970065 9.73905872 9.58600586"></polygon>
                <polygon id="Path-7" stroke="#8C051E" fill="#8C051E" points="6.99286437 4.94649639 15.3718965 4.94649639 12.9872347 7.3441857 9.48635069 7.48589994"></polygon>
            </g>
        </g>
    </g>
</svg>