<?xml version="1.0" encoding="UTF-8"?>
<svg width="22px" height="22px" viewBox="0 0 22 22" version="1.1" xmlns="http://www.w3.org/2000/svg" xmlns:xlink="http://www.w3.org/1999/xlink">
    <!-- Generator: Sketch 48 (47235) - http://www.bohemiancoding.com/sketch -->
    <title>Production black</title>
    <desc>Created with Sketch.</desc>
    <defs></defs>
    <g id="Production-kick-off" stroke="none" stroke-width="1" fill="none" fill-rule="evenodd" transform="translate(-427.000000, -597.000000)">
        <g id="Production-black" transform="translate(427.000000, 597.000000)" fill="#000000" fill-rule="nonzero">
            <path d="M5.55787891,7.93330277 C5.55787891,8.12907366 5.71338281,8.28775112 5.90523828,8.28775112 L9.14735938,8.28775112 C9.33925781,8.28775112 9.49471875,8.12902982 9.49471875,7.93330277 C9.49471875,7.73753189 9.33921484,7.57885443 9.14735938,7.57885443 L5.90523828,7.57885443 C5.71338281,7.57885443 5.55787891,7.73753189 5.55787891,7.93330277 Z" id="Shape"></path>
            <path d="M4.05264063,6.8699139 L5.44212109,6.8699139 C5.63401953,6.8699139 5.78948047,6.7111926 5.78948047,6.51546556 C5.78948047,6.31969467 5.63397656,6.16101722 5.44212109,6.16101722 L4.05264063,6.16101722 C3.86074219,6.16101722 3.70528125,6.31973852 3.70528125,6.51546556 C3.70528125,6.7111926 3.86074219,6.8699139 4.05264063,6.8699139 Z" id="Shape"></path>
            <path d="M10.1894805,2.4087492 L10.1894805,7.46064652 C10.1894805,7.91668527 10.553125,8.28770727 11,8.28770727 L15.6316016,8.28770727 C16.0785195,8.28770727 16.4421211,7.91664142 16.4421211,7.46064652 L16.4421211,2.4087492 L18.1929687,0.622169962 C18.3286211,0.483793048 18.3286211,0.259347098 18.1929687,0.120926339 C18.0573164,-0.0174944196 17.8374023,-0.0174944196 17.701707,0.120926339 L15.9508164,1.90754943 L10.6806992,1.90754943 L8.92980859,0.120882494 C8.79415625,-0.0175382653 8.57424219,-0.0175382653 8.43854688,0.120882494 C8.30289453,0.259259407 8.30289453,0.483705357 8.43854688,0.622126116 L10.1894805,2.4087492 Z M10.8841992,2.61644611 L15.7473594,2.61644611 L15.7473594,7.46069037 C15.7473594,7.52580118 15.6954531,7.57885443 15.6315586,7.57885443 L11,7.57885443 C10.9361484,7.57885443 10.8841992,7.52584503 10.8841992,7.46069037 L10.8841992,2.61644611 Z" id="Shape"></path>
            <path d="M7.75787891,6.8699139 L9.14735938,6.8699139 C9.33925781,6.8699139 9.49471875,6.7111926 9.49471875,6.51546556 C9.49471875,6.31969467 9.33921484,6.16101722 9.14735938,6.16101722 L7.75787891,6.16101722 C7.56598047,6.16101722 7.41051953,6.31973852 7.41051953,6.51546556 C7.41051953,6.7111926 7.56602344,6.8699139 7.75787891,6.8699139 Z" id="Shape"></path>
            <path d="M20.6105195,11.9504863 C20.6105195,11.1035635 19.9352656,10.414485 19.1052383,10.414485 C18.2752109,10.414485 17.599957,11.1035635 17.599957,11.9504863 C17.599957,12.7974091 18.2752109,13.4864876 19.1052383,13.4864876 C19.9352656,13.4864437 20.6105195,12.7974091 20.6105195,11.9504863 Z M18.2947188,11.9504863 C18.2947188,11.4944037 18.6583633,11.1234255 19.1052383,11.1234255 C19.5521563,11.1234255 19.9157578,11.4944914 19.9157578,11.9504863 C19.9157578,12.406525 19.5521133,12.777547 19.1052383,12.777547 C18.6583633,12.777547 18.2947188,12.406525 18.2947188,11.9504863 Z" id="Shape"></path>
            <path d="M2.54735937,11.9032207 L2.54735937,11.9977519 C2.54735937,12.1935228 2.70282031,12.3522003 2.89471875,12.3522003 C3.08661719,12.3522003 3.24207812,12.193479 3.24207812,11.9977519 L3.24207812,11.9032207 C3.24207812,11.7074498 3.08661719,11.5487723 2.89471875,11.5487723 C2.70286328,11.5487723 2.54735937,11.7074498 2.54735937,11.9032207 Z" id="Shape"></path>
            <path d="M9.49471875,11.9504863 C9.49471875,12.7974091 10.1699727,13.4864876 11,13.4864876 C11.8300273,13.4864876 12.5052813,12.7974091 12.5052813,11.9504863 C12.5052813,11.1035635 11.8300273,10.414485 11,10.414485 C10.1699727,10.414485 9.49471875,11.1035635 9.49471875,11.9504863 Z M11.8105195,11.9504863 C11.8105195,12.406525 11.446875,12.777547 11,12.777547 C10.553082,12.777547 10.1894805,12.4064812 10.1894805,11.9504863 C10.1894805,11.4944475 10.553125,11.1234255 11,11.1234255 C11.446918,11.1234255 11.8105195,11.4944475 11.8105195,11.9504863 Z" id="Shape"></path>
            <path d="M21.6526406,21.2845265 L20.6105195,21.2845265 L20.6105195,20.69375 C20.6105195,19.9770926 20.0391211,19.3940768 19.3368398,19.3940768 L18.7578789,19.3940768 L18.7578789,16.9155692 C18.7578789,16.9144292 18.7578789,16.2439998 18.7578789,14.9042809 L19.1052383,14.9042809 C20.7013984,14.9042809 21.999957,13.5791773 21.999957,11.9504863 C21.999957,10.3217953 20.7013984,8.99669165 19.1052383,8.99669165 L17.4841992,8.99669165 C17.2923008,8.99669165 17.1368398,9.15541295 17.1368398,9.35113999 C17.1368398,9.54691087 17.2923008,9.70558833 17.4841992,9.70558833 L19.1052383,9.70558833 C20.3182891,9.70558833 21.3052383,10.7126794 21.3052383,11.9504863 C21.3052383,13.1882932 20.3182891,14.1953842 19.1052383,14.1953842 L15.6340508,14.1953842 C15.6329622,14.1953842 15.0153294,14.1953842 13.7811523,14.1953842 C13.7800065,14.1953842 11.9274948,14.1953842 8.22361719,14.1953842 C8.22252865,14.1953842 7.60489583,14.1953842 6.37071875,14.1953842 C6.36957292,14.1953842 5.21090625,14.1953842 2.89471875,14.1953842 C1.68166797,14.1953842 0.69471875,13.1883371 0.69471875,11.9504863 C0.69471875,10.7126355 1.68166797,9.70558833 2.89471875,9.70558833 L16.0947187,9.70558833 C16.2866172,9.70558833 16.4420781,9.54686703 16.4420781,9.35113999 C16.4420781,9.1553691 16.2865742,8.99669165 16.0947187,8.99669165 L2.89471875,8.99669165 C1.29855859,8.9966478 0,10.3217514 0,11.9504863 C0,13.5791773 1.29855859,14.9042809 2.89471875,14.9042809 L3.24207812,14.9042809 L3.24207812,16.9105269 C3.24207812,16.9116669 3.24207812,17.7395169 3.24207812,19.3940768 L2.66316016,19.3940768 C1.96087891,19.3940768 1.38948047,19.9770926 1.38948047,20.69375 L1.38948047,21.2845265 L0.347359375,21.2845265 C0.155460937,21.2845265 0,21.4432478 0,21.6389748 C0,21.8347018 0.155503906,21.9934232 0.347359375,21.9934232 L2.66316016,21.9934232 C2.85505859,21.9934232 3.01051953,21.8347018 3.01051953,21.6389748 C3.01051953,21.4432478 2.85505859,21.2845265 2.66316016,21.2845265 L2.08419922,21.2845265 L2.08419922,20.69375 C2.08419922,20.3679767 2.34390234,20.1029735 2.66316016,20.1029735 L4.51580078,20.1029735 C4.83505859,20.1029735 5.09476172,20.3679767 5.09476172,20.69375 L5.09476172,21.2845265 L4.05264063,21.2845265 C3.86074219,21.2845265 3.70528125,21.4432478 3.70528125,21.6389748 C3.70528125,21.8347018 3.86078516,21.9934232 4.05264063,21.9934232 L21.6526406,21.9934232 C21.8445391,21.9934232 22,21.8347018 22,21.6389748 C22,21.4432478 21.8445391,21.2845265 21.6526406,21.2845265 Z M18.0631602,14.9042809 L18.0631602,16.1560746 L16.5910508,14.9042809 L18.0631602,14.9042809 Z M11.3473594,14.9042809 L12.8194688,14.9042809 L11.3473594,16.1560746 L11.3473594,14.9042809 Z M10.6526406,14.9042809 L10.6526406,16.1560746 L9.18053125,14.9042809 L10.6526406,14.9042809 Z M5.40894922,14.9042809 L3.93683984,16.1560746 L3.93683984,14.9042809 L5.40894922,14.9042809 Z M8.8,20.69375 L8.8,21.2845265 L5.78948047,21.2845265 L5.78948047,20.69375 C5.78948047,19.9770926 5.21808203,19.3940768 4.51580078,19.3940768 L3.93683984,19.3940768 L3.93683984,17.0788943 L6.49421094,14.9042809 L8.09526953,14.9042809 L10.6526406,17.0788943 L10.6526406,19.3940768 L10.0736797,19.3940768 C9.37139844,19.3940768 8.8,19.9770926 8.8,20.69375 Z M9.49476172,21.2845265 L9.49476172,20.69375 C9.49476172,20.3679767 9.75446484,20.1029735 10.0737227,20.1029735 L11.9263633,20.1029735 C12.2456211,20.1029735 12.5053242,20.3679767 12.5053242,20.69375 L12.5053242,21.2845265 L9.49476172,21.2845265 Z M16.2105195,20.69375 L16.2105195,21.2845265 L13.2,21.2845265 L13.2,20.69375 C13.2,19.9770926 12.6286016,19.3940768 11.9263203,19.3940768 L11.3473594,19.3940768 L11.3473594,17.0788943 L13.9047305,14.9042809 L15.5057891,14.9042809 L18.0631602,17.0788943 L18.0631602,19.3940768 L17.4841992,19.3940768 C16.781918,19.3940768 16.2105195,19.9770926 16.2105195,20.69375 Z M16.9052813,21.2845265 L16.9052813,20.69375 C16.9052813,20.3679767 17.1649844,20.1029735 17.4842422,20.1029735 L19.3368828,20.1029735 C19.6561406,20.1029735 19.9158438,20.3679767 19.9158438,20.69375 L19.9158438,21.2845265 L16.9052813,21.2845265 Z" id="Shape"></path>
            <path d="M19.4526406,11.9977519 L19.4526406,11.9032207 C19.4526406,11.7074498 19.2971797,11.5487723 19.1052813,11.5487723 C18.9133828,11.5487723 18.7579219,11.7074936 18.7579219,11.9032207 L18.7579219,11.9977519 C18.7579219,12.1935228 18.9133828,12.3522003 19.1052813,12.3522003 C19.2971367,12.3522003 19.4526406,12.193479 19.4526406,11.9977519 Z" id="Shape"></path>
            <path d="M1.38948047,11.9504863 C1.38948047,12.7974091 2.06473438,13.4864876 2.89476172,13.4864876 C3.72478906,13.4864876 4.40004297,12.7974091 4.40004297,11.9504863 C4.40004297,11.1035635 3.72478906,10.414485 2.89476172,10.414485 C2.06473438,10.414485 1.38948047,11.1035635 1.38948047,11.9504863 Z M3.70528125,11.9504863 C3.70528125,12.406525 3.34163672,12.777547 2.89476172,12.777547 C2.44784375,12.777547 2.08424219,12.4064812 2.08424219,11.9504863 C2.08424219,11.4944475 2.44788672,11.1234255 2.89476172,11.1234255 C3.34163672,11.1234255 3.70528125,11.4944475 3.70528125,11.9504863 Z" id="Shape"></path>
            <path d="M10.6526406,11.9032207 L10.6526406,11.9977519 C10.6526406,12.1935228 10.8081445,12.3522003 11,12.3522003 C11.1918984,12.3522003 11.3473594,12.193479 11.3473594,11.9977519 L11.3473594,11.9032207 C11.3473594,11.7074498 11.1918555,11.5487723 11,11.5487723 C10.8081016,11.5487723 10.6526406,11.7074498 10.6526406,11.9032207 Z" id="Shape"></path>
        </g>
    </g>
</svg>