<?xml version="1.0" encoding="UTF-8"?>
<svg width="22px" height="22px" viewBox="0 0 22 22" version="1.1" xmlns="http://www.w3.org/2000/svg" xmlns:xlink="http://www.w3.org/1999/xlink">
    <!-- Generator: Sketch 48 (47235) - http://www.bohemiancoding.com/sketch -->
    <title>Site readiness grey</title>
    <desc>Created with Sketch.</desc>
    <defs></defs>
    <g id="Production-kick-off" stroke="none" stroke-width="1" fill="none" fill-rule="evenodd" transform="translate(-477.000000, -599.000000)">
        <path d="M497.69131,611.297003 L498.941482,609.263028 C499.048856,609.088466 498.996704,608.858451 498.825035,608.749268 C498.745295,608.698568 498.649424,608.680953 498.557265,608.700106 L497.083821,608.998343 L496.790525,607.500075 C496.750747,607.298206 496.557538,607.167355 496.359014,607.20785 C496.267772,607.226443 496.186932,607.279613 496.13281,607.356595 L494.762386,609.308555 C491.917189,608.451171 488.892852,609.905262 487.739054,612.685342 L486.165523,612.151871 L486.165523,610.76917 C486.197419,610.74382 486.230415,610.721452 486.261944,610.694611 C487.403506,609.718118 488.135462,608.335371 488.308415,606.828716 L489.09848,606.828716 C489.300945,606.828716 489.465099,606.661797 489.465099,606.45592 L489.465099,604.964736 C489.465099,604.75886 489.300945,604.59194 489.09848,604.59194 L488.662569,604.59194 C488.570181,602.21723 487.581408,599.627043 485.065664,599.395537 L485.065664,599.372796 C485.065664,599.166919 484.90151,599 484.699045,599 L482.499327,599 C482.296862,599 482.132708,599.166919 482.132708,599.372796 L482.132708,599.395537 C479.616964,599.627043 478.628191,602.21723 478.535803,604.59194 L478.099892,604.59194 C477.897427,604.59194 477.733273,604.75886 477.733273,604.964736 L477.733273,606.45592 C477.733273,606.661797 477.897427,606.828716 478.099892,606.828716 L478.89289,606.828716 C479.064743,608.335138 479.795691,609.718072 480.936428,610.694984 C480.967957,610.721452 481.000953,610.74382 481.032849,610.769543 L481.032849,612.152243 L478.431683,613.033533 C478.022948,613.172819 477.731623,613.541608 477.685979,613.977453 L477.001867,620.584843 C476.981611,620.789694 477.128534,620.972457 477.329991,620.993054 C477.342181,620.994312 477.354417,620.994918 477.366653,620.994918 L489.831719,620.994918 C490.034185,620.994918 490.198338,620.827999 490.198338,620.622122 C490.198338,620.60968 490.197743,620.597238 490.196505,620.584843 L490.152511,620.160974 C492.929654,621.842796 496.521793,620.916911 498.175752,618.092981 C499.431744,615.948518 499.238307,613.23489 497.69131,611.297003 Z M496.237296,608.49134 L496.438204,609.512801 C496.477982,609.714484 496.670961,609.845288 496.869348,609.805073 L497.869487,609.601899 L496.591451,611.68061 L495.232759,611.71267 L494.799048,610.541718 L496.237296,608.49134 Z M493.442189,615.227764 L494.194492,614.006857 C494.787041,614.62225 494.776821,615.609554 494.171624,616.212085 C493.566473,616.814617 492.595481,616.804225 492.002932,616.188832 C491.410383,615.573439 491.420602,614.586135 492.0258,613.983604 C492.433343,613.577862 493.028642,613.435594 493.571239,613.614303 L492.820402,614.8326 L493.442189,615.227764 Z M493.968654,612.963401 C492.839603,612.483892 491.542045,613.025891 491.070481,614.173963 C490.598916,615.322035 491.131935,616.641453 492.260986,617.120962 C493.390037,617.600471 494.687595,617.058472 495.15916,615.9104 C495.523259,615.023938 495.294488,614.000193 494.589341,613.360801 L495.144037,612.45789 L495.235692,612.455653 C495.993128,613.088521 496.431742,614.033325 496.430871,615.030182 C496.430871,616.883165 494.953624,618.385346 493.131295,618.385346 C491.309013,618.385346 489.831719,616.883165 489.831719,615.030182 C489.831719,613.177153 491.309013,611.675018 493.131295,611.675018 C493.624811,611.67567 494.111728,611.790398 494.555246,612.010534 L493.968654,612.963401 Z M478.466512,606.083078 L478.466512,605.337486 L480.666229,605.337486 L480.666229,604.591894 L479.273075,604.591894 C479.334667,603.463813 479.725117,600.423661 482.132708,600.141828 L482.132708,603.473506 L482.865947,603.473506 L482.865947,599.745545 L484.332425,599.745545 L484.332425,603.473506 L485.065664,603.473506 L485.065664,600.141828 C487.473255,600.423661 487.863705,603.463813 487.925297,604.591894 L481.399468,604.591894 L481.399468,605.337486 L488.73186,605.337486 L488.73186,606.083078 L478.466512,606.083078 Z M479.629429,606.82867 L487.571876,606.82867 C487.402635,608.113465 486.768062,609.287772 485.792304,610.12195 C484.522059,611.198957 482.676313,611.198957 481.406068,610.12195 C480.431043,609.287586 479.797478,608.113185 479.629429,606.82867 Z M485.432284,611.238474 L485.432284,613.070766 L483.599186,616.488187 L481.766088,613.070766 L481.766088,611.238847 C482.336227,611.525014 482.963376,611.674226 483.599186,611.675018 C484.234996,611.674133 484.862145,611.524781 485.432284,611.238474 Z M477.773967,620.249326 L478.415185,614.05532 C478.430354,613.910116 478.527508,613.78728 478.663753,613.741053 L481.032849,612.938051 L481.032849,613.166202 C481.032849,613.228599 481.048201,613.28997 481.077576,613.344771 L483.277294,617.445527 C483.374219,617.626287 483.596895,617.692971 483.774659,617.594413 C483.836526,617.560116 483.887349,617.508437 483.921078,617.445527 L486.120795,613.344771 C486.150171,613.28997 486.165569,613.228599 486.165523,613.166202 L486.165523,612.938051 L487.496352,613.389134 C486.851743,615.647532 487.581041,618.079793 489.355113,619.588359 L489.424405,620.249326 L477.773967,620.249326 Z M493.131295,620.249326 C490.296593,620.249326 487.998621,617.912641 487.998621,615.030182 C487.998621,612.147723 490.296593,609.811038 493.131295,609.811038 C493.527794,609.812249 493.922781,609.860806 494.308144,609.955683 L494.088172,610.268831 C494.017094,610.370045 494.000321,610.500617 494.043445,610.617023 L494.217956,611.087491 C492.075797,610.479554 489.854587,611.752559 489.256722,613.930807 C488.658857,616.109054 489.910771,618.367685 492.052929,618.975622 C494.195088,619.583559 496.416298,618.310554 497.014163,616.132307 C497.367264,614.845834 497.081117,613.465091 496.247562,612.432912 L496.805923,612.42061 C496.929245,612.417767 497.042897,612.352062 497.108384,612.245769 L497.279229,611.968036 C497.91788,612.857061 498.262686,613.929222 498.263969,615.030182 C498.263969,617.912641 495.965998,620.249326 493.131295,620.249326 Z" id="Site-readiness-grey" fill="#AA9E9D" fill-rule="nonzero"></path>
    </g>
</svg>