<?xml version="1.0" encoding="UTF-8"?>
<svg width="22px" height="22px" viewBox="0 0 22 22" version="1.1" xmlns="http://www.w3.org/2000/svg" xmlns:xlink="http://www.w3.org/1999/xlink">
    <!-- Generator: Sketch 48 (47235) - http://www.bohemiancoding.com/sketch -->
    <title>Site readiness black </title>
    <desc>Created with Sketch.</desc>
    <defs></defs>
    <g id="Production-kick-off" stroke="none" stroke-width="1" fill="none" fill-rule="evenodd" transform="translate(-427.000000, -599.000000)">
        <path d="M447.69131,611.297003 L448.941482,609.263028 C449.048856,609.088466 448.996704,608.858451 448.825035,608.749268 C448.745295,608.698568 448.649424,608.680953 448.557265,608.700106 L447.083821,608.998343 L446.790525,607.500075 C446.750747,607.298206 446.557538,607.167355 446.359014,607.20785 C446.267772,607.226443 446.186932,607.279613 446.13281,607.356595 L444.762386,609.308555 C441.917189,608.451171 438.892852,609.905262 437.739054,612.685342 L436.165523,612.151871 L436.165523,610.76917 C436.197419,610.74382 436.230415,610.721452 436.261944,610.694611 C437.403506,609.718118 438.135462,608.335371 438.308415,606.828716 L439.09848,606.828716 C439.300945,606.828716 439.465099,606.661797 439.465099,606.45592 L439.465099,604.964736 C439.465099,604.75886 439.300945,604.59194 439.09848,604.59194 L438.662569,604.59194 C438.570181,602.21723 437.581408,599.627043 435.065664,599.395537 L435.065664,599.372796 C435.065664,599.166919 434.90151,599 434.699045,599 L432.499327,599 C432.296862,599 432.132708,599.166919 432.132708,599.372796 L432.132708,599.395537 C429.616964,599.627043 428.628191,602.21723 428.535803,604.59194 L428.099892,604.59194 C427.897427,604.59194 427.733273,604.75886 427.733273,604.964736 L427.733273,606.45592 C427.733273,606.661797 427.897427,606.828716 428.099892,606.828716 L428.89289,606.828716 C429.064743,608.335138 429.795691,609.718072 430.936428,610.694984 C430.967957,610.721452 431.000953,610.74382 431.032849,610.769543 L431.032849,612.152243 L428.431683,613.033533 C428.022948,613.172819 427.731623,613.541608 427.685979,613.977453 L427.001867,620.584843 C426.981611,620.789694 427.128534,620.972457 427.329991,620.993054 C427.342181,620.994312 427.354417,620.994918 427.366653,620.994918 L439.831719,620.994918 C440.034185,620.994918 440.198338,620.827999 440.198338,620.622122 C440.198338,620.60968 440.197743,620.597238 440.196505,620.584843 L440.152511,620.160974 C442.929654,621.842796 446.521793,620.916911 448.175752,618.092981 C449.431744,615.948518 449.238307,613.23489 447.69131,611.297003 Z M446.237296,608.49134 L446.438204,609.512801 C446.477982,609.714484 446.670961,609.845288 446.869348,609.805073 L447.869487,609.601899 L446.591451,611.68061 L445.232759,611.71267 L444.799048,610.541718 L446.237296,608.49134 Z M443.442189,615.227764 L444.194492,614.006857 C444.787041,614.62225 444.776821,615.609554 444.171624,616.212085 C443.566473,616.814617 442.595481,616.804225 442.002932,616.188832 C441.410383,615.573439 441.420602,614.586135 442.0258,613.983604 C442.433343,613.577862 443.028642,613.435594 443.571239,613.614303 L442.820402,614.8326 L443.442189,615.227764 Z M443.968654,612.963401 C442.839603,612.483892 441.542045,613.025891 441.070481,614.173963 C440.598916,615.322035 441.131935,616.641453 442.260986,617.120962 C443.390037,617.600471 444.687595,617.058472 445.15916,615.9104 C445.523259,615.023938 445.294488,614.000193 444.589341,613.360801 L445.144037,612.45789 L445.235692,612.455653 C445.993128,613.088521 446.431742,614.033325 446.430871,615.030182 C446.430871,616.883165 444.953624,618.385346 443.131295,618.385346 C441.309013,618.385346 439.831719,616.883165 439.831719,615.030182 C439.831719,613.177153 441.309013,611.675018 443.131295,611.675018 C443.624811,611.67567 444.111728,611.790398 444.555246,612.010534 L443.968654,612.963401 Z M428.466512,606.083078 L428.466512,605.337486 L430.666229,605.337486 L430.666229,604.591894 L429.273075,604.591894 C429.334667,603.463813 429.725117,600.423661 432.132708,600.141828 L432.132708,603.473506 L432.865947,603.473506 L432.865947,599.745545 L434.332425,599.745545 L434.332425,603.473506 L435.065664,603.473506 L435.065664,600.141828 C437.473255,600.423661 437.863705,603.463813 437.925297,604.591894 L431.399468,604.591894 L431.399468,605.337486 L438.73186,605.337486 L438.73186,606.083078 L428.466512,606.083078 Z M429.629429,606.82867 L437.571876,606.82867 C437.402635,608.113465 436.768062,609.287772 435.792304,610.12195 C434.522059,611.198957 432.676313,611.198957 431.406068,610.12195 C430.431043,609.287586 429.797478,608.113185 429.629429,606.82867 Z M435.432284,611.238474 L435.432284,613.070766 L433.599186,616.488187 L431.766088,613.070766 L431.766088,611.238847 C432.336227,611.525014 432.963376,611.674226 433.599186,611.675018 C434.234996,611.674133 434.862145,611.524781 435.432284,611.238474 Z M427.773967,620.249326 L428.415185,614.05532 C428.430354,613.910116 428.527508,613.78728 428.663753,613.741053 L431.032849,612.938051 L431.032849,613.166202 C431.032849,613.228599 431.048201,613.28997 431.077576,613.344771 L433.277294,617.445527 C433.374219,617.626287 433.596895,617.692971 433.774659,617.594413 C433.836526,617.560116 433.887349,617.508437 433.921078,617.445527 L436.120795,613.344771 C436.150171,613.28997 436.165569,613.228599 436.165523,613.166202 L436.165523,612.938051 L437.496352,613.389134 C436.851743,615.647532 437.581041,618.079793 439.355113,619.588359 L439.424405,620.249326 L427.773967,620.249326 Z M443.131295,620.249326 C440.296593,620.249326 437.998621,617.912641 437.998621,615.030182 C437.998621,612.147723 440.296593,609.811038 443.131295,609.811038 C443.527794,609.812249 443.922781,609.860806 444.308144,609.955683 L444.088172,610.268831 C444.017094,610.370045 444.000321,610.500617 444.043445,610.617023 L444.217956,611.087491 C442.075797,610.479554 439.854587,611.752559 439.256722,613.930807 C438.658857,616.109054 439.910771,618.367685 442.052929,618.975622 C444.195088,619.583559 446.416298,618.310554 447.014163,616.132307 C447.367264,614.845834 447.081117,613.465091 446.247562,612.432912 L446.805923,612.42061 C446.929245,612.417767 447.042897,612.352062 447.108384,612.245769 L447.279229,611.968036 C447.91788,612.857061 448.262686,613.929222 448.263969,615.030182 C448.263969,617.912641 445.965998,620.249326 443.131295,620.249326 Z" id="Site-readiness-black-" fill="#000000" fill-rule="nonzero"></path>
    </g>
</svg>