<?xml version="1.0" encoding="UTF-8"?>
<svg width="23px" height="22px" viewBox="0 0 23 22" version="1.1" xmlns="http://www.w3.org/2000/svg" xmlns:xlink="http://www.w3.org/1999/xlink">
    <!-- Generator: Sketch 48 (47235) - http://www.bohemiancoding.com/sketch -->
    <title>Site Services grey</title>
    <desc>Created with Sketch.</desc>
    <defs></defs>
    <g id="Production-kick-off" stroke="none" stroke-width="1" fill="none" fill-rule="evenodd" transform="translate(-478.000000, -596.000000)">
        <path d="M499.400002,609.2 L490.600015,609.2 C490.134578,609.202017 489.720796,609.496725 489.56675,609.9359 L487.666686,609.3023 L487.666686,607.575667 C487.698586,607.550733 487.731586,607.528733 487.763119,607.502333 C488.904826,606.541896 489.636875,605.181883 489.80985,603.7 L490.600015,603.7 C490.802506,603.7 490.966681,603.535825 490.966681,603.333333 L490.966681,601.866667 C490.966681,601.664175 490.802506,601.5 490.600015,601.5 L490.164049,601.5 C490.071649,599.164333 489.082751,596.616733 486.566688,596.389033 C486.566688,596.164175 486.402513,596 486.200022,596 L484.000025,596 C483.797534,596 483.633359,596.164175 483.633359,596.366667 C481.117296,596.616733 480.128398,599.164333 480.035998,601.5 L479.600032,601.5 C479.39754,601.5 479.233366,601.664175 479.233366,601.866667 L479.233366,603.333333 C479.233366,603.535825 479.39754,603.7 479.600032,603.7 L480.393131,603.7 C480.565005,605.181654 481.296046,606.54185 482.436927,607.5027 C482.468461,607.528733 482.501461,607.550733 482.533361,607.576033 L482.533361,609.302667 L479.707832,610.244267 C479.435078,610.335292 479.240699,610.577246 479.210632,610.8632 L478.501867,617.596667 C478.481608,617.79815 478.62855,617.977908 478.830033,617.998167 C478.838161,617.998992 485.694817,617.999603 499.400002,618 C500.007522,618 500.5,617.507521 500.5,616.9 L500.5,610.3 C500.5,609.692525 500.007522,609.2 499.400002,609.2 Z M479.966698,602.966667 L479.966698,602.233333 L482.166695,602.233333 L482.166695,601.5 L480.773363,601.5 C480.834963,600.390467 481.225463,597.4003 483.633359,597.1231 L483.633359,600.4 L484.366691,600.4 L484.366691,596.733333 L485.833356,596.733333 L485.833356,600.4 L486.566688,600.4 L486.566688,597.1231 C488.974584,597.4003 489.365084,600.390467 489.426683,601.5 L482.900027,601.5 L482.900027,602.233333 L490.233349,602.233333 L490.233349,602.966667 L479.966698,602.966667 Z M481.129763,603.7 L489.073217,603.7 C488.903955,604.963671 488.269302,606.118671 487.29342,606.939133 C486.023014,607.998433 484.177033,607.998433 482.906627,606.939133 C481.931478,606.118488 481.297833,604.963396 481.129763,603.7 Z M486.933354,608.0373 L486.933354,610.163967 L485.100023,612.302733 L483.266693,610.164333 L483.266693,608.037667 C483.836904,608.319129 484.464133,608.465888 485.100023,608.466667 C485.735914,608.465796 486.363142,608.3189 486.933354,608.0373 Z M485.100023,616.533333 L485.100023,617.266667 L479.274066,617.266667 L479.939931,610.939833 L482.533361,610.075233 L482.533361,610.3 C482.533361,610.387587 482.564711,610.472242 482.621727,610.5387 L484.821724,613.105367 C484.963624,613.259046 485.20324,613.268625 485.356965,613.126725 C485.36439,613.119896 485.371494,613.112746 485.378323,613.105367 L487.57832,610.5387 C487.635336,610.472242 487.666686,610.387587 487.666686,610.3 L487.666686,610.0756 L489.500017,610.686467 L489.500017,615.8 L485.833356,615.8 C485.428327,615.8 485.100023,616.12835 485.100023,616.533333 Z M485.833356,617.266667 L485.833356,616.533333 L489.500017,616.533333 L489.500017,616.9 C489.501254,617.025217 489.524033,617.149242 489.567483,617.266667 L485.833356,617.266667 Z M495.366674,614.700367 L495.366674,617.267033 L494.633342,617.267033 L494.633342,614.7 C494.633342,614.497508 494.469167,614.333333 494.266676,614.333333 L493.759944,614.333333 L492.879945,612.573333 L493.190144,612.263133 C493.199678,612.288846 493.211961,612.313413 493.226811,612.336467 L493.960143,613.436467 C494.028389,613.538996 494.143522,613.600412 494.266676,613.6 L495.733341,613.6 C495.855899,613.6 495.97039,613.538812 496.038407,613.436833 L496.771739,612.336833 C496.786589,612.313779 496.798872,612.289212 496.808406,612.2635 L497.118605,612.5737 L496.238606,614.3337 L495.733341,614.3337 C495.530803,614.3337 495.366674,614.497875 495.366674,614.700367 Z M499.766668,616.9 C499.766668,617.102492 499.602493,617.266667 499.400002,617.266667 L496.100007,617.266667 L496.100007,615.066667 L496.466673,615.066667 C496.606327,615.067446 496.734247,614.988796 496.796672,614.8639 L497.896671,612.6639 C497.967116,612.522733 497.939387,612.352279 497.827737,612.240767 L496.361073,610.7741 C496.21789,610.630871 495.985744,610.630825 495.842515,610.774008 C495.744295,610.872183 495.709966,611.017429 495.753874,611.1492 L496.063707,612.079067 L495.537174,612.866667 L494.462843,612.866667 L493.936677,612.079067 L494.24651,611.1492 C494.310493,610.957067 494.206635,610.749442 494.014502,610.685458 C493.882731,610.64155 493.737485,610.675879 493.63931,610.7741 L492.172646,612.240767 C492.060996,612.352279 492.033267,612.522733 492.103713,612.6639 L493.203711,614.8639 C493.26609,614.988704 493.393827,615.067308 493.533344,615.066667 L493.90001,615.066667 L493.90001,617.266667 L490.600015,617.266667 C490.397524,617.266667 490.233349,617.102492 490.233349,616.9 L490.233349,610.3 C490.233349,610.097508 490.397524,609.933333 490.600015,609.933333 L499.400002,609.933333 C499.602493,609.933333 499.766668,610.097508 499.766668,610.3 L499.766668,616.9 Z" id="Site-Services-grey" fill="#AA9E9D" fill-rule="nonzero"></path>
    </g>
</svg>