<?xml version="1.0" encoding="UTF-8"?>
<svg width="21px" height="21px" viewBox="0 0 21 21" version="1.1" xmlns="http://www.w3.org/2000/svg" xmlns:xlink="http://www.w3.org/1999/xlink">
    <!-- Generator: Sketch 48 (47235) - http://www.bohemiancoding.com/sketch -->
    <title>Site measurement black</title>
    <desc>Created with Sketch.</desc>
    <defs></defs>
    <g id="Finalise-Design" stroke="none" stroke-width="1" fill="none" fill-rule="evenodd" transform="translate(-471.000000, -599.000000)">
        <g id="Site-measurement-black" transform="translate(471.000000, 599.000000)" fill="#000000" fill-rule="nonzero">
            <path d="M20.9597602,8.41997661 C20.9597602,8.31518129 20.9248421,8.24530409 20.8549649,8.17546784 L18.3747953,5.69529825 C18.3130234,5.63352632 18.2511287,5.59918129 18.1652047,5.59201754 L18.1652047,2.81506433 C18.1687251,2.7749883 18.1641813,2.73581287 18.1523509,2.69835673 C18.138924,2.6512807 18.114731,2.61108187 18.0797719,2.57211111 C18.0756511,2.56741715 17.2541267,1.74545614 15.6151988,0.10622807 C15.5555146,0.0519064327 15.5153158,0.0277134503 15.4682807,0.0142865497 C15.4308246,0.00245614035 15.3916491,-0.00212865497 15.3515731,0.00143274854 L4.5418538,0.00143274854 C4.33226316,0.00143274854 4.19254971,0.141146199 4.19254971,0.350736842 L4.19254971,20.611152 C4.19254971,20.8207427 4.33226316,20.9604561 4.5418538,20.9604561 L8.38436257,20.9604561 L17.8159415,20.9604561 C18.0255322,20.9604561 18.1652456,20.8207427 18.1652456,20.611152 L18.1652456,11.3465497 L20.8550058,8.66448538 C20.9248421,8.59464912 20.9597602,8.52477193 20.9597602,8.41997661 Z M8.03501754,8.03571345 L13.6240877,8.03571345 L13.6240877,9.95694737 L12.3483275,11.2478947 L11.8775263,11.7201287 L11.8775263,11.1795731 C11.8775263,10.9699825 11.7378129,10.830269 11.5282222,10.830269 L9.78161988,10.830269 C9.57202924,10.830269 9.43231579,10.9699825 9.43231579,11.1795731 L9.43231579,12.9261754 L8.03501754,12.9261754 L8.03501754,8.03571345 Z M8.03501754,5.59050292 L8.03501754,4.19324561 L8.73366667,4.19324561 L8.73366667,4.96173099 L8.03501754,5.59050292 Z M13.9734327,7.33710526 L7.68571345,7.33710526 L7.47612281,7.33710526 L10.8295731,3.98365497 L14.1830234,7.33710526 L13.9734327,7.33710526 Z M10.130924,11.5289181 L11.1788772,11.5289181 L11.1788772,12.4021988 L10.9063684,12.694193 L10.6750409,12.9261754 L10.130924,12.9261754 L10.130924,11.5289181 Z M16.977538,2.44664327 L15.7199942,2.44664327 L15.7199942,1.18909942 L16.977538,2.44664327 Z M4.89115789,0.700040936 L15.021386,0.700040936 L15.021386,2.79594737 C15.021386,3.00553801 15.1610994,3.14525146 15.3706901,3.14525146 L17.4665965,3.14525146 L17.4665965,6.1144386 L14.3227368,9.26763158 L14.3227368,8.03567251 L15.021386,8.03567251 C15.1610994,8.03567251 15.3008538,7.96579532 15.3357719,7.82608187 C15.4056491,7.68636842 15.3706901,7.54661404 15.2658947,7.44181871 L11.0740819,3.25000585 C10.9343684,3.1102924 10.7247778,3.1102924 10.5850234,3.25000585 L9.43227485,4.40275439 L9.43227485,3.84390058 C9.43227485,3.63430994 9.2925614,3.49459649 9.08297076,3.49459649 L7.68571345,3.49459649 C7.47612281,3.49459649 7.33640936,3.63430994 7.33640936,3.84390058 L7.33640936,6.28911111 C7.33640936,6.3537076 7.34975439,6.41159064 7.37427485,6.46083626 L6.39325146,7.44185965 C6.28845614,7.54665497 6.25353801,7.68636842 6.32337427,7.82612281 C6.3582924,7.96583626 6.49804678,8.03571345 6.63776023,8.03571345 L7.33640936,8.03571345 L7.33640936,13.2754795 C7.33640936,13.4850702 7.47612281,13.6247836 7.68571345,13.6247836 L9.78161988,13.6247836 L9.97847953,13.6247836 L8.0978538,15.5109766 C8.06301754,15.5280877 8.02990058,15.5511345 8.00005848,15.5809357 C7.96997076,15.6110234 7.94676023,15.6445088 7.92960819,15.6796725 L6.8821462,16.7302456 C6.84477193,16.7475614 6.80923977,16.7717544 6.77743275,16.8035614 C6.74533918,16.835655 6.72098246,16.8715146 6.70362573,16.9092982 L5.6945614,17.9213918 C5.55484795,18.0611053 5.55484795,18.2706959 5.6945614,18.4104503 L7.54595906,20.261848 L4.89115789,20.261848 L4.89115789,0.700040936 Z M17.4665965,12.0528947 L17.4665965,20.261848 L9.22440351,20.261848 L10.4538655,19.0359064 L17.4665965,12.0528947 Z M8.38432164,20.1221345 L6.42812865,18.1659415 L7.03852047,17.5537076 L7.75554971,18.2707368 C7.8254269,18.340614 7.89526316,18.3755322 8.00005848,18.3755322 C8.1048538,18.3755322 8.17473099,18.3755322 8.24456725,18.2707368 C8.3842807,18.1310234 8.3842807,17.9214327 8.24456725,17.7816784 L7.52684211,17.0639532 L8.26237427,16.3262515 L9.50215205,17.5371696 C9.57202924,17.6070468 9.6418655,17.6419649 9.74666082,17.6419649 C9.81653801,17.6419649 9.92133333,17.6070468 9.95625146,17.5371696 C10.0959649,17.3974561 10.0959649,17.1878655 9.95625146,17.0481111 L8.74762573,15.8394854 L9.49752632,15.0873333 L10.2356784,15.8254854 C10.3055556,15.8953626 10.3753918,15.9302807 10.4801871,15.9302807 C10.5849825,15.9302807 10.6548596,15.8953626 10.7246959,15.8254854 C10.8644094,15.6857719 10.8644094,15.4761813 10.7246959,15.3364269 L9.98580702,14.597538 L10.7357076,13.845386 L11.9821988,15.0918772 C12.052076,15.1617544 12.1219123,15.1966725 12.2267076,15.1966725 C12.2965848,15.1966725 12.4013801,15.1617544 12.4362982,15.0569591 C12.5760117,14.9172456 12.5760117,14.707655 12.4362982,14.5679006 L11.231152,13.3627544 L11.9821988,12.6117076 L12.7157661,13.3452749 C12.7856433,13.415152 12.8554795,13.4500702 12.9602749,13.4500702 C13.030152,13.4500702 13.1349474,13.415152 13.2047836,13.3452749 C13.3444971,13.2055614 13.3444971,12.9959708 13.2047836,12.8562164 L12.4712164,12.1226491 L13.2047836,11.3890819 L14.4274094,12.6117076 C14.4972865,12.6815848 14.5671228,12.7165029 14.6719181,12.7165029 C14.7767135,12.7165029 14.8465906,12.6815848 14.9164269,12.6117076 C15.0561404,12.4719942 15.0561404,12.2624035 14.9164269,12.1226491 L13.6938012,10.9000234 L14.2177778,10.3760468 C14.2482749,10.3455497 14.2716901,10.314848 14.288883,10.2814444 L14.4503333,10.1195439 L15.1958947,10.8651053 C15.2657719,10.9349825 15.3356082,10.9699006 15.4404035,10.9699006 C15.5102807,10.9699006 15.615076,10.9349825 15.6849123,10.8651053 C15.8246257,10.7253918 15.8246257,10.5158012 15.6849123,10.3760468 L14.938655,9.62978947 L15.671117,8.89511696 L16.907538,10.131538 C16.9774152,10.2014152 17.0472515,10.2363333 17.1520468,10.2363333 C17.2568421,10.2363333 17.3267193,10.2014152 17.3965556,10.131538 C17.536269,9.99182456 17.536269,9.78223392 17.3965556,9.64247953 L16.1594386,8.40536257 L16.8919006,7.67069006 L17.6411053,8.41989474 C17.7109825,8.48977193 17.7808187,8.52469006 17.885614,8.52469006 C17.9904094,8.52469006 18.0602865,8.48977193 18.1301228,8.41989474 C18.2698363,8.28018129 18.2698363,8.07059064 18.1301228,7.93083626 L17.3802222,7.18093567 L18.1301228,6.42878363 L20.1212339,8.41989474 L8.38432164,20.1221345 Z" id="Shape"></path>
            <path d="M1.39799415,0.00143274854 C0.629508772,0.00143274854 0.000736842105,0.630204678 0.000736842105,1.39869006 L0.000736842105,2.09733918 L0.000736842105,3.49459649 L0.000736842105,16.7686842 L0.000736842105,17.8166374 C0.000736842105,17.8515556 0.000736842105,17.8865146 0.0356549708,17.9563509 L1.08360819,20.7509064 C1.11852632,20.8557018 1.2582807,20.9604971 1.39799415,20.9604971 C1.5377076,20.9604971 1.67746199,20.8557018 1.71238012,20.7509064 L2.76033333,17.9563509 C2.79525146,17.8864737 2.79525146,17.8515556 2.79525146,17.8166374 L2.79525146,16.7686842 L2.79525146,3.49459649 L2.79525146,2.09733918 L2.79525146,1.39869006 C2.79525146,0.630204678 2.16647953,0.00143274854 1.39799415,0.00143274854 Z M0.699345029,3.84390058 L2.09660234,3.84390058 L2.09660234,16.4193392 L0.699345029,16.4193392 L0.699345029,3.84390058 Z M0.699345029,2.44664327 L2.09660234,2.44664327 L2.09660234,3.1452924 L0.699345029,3.1452924 L0.699345029,2.44664327 Z M1.39799415,0.700040936 C1.78225731,0.700040936 2.09664327,1.0144269 2.09664327,1.39869006 L2.09664327,1.74799415 L0.699345029,1.74799415 L0.699345029,1.39869006 C0.699345029,1.0144269 1.01373099,0.700040936 1.39799415,0.700040936 Z M1.39795322,19.5981579 L0.699304094,17.7467602 L0.699304094,17.1179883 L2.0965614,17.1179883 L2.0965614,17.7467602 L1.39795322,19.5981579 Z" id="Shape"></path>
        </g>
    </g>
</svg>