<?xml version="1.0" encoding="UTF-8"?>
<svg width="22px" height="22px" viewBox="0 0 22 22" version="1.1" xmlns="http://www.w3.org/2000/svg" xmlns:xlink="http://www.w3.org/1999/xlink">
    <!-- Generator: Sketch 48 (47235) - http://www.bohemiancoding.com/sketch -->
    <title>Site Services black</title>
    <desc>Created with Sketch.</desc>
    <defs></defs>
    <g id="Production-kick-off" stroke="none" stroke-width="1" fill="none" fill-rule="evenodd" transform="translate(-428.000000, -596.000000)">
        <path d="M448.900002,609.2 L440.100015,609.2 C439.634578,609.202017 439.220796,609.496725 439.06675,609.9359 L437.166686,609.3023 L437.166686,607.575667 C437.198586,607.550733 437.231586,607.528733 437.263119,607.502333 C438.404826,606.541896 439.136875,605.181883 439.30985,603.7 L440.100015,603.7 C440.302506,603.7 440.466681,603.535825 440.466681,603.333333 L440.466681,601.866667 C440.466681,601.664175 440.302506,601.5 440.100015,601.5 L439.664049,601.5 C439.571649,599.164333 438.582751,596.616733 436.066688,596.389033 C436.066688,596.164175 435.902513,596 435.700022,596 L433.500025,596 C433.297534,596 433.133359,596.164175 433.133359,596.366667 C430.617296,596.616733 429.628398,599.164333 429.535998,601.5 L429.100032,601.5 C428.89754,601.5 428.733366,601.664175 428.733366,601.866667 L428.733366,603.333333 C428.733366,603.535825 428.89754,603.7 429.100032,603.7 L429.893131,603.7 C430.065005,605.181654 430.796046,606.54185 431.936927,607.5027 C431.968461,607.528733 432.001461,607.550733 432.033361,607.576033 L432.033361,609.302667 L429.207832,610.244267 C428.935078,610.335292 428.740699,610.577246 428.710632,610.8632 L428.001867,617.596667 C427.981608,617.79815 428.12855,617.977908 428.330033,617.998167 C428.338161,617.998992 435.194817,617.999603 448.900002,618 C449.507522,618 450,617.507521 450,616.9 L450,610.3 C450,609.692525 449.507522,609.2 448.900002,609.2 Z M429.466698,602.966667 L429.466698,602.233333 L431.666695,602.233333 L431.666695,601.5 L430.273363,601.5 C430.334963,600.390467 430.725463,597.4003 433.133359,597.1231 L433.133359,600.4 L433.866691,600.4 L433.866691,596.733333 L435.333356,596.733333 L435.333356,600.4 L436.066688,600.4 L436.066688,597.1231 C438.474584,597.4003 438.865084,600.390467 438.926683,601.5 L432.400027,601.5 L432.400027,602.233333 L439.733349,602.233333 L439.733349,602.966667 L429.466698,602.966667 Z M430.629763,603.7 L438.573217,603.7 C438.403955,604.963671 437.769302,606.118671 436.79342,606.939133 C435.523014,607.998433 433.677033,607.998433 432.406627,606.939133 C431.431478,606.118488 430.797833,604.963396 430.629763,603.7 Z M436.433354,608.0373 L436.433354,610.163967 L434.600023,612.302733 L432.766693,610.164333 L432.766693,608.037667 C433.336904,608.319129 433.964133,608.465888 434.600023,608.466667 C435.235914,608.465796 435.863142,608.3189 436.433354,608.0373 Z M434.600023,616.533333 L434.600023,617.266667 L428.774066,617.266667 L429.439931,610.939833 L432.033361,610.075233 L432.033361,610.3 C432.033361,610.387587 432.064711,610.472242 432.121727,610.5387 L434.321724,613.105367 C434.463624,613.259046 434.70324,613.268625 434.856965,613.126725 C434.86439,613.119896 434.871494,613.112746 434.878323,613.105367 L437.07832,610.5387 C437.135336,610.472242 437.166686,610.387587 437.166686,610.3 L437.166686,610.0756 L439.000017,610.686467 L439.000017,615.8 L435.333356,615.8 C434.928327,615.8 434.600023,616.12835 434.600023,616.533333 Z M435.333356,617.266667 L435.333356,616.533333 L439.000017,616.533333 L439.000017,616.9 C439.001254,617.025217 439.024033,617.149242 439.067483,617.266667 L435.333356,617.266667 Z M444.866674,614.700367 L444.866674,617.267033 L444.133342,617.267033 L444.133342,614.7 C444.133342,614.497508 443.969167,614.333333 443.766676,614.333333 L443.259944,614.333333 L442.379945,612.573333 L442.690144,612.263133 C442.699678,612.288846 442.711961,612.313413 442.726811,612.336467 L443.460143,613.436467 C443.528389,613.538996 443.643522,613.600412 443.766676,613.6 L445.233341,613.6 C445.355899,613.6 445.47039,613.538812 445.538407,613.436833 L446.271739,612.336833 C446.286589,612.313779 446.298872,612.289212 446.308406,612.2635 L446.618605,612.5737 L445.738606,614.3337 L445.233341,614.3337 C445.030803,614.3337 444.866674,614.497875 444.866674,614.700367 Z M449.266668,616.9 C449.266668,617.102492 449.102493,617.266667 448.900002,617.266667 L445.600007,617.266667 L445.600007,615.066667 L445.966673,615.066667 C446.106327,615.067446 446.234247,614.988796 446.296672,614.8639 L447.396671,612.6639 C447.467116,612.522733 447.439387,612.352279 447.327737,612.240767 L445.861073,610.7741 C445.71789,610.630871 445.485744,610.630825 445.342515,610.774008 C445.244295,610.872183 445.209966,611.017429 445.253874,611.1492 L445.563707,612.079067 L445.037174,612.866667 L443.962843,612.866667 L443.436677,612.079067 L443.74651,611.1492 C443.810493,610.957067 443.706635,610.749442 443.514502,610.685458 C443.382731,610.64155 443.237485,610.675879 443.13931,610.7741 L441.672646,612.240767 C441.560996,612.352279 441.533267,612.522733 441.603713,612.6639 L442.703711,614.8639 C442.76609,614.988704 442.893827,615.067308 443.033344,615.066667 L443.40001,615.066667 L443.40001,617.266667 L440.100015,617.266667 C439.897524,617.266667 439.733349,617.102492 439.733349,616.9 L439.733349,610.3 C439.733349,610.097508 439.897524,609.933333 440.100015,609.933333 L448.900002,609.933333 C449.102493,609.933333 449.266668,610.097508 449.266668,610.3 L449.266668,616.9 Z" id="Site-Services-black" fill="#000000" fill-rule="nonzero"></path>
    </g>
</svg>