<?xml version="1.0" encoding="UTF-8"?>
<svg width="24px" height="23px" viewBox="0 0 24 23" version="1.1" xmlns="http://www.w3.org/2000/svg" xmlns:xlink="http://www.w3.org/1999/xlink">
    <!-- Generator: Sketch 48 (47235) - http://www.bohemiancoding.com/sketch -->
    <title>Support black</title>
    <desc>Created with Sketch.</desc>
    <defs></defs>
    <g id="Last-Mile" stroke="none" stroke-width="1" fill="none" fill-rule="evenodd" transform="translate(-434.000000, -597.000000)">
        <g id="Support-black" transform="translate(435.000000, 597.500000)" fill="#000000" fill-rule="nonzero" stroke="#FFFFFF" stroke-width="0.4">
            <path d="M8.83183716,0.00146722561 L8.21925854,0.00146722561 C5.47867139,0.00146722561 3.24903638,2.90180545 3.24903638,6.46679687 L3.24903638,8.3727963 C1.47937109,8.59493426 0.0910588379,10.5398885 0.0910588379,12.8991873 C0.0910588379,15.406896 1.65955786,17.4471465 3.58735889,17.4471465 L3.81294482,17.4471465 C4.12436621,17.4471465 4.37685327,17.1186347 4.37685327,16.7136071 L4.37685327,6.46679687 C4.37685327,3.71083365 6.10055542,1.46854611 8.21925854,1.46854611 L8.83183716,1.46854611 C9.14325854,1.46854611 9.39574561,1.1400343 9.39574561,0.735006669 C9.39574561,0.329905678 9.14325854,0.00146722561 8.83183716,0.00146722561 Z M3.24903638,14.7117978 L3.24903638,15.948669 C2.10277783,15.7344541 1.21893213,14.4485776 1.21893213,12.8991139 C1.21893213,11.3496503 2.10277783,10.0637738 3.24903638,9.84955888 L3.24903638,14.7117978 Z" id="Shape"></path>
            <path d="M11.0228406,0.00146722561 L10.9988721,0.00146722561 C10.6874507,0.00146722561 10.4349636,0.32997904 10.4349636,0.735006669 C10.4349636,1.14010766 10.6875071,1.46854611 10.9988721,1.46854611 L11.0228406,1.46854611 C11.334262,1.46854611 11.586749,1.1400343 11.586749,0.735006669 C11.586749,0.329905678 11.334262,0.00146722561 11.0228406,0.00146722561 Z" id="Shape"></path>
            <path d="M18.7486514,8.37264958 L18.7486514,6.46679687 C18.7486514,2.90180545 16.5190164,0.00146722561 13.7784292,0.00146722561 L13.1463938,0.00146722561 C12.8349724,0.00146722561 12.5824854,0.32997904 12.5824854,0.735006669 C12.5824854,1.14010766 12.8350852,1.46854611 13.1464502,1.46854611 L13.7784856,1.46854611 C15.8971323,1.46854611 17.6208909,3.71076029 17.6208909,6.46679687 L17.6208909,18.7680164 C17.6208909,19.0175915 17.4647854,19.2206555 17.272981,19.2206555 L13.0753906,19.2206555 C12.8542036,18.5320865 12.331239,18.046875 11.7226646,18.046875 L10.4322566,18.046875 C9.62420776,18.046875 8.96679395,18.9020474 8.96679395,19.9531679 C8.96679395,21.0061223 9.62420776,21.8612948 10.4322566,21.8612948 L11.7226646,21.8612948 C12.3310134,21.8612948 12.8538088,21.3765234 13.075165,20.6875877 L17.2729246,20.6875877 C18.0866694,20.6875877 18.7486514,19.8263996 18.7486514,18.7678697 L18.7486514,17.4253582 C20.5183167,17.2032203 21.9066289,15.258266 21.9066289,12.8989672 C21.9066289,10.5396684 20.5183167,8.5948609 18.7486514,8.37264958 Z M11.7226646,20.3942893 L10.4322566,20.3942893 C10.2460354,20.3942893 10.0946108,20.1972409 10.0946108,19.9550753 C10.0946108,19.7110023 10.2460918,19.5140272 10.4322566,19.5140272 L11.7226646,19.5140272 C11.9088857,19.5140272 12.0603103,19.7110756 12.0603103,19.9551486 C12.0603103,20.1972409 11.9088857,20.3942893 11.7226646,20.3942893 Z M18.7487078,15.948669 L18.7487078,14.7117978 L18.7487078,9.84955888 C19.8949663,10.0637738 20.778812,11.3496503 20.778812,12.8991139 C20.778812,14.4485776 19.8950227,15.7344541 18.7487078,15.948669 Z" id="Shape"></path>
            <path d="M15.9613679,8.12909013 L15.4350759,8.12909013 C15.3611401,7.83447123 15.2700598,7.54821551 15.1621733,7.27179021 L15.5343337,6.78775248 C15.6400771,6.65012671 15.699519,6.46356898 15.699519,6.26908822 C15.699519,6.07460747 15.6400771,5.88790301 15.5343337,5.75042397 L14.2790608,4.11762195 C14.0588325,3.83114615 13.7018428,3.83121951 13.4815581,4.11762195 L13.1093977,4.60158632 C12.8968958,4.46131955 12.6768367,4.34276772 12.4504048,4.24666444 L12.4504048,3.56198361 C12.4504048,3.15688262 12.1978613,2.82844417 11.8864963,2.82844417 L10.1111914,2.82844417 C9.79977002,2.82844417 9.54728296,3.15695598 9.54728296,3.56198361 L9.54728296,4.24879192 C9.32135864,4.34504192 9.10191992,4.46359375 8.88998193,4.60378716 L8.51629883,4.11769531 C8.29607056,3.83136623 7.93913721,3.83129287 7.71873975,4.11769531 L6.4634668,5.75049733 C6.35772339,5.88804973 6.29828149,6.07468083 6.29828149,6.26916159 C6.29828149,6.46364234 6.35772339,6.65027344 6.4634668,6.78782584 L6.83901099,7.27633861 C6.73185767,7.55144341 6.64128491,7.83615854 6.56785669,8.12916349 L6.03643262,8.12916349 C5.72501123,8.12916349 5.47252417,8.4576753 5.47252417,8.86270293 L5.47252417,11.171896 C5.47252417,11.576997 5.72506763,11.9054354 6.03643262,11.9054354 L6.56954858,11.9054354 C6.643146,12.1977067 6.73366235,12.4816149 6.84075928,12.7560595 L6.46357959,13.2466997 C6.35783618,13.3842521 6.29839429,13.5708832 6.29839429,13.7653639 C6.29839429,13.9598447 6.35783618,14.1464758 6.46357959,14.2840282 L7.71885254,15.9169036 C7.93913721,16.203306 8.29607056,16.203306 8.51641162,15.9169036 L8.89359131,15.4262633 C9.10451416,15.5655764 9.32276855,15.6833946 9.54750854,15.7791311 L9.54750854,16.4725419 C9.54750854,16.8776429 9.800052,17.2060814 10.111417,17.2060814 L11.8866655,17.2060814 C12.1980869,17.2060814 12.450574,16.8775696 12.450574,16.4725419 L12.450574,15.7812586 C12.6758215,15.6856688 12.8946963,15.567924 13.1061831,15.4284642 L13.4816145,15.9169769 C13.7018992,16.2033794 14.0588325,16.2033794 14.2791736,15.9169769 L15.5344465,14.2841016 C15.6401899,14.1464758 15.6996318,13.9599181 15.6996318,13.7654373 C15.6996318,13.5709566 15.6401899,13.3842521 15.5343901,13.2467731 L15.1605942,12.7605345 C15.2684243,12.4848428 15.359561,12.1993941 15.4334968,11.9055088 L15.9614243,11.9055088 C16.2728457,11.9055088 16.5253328,11.576997 16.5253328,11.1719693 L16.5253328,8.8627763 C16.5252764,8.45760194 16.2727893,8.12909013 15.9613679,8.12909013 Z M15.0055603,10.4382098 C14.7405532,10.4382098 14.509384,10.6804487 14.4525928,11.0165168 C14.3630916,11.540463 14.204843,12.035505 13.9824153,12.487924 C13.8397322,12.7781412 13.871427,13.1583727 14.0587761,13.4019322 L14.3381079,13.7652906 L13.880394,14.3606907 L13.5998215,13.9957184 C13.4128672,13.7525257 13.1210718,13.7110032 12.8980801,13.8958003 C12.549437,14.184697 12.1684224,14.3895951 11.7654131,14.5049924 C11.5068352,14.5790873 11.3227007,14.8770808 11.3227007,15.2214386 L11.3227007,15.7387824 L10.6751562,15.7387824 L10.6751562,15.2200448 C10.6751562,14.8760537 10.4913601,14.5782803 10.233177,14.5038186 C9.83067529,14.3878344 9.45011182,14.1824962 9.1022019,13.8936728 C8.87921021,13.7084356 8.58713281,13.749738 8.40000928,13.9932241 L8.11746289,14.3607641 L7.65974902,13.7653639 L7.94223901,13.3978973 C8.12936255,13.1545579 8.16128296,12.7746932 8.01882544,12.484476 C7.79673608,12.0319103 7.63899512,11.5368683 7.54983228,11.0132155 C7.49258984,10.6772942 7.26367651,10.4382832 6.9992334,10.4382832 L6.60039746,10.4382832 L6.60039746,9.59624238 L6.99703394,9.59624238 C7.25138208,9.59624238 7.47544531,9.37344417 7.54238794,9.0543226 C7.54486938,9.04273152 7.54706885,9.03099371 7.54904272,9.01918255 C7.63775439,8.49552973 7.79521338,8.000121 8.01718994,7.54689501 C8.15925269,7.2568245 8.12727588,6.8773266 7.94032153,6.63413396 L7.65974902,6.26916159 L8.11746289,5.67376143 L8.39679468,6.03719322 C8.58403101,6.28075267 8.87633398,6.32205507 9.09938208,6.13652439 C9.44526172,5.84872809 9.82340015,5.64360995 10.2233076,5.52696551 C10.4809832,5.45910633 10.6751562,5.16258003 10.6751562,4.80751143 L10.6751562,4.29566978 L11.3225315,4.29566978 L11.3225315,4.8020827 C11.3225315,5.1425524 11.5057637,5.44333365 11.7605066,5.52139005 C12.1710166,5.63935499 12.552144,5.84483994 12.9006743,6.13417683 C13.1236096,6.31912062 13.415687,6.27796494 13.6027542,6.03455221 L13.8802249,5.67368807 L14.3379387,6.26908822 L14.061314,6.6289253 C13.8731189,6.87380526 13.8426084,7.25726467 13.9854607,7.54645484 C14.2057454,7.99615949 14.362584,8.48760671 14.4518032,9.00737138 C14.5035752,9.34314596 14.7316426,9.59616902 15.0049399,9.59616902 L15.3972903,9.59616902 L15.3972903,10.4382098 L15.0055603,10.4382098 Z" id="Shape"></path>
            <path d="M10.9988721,7.22975419 C9.81730933,7.22975419 8.85597485,8.48027058 8.85597485,10.0172628 C8.85597485,11.554255 9.81730933,12.8047713 10.9988721,12.8047713 C12.1804348,12.8047713 13.1417693,11.554255 13.1417693,10.0172628 C13.1417693,8.48027058 12.1804348,7.22975419 10.9988721,7.22975419 Z M10.9988721,11.3376925 C10.4391934,11.3376925 9.98379175,10.7453735 9.98379175,10.0172628 C9.98379175,9.28922542 10.439137,8.69683308 10.9988721,8.69683308 C11.5585508,8.69683308 12.0139524,9.28915206 12.0139524,10.0172628 C12.0139524,10.7453001 11.5585508,11.3376925 10.9988721,11.3376925 Z" id="Shape"></path>
        </g>
    </g>
</svg>