<?xml version="1.0" encoding="UTF-8"?>
<svg width="19px" height="21px" viewBox="0 0 19 21" version="1.1" xmlns="http://www.w3.org/2000/svg" xmlns:xlink="http://www.w3.org/1999/xlink">
    <!-- Generator: Sketch 48 (47235) - http://www.bohemiancoding.com/sketch -->
    <title>T n C Black</title>
    <desc>Created with Sketch.</desc>
    <defs></defs>
    <g id="Client-BOQ-Approve" stroke="none" stroke-width="1" fill="none" fill-rule="evenodd" transform="translate(-885.000000, -527.000000)">
        <g id="Group-16" transform="translate(478.000000, 465.500000)">
            <g id="Book-Order-Circle-Copy" transform="translate(0.000000, 11.000000)">
                <g id="Place-order-icon-red" transform="translate(32.150000, 0.050000)">
                    <g id="Group-8" transform="translate(0.128720, 0.130403)">
                        <g id="Group-17">
                            <g id="T-n-C-Black" transform="translate(375.371280, 50.869597)">
                                <g id="Terms-and-connditions"></g>
                                <path d="M17.8669565,4.28657005 L13.5756957,0.11451087 C13.5003043,0.0412137681 13.3979565,0 13.2912609,0 L0.417478261,0 C0.195304348,0 0.015173913,0.175084541 0.015173913,0.391129227 L0.015173913,19.5605616 C0.015173913,19.7766063 0.195304348,19.9516908 0.417478261,19.9516908 L17.5824783,19.9516908 C17.8046522,19.9516908 17.9847826,19.7766063 17.9847826,19.5605616 L17.9847826,4.56318841 C17.9848261,4.45945652 17.9424348,4.35999396 17.8669565,4.28657005 Z M13.6935652,1.33536836 L16.6113043,4.17205918 L13.6935652,4.17205918 L13.6935652,1.33536836 Z M0.819782609,19.1694324 L0.819782609,0.782258454 L12.888913,0.782258454 L12.888913,4.56318841 C12.888913,4.77923309 13.0690435,4.95431763 13.2912174,4.95431763 L17.1801739,4.95431763 L17.1802174,19.1694324 L0.819782609,19.1694324 Z" id="Shape" stroke="#000000" stroke-width="0.1" fill="#000000" fill-rule="nonzero"></path>
                                <path d="M6.8543913,5.47580918 L6.98847826,5.47580918 L6.98847826,7.17068841 C6.98847826,7.38673309 7.1686087,7.56181763 7.39078261,7.56181763 L10.6092174,7.56181763 C10.8313913,7.56181763 11.0115217,7.38673309 11.0115217,7.17068841 L11.0115217,5.47580918 L11.1456087,5.47580918 C11.3083478,5.47580918 11.455,5.3805314 11.5173043,5.2343599 C11.5795652,5.08818841 11.5451304,4.91999396 11.430087,4.80806159 L9.28447826,2.72205314 C9.12734783,2.56937198 8.8726087,2.56937198 8.71556522,2.72205314 L7.79308696,3.61886473 L7.79308696,3.52016304 C7.79308696,3.30411836 7.61295652,3.12903382 7.39078261,3.12903382 C7.1686087,3.12903382 6.98847826,3.30411836 6.98847826,3.52016304 L6.98847826,4.40112319 L6.56991304,4.80810386 C6.45486957,4.92003623 6.42043478,5.08818841 6.48269565,5.23440217 C6.54495652,5.3805314 6.6916087,5.47580918 6.8543913,5.47580918 Z M9,3.5517814 L10.3089565,4.82437802 C10.2455217,4.89361715 10.206913,4.98479469 10.206913,5.08472222 L10.206913,6.77960145 L7.79308696,6.77960145 L7.79308696,5.08472222 C7.79308696,4.98479469 7.75452174,4.89365942 7.69104348,4.82442029 L9,3.5517814 Z" id="Shape" stroke="#000000" stroke-width="0.1" fill="#000000" fill-rule="nonzero"></path>
                                <path d="M3.63595652,10.7769565 L13.8276957,10.7769565 C14.0498696,10.7769565 14.23,10.601872 14.23,10.3858273 C14.23,10.1697826 14.0498696,9.99469807 13.8276957,9.99469807 L3.63595652,9.99469807 C3.41378261,9.99469807 3.23365217,10.1697826 3.23365217,10.3858273 C3.23365217,10.601872 3.41373913,10.7769565 3.63595652,10.7769565 Z" id="Shape" stroke="#000000" stroke-width="0.1" fill="#000000" fill-rule="nonzero"></path>
                                <path d="M14.3640435,11.559215 L3.63595652,11.559215 C3.41378261,11.559215 3.23365217,11.7342995 3.23365217,11.9503442 C3.23365217,12.1663889 3.41378261,12.3414734 3.63595652,12.3414734 L14.364087,12.3414734 C14.5862609,12.3414734 14.7663913,12.1663889 14.7663913,11.9503442 C14.7663913,11.7342572 14.5862609,11.559215 14.3640435,11.559215 Z" id="Shape" stroke="#000000" stroke-width="0.1" fill="#000000" fill-rule="nonzero"></path>
                                <path d="M9,13.1237319 L3.63595652,13.1237319 C3.41378261,13.1237319 3.23365217,13.2988164 3.23365217,13.5148611 C3.23365217,13.7309058 3.41378261,13.9059903 3.63595652,13.9059903 L9,13.9059903 C9.22217391,13.9059903 9.40230435,13.7309058 9.40230435,13.5148611 C9.40230435,13.2988164 9.22217391,13.1237319 9,13.1237319 Z" id="Shape" stroke="#000000" stroke-width="0.1" fill="#000000" fill-rule="nonzero"></path>
                                <path d="M13.1304348,13.1038647 C11.773913,13.1038647 10.6956522,14.1521739 10.6956522,15.4710145 C10.6956522,16.7898551 11.773913,17.8381643 13.1304348,17.8381643 C14.4869565,17.8381643 15.5652174,16.7898551 15.5652174,15.4710145 C15.5652174,14.1521739 14.4869565,13.1038647 13.1304348,13.1038647 Z M13.1304348,17.1618357 C12.1565217,17.1618357 11.3913043,16.4178744 11.3913043,15.4710145 C11.3913043,14.5241546 12.1565217,13.7801932 13.1304348,13.7801932 C14.1043478,13.7801932 14.8695652,14.5241546 14.8695652,15.4710145 C14.8695652,16.4178744 14.1043478,17.1618357 13.1304348,17.1618357 Z" id="Shape-Copy-5" stroke="#000000" stroke-width="0.1" fill="#000000" fill-rule="nonzero"></path>
                                <path d="M13.9130435,14.5410628 L12.7652174,15.6570048 L12.3130435,15.2173913 L11.826087,15.6908213 L12.5217391,16.3671498 C12.6608696,16.5024155 12.8695652,16.5024155 13.0086957,16.3671498 L14.4,15.0144928 L13.9130435,14.5410628 Z" id="Shape-Copy-4" stroke="#000000" stroke-width="0.1" fill="#000000" fill-rule="nonzero"></path>
                                <path d="M7.70185547,5.09249442 C7.70185547,5.09249442 8.14394531,4.65285528 9.028125,3.77357701 L10.4042411,5.09249442 L10.2229353,5.32003348 L10.2229353,7.05078125 L7.70185547,7.05078125 C7.70185547,5.7452567 7.70185547,5.09249442 7.70185547,5.09249442 Z" id="Path-27" stroke="#000000" stroke-width="0.1" fill="#000000"></path>
                            </g>
                        </g>
                    </g>
                </g>
            </g>
        </g>
    </g>
</svg>