<?xml version="1.0" encoding="UTF-8"?>
<svg width="22px" height="25px" viewBox="0 0 22 25" version="1.1" xmlns="http://www.w3.org/2000/svg" xmlns:xlink="http://www.w3.org/1999/xlink">
    <!-- Generator: Sketch 48.1 (47250) - http://www.bohemiancoding.com/sketch -->
    <title>PPT</title>
    <desc>Created with Sketch.</desc>
    <defs></defs>
    <g id="Proposal_PPT_1" stroke="none" stroke-width="1" fill="none" fill-rule="evenodd" transform="translate(-180.000000, -425.000000)">
        <g id="PPT" transform="translate(173.000000, 419.000000)" fill-rule="nonzero">
            <g id="ppt" transform="translate(7.200000, 6.000000)">
                <path d="M4.55,0 C3.6975,0 3,0.691875 3,1.5375 L3,23.0625 C3,23.908125 3.6975,24.6 4.55,24.6 L20.05,24.6 C20.9025,24.6 21.6,23.908125 21.6,23.0625 L21.6,6.15 L15.4,0 L4.55,0 Z" id="Shape" fill="#E2E5E7"></path>
                <path d="M17.1,6 L21.6,6 L15.6,0 L15.6,4.5 C15.6,5.325 16.275,6 17.1,6 Z" id="Shape" fill="#B0B7BD"></path>
                <polygon id="Shape" fill="#CAD1D8" points="21.6 10.8 16.8 6 21.6 6"></polygon>
                <path d="M18.6,19.65 C18.6,20.0625 18.25125,20.4 17.825,20.4 L0.775,20.4 C0.34875,20.4 0,20.0625 0,19.65 L0,12.15 C0,11.7375 0.34875,11.4 0.775,11.4 L17.825,11.4 C18.25125,11.4 18.6,11.7375 18.6,12.15 L18.6,19.65 Z" id="Shape" fill="#8C031F"></path>
                <g id="Group" transform="translate(3.600000, 14.400000)" fill="#FFFFFF">
                    <path d="M0.0224262295,0.4224 C0.0224262295,0.227446154 0.186098361,0.0147692308 0.449704918,0.0147692308 L1.90308197,0.0147692308 C2.72144262,0.0147692308 3.45796721,0.528738462 3.45796721,1.51384615 C3.45796721,2.44726154 2.72144262,2.96713846 1.90308197,2.96713846 L0.852590164,2.96713846 L0.852590164,3.74695385 C0.852590164,4.00689231 0.677114754,4.15384615 0.450491803,4.15384615 C0.242754098,4.15384615 0.0232131148,4.00689231 0.0232131148,3.74695385 L0.0232131148,0.4224 L0.0224262295,0.4224 Z M0.852590164,0.7584 L0.852590164,2.22941538 L1.90308197,2.22941538 C2.32485246,2.22941538 2.6584918,1.88012308 2.6584918,1.51384615 C2.6584918,1.10104615 2.32485246,0.7584 1.90308197,0.7584 L0.852590164,0.7584 Z" id="Shape"></path>
                    <path d="M4.25980328,0.4224 C4.25980328,0.227446154 4.42347541,0.0147692308 4.68786885,0.0147692308 L6.1412459,0.0147692308 C6.95960656,0.0147692308 7.69613115,0.528738462 7.69613115,1.51384615 C7.69613115,2.44726154 6.95960656,2.96713846 6.1412459,2.96713846 L5.0907541,2.96713846 L5.0907541,3.74695385 C5.0907541,4.00689231 4.9144918,4.15384615 4.68786885,4.15384615 C4.48013115,4.15384615 4.25980328,4.00689231 4.25980328,3.74695385 L4.25980328,0.4224 Z M5.08996721,0.7584 L5.08996721,2.22941538 L6.14045902,2.22941538 C6.56222951,2.22941538 6.89586885,1.88012308 6.89586885,1.51384615 C6.89586885,1.10104615 6.56222951,0.7584 6.14045902,0.7584 L5.08996721,0.7584 Z" id="Shape"></path>
                    <path d="M9.67278689,0.8064 L8.57272131,0.8064 C8.02504918,0.8064 8.02504918,0.0509538462 8.57272131,0.0509538462 L11.5479344,0.0509538462 C12.1081967,0.0509538462 12.1081967,0.8064 11.5479344,0.8064 L10.5037377,0.8064 L10.5037377,3.78830769 C10.5037377,4.30153846 9.67278689,4.31409231 9.67278689,3.78830769 L9.67278689,0.8064 Z" id="Shape"></path>
                </g>
                <path d="M17.82,20.7 L3,20.7 L3,21.6 L17.82,21.6 C18.249,21.6 18.6,21.195 18.6,20.7 L18.6,19.8 C18.6,20.295 18.249,20.7 17.82,20.7 Z" id="Shape" fill="#CAD1D8"></path>
            </g>
        </g>
    </g>
</svg>